G04 #@! TF.GenerationSoftware,KiCad,Pcbnew,(5.1.10)-1*
G04 #@! TF.CreationDate,2021-09-28T21:06:42+02:00*
G04 #@! TF.ProjectId,SheepyPad,53686565-7079-4506-9164-2e6b69636164,rev?*
G04 #@! TF.SameCoordinates,Original*
G04 #@! TF.FileFunction,Legend,Bot*
G04 #@! TF.FilePolarity,Positive*
%FSLAX46Y46*%
G04 Gerber Fmt 4.6, Leading zero omitted, Abs format (unit mm)*
G04 Created by KiCad (PCBNEW (5.1.10)-1) date 2021-09-28 21:06:42*
%MOMM*%
%LPD*%
G01*
G04 APERTURE LIST*
%ADD10C,0.150000*%
%ADD11C,0.010000*%
%ADD12C,0.120000*%
%ADD13C,1.600000*%
%ADD14O,1.600000X1.600000*%
%ADD15R,1.600000X1.600000*%
%ADD16O,1.700000X1.700000*%
%ADD17R,1.700000X1.700000*%
%ADD18R,1.500000X1.000000*%
%ADD19C,2.000000*%
%ADD20C,2.250000*%
%ADD21C,3.987800*%
%ADD22C,1.750000*%
%ADD23R,2.000000X2.000000*%
%ADD24R,2.000000X3.200000*%
G04 APERTURE END LIST*
D10*
X98665714Y-98468571D02*
X98665714Y-96968571D01*
X98308571Y-96968571D01*
X98094285Y-97040000D01*
X97951428Y-97182857D01*
X97880000Y-97325714D01*
X97808571Y-97611428D01*
X97808571Y-97825714D01*
X97880000Y-98111428D01*
X97951428Y-98254285D01*
X98094285Y-98397142D01*
X98308571Y-98468571D01*
X98665714Y-98468571D01*
X96594285Y-98397142D02*
X96737142Y-98468571D01*
X97022857Y-98468571D01*
X97165714Y-98397142D01*
X97237142Y-98254285D01*
X97237142Y-97682857D01*
X97165714Y-97540000D01*
X97022857Y-97468571D01*
X96737142Y-97468571D01*
X96594285Y-97540000D01*
X96522857Y-97682857D01*
X96522857Y-97825714D01*
X97237142Y-97968571D01*
X95951428Y-98397142D02*
X95808571Y-98468571D01*
X95522857Y-98468571D01*
X95380000Y-98397142D01*
X95308571Y-98254285D01*
X95308571Y-98182857D01*
X95380000Y-98040000D01*
X95522857Y-97968571D01*
X95737142Y-97968571D01*
X95880000Y-97897142D01*
X95951428Y-97754285D01*
X95951428Y-97682857D01*
X95880000Y-97540000D01*
X95737142Y-97468571D01*
X95522857Y-97468571D01*
X95380000Y-97540000D01*
X94665714Y-98468571D02*
X94665714Y-97468571D01*
X94665714Y-96968571D02*
X94737142Y-97040000D01*
X94665714Y-97111428D01*
X94594285Y-97040000D01*
X94665714Y-96968571D01*
X94665714Y-97111428D01*
X93308571Y-97468571D02*
X93308571Y-98682857D01*
X93380000Y-98825714D01*
X93451428Y-98897142D01*
X93594285Y-98968571D01*
X93808571Y-98968571D01*
X93951428Y-98897142D01*
X93308571Y-98397142D02*
X93451428Y-98468571D01*
X93737142Y-98468571D01*
X93880000Y-98397142D01*
X93951428Y-98325714D01*
X94022857Y-98182857D01*
X94022857Y-97754285D01*
X93951428Y-97611428D01*
X93880000Y-97540000D01*
X93737142Y-97468571D01*
X93451428Y-97468571D01*
X93308571Y-97540000D01*
X92594285Y-97468571D02*
X92594285Y-98468571D01*
X92594285Y-97611428D02*
X92522857Y-97540000D01*
X92380000Y-97468571D01*
X92165714Y-97468571D01*
X92022857Y-97540000D01*
X91951428Y-97682857D01*
X91951428Y-98468571D01*
X90665714Y-98397142D02*
X90808571Y-98468571D01*
X91094285Y-98468571D01*
X91237142Y-98397142D01*
X91308571Y-98254285D01*
X91308571Y-97682857D01*
X91237142Y-97540000D01*
X91094285Y-97468571D01*
X90808571Y-97468571D01*
X90665714Y-97540000D01*
X90594285Y-97682857D01*
X90594285Y-97825714D01*
X91308571Y-97968571D01*
X89308571Y-98468571D02*
X89308571Y-96968571D01*
X89308571Y-98397142D02*
X89451428Y-98468571D01*
X89737142Y-98468571D01*
X89880000Y-98397142D01*
X89951428Y-98325714D01*
X90022857Y-98182857D01*
X90022857Y-97754285D01*
X89951428Y-97611428D01*
X89880000Y-97540000D01*
X89737142Y-97468571D01*
X89451428Y-97468571D01*
X89308571Y-97540000D01*
X87451428Y-98468571D02*
X87451428Y-96968571D01*
X87451428Y-97540000D02*
X87308571Y-97468571D01*
X87022857Y-97468571D01*
X86880000Y-97540000D01*
X86808571Y-97611428D01*
X86737142Y-97754285D01*
X86737142Y-98182857D01*
X86808571Y-98325714D01*
X86880000Y-98397142D01*
X87022857Y-98468571D01*
X87308571Y-98468571D01*
X87451428Y-98397142D01*
X86237142Y-97468571D02*
X85880000Y-98468571D01*
X85522857Y-97468571D02*
X85880000Y-98468571D01*
X86022857Y-98825714D01*
X86094285Y-98897142D01*
X86237142Y-98968571D01*
X82951428Y-98325714D02*
X83022857Y-98397142D01*
X83237142Y-98468571D01*
X83380000Y-98468571D01*
X83594285Y-98397142D01*
X83737142Y-98254285D01*
X83808571Y-98111428D01*
X83880000Y-97825714D01*
X83880000Y-97611428D01*
X83808571Y-97325714D01*
X83737142Y-97182857D01*
X83594285Y-97040000D01*
X83380000Y-96968571D01*
X83237142Y-96968571D01*
X83022857Y-97040000D01*
X82951428Y-97111428D01*
X82308571Y-98468571D02*
X82308571Y-97468571D01*
X82308571Y-96968571D02*
X82380000Y-97040000D01*
X82308571Y-97111428D01*
X82237142Y-97040000D01*
X82308571Y-96968571D01*
X82308571Y-97111428D01*
X81594285Y-97468571D02*
X81594285Y-98968571D01*
X81594285Y-97540000D02*
X81451428Y-97468571D01*
X81165714Y-97468571D01*
X81022857Y-97540000D01*
X80951428Y-97611428D01*
X80880000Y-97754285D01*
X80880000Y-98182857D01*
X80951428Y-98325714D01*
X81022857Y-98397142D01*
X81165714Y-98468571D01*
X81451428Y-98468571D01*
X81594285Y-98397142D01*
X79594285Y-97468571D02*
X79594285Y-98468571D01*
X80237142Y-97468571D02*
X80237142Y-98254285D01*
X80165714Y-98397142D01*
X80022857Y-98468571D01*
X79808571Y-98468571D01*
X79665714Y-98397142D01*
X79594285Y-98325714D01*
X78665714Y-98468571D02*
X78808571Y-98397142D01*
X78880000Y-98254285D01*
X78880000Y-96968571D01*
X77880000Y-98468571D02*
X78022857Y-98397142D01*
X78094285Y-98325714D01*
X78165714Y-98182857D01*
X78165714Y-97754285D01*
X78094285Y-97611428D01*
X78022857Y-97540000D01*
X77880000Y-97468571D01*
X77665714Y-97468571D01*
X77522857Y-97540000D01*
X77451428Y-97611428D01*
X77380000Y-97754285D01*
X77380000Y-98182857D01*
X77451428Y-98325714D01*
X77522857Y-98397142D01*
X77665714Y-98468571D01*
X77880000Y-98468571D01*
X76951428Y-97468571D02*
X76380000Y-97468571D01*
X76737142Y-96968571D02*
X76737142Y-98254285D01*
X76665714Y-98397142D01*
X76522857Y-98468571D01*
X76380000Y-98468571D01*
D11*
G36*
X92865597Y-70904832D02*
G01*
X92557971Y-70920977D01*
X92310356Y-70946554D01*
X92149884Y-70981562D01*
X92107564Y-71006026D01*
X91989808Y-71073664D01*
X91815721Y-71103634D01*
X91806512Y-71103718D01*
X91662656Y-71112895D01*
X91601819Y-71166194D01*
X91589782Y-71302268D01*
X91590297Y-71347949D01*
X91604620Y-71766279D01*
X91632870Y-72180676D01*
X91671962Y-72564485D01*
X91718814Y-72891054D01*
X91770340Y-73133729D01*
X91809635Y-73243567D01*
X91875059Y-73390788D01*
X91895596Y-73481765D01*
X91892184Y-73490038D01*
X91816857Y-73483394D01*
X91680366Y-73414060D01*
X91518073Y-73306808D01*
X91365340Y-73186410D01*
X91257530Y-73077635D01*
X91228315Y-73025000D01*
X91208357Y-72909835D01*
X91175599Y-72697664D01*
X91134876Y-72420537D01*
X91098073Y-72161188D01*
X91042869Y-71782469D01*
X90997868Y-71516826D01*
X90959348Y-71347822D01*
X90923583Y-71259023D01*
X90887961Y-71233975D01*
X90819588Y-71265320D01*
X90672294Y-71347519D01*
X90477882Y-71462820D01*
X90476670Y-71463557D01*
X90098737Y-71693139D01*
X89934246Y-72394624D01*
X89765193Y-73045540D01*
X89580708Y-73629016D01*
X89386941Y-74129002D01*
X89190045Y-74529445D01*
X89016042Y-74790491D01*
X88880918Y-74970868D01*
X88782553Y-75146851D01*
X88703982Y-75358270D01*
X88628240Y-75644956D01*
X88599945Y-75767414D01*
X88454192Y-76411667D01*
X88589125Y-77250829D01*
X88648988Y-77616356D01*
X88696316Y-77875684D01*
X88738286Y-78051371D01*
X88782075Y-78165975D01*
X88834862Y-78242053D01*
X88903823Y-78302162D01*
X88929667Y-78321123D01*
X89011691Y-78406205D01*
X89019451Y-78454344D01*
X89051641Y-78488398D01*
X89153906Y-78498734D01*
X89324280Y-78435534D01*
X89400750Y-78340432D01*
X89476412Y-78241651D01*
X89528915Y-78269451D01*
X89557632Y-78422120D01*
X89561934Y-78697947D01*
X89559610Y-78773136D01*
X89542477Y-79084485D01*
X89518103Y-79270672D01*
X89485073Y-79336663D01*
X89441972Y-79287423D01*
X89424930Y-79245739D01*
X89373025Y-79143285D01*
X89339381Y-79125576D01*
X89330878Y-79194573D01*
X89322598Y-79366202D01*
X89314964Y-79612838D01*
X89308400Y-79906856D01*
X89303331Y-80220631D01*
X89300181Y-80526540D01*
X89299374Y-80796956D01*
X89301333Y-81004256D01*
X89306482Y-81120815D01*
X89308563Y-81133462D01*
X89322320Y-81217007D01*
X89334335Y-81314962D01*
X89339089Y-81403356D01*
X89309394Y-81414566D01*
X89220817Y-81343831D01*
X89149805Y-81279001D01*
X88952317Y-81101466D01*
X88816765Y-81000008D01*
X88710721Y-80960916D01*
X88601755Y-80970482D01*
X88495469Y-81002374D01*
X88265000Y-81078435D01*
X88265000Y-83217565D01*
X98359871Y-83217565D01*
X98359871Y-81154370D01*
X98193987Y-81078788D01*
X97987608Y-81012947D01*
X97809904Y-81035188D01*
X97620109Y-81154892D01*
X97533111Y-81230843D01*
X97381970Y-81360505D01*
X97266561Y-81443094D01*
X97229292Y-81458792D01*
X97210847Y-81398363D01*
X97203447Y-81234193D01*
X97207415Y-80992356D01*
X97215472Y-80834780D01*
X94824622Y-80834780D01*
X94823579Y-81017466D01*
X94810960Y-81278840D01*
X94787662Y-81593463D01*
X94781127Y-81668017D01*
X94742613Y-82050767D01*
X94705005Y-82320900D01*
X94664901Y-82495985D01*
X94618900Y-82593590D01*
X94597756Y-82615129D01*
X94467089Y-82689173D01*
X94379073Y-82654923D01*
X94332821Y-82582565D01*
X94285878Y-82456719D01*
X94228652Y-82256303D01*
X94193195Y-82110385D01*
X94114600Y-81854357D01*
X94005897Y-81607266D01*
X93947782Y-81507949D01*
X93783182Y-81263718D01*
X93285488Y-81263718D01*
X92976746Y-81277156D01*
X92766782Y-81331518D01*
X92625639Y-81447879D01*
X92523360Y-81647310D01*
X92459715Y-81844616D01*
X92385466Y-82100623D01*
X92308810Y-82363274D01*
X92292243Y-82419744D01*
X92217240Y-82613754D01*
X92131804Y-82688154D01*
X92018484Y-82653404D01*
X91966182Y-82615129D01*
X91916912Y-82536634D01*
X91874446Y-82377090D01*
X91835862Y-82120876D01*
X91798236Y-81752371D01*
X91792547Y-81687052D01*
X91764126Y-81338620D01*
X91749620Y-81097008D01*
X91750004Y-80939426D01*
X91766255Y-80843080D01*
X91799348Y-80785180D01*
X91832402Y-80755810D01*
X91903774Y-80726527D01*
X92037937Y-80705543D01*
X92248990Y-80692255D01*
X92551035Y-80686061D01*
X92958170Y-80686357D01*
X93355990Y-80690682D01*
X93772381Y-80698431D01*
X94144335Y-80709185D01*
X94452301Y-80722063D01*
X94676725Y-80736186D01*
X94798055Y-80750676D01*
X94813195Y-80756222D01*
X94824622Y-80834780D01*
X97215472Y-80834780D01*
X97220371Y-80738973D01*
X97238816Y-80412788D01*
X97242588Y-80192381D01*
X97230187Y-80053939D01*
X97200110Y-79973653D01*
X97170095Y-79941153D01*
X97121668Y-79862627D01*
X97084350Y-79703380D01*
X97055336Y-79446383D01*
X97033849Y-79114488D01*
X97020511Y-78706601D01*
X97021979Y-78658590D01*
X96340897Y-78658590D01*
X96317068Y-78712198D01*
X96297478Y-78702009D01*
X96289684Y-78624717D01*
X96297478Y-78615171D01*
X96336197Y-78624111D01*
X96340897Y-78658590D01*
X97021979Y-78658590D01*
X97029183Y-78423018D01*
X97059668Y-78264800D01*
X97111764Y-78233008D01*
X97182855Y-78324150D01*
X97270343Y-78434159D01*
X97378501Y-78445206D01*
X97530732Y-78355042D01*
X97618137Y-78282351D01*
X97712106Y-78189387D01*
X97780583Y-78084002D01*
X97834616Y-77936578D01*
X97885256Y-77717497D01*
X97939393Y-77421154D01*
X98008238Y-76986763D01*
X98044353Y-76638943D01*
X98047565Y-76338144D01*
X98017701Y-76044817D01*
X97954588Y-75719410D01*
X97931508Y-75619583D01*
X97854341Y-75328301D01*
X97772836Y-75120211D01*
X97664721Y-74949489D01*
X97530384Y-74794312D01*
X97413336Y-74659119D01*
X97316612Y-74516215D01*
X97227677Y-74339077D01*
X97133996Y-74101177D01*
X97023036Y-73775992D01*
X96966010Y-73599985D01*
X96858898Y-73262275D01*
X96763696Y-72954661D01*
X96688956Y-72705315D01*
X96643226Y-72542406D01*
X96635993Y-72512572D01*
X96600574Y-72385347D01*
X96571045Y-72358228D01*
X96547006Y-72435907D01*
X96528058Y-72623074D01*
X96513802Y-72924419D01*
X96503838Y-73344633D01*
X96497767Y-73888406D01*
X96496286Y-74153886D01*
X96488854Y-75890641D01*
X95906729Y-75923206D01*
X95541218Y-75956980D01*
X95280623Y-76010330D01*
X95165186Y-76059869D01*
X94989234Y-76154139D01*
X94784292Y-76238135D01*
X94777820Y-76240323D01*
X94585747Y-76322189D01*
X94415964Y-76423738D01*
X94298541Y-76523040D01*
X94263550Y-76598166D01*
X94270737Y-76610140D01*
X94353121Y-76621768D01*
X94524146Y-76608149D01*
X94725662Y-76575997D01*
X95018793Y-76521398D01*
X95327725Y-76466306D01*
X95494230Y-76437897D01*
X95722046Y-76398585D01*
X95915531Y-76362567D01*
X95992733Y-76346564D01*
X96106196Y-76354319D01*
X96209233Y-76451932D01*
X96267089Y-76541838D01*
X96401147Y-76769050D01*
X96211436Y-76867153D01*
X96077281Y-76913454D01*
X95873452Y-76943913D01*
X95579506Y-76960514D01*
X95200544Y-76965257D01*
X94829767Y-76970135D01*
X94574081Y-76984466D01*
X94438936Y-77007795D01*
X94419615Y-77030385D01*
X94498899Y-77056728D01*
X94687256Y-77077409D01*
X94963565Y-77090858D01*
X95297073Y-77095513D01*
X95644928Y-77094122D01*
X95894329Y-77086409D01*
X96077078Y-77067063D01*
X96224973Y-77030773D01*
X96369815Y-76972229D01*
X96539774Y-76887977D01*
X96764392Y-76764563D01*
X96910862Y-76649779D01*
X97020660Y-76500708D01*
X97135260Y-76274431D01*
X97137683Y-76269259D01*
X97236297Y-76065715D01*
X97313952Y-75918675D01*
X97354672Y-75858287D01*
X97355586Y-75858077D01*
X97395401Y-75911498D01*
X97475245Y-76051525D01*
X97577500Y-76247196D01*
X97773926Y-76636314D01*
X97549545Y-77115572D01*
X97367621Y-77453439D01*
X97170436Y-77706224D01*
X97017911Y-77846601D01*
X96826781Y-78005071D01*
X96657226Y-78148787D01*
X96574624Y-78221058D01*
X96453816Y-78321827D01*
X96268186Y-78467792D01*
X96059215Y-78626379D01*
X95738709Y-78905284D01*
X95493501Y-79219883D01*
X95301067Y-79604260D01*
X95177122Y-79961154D01*
X95103726Y-80203071D01*
X95043749Y-80400133D01*
X95008261Y-80515981D01*
X95005133Y-80526026D01*
X94944981Y-80556663D01*
X94799750Y-80508495D01*
X94735448Y-80477179D01*
X94633712Y-80432205D01*
X94516859Y-80399326D01*
X94363600Y-80376711D01*
X94152646Y-80362527D01*
X93862707Y-80354943D01*
X93472492Y-80352126D01*
X93279872Y-80351923D01*
X92840065Y-80353459D01*
X92509510Y-80359223D01*
X92267224Y-80370955D01*
X92092227Y-80390392D01*
X91963537Y-80419272D01*
X91860173Y-80459333D01*
X91835273Y-80471583D01*
X91600568Y-80591242D01*
X91420089Y-80002893D01*
X91322419Y-79713801D01*
X91216348Y-79446252D01*
X91119626Y-79243613D01*
X91087433Y-79190300D01*
X90992375Y-79039935D01*
X90939278Y-78935971D01*
X90935256Y-78919399D01*
X90982057Y-78861851D01*
X91108768Y-78739315D01*
X91294852Y-78569732D01*
X91519774Y-78371040D01*
X91762997Y-78161181D01*
X92003983Y-77958095D01*
X92222197Y-77779722D01*
X92384359Y-77653489D01*
X92551730Y-77501811D01*
X92621971Y-77356910D01*
X92628589Y-77283168D01*
X92615059Y-77156961D01*
X92548259Y-77105203D01*
X92400641Y-77095513D01*
X92249939Y-77081636D01*
X92174648Y-77047517D01*
X92172692Y-77040293D01*
X92111522Y-77017219D01*
X91943673Y-76992029D01*
X91692637Y-76967349D01*
X91381904Y-76945807D01*
X91277179Y-76940178D01*
X90869452Y-76916202D01*
X90578260Y-76887420D01*
X90483899Y-76867565D01*
X89567564Y-76867565D01*
X89535000Y-76900129D01*
X89502436Y-76867565D01*
X89535000Y-76835000D01*
X89567564Y-76867565D01*
X90483899Y-76867565D01*
X90389889Y-76847784D01*
X90290623Y-76791244D01*
X90266749Y-76711752D01*
X90304550Y-76603257D01*
X90346316Y-76529598D01*
X90476556Y-76377088D01*
X90589308Y-76349249D01*
X90836888Y-76399540D01*
X91132498Y-76455769D01*
X91445522Y-76512588D01*
X91745340Y-76564648D01*
X92001336Y-76606602D01*
X92182891Y-76633101D01*
X92251563Y-76639616D01*
X92346350Y-76609263D01*
X92343946Y-76540416D01*
X92334701Y-76475740D01*
X92405281Y-76494894D01*
X92434258Y-76509923D01*
X92556409Y-76538231D01*
X92782926Y-76556435D01*
X93088205Y-76563093D01*
X93328305Y-76560276D01*
X94093974Y-76541923D01*
X94113863Y-76303140D01*
X94125938Y-76216644D01*
X92405238Y-76216644D01*
X92401209Y-76334235D01*
X92359790Y-76379103D01*
X92323552Y-76334533D01*
X92334096Y-76297693D01*
X92334460Y-76275736D01*
X92289369Y-76330349D01*
X92210255Y-76412997D01*
X92172967Y-76424607D01*
X92097925Y-76388737D01*
X91948278Y-76322080D01*
X91879615Y-76292214D01*
X91661179Y-76191067D01*
X91455795Y-76085665D01*
X91423718Y-76067699D01*
X91221132Y-75995245D01*
X90912362Y-75943316D01*
X90674743Y-75923206D01*
X90121154Y-75890641D01*
X90108898Y-73904231D01*
X90105829Y-73317233D01*
X90105678Y-72855482D01*
X90109972Y-72513979D01*
X90120240Y-72287723D01*
X90138010Y-72171711D01*
X90164810Y-72160945D01*
X90202168Y-72250422D01*
X90251613Y-72435142D01*
X90314672Y-72710105D01*
X90380832Y-73014349D01*
X90437725Y-73266964D01*
X90482749Y-73415657D01*
X90529346Y-73484280D01*
X90590956Y-73496687D01*
X90646414Y-73485655D01*
X90714983Y-73468348D01*
X90763751Y-73470782D01*
X90801808Y-73513126D01*
X90838242Y-73615546D01*
X90882142Y-73798211D01*
X90942597Y-74081289D01*
X90967121Y-74197308D01*
X91051034Y-74590483D01*
X91119129Y-74879242D01*
X91183868Y-75086317D01*
X91257709Y-75234444D01*
X91353114Y-75346354D01*
X91482542Y-75444782D01*
X91658454Y-75552462D01*
X91734385Y-75597176D01*
X91967792Y-75738333D01*
X92162540Y-75862606D01*
X92287528Y-75949896D01*
X92310592Y-75969517D01*
X92372957Y-76077798D01*
X92405238Y-76216644D01*
X94125938Y-76216644D01*
X94127846Y-76202980D01*
X94161883Y-76115779D01*
X94231932Y-76027395D01*
X94353952Y-75923685D01*
X94543901Y-75790508D01*
X94817736Y-75613721D01*
X95072637Y-75453471D01*
X95247832Y-75321862D01*
X95349603Y-75170530D01*
X95411864Y-74971264D01*
X95528285Y-74488187D01*
X95616159Y-74116669D01*
X95678235Y-73841829D01*
X95717262Y-73648785D01*
X95735988Y-73522656D01*
X95737163Y-73448561D01*
X95723535Y-73411617D01*
X95702398Y-73398321D01*
X95648870Y-73343913D01*
X95654674Y-73321923D01*
X95625205Y-73294989D01*
X95524824Y-73302514D01*
X95401214Y-73301605D01*
X95363974Y-73260542D01*
X95325616Y-73194336D01*
X95207335Y-73220130D01*
X95004325Y-73339059D01*
X94989734Y-73348916D01*
X94841543Y-73441011D01*
X94744234Y-73485428D01*
X94727544Y-73484895D01*
X94730780Y-73414078D01*
X94765470Y-73257715D01*
X94805872Y-73112133D01*
X94843432Y-72941957D01*
X94882515Y-72692084D01*
X94920348Y-72391788D01*
X94954163Y-72070346D01*
X94981188Y-71757033D01*
X94998653Y-71481126D01*
X95003787Y-71271900D01*
X94993820Y-71158630D01*
X94991316Y-71152564D01*
X94915183Y-71119226D01*
X94764638Y-71103839D01*
X94749387Y-71103718D01*
X94575521Y-71075866D01*
X94454388Y-71008598D01*
X94452179Y-71006026D01*
X94354264Y-70965581D01*
X94153567Y-70934568D01*
X93877219Y-70912987D01*
X93552354Y-70900837D01*
X93206102Y-70898119D01*
X92865597Y-70904832D01*
G37*
X92865597Y-70904832D02*
X92557971Y-70920977D01*
X92310356Y-70946554D01*
X92149884Y-70981562D01*
X92107564Y-71006026D01*
X91989808Y-71073664D01*
X91815721Y-71103634D01*
X91806512Y-71103718D01*
X91662656Y-71112895D01*
X91601819Y-71166194D01*
X91589782Y-71302268D01*
X91590297Y-71347949D01*
X91604620Y-71766279D01*
X91632870Y-72180676D01*
X91671962Y-72564485D01*
X91718814Y-72891054D01*
X91770340Y-73133729D01*
X91809635Y-73243567D01*
X91875059Y-73390788D01*
X91895596Y-73481765D01*
X91892184Y-73490038D01*
X91816857Y-73483394D01*
X91680366Y-73414060D01*
X91518073Y-73306808D01*
X91365340Y-73186410D01*
X91257530Y-73077635D01*
X91228315Y-73025000D01*
X91208357Y-72909835D01*
X91175599Y-72697664D01*
X91134876Y-72420537D01*
X91098073Y-72161188D01*
X91042869Y-71782469D01*
X90997868Y-71516826D01*
X90959348Y-71347822D01*
X90923583Y-71259023D01*
X90887961Y-71233975D01*
X90819588Y-71265320D01*
X90672294Y-71347519D01*
X90477882Y-71462820D01*
X90476670Y-71463557D01*
X90098737Y-71693139D01*
X89934246Y-72394624D01*
X89765193Y-73045540D01*
X89580708Y-73629016D01*
X89386941Y-74129002D01*
X89190045Y-74529445D01*
X89016042Y-74790491D01*
X88880918Y-74970868D01*
X88782553Y-75146851D01*
X88703982Y-75358270D01*
X88628240Y-75644956D01*
X88599945Y-75767414D01*
X88454192Y-76411667D01*
X88589125Y-77250829D01*
X88648988Y-77616356D01*
X88696316Y-77875684D01*
X88738286Y-78051371D01*
X88782075Y-78165975D01*
X88834862Y-78242053D01*
X88903823Y-78302162D01*
X88929667Y-78321123D01*
X89011691Y-78406205D01*
X89019451Y-78454344D01*
X89051641Y-78488398D01*
X89153906Y-78498734D01*
X89324280Y-78435534D01*
X89400750Y-78340432D01*
X89476412Y-78241651D01*
X89528915Y-78269451D01*
X89557632Y-78422120D01*
X89561934Y-78697947D01*
X89559610Y-78773136D01*
X89542477Y-79084485D01*
X89518103Y-79270672D01*
X89485073Y-79336663D01*
X89441972Y-79287423D01*
X89424930Y-79245739D01*
X89373025Y-79143285D01*
X89339381Y-79125576D01*
X89330878Y-79194573D01*
X89322598Y-79366202D01*
X89314964Y-79612838D01*
X89308400Y-79906856D01*
X89303331Y-80220631D01*
X89300181Y-80526540D01*
X89299374Y-80796956D01*
X89301333Y-81004256D01*
X89306482Y-81120815D01*
X89308563Y-81133462D01*
X89322320Y-81217007D01*
X89334335Y-81314962D01*
X89339089Y-81403356D01*
X89309394Y-81414566D01*
X89220817Y-81343831D01*
X89149805Y-81279001D01*
X88952317Y-81101466D01*
X88816765Y-81000008D01*
X88710721Y-80960916D01*
X88601755Y-80970482D01*
X88495469Y-81002374D01*
X88265000Y-81078435D01*
X88265000Y-83217565D01*
X98359871Y-83217565D01*
X98359871Y-81154370D01*
X98193987Y-81078788D01*
X97987608Y-81012947D01*
X97809904Y-81035188D01*
X97620109Y-81154892D01*
X97533111Y-81230843D01*
X97381970Y-81360505D01*
X97266561Y-81443094D01*
X97229292Y-81458792D01*
X97210847Y-81398363D01*
X97203447Y-81234193D01*
X97207415Y-80992356D01*
X97215472Y-80834780D01*
X94824622Y-80834780D01*
X94823579Y-81017466D01*
X94810960Y-81278840D01*
X94787662Y-81593463D01*
X94781127Y-81668017D01*
X94742613Y-82050767D01*
X94705005Y-82320900D01*
X94664901Y-82495985D01*
X94618900Y-82593590D01*
X94597756Y-82615129D01*
X94467089Y-82689173D01*
X94379073Y-82654923D01*
X94332821Y-82582565D01*
X94285878Y-82456719D01*
X94228652Y-82256303D01*
X94193195Y-82110385D01*
X94114600Y-81854357D01*
X94005897Y-81607266D01*
X93947782Y-81507949D01*
X93783182Y-81263718D01*
X93285488Y-81263718D01*
X92976746Y-81277156D01*
X92766782Y-81331518D01*
X92625639Y-81447879D01*
X92523360Y-81647310D01*
X92459715Y-81844616D01*
X92385466Y-82100623D01*
X92308810Y-82363274D01*
X92292243Y-82419744D01*
X92217240Y-82613754D01*
X92131804Y-82688154D01*
X92018484Y-82653404D01*
X91966182Y-82615129D01*
X91916912Y-82536634D01*
X91874446Y-82377090D01*
X91835862Y-82120876D01*
X91798236Y-81752371D01*
X91792547Y-81687052D01*
X91764126Y-81338620D01*
X91749620Y-81097008D01*
X91750004Y-80939426D01*
X91766255Y-80843080D01*
X91799348Y-80785180D01*
X91832402Y-80755810D01*
X91903774Y-80726527D01*
X92037937Y-80705543D01*
X92248990Y-80692255D01*
X92551035Y-80686061D01*
X92958170Y-80686357D01*
X93355990Y-80690682D01*
X93772381Y-80698431D01*
X94144335Y-80709185D01*
X94452301Y-80722063D01*
X94676725Y-80736186D01*
X94798055Y-80750676D01*
X94813195Y-80756222D01*
X94824622Y-80834780D01*
X97215472Y-80834780D01*
X97220371Y-80738973D01*
X97238816Y-80412788D01*
X97242588Y-80192381D01*
X97230187Y-80053939D01*
X97200110Y-79973653D01*
X97170095Y-79941153D01*
X97121668Y-79862627D01*
X97084350Y-79703380D01*
X97055336Y-79446383D01*
X97033849Y-79114488D01*
X97020511Y-78706601D01*
X97021979Y-78658590D01*
X96340897Y-78658590D01*
X96317068Y-78712198D01*
X96297478Y-78702009D01*
X96289684Y-78624717D01*
X96297478Y-78615171D01*
X96336197Y-78624111D01*
X96340897Y-78658590D01*
X97021979Y-78658590D01*
X97029183Y-78423018D01*
X97059668Y-78264800D01*
X97111764Y-78233008D01*
X97182855Y-78324150D01*
X97270343Y-78434159D01*
X97378501Y-78445206D01*
X97530732Y-78355042D01*
X97618137Y-78282351D01*
X97712106Y-78189387D01*
X97780583Y-78084002D01*
X97834616Y-77936578D01*
X97885256Y-77717497D01*
X97939393Y-77421154D01*
X98008238Y-76986763D01*
X98044353Y-76638943D01*
X98047565Y-76338144D01*
X98017701Y-76044817D01*
X97954588Y-75719410D01*
X97931508Y-75619583D01*
X97854341Y-75328301D01*
X97772836Y-75120211D01*
X97664721Y-74949489D01*
X97530384Y-74794312D01*
X97413336Y-74659119D01*
X97316612Y-74516215D01*
X97227677Y-74339077D01*
X97133996Y-74101177D01*
X97023036Y-73775992D01*
X96966010Y-73599985D01*
X96858898Y-73262275D01*
X96763696Y-72954661D01*
X96688956Y-72705315D01*
X96643226Y-72542406D01*
X96635993Y-72512572D01*
X96600574Y-72385347D01*
X96571045Y-72358228D01*
X96547006Y-72435907D01*
X96528058Y-72623074D01*
X96513802Y-72924419D01*
X96503838Y-73344633D01*
X96497767Y-73888406D01*
X96496286Y-74153886D01*
X96488854Y-75890641D01*
X95906729Y-75923206D01*
X95541218Y-75956980D01*
X95280623Y-76010330D01*
X95165186Y-76059869D01*
X94989234Y-76154139D01*
X94784292Y-76238135D01*
X94777820Y-76240323D01*
X94585747Y-76322189D01*
X94415964Y-76423738D01*
X94298541Y-76523040D01*
X94263550Y-76598166D01*
X94270737Y-76610140D01*
X94353121Y-76621768D01*
X94524146Y-76608149D01*
X94725662Y-76575997D01*
X95018793Y-76521398D01*
X95327725Y-76466306D01*
X95494230Y-76437897D01*
X95722046Y-76398585D01*
X95915531Y-76362567D01*
X95992733Y-76346564D01*
X96106196Y-76354319D01*
X96209233Y-76451932D01*
X96267089Y-76541838D01*
X96401147Y-76769050D01*
X96211436Y-76867153D01*
X96077281Y-76913454D01*
X95873452Y-76943913D01*
X95579506Y-76960514D01*
X95200544Y-76965257D01*
X94829767Y-76970135D01*
X94574081Y-76984466D01*
X94438936Y-77007795D01*
X94419615Y-77030385D01*
X94498899Y-77056728D01*
X94687256Y-77077409D01*
X94963565Y-77090858D01*
X95297073Y-77095513D01*
X95644928Y-77094122D01*
X95894329Y-77086409D01*
X96077078Y-77067063D01*
X96224973Y-77030773D01*
X96369815Y-76972229D01*
X96539774Y-76887977D01*
X96764392Y-76764563D01*
X96910862Y-76649779D01*
X97020660Y-76500708D01*
X97135260Y-76274431D01*
X97137683Y-76269259D01*
X97236297Y-76065715D01*
X97313952Y-75918675D01*
X97354672Y-75858287D01*
X97355586Y-75858077D01*
X97395401Y-75911498D01*
X97475245Y-76051525D01*
X97577500Y-76247196D01*
X97773926Y-76636314D01*
X97549545Y-77115572D01*
X97367621Y-77453439D01*
X97170436Y-77706224D01*
X97017911Y-77846601D01*
X96826781Y-78005071D01*
X96657226Y-78148787D01*
X96574624Y-78221058D01*
X96453816Y-78321827D01*
X96268186Y-78467792D01*
X96059215Y-78626379D01*
X95738709Y-78905284D01*
X95493501Y-79219883D01*
X95301067Y-79604260D01*
X95177122Y-79961154D01*
X95103726Y-80203071D01*
X95043749Y-80400133D01*
X95008261Y-80515981D01*
X95005133Y-80526026D01*
X94944981Y-80556663D01*
X94799750Y-80508495D01*
X94735448Y-80477179D01*
X94633712Y-80432205D01*
X94516859Y-80399326D01*
X94363600Y-80376711D01*
X94152646Y-80362527D01*
X93862707Y-80354943D01*
X93472492Y-80352126D01*
X93279872Y-80351923D01*
X92840065Y-80353459D01*
X92509510Y-80359223D01*
X92267224Y-80370955D01*
X92092227Y-80390392D01*
X91963537Y-80419272D01*
X91860173Y-80459333D01*
X91835273Y-80471583D01*
X91600568Y-80591242D01*
X91420089Y-80002893D01*
X91322419Y-79713801D01*
X91216348Y-79446252D01*
X91119626Y-79243613D01*
X91087433Y-79190300D01*
X90992375Y-79039935D01*
X90939278Y-78935971D01*
X90935256Y-78919399D01*
X90982057Y-78861851D01*
X91108768Y-78739315D01*
X91294852Y-78569732D01*
X91519774Y-78371040D01*
X91762997Y-78161181D01*
X92003983Y-77958095D01*
X92222197Y-77779722D01*
X92384359Y-77653489D01*
X92551730Y-77501811D01*
X92621971Y-77356910D01*
X92628589Y-77283168D01*
X92615059Y-77156961D01*
X92548259Y-77105203D01*
X92400641Y-77095513D01*
X92249939Y-77081636D01*
X92174648Y-77047517D01*
X92172692Y-77040293D01*
X92111522Y-77017219D01*
X91943673Y-76992029D01*
X91692637Y-76967349D01*
X91381904Y-76945807D01*
X91277179Y-76940178D01*
X90869452Y-76916202D01*
X90578260Y-76887420D01*
X90483899Y-76867565D01*
X89567564Y-76867565D01*
X89535000Y-76900129D01*
X89502436Y-76867565D01*
X89535000Y-76835000D01*
X89567564Y-76867565D01*
X90483899Y-76867565D01*
X90389889Y-76847784D01*
X90290623Y-76791244D01*
X90266749Y-76711752D01*
X90304550Y-76603257D01*
X90346316Y-76529598D01*
X90476556Y-76377088D01*
X90589308Y-76349249D01*
X90836888Y-76399540D01*
X91132498Y-76455769D01*
X91445522Y-76512588D01*
X91745340Y-76564648D01*
X92001336Y-76606602D01*
X92182891Y-76633101D01*
X92251563Y-76639616D01*
X92346350Y-76609263D01*
X92343946Y-76540416D01*
X92334701Y-76475740D01*
X92405281Y-76494894D01*
X92434258Y-76509923D01*
X92556409Y-76538231D01*
X92782926Y-76556435D01*
X93088205Y-76563093D01*
X93328305Y-76560276D01*
X94093974Y-76541923D01*
X94113863Y-76303140D01*
X94125938Y-76216644D01*
X92405238Y-76216644D01*
X92401209Y-76334235D01*
X92359790Y-76379103D01*
X92323552Y-76334533D01*
X92334096Y-76297693D01*
X92334460Y-76275736D01*
X92289369Y-76330349D01*
X92210255Y-76412997D01*
X92172967Y-76424607D01*
X92097925Y-76388737D01*
X91948278Y-76322080D01*
X91879615Y-76292214D01*
X91661179Y-76191067D01*
X91455795Y-76085665D01*
X91423718Y-76067699D01*
X91221132Y-75995245D01*
X90912362Y-75943316D01*
X90674743Y-75923206D01*
X90121154Y-75890641D01*
X90108898Y-73904231D01*
X90105829Y-73317233D01*
X90105678Y-72855482D01*
X90109972Y-72513979D01*
X90120240Y-72287723D01*
X90138010Y-72171711D01*
X90164810Y-72160945D01*
X90202168Y-72250422D01*
X90251613Y-72435142D01*
X90314672Y-72710105D01*
X90380832Y-73014349D01*
X90437725Y-73266964D01*
X90482749Y-73415657D01*
X90529346Y-73484280D01*
X90590956Y-73496687D01*
X90646414Y-73485655D01*
X90714983Y-73468348D01*
X90763751Y-73470782D01*
X90801808Y-73513126D01*
X90838242Y-73615546D01*
X90882142Y-73798211D01*
X90942597Y-74081289D01*
X90967121Y-74197308D01*
X91051034Y-74590483D01*
X91119129Y-74879242D01*
X91183868Y-75086317D01*
X91257709Y-75234444D01*
X91353114Y-75346354D01*
X91482542Y-75444782D01*
X91658454Y-75552462D01*
X91734385Y-75597176D01*
X91967792Y-75738333D01*
X92162540Y-75862606D01*
X92287528Y-75949896D01*
X92310592Y-75969517D01*
X92372957Y-76077798D01*
X92405238Y-76216644D01*
X94125938Y-76216644D01*
X94127846Y-76202980D01*
X94161883Y-76115779D01*
X94231932Y-76027395D01*
X94353952Y-75923685D01*
X94543901Y-75790508D01*
X94817736Y-75613721D01*
X95072637Y-75453471D01*
X95247832Y-75321862D01*
X95349603Y-75170530D01*
X95411864Y-74971264D01*
X95528285Y-74488187D01*
X95616159Y-74116669D01*
X95678235Y-73841829D01*
X95717262Y-73648785D01*
X95735988Y-73522656D01*
X95737163Y-73448561D01*
X95723535Y-73411617D01*
X95702398Y-73398321D01*
X95648870Y-73343913D01*
X95654674Y-73321923D01*
X95625205Y-73294989D01*
X95524824Y-73302514D01*
X95401214Y-73301605D01*
X95363974Y-73260542D01*
X95325616Y-73194336D01*
X95207335Y-73220130D01*
X95004325Y-73339059D01*
X94989734Y-73348916D01*
X94841543Y-73441011D01*
X94744234Y-73485428D01*
X94727544Y-73484895D01*
X94730780Y-73414078D01*
X94765470Y-73257715D01*
X94805872Y-73112133D01*
X94843432Y-72941957D01*
X94882515Y-72692084D01*
X94920348Y-72391788D01*
X94954163Y-72070346D01*
X94981188Y-71757033D01*
X94998653Y-71481126D01*
X95003787Y-71271900D01*
X94993820Y-71158630D01*
X94991316Y-71152564D01*
X94915183Y-71119226D01*
X94764638Y-71103839D01*
X94749387Y-71103718D01*
X94575521Y-71075866D01*
X94454388Y-71008598D01*
X94452179Y-71006026D01*
X94354264Y-70965581D01*
X94153567Y-70934568D01*
X93877219Y-70912987D01*
X93552354Y-70900837D01*
X93206102Y-70898119D01*
X92865597Y-70904832D01*
G36*
X88981410Y-78756282D02*
G01*
X89013974Y-78788847D01*
X89046538Y-78756282D01*
X89013974Y-78723718D01*
X88981410Y-78756282D01*
G37*
X88981410Y-78756282D02*
X89013974Y-78788847D01*
X89046538Y-78756282D01*
X89013974Y-78723718D01*
X88981410Y-78756282D01*
G36*
X89046538Y-78626026D02*
G01*
X89079102Y-78658590D01*
X89111666Y-78626026D01*
X89079102Y-78593462D01*
X89046538Y-78626026D01*
G37*
X89046538Y-78626026D02*
X89079102Y-78658590D01*
X89111666Y-78626026D01*
X89079102Y-78593462D01*
X89046538Y-78626026D01*
G36*
X95697804Y-71323474D02*
G01*
X95708206Y-71389522D01*
X95715137Y-71413077D01*
X95729677Y-71516878D01*
X95746172Y-71724104D01*
X95762902Y-72007975D01*
X95778145Y-72341710D01*
X95782900Y-72467840D01*
X95799705Y-72858220D01*
X95819420Y-73135746D01*
X95844297Y-73317820D01*
X95876586Y-73421843D01*
X95911468Y-73461852D01*
X96007977Y-73483200D01*
X96036246Y-73465422D01*
X96063556Y-73379187D01*
X96104359Y-73205664D01*
X96141409Y-73025000D01*
X96234758Y-72563789D01*
X96313025Y-72225888D01*
X96377703Y-72005411D01*
X96426250Y-71901539D01*
X96447690Y-71801684D01*
X96364977Y-71685527D01*
X96169976Y-71544008D01*
X96033362Y-71463996D01*
X95838141Y-71357152D01*
X95733702Y-71311498D01*
X95697804Y-71323474D01*
G37*
X95697804Y-71323474D02*
X95708206Y-71389522D01*
X95715137Y-71413077D01*
X95729677Y-71516878D01*
X95746172Y-71724104D01*
X95762902Y-72007975D01*
X95778145Y-72341710D01*
X95782900Y-72467840D01*
X95799705Y-72858220D01*
X95819420Y-73135746D01*
X95844297Y-73317820D01*
X95876586Y-73421843D01*
X95911468Y-73461852D01*
X96007977Y-73483200D01*
X96036246Y-73465422D01*
X96063556Y-73379187D01*
X96104359Y-73205664D01*
X96141409Y-73025000D01*
X96234758Y-72563789D01*
X96313025Y-72225888D01*
X96377703Y-72005411D01*
X96426250Y-71901539D01*
X96447690Y-71801684D01*
X96364977Y-71685527D01*
X96169976Y-71544008D01*
X96033362Y-71463996D01*
X95838141Y-71357152D01*
X95733702Y-71311498D01*
X95697804Y-71323474D01*
G36*
X95363974Y-73090129D02*
G01*
X95396538Y-73122693D01*
X95429102Y-73090129D01*
X95396538Y-73057565D01*
X95363974Y-73090129D01*
G37*
X95363974Y-73090129D02*
X95396538Y-73122693D01*
X95429102Y-73090129D01*
X95396538Y-73057565D01*
X95363974Y-73090129D01*
D12*
X108745000Y-67520000D02*
X116045000Y-67520000D01*
X108745000Y-62020000D02*
X116045000Y-62020000D01*
X116045000Y-62020000D02*
X116045000Y-63170000D01*
X108745000Y-124670000D02*
X108745000Y-123520000D01*
X116045000Y-124670000D02*
X108745000Y-124670000D01*
X116045000Y-119170000D02*
X108745000Y-119170000D01*
X173515000Y-67520000D02*
X180815000Y-67520000D01*
X173515000Y-62020000D02*
X180815000Y-62020000D01*
X180815000Y-62020000D02*
X180815000Y-63170000D01*
X84295000Y-90595000D02*
X76995000Y-90595000D01*
X84295000Y-96095000D02*
X76995000Y-96095000D01*
X76995000Y-96095000D02*
X76995000Y-94945000D01*
X180815000Y-119170000D02*
X173515000Y-119170000D01*
X180815000Y-124670000D02*
X173515000Y-124670000D01*
X173515000Y-124670000D02*
X173515000Y-123520000D01*
X69690000Y-51860000D02*
X62390000Y-51860000D01*
X69690000Y-57360000D02*
X62390000Y-57360000D01*
X62390000Y-57360000D02*
X62390000Y-56210000D01*
D10*
X113609285Y-68722380D02*
X113609285Y-67722380D01*
X113371190Y-67722380D01*
X113228333Y-67770000D01*
X113133095Y-67865238D01*
X113085476Y-67960476D01*
X113037857Y-68150952D01*
X113037857Y-68293809D01*
X113085476Y-68484285D01*
X113133095Y-68579523D01*
X113228333Y-68674761D01*
X113371190Y-68722380D01*
X113609285Y-68722380D01*
X112656904Y-67817619D02*
X112609285Y-67770000D01*
X112514047Y-67722380D01*
X112275952Y-67722380D01*
X112180714Y-67770000D01*
X112133095Y-67817619D01*
X112085476Y-67912857D01*
X112085476Y-68008095D01*
X112133095Y-68150952D01*
X112704523Y-68722380D01*
X112085476Y-68722380D01*
X111752142Y-67722380D02*
X111085476Y-67722380D01*
X111514047Y-68722380D01*
X107959285Y-66822380D02*
X108530714Y-66822380D01*
X108245000Y-66822380D02*
X108245000Y-65822380D01*
X108340238Y-65965238D01*
X108435476Y-66060476D01*
X108530714Y-66108095D01*
X113609285Y-118872380D02*
X113609285Y-117872380D01*
X113371190Y-117872380D01*
X113228333Y-117920000D01*
X113133095Y-118015238D01*
X113085476Y-118110476D01*
X113037857Y-118300952D01*
X113037857Y-118443809D01*
X113085476Y-118634285D01*
X113133095Y-118729523D01*
X113228333Y-118824761D01*
X113371190Y-118872380D01*
X113609285Y-118872380D01*
X112656904Y-117967619D02*
X112609285Y-117920000D01*
X112514047Y-117872380D01*
X112275952Y-117872380D01*
X112180714Y-117920000D01*
X112133095Y-117967619D01*
X112085476Y-118062857D01*
X112085476Y-118158095D01*
X112133095Y-118300952D01*
X112704523Y-118872380D01*
X112085476Y-118872380D01*
X111228333Y-117872380D02*
X111418809Y-117872380D01*
X111514047Y-117920000D01*
X111561666Y-117967619D01*
X111656904Y-118110476D01*
X111704523Y-118300952D01*
X111704523Y-118681904D01*
X111656904Y-118777142D01*
X111609285Y-118824761D01*
X111514047Y-118872380D01*
X111323571Y-118872380D01*
X111228333Y-118824761D01*
X111180714Y-118777142D01*
X111133095Y-118681904D01*
X111133095Y-118443809D01*
X111180714Y-118348571D01*
X111228333Y-118300952D01*
X111323571Y-118253333D01*
X111514047Y-118253333D01*
X111609285Y-118300952D01*
X111656904Y-118348571D01*
X111704523Y-118443809D01*
X116259285Y-120772380D02*
X116830714Y-120772380D01*
X116545000Y-120772380D02*
X116545000Y-119772380D01*
X116640238Y-119915238D01*
X116735476Y-120010476D01*
X116830714Y-120058095D01*
X178379285Y-61412380D02*
X178379285Y-60412380D01*
X178141190Y-60412380D01*
X177998333Y-60460000D01*
X177903095Y-60555238D01*
X177855476Y-60650476D01*
X177807857Y-60840952D01*
X177807857Y-60983809D01*
X177855476Y-61174285D01*
X177903095Y-61269523D01*
X177998333Y-61364761D01*
X178141190Y-61412380D01*
X178379285Y-61412380D01*
X177426904Y-60507619D02*
X177379285Y-60460000D01*
X177284047Y-60412380D01*
X177045952Y-60412380D01*
X176950714Y-60460000D01*
X176903095Y-60507619D01*
X176855476Y-60602857D01*
X176855476Y-60698095D01*
X176903095Y-60840952D01*
X177474523Y-61412380D01*
X176855476Y-61412380D01*
X175950714Y-60412380D02*
X176426904Y-60412380D01*
X176474523Y-60888571D01*
X176426904Y-60840952D01*
X176331666Y-60793333D01*
X176093571Y-60793333D01*
X175998333Y-60840952D01*
X175950714Y-60888571D01*
X175903095Y-60983809D01*
X175903095Y-61221904D01*
X175950714Y-61317142D01*
X175998333Y-61364761D01*
X176093571Y-61412380D01*
X176331666Y-61412380D01*
X176426904Y-61364761D01*
X176474523Y-61317142D01*
X172729285Y-66822380D02*
X173300714Y-66822380D01*
X173015000Y-66822380D02*
X173015000Y-65822380D01*
X173110238Y-65965238D01*
X173205476Y-66060476D01*
X173300714Y-66108095D01*
X81859285Y-90297380D02*
X81859285Y-89297380D01*
X81621190Y-89297380D01*
X81478333Y-89345000D01*
X81383095Y-89440238D01*
X81335476Y-89535476D01*
X81287857Y-89725952D01*
X81287857Y-89868809D01*
X81335476Y-90059285D01*
X81383095Y-90154523D01*
X81478333Y-90249761D01*
X81621190Y-90297380D01*
X81859285Y-90297380D01*
X80906904Y-89392619D02*
X80859285Y-89345000D01*
X80764047Y-89297380D01*
X80525952Y-89297380D01*
X80430714Y-89345000D01*
X80383095Y-89392619D01*
X80335476Y-89487857D01*
X80335476Y-89583095D01*
X80383095Y-89725952D01*
X80954523Y-90297380D01*
X80335476Y-90297380D01*
X79478333Y-89630714D02*
X79478333Y-90297380D01*
X79716428Y-89249761D02*
X79954523Y-89964047D01*
X79335476Y-89964047D01*
X84509285Y-92197380D02*
X85080714Y-92197380D01*
X84795000Y-92197380D02*
X84795000Y-91197380D01*
X84890238Y-91340238D01*
X84985476Y-91435476D01*
X85080714Y-91483095D01*
X178379285Y-118872380D02*
X178379285Y-117872380D01*
X178141190Y-117872380D01*
X177998333Y-117920000D01*
X177903095Y-118015238D01*
X177855476Y-118110476D01*
X177807857Y-118300952D01*
X177807857Y-118443809D01*
X177855476Y-118634285D01*
X177903095Y-118729523D01*
X177998333Y-118824761D01*
X178141190Y-118872380D01*
X178379285Y-118872380D01*
X177426904Y-117967619D02*
X177379285Y-117920000D01*
X177284047Y-117872380D01*
X177045952Y-117872380D01*
X176950714Y-117920000D01*
X176903095Y-117967619D01*
X176855476Y-118062857D01*
X176855476Y-118158095D01*
X176903095Y-118300952D01*
X177474523Y-118872380D01*
X176855476Y-118872380D01*
X176522142Y-117872380D02*
X175903095Y-117872380D01*
X176236428Y-118253333D01*
X176093571Y-118253333D01*
X175998333Y-118300952D01*
X175950714Y-118348571D01*
X175903095Y-118443809D01*
X175903095Y-118681904D01*
X175950714Y-118777142D01*
X175998333Y-118824761D01*
X176093571Y-118872380D01*
X176379285Y-118872380D01*
X176474523Y-118824761D01*
X176522142Y-118777142D01*
X181029285Y-120772380D02*
X181600714Y-120772380D01*
X181315000Y-120772380D02*
X181315000Y-119772380D01*
X181410238Y-119915238D01*
X181505476Y-120010476D01*
X181600714Y-120058095D01*
X67254285Y-51562380D02*
X67254285Y-50562380D01*
X67016190Y-50562380D01*
X66873333Y-50610000D01*
X66778095Y-50705238D01*
X66730476Y-50800476D01*
X66682857Y-50990952D01*
X66682857Y-51133809D01*
X66730476Y-51324285D01*
X66778095Y-51419523D01*
X66873333Y-51514761D01*
X67016190Y-51562380D01*
X67254285Y-51562380D01*
X66301904Y-50657619D02*
X66254285Y-50610000D01*
X66159047Y-50562380D01*
X65920952Y-50562380D01*
X65825714Y-50610000D01*
X65778095Y-50657619D01*
X65730476Y-50752857D01*
X65730476Y-50848095D01*
X65778095Y-50990952D01*
X66349523Y-51562380D01*
X65730476Y-51562380D01*
X65349523Y-50657619D02*
X65301904Y-50610000D01*
X65206666Y-50562380D01*
X64968571Y-50562380D01*
X64873333Y-50610000D01*
X64825714Y-50657619D01*
X64778095Y-50752857D01*
X64778095Y-50848095D01*
X64825714Y-50990952D01*
X65397142Y-51562380D01*
X64778095Y-51562380D01*
X69904285Y-53462380D02*
X70475714Y-53462380D01*
X70190000Y-53462380D02*
X70190000Y-52462380D01*
X70285238Y-52605238D01*
X70380476Y-52700476D01*
X70475714Y-52748095D01*
%LPC*%
D13*
X71755000Y-57070000D03*
X71755000Y-52070000D03*
X125269000Y-64770000D03*
X120269000Y-64770000D03*
X163830000Y-64770000D03*
X168830000Y-64770000D03*
X163910000Y-121920000D03*
X168910000Y-121920000D03*
X125730000Y-121920000D03*
X120730000Y-121920000D03*
X83232000Y-88265000D03*
X78232000Y-88265000D03*
D14*
X94615000Y-46990000D03*
X92075000Y-46990000D03*
X89535000Y-46990000D03*
D15*
X66675000Y-62230000D03*
D14*
X86995000Y-46990000D03*
X69215000Y-62230000D03*
X84455000Y-46990000D03*
X71755000Y-62230000D03*
X81915000Y-46990000D03*
X74295000Y-62230000D03*
X79375000Y-46990000D03*
X76835000Y-62230000D03*
X76835000Y-46990000D03*
X79375000Y-62230000D03*
X74295000Y-46990000D03*
X81915000Y-62230000D03*
X71755000Y-46990000D03*
X84455000Y-62230000D03*
X69215000Y-46990000D03*
X86995000Y-62230000D03*
X66675000Y-46990000D03*
X89535000Y-62230000D03*
X92075000Y-62230000D03*
X94615000Y-62230000D03*
D16*
X61925000Y-87345000D03*
X61925000Y-89885000D03*
X61925000Y-92425000D03*
D17*
X61925000Y-94965000D03*
D18*
X109945000Y-66370000D03*
X109945000Y-63170000D03*
X114845000Y-66370000D03*
X114845000Y-63170000D03*
X109945000Y-123520000D03*
X109945000Y-120320000D03*
X114845000Y-123520000D03*
X114845000Y-120320000D03*
X174715000Y-66370000D03*
X174715000Y-63170000D03*
X179615000Y-66370000D03*
X179615000Y-63170000D03*
X83095000Y-91745000D03*
X83095000Y-94945000D03*
X78195000Y-91745000D03*
X78195000Y-94945000D03*
X179615000Y-120320000D03*
X179615000Y-123520000D03*
X174715000Y-120320000D03*
X174715000Y-123520000D03*
X68490000Y-53010000D03*
X68490000Y-56210000D03*
X63590000Y-53010000D03*
X63590000Y-56210000D03*
D19*
X102870000Y-58570000D03*
X98370000Y-58570000D03*
X102870000Y-52070000D03*
X98370000Y-52070000D03*
D14*
X86995000Y-58420000D03*
D13*
X76835000Y-58420000D03*
D14*
X69151500Y-69850000D03*
D15*
X69151500Y-80010000D03*
D20*
X118745000Y-50165000D03*
D21*
X116205000Y-55245000D03*
D20*
X112395000Y-52705000D03*
D22*
X111125000Y-55245000D03*
X121285000Y-55245000D03*
D20*
X118745000Y-107315000D03*
D21*
X116205000Y-112395000D03*
D20*
X112395000Y-109855000D03*
D22*
X111125000Y-112395000D03*
X121285000Y-112395000D03*
D14*
X144780000Y-69215000D03*
D15*
X144780000Y-79375000D03*
D23*
X81915000Y-67310000D03*
D19*
X79415000Y-67310000D03*
X76915000Y-67310000D03*
D24*
X85015000Y-74810000D03*
X73815000Y-74810000D03*
D19*
X81915000Y-81810000D03*
X76915000Y-81810000D03*
D20*
X175895000Y-126365000D03*
D21*
X173355000Y-131445000D03*
D20*
X169545000Y-128905000D03*
D22*
X168275000Y-131445000D03*
X178435000Y-131445000D03*
D20*
X175895000Y-107315000D03*
D21*
X173355000Y-112395000D03*
D20*
X169545000Y-109855000D03*
D22*
X168275000Y-112395000D03*
X178435000Y-112395000D03*
D20*
X175895000Y-88265000D03*
D21*
X173355000Y-93345000D03*
D20*
X169545000Y-90805000D03*
D22*
X168275000Y-93345000D03*
X178435000Y-93345000D03*
D20*
X175895000Y-69215000D03*
D21*
X173355000Y-74295000D03*
D20*
X169545000Y-71755000D03*
D22*
X168275000Y-74295000D03*
X178435000Y-74295000D03*
D20*
X175895000Y-50165000D03*
D21*
X173355000Y-55245000D03*
D20*
X169545000Y-52705000D03*
D22*
X168275000Y-55245000D03*
X178435000Y-55245000D03*
D20*
X156845000Y-126365000D03*
D21*
X154305000Y-131445000D03*
D20*
X150495000Y-128905000D03*
D22*
X149225000Y-131445000D03*
X159385000Y-131445000D03*
D20*
X156845000Y-107315000D03*
D21*
X154305000Y-112395000D03*
D20*
X150495000Y-109855000D03*
D22*
X149225000Y-112395000D03*
X159385000Y-112395000D03*
D20*
X156845000Y-88265000D03*
D21*
X154305000Y-93345000D03*
D20*
X150495000Y-90805000D03*
D22*
X149225000Y-93345000D03*
X159385000Y-93345000D03*
D20*
X156845000Y-69215000D03*
D21*
X154305000Y-74295000D03*
D20*
X150495000Y-71755000D03*
D22*
X149225000Y-74295000D03*
X159385000Y-74295000D03*
D20*
X156845000Y-50165000D03*
D21*
X154305000Y-55245000D03*
D20*
X150495000Y-52705000D03*
D22*
X149225000Y-55245000D03*
X159385000Y-55245000D03*
D20*
X137795000Y-126365000D03*
D21*
X135255000Y-131445000D03*
D20*
X131445000Y-128905000D03*
D22*
X130175000Y-131445000D03*
X140335000Y-131445000D03*
D20*
X137795000Y-107315000D03*
D21*
X135255000Y-112395000D03*
D20*
X131445000Y-109855000D03*
D22*
X130175000Y-112395000D03*
X140335000Y-112395000D03*
D20*
X137795000Y-88265000D03*
D21*
X135255000Y-93345000D03*
D20*
X131445000Y-90805000D03*
D22*
X130175000Y-93345000D03*
X140335000Y-93345000D03*
D20*
X137795000Y-69215000D03*
D21*
X135255000Y-74295000D03*
D20*
X131445000Y-71755000D03*
D22*
X130175000Y-74295000D03*
X140335000Y-74295000D03*
D20*
X137795000Y-50165000D03*
D21*
X135255000Y-55245000D03*
D20*
X131445000Y-52705000D03*
D22*
X130175000Y-55245000D03*
X140335000Y-55245000D03*
D20*
X118745000Y-126365000D03*
D21*
X116205000Y-131445000D03*
D20*
X112395000Y-128905000D03*
D22*
X111125000Y-131445000D03*
X121285000Y-131445000D03*
D20*
X118745000Y-88265000D03*
D21*
X116205000Y-93345000D03*
D20*
X112395000Y-90805000D03*
D22*
X111125000Y-93345000D03*
X121285000Y-93345000D03*
D20*
X118745000Y-69215000D03*
D21*
X116205000Y-74295000D03*
D20*
X112395000Y-71755000D03*
D22*
X111125000Y-74295000D03*
X121285000Y-74295000D03*
D14*
X163830000Y-126365000D03*
D15*
X163830000Y-136525000D03*
D14*
X163830000Y-107315000D03*
D15*
X163830000Y-117475000D03*
D14*
X163830000Y-88265000D03*
D15*
X163830000Y-98425000D03*
D14*
X163830000Y-69215000D03*
D15*
X163830000Y-79375000D03*
D14*
X163830000Y-50165000D03*
D15*
X163830000Y-60325000D03*
D14*
X144780000Y-126365000D03*
D15*
X144780000Y-136525000D03*
D14*
X144780000Y-107315000D03*
D15*
X144780000Y-117475000D03*
D14*
X144780000Y-88265000D03*
D15*
X144780000Y-98425000D03*
D14*
X144780000Y-50165000D03*
D15*
X144780000Y-60325000D03*
D14*
X125730000Y-126365000D03*
D15*
X125730000Y-136525000D03*
D14*
X125730000Y-107315000D03*
D15*
X125730000Y-117475000D03*
D14*
X125730000Y-88265000D03*
D15*
X125730000Y-98425000D03*
D14*
X125730000Y-69215000D03*
D15*
X125730000Y-79375000D03*
D14*
X125730000Y-50165000D03*
D15*
X125730000Y-60325000D03*
D14*
X106680000Y-126365000D03*
D15*
X106680000Y-136525000D03*
D14*
X106680000Y-107315000D03*
D15*
X106680000Y-117475000D03*
D14*
X106680000Y-88265000D03*
D15*
X106680000Y-98425000D03*
D14*
X106680000Y-69215000D03*
D15*
X106680000Y-79375000D03*
D14*
X106680000Y-50165000D03*
D15*
X106680000Y-60325000D03*
M02*
