M48
; DRILL file {KiCad (5.1.10)-1} date 09/16/21 23:28:22
; FORMAT={-:-/ absolute / inch / decimal}
; #@! TF.CreationDate,2021-09-16T23:28:22+02:00
; #@! TF.GenerationSoftware,Kicad,Pcbnew,(5.1.10)-1
; #@! TF.FileFunction,Plated,1,2,PTH
FMAT,2
INCH
T1C0.0157
T2C0.0315
T3C0.0394
T4C0.0433
T5C0.0579
T6C0.0591
%
G90
G05
T1
X3.813Y-3.738
X3.8475Y-2.4125
X4.213Y-4.737
T2
X2.625Y-1.85
X2.625Y-2.45
X2.725Y-1.85
X2.725Y-2.45
X2.725Y-2.75
X2.725Y-3.15
X2.825Y-1.85
X2.825Y-2.05
X2.825Y-2.2469
X2.825Y-2.45
X2.925Y-1.85
X2.925Y-2.45
X3.025Y-1.85
X3.025Y-2.3
X3.025Y-2.45
X3.08Y-3.475
X3.125Y-1.85
X3.125Y-2.45
X3.225Y-1.85
X3.225Y-2.45
X3.2769Y-3.475
X3.325Y-1.85
X3.325Y-2.45
X3.425Y-1.85
X3.425Y-2.3
X3.425Y-2.45
X3.525Y-1.85
X3.525Y-2.45
X3.625Y-1.85
X3.625Y-2.45
X3.725Y-1.85
X3.725Y-2.45
X4.2Y-1.975
X4.2Y-2.375
X4.2Y-2.725
X4.2Y-3.125
X4.2Y-3.475
X4.2Y-3.875
X4.2Y-4.225
X4.2Y-4.625
X4.2Y-4.975
X4.2Y-5.375
X4.735Y-2.55
X4.7531Y-4.8
X4.9319Y-2.55
X4.95Y-1.975
X4.95Y-2.375
X4.95Y-2.725
X4.95Y-3.125
X4.95Y-3.475
X4.95Y-3.875
X4.95Y-4.225
X4.95Y-4.625
X4.95Y-4.8
X4.95Y-4.975
X4.95Y-5.375
X5.7Y-1.975
X5.7Y-2.375
X5.7Y-2.725
X5.7Y-3.125
X5.7Y-3.475
X5.7Y-3.875
X5.7Y-4.225
X5.7Y-4.625
X5.7Y-4.975
X5.7Y-5.375
X6.45Y-1.975
X6.45Y-2.375
X6.45Y-2.55
X6.45Y-2.725
X6.45Y-3.125
X6.45Y-3.475
X6.45Y-3.875
X6.45Y-4.225
X6.45Y-4.625
X6.45Y-4.975
X6.45Y-5.375
X6.4531Y-4.8
X6.6469Y-2.55
X6.65Y-4.8
T3
X2.438Y-3.4388
X2.438Y-3.5388
X2.438Y-3.6388
X2.438Y-3.7388
X3.0281Y-2.65
X3.0281Y-3.2209
X3.1266Y-2.65
X3.225Y-2.65
X3.225Y-3.2209
T4
X3.8728Y-2.05
X3.8728Y-2.3059
X4.05Y-2.05
X4.05Y-2.3059
T5
X4.425Y-2.075
X4.425Y-2.825
X4.425Y-3.575
X4.425Y-4.325
X4.425Y-5.075
X4.675Y-1.975
X4.675Y-2.725
X4.675Y-3.475
X4.675Y-4.225
X4.675Y-4.975
X5.175Y-2.075
X5.175Y-2.825
X5.175Y-3.575
X5.175Y-4.325
X5.175Y-5.075
X5.425Y-1.975
X5.425Y-2.725
X5.425Y-3.475
X5.425Y-4.225
X5.425Y-4.975
X5.925Y-2.075
X5.925Y-2.825
X5.925Y-3.575
X5.925Y-4.325
X5.925Y-5.075
X6.175Y-1.975
X6.175Y-2.725
X6.175Y-3.475
X6.175Y-4.225
X6.175Y-4.975
X6.675Y-2.075
X6.675Y-2.825
X6.675Y-3.575
X6.675Y-4.325
X6.675Y-5.075
X6.925Y-1.975
X6.925Y-2.725
X6.925Y-3.475
X6.925Y-4.225
X6.925Y-4.975
T6
G00X2.9061Y-2.9197
M15
G01X2.9061Y-2.9709
M16
G05
G00X3.347Y-2.9197
M15
G01X3.347Y-2.9709
M16
G05
T0
M30
