G04 #@! TF.GenerationSoftware,KiCad,Pcbnew,(5.1.10)-1*
G04 #@! TF.CreationDate,2021-09-15T11:51:34+02:00*
G04 #@! TF.ProjectId,SheepyPad,53686565-7079-4506-9164-2e6b69636164,rev?*
G04 #@! TF.SameCoordinates,Original*
G04 #@! TF.FileFunction,Other,Fab,Bot*
%FSLAX46Y46*%
G04 Gerber Fmt 4.6, Leading zero omitted, Abs format (unit mm)*
G04 Created by KiCad (PCBNEW (5.1.10)-1) date 2021-09-15 11:51:34*
%MOMM*%
%LPD*%
G01*
G04 APERTURE LIST*
%ADD10C,0.100000*%
%ADD11C,0.150000*%
G04 APERTURE END LIST*
D10*
X114395000Y-65405000D02*
G75*
G03*
X114395000Y-65405000I-2000000J0D01*
G01*
X114895000Y-67905000D02*
X109895000Y-67905000D01*
X114895000Y-62905000D02*
X114895000Y-67905000D01*
X109895000Y-62905000D02*
X114895000Y-62905000D01*
X109895000Y-67905000D02*
X109895000Y-62905000D01*
X114895000Y-63905000D02*
X113895000Y-62905000D01*
X114395000Y-121285000D02*
G75*
G03*
X114395000Y-121285000I-2000000J0D01*
G01*
X109895000Y-118785000D02*
X114895000Y-118785000D01*
X109895000Y-123785000D02*
X109895000Y-118785000D01*
X114895000Y-123785000D02*
X109895000Y-123785000D01*
X114895000Y-118785000D02*
X114895000Y-123785000D01*
X109895000Y-122785000D02*
X110895000Y-123785000D01*
X179165000Y-64770000D02*
G75*
G03*
X179165000Y-64770000I-2000000J0D01*
G01*
X179665000Y-67270000D02*
X174665000Y-67270000D01*
X179665000Y-62270000D02*
X179665000Y-67270000D01*
X174665000Y-62270000D02*
X179665000Y-62270000D01*
X174665000Y-67270000D02*
X174665000Y-62270000D01*
X179665000Y-63270000D02*
X178665000Y-62270000D01*
X82645000Y-93345000D02*
G75*
G03*
X82645000Y-93345000I-2000000J0D01*
G01*
X78145000Y-90845000D02*
X83145000Y-90845000D01*
X78145000Y-95845000D02*
X78145000Y-90845000D01*
X83145000Y-95845000D02*
X78145000Y-95845000D01*
X83145000Y-90845000D02*
X83145000Y-95845000D01*
X78145000Y-94845000D02*
X79145000Y-95845000D01*
X179165000Y-121285000D02*
G75*
G03*
X179165000Y-121285000I-2000000J0D01*
G01*
X174665000Y-118785000D02*
X179665000Y-118785000D01*
X174665000Y-123785000D02*
X174665000Y-118785000D01*
X179665000Y-123785000D02*
X174665000Y-123785000D01*
X179665000Y-118785000D02*
X179665000Y-123785000D01*
X174665000Y-122785000D02*
X175665000Y-123785000D01*
X71850000Y-56515000D02*
G75*
G03*
X71850000Y-56515000I-2000000J0D01*
G01*
X72350000Y-59015000D02*
X67350000Y-59015000D01*
X72350000Y-54015000D02*
X72350000Y-59015000D01*
X67350000Y-54015000D02*
X72350000Y-54015000D01*
X67350000Y-59015000D02*
X67350000Y-54015000D01*
X72350000Y-55015000D02*
X71350000Y-54015000D01*
D11*
X115704523Y-60857380D02*
X115466428Y-61857380D01*
X115275952Y-61143095D01*
X115085476Y-61857380D01*
X114847380Y-60857380D01*
X114514047Y-61809761D02*
X114371190Y-61857380D01*
X114133095Y-61857380D01*
X114037857Y-61809761D01*
X113990238Y-61762142D01*
X113942619Y-61666904D01*
X113942619Y-61571666D01*
X113990238Y-61476428D01*
X114037857Y-61428809D01*
X114133095Y-61381190D01*
X114323571Y-61333571D01*
X114418809Y-61285952D01*
X114466428Y-61238333D01*
X114514047Y-61143095D01*
X114514047Y-61047857D01*
X114466428Y-60952619D01*
X114418809Y-60905000D01*
X114323571Y-60857380D01*
X114085476Y-60857380D01*
X113942619Y-60905000D01*
X113561666Y-60952619D02*
X113514047Y-60905000D01*
X113418809Y-60857380D01*
X113180714Y-60857380D01*
X113085476Y-60905000D01*
X113037857Y-60952619D01*
X112990238Y-61047857D01*
X112990238Y-61143095D01*
X113037857Y-61285952D01*
X113609285Y-61857380D01*
X112990238Y-61857380D01*
X112418809Y-61285952D02*
X112514047Y-61238333D01*
X112561666Y-61190714D01*
X112609285Y-61095476D01*
X112609285Y-61047857D01*
X112561666Y-60952619D01*
X112514047Y-60905000D01*
X112418809Y-60857380D01*
X112228333Y-60857380D01*
X112133095Y-60905000D01*
X112085476Y-60952619D01*
X112037857Y-61047857D01*
X112037857Y-61095476D01*
X112085476Y-61190714D01*
X112133095Y-61238333D01*
X112228333Y-61285952D01*
X112418809Y-61285952D01*
X112514047Y-61333571D01*
X112561666Y-61381190D01*
X112609285Y-61476428D01*
X112609285Y-61666904D01*
X112561666Y-61762142D01*
X112514047Y-61809761D01*
X112418809Y-61857380D01*
X112228333Y-61857380D01*
X112133095Y-61809761D01*
X112085476Y-61762142D01*
X112037857Y-61666904D01*
X112037857Y-61476428D01*
X112085476Y-61381190D01*
X112133095Y-61333571D01*
X112228333Y-61285952D01*
X111085476Y-61857380D02*
X111656904Y-61857380D01*
X111371190Y-61857380D02*
X111371190Y-60857380D01*
X111466428Y-61000238D01*
X111561666Y-61095476D01*
X111656904Y-61143095D01*
X110704523Y-60952619D02*
X110656904Y-60905000D01*
X110561666Y-60857380D01*
X110323571Y-60857380D01*
X110228333Y-60905000D01*
X110180714Y-60952619D01*
X110133095Y-61047857D01*
X110133095Y-61143095D01*
X110180714Y-61285952D01*
X110752142Y-61857380D01*
X110133095Y-61857380D01*
X109371190Y-61333571D02*
X109228333Y-61381190D01*
X109180714Y-61428809D01*
X109133095Y-61524047D01*
X109133095Y-61666904D01*
X109180714Y-61762142D01*
X109228333Y-61809761D01*
X109323571Y-61857380D01*
X109704523Y-61857380D01*
X109704523Y-60857380D01*
X109371190Y-60857380D01*
X109275952Y-60905000D01*
X109228333Y-60952619D01*
X109180714Y-61047857D01*
X109180714Y-61143095D01*
X109228333Y-61238333D01*
X109275952Y-61285952D01*
X109371190Y-61333571D01*
X109704523Y-61333571D01*
X113366428Y-65766904D02*
X113366428Y-64966904D01*
X113175952Y-64966904D01*
X113061666Y-65005000D01*
X112985476Y-65081190D01*
X112947380Y-65157380D01*
X112909285Y-65309761D01*
X112909285Y-65424047D01*
X112947380Y-65576428D01*
X112985476Y-65652619D01*
X113061666Y-65728809D01*
X113175952Y-65766904D01*
X113366428Y-65766904D01*
X112604523Y-65043095D02*
X112566428Y-65005000D01*
X112490238Y-64966904D01*
X112299761Y-64966904D01*
X112223571Y-65005000D01*
X112185476Y-65043095D01*
X112147380Y-65119285D01*
X112147380Y-65195476D01*
X112185476Y-65309761D01*
X112642619Y-65766904D01*
X112147380Y-65766904D01*
X111880714Y-64966904D02*
X111347380Y-64966904D01*
X111690238Y-65766904D01*
X115704523Y-124737380D02*
X115466428Y-125737380D01*
X115275952Y-125023095D01*
X115085476Y-125737380D01*
X114847380Y-124737380D01*
X114514047Y-125689761D02*
X114371190Y-125737380D01*
X114133095Y-125737380D01*
X114037857Y-125689761D01*
X113990238Y-125642142D01*
X113942619Y-125546904D01*
X113942619Y-125451666D01*
X113990238Y-125356428D01*
X114037857Y-125308809D01*
X114133095Y-125261190D01*
X114323571Y-125213571D01*
X114418809Y-125165952D01*
X114466428Y-125118333D01*
X114514047Y-125023095D01*
X114514047Y-124927857D01*
X114466428Y-124832619D01*
X114418809Y-124785000D01*
X114323571Y-124737380D01*
X114085476Y-124737380D01*
X113942619Y-124785000D01*
X113561666Y-124832619D02*
X113514047Y-124785000D01*
X113418809Y-124737380D01*
X113180714Y-124737380D01*
X113085476Y-124785000D01*
X113037857Y-124832619D01*
X112990238Y-124927857D01*
X112990238Y-125023095D01*
X113037857Y-125165952D01*
X113609285Y-125737380D01*
X112990238Y-125737380D01*
X112418809Y-125165952D02*
X112514047Y-125118333D01*
X112561666Y-125070714D01*
X112609285Y-124975476D01*
X112609285Y-124927857D01*
X112561666Y-124832619D01*
X112514047Y-124785000D01*
X112418809Y-124737380D01*
X112228333Y-124737380D01*
X112133095Y-124785000D01*
X112085476Y-124832619D01*
X112037857Y-124927857D01*
X112037857Y-124975476D01*
X112085476Y-125070714D01*
X112133095Y-125118333D01*
X112228333Y-125165952D01*
X112418809Y-125165952D01*
X112514047Y-125213571D01*
X112561666Y-125261190D01*
X112609285Y-125356428D01*
X112609285Y-125546904D01*
X112561666Y-125642142D01*
X112514047Y-125689761D01*
X112418809Y-125737380D01*
X112228333Y-125737380D01*
X112133095Y-125689761D01*
X112085476Y-125642142D01*
X112037857Y-125546904D01*
X112037857Y-125356428D01*
X112085476Y-125261190D01*
X112133095Y-125213571D01*
X112228333Y-125165952D01*
X111085476Y-125737380D02*
X111656904Y-125737380D01*
X111371190Y-125737380D02*
X111371190Y-124737380D01*
X111466428Y-124880238D01*
X111561666Y-124975476D01*
X111656904Y-125023095D01*
X110704523Y-124832619D02*
X110656904Y-124785000D01*
X110561666Y-124737380D01*
X110323571Y-124737380D01*
X110228333Y-124785000D01*
X110180714Y-124832619D01*
X110133095Y-124927857D01*
X110133095Y-125023095D01*
X110180714Y-125165952D01*
X110752142Y-125737380D01*
X110133095Y-125737380D01*
X109371190Y-125213571D02*
X109228333Y-125261190D01*
X109180714Y-125308809D01*
X109133095Y-125404047D01*
X109133095Y-125546904D01*
X109180714Y-125642142D01*
X109228333Y-125689761D01*
X109323571Y-125737380D01*
X109704523Y-125737380D01*
X109704523Y-124737380D01*
X109371190Y-124737380D01*
X109275952Y-124785000D01*
X109228333Y-124832619D01*
X109180714Y-124927857D01*
X109180714Y-125023095D01*
X109228333Y-125118333D01*
X109275952Y-125165952D01*
X109371190Y-125213571D01*
X109704523Y-125213571D01*
X113366428Y-121646904D02*
X113366428Y-120846904D01*
X113175952Y-120846904D01*
X113061666Y-120885000D01*
X112985476Y-120961190D01*
X112947380Y-121037380D01*
X112909285Y-121189761D01*
X112909285Y-121304047D01*
X112947380Y-121456428D01*
X112985476Y-121532619D01*
X113061666Y-121608809D01*
X113175952Y-121646904D01*
X113366428Y-121646904D01*
X112604523Y-120923095D02*
X112566428Y-120885000D01*
X112490238Y-120846904D01*
X112299761Y-120846904D01*
X112223571Y-120885000D01*
X112185476Y-120923095D01*
X112147380Y-120999285D01*
X112147380Y-121075476D01*
X112185476Y-121189761D01*
X112642619Y-121646904D01*
X112147380Y-121646904D01*
X111461666Y-120846904D02*
X111614047Y-120846904D01*
X111690238Y-120885000D01*
X111728333Y-120923095D01*
X111804523Y-121037380D01*
X111842619Y-121189761D01*
X111842619Y-121494523D01*
X111804523Y-121570714D01*
X111766428Y-121608809D01*
X111690238Y-121646904D01*
X111537857Y-121646904D01*
X111461666Y-121608809D01*
X111423571Y-121570714D01*
X111385476Y-121494523D01*
X111385476Y-121304047D01*
X111423571Y-121227857D01*
X111461666Y-121189761D01*
X111537857Y-121151666D01*
X111690238Y-121151666D01*
X111766428Y-121189761D01*
X111804523Y-121227857D01*
X111842619Y-121304047D01*
X180474523Y-60222380D02*
X180236428Y-61222380D01*
X180045952Y-60508095D01*
X179855476Y-61222380D01*
X179617380Y-60222380D01*
X179284047Y-61174761D02*
X179141190Y-61222380D01*
X178903095Y-61222380D01*
X178807857Y-61174761D01*
X178760238Y-61127142D01*
X178712619Y-61031904D01*
X178712619Y-60936666D01*
X178760238Y-60841428D01*
X178807857Y-60793809D01*
X178903095Y-60746190D01*
X179093571Y-60698571D01*
X179188809Y-60650952D01*
X179236428Y-60603333D01*
X179284047Y-60508095D01*
X179284047Y-60412857D01*
X179236428Y-60317619D01*
X179188809Y-60270000D01*
X179093571Y-60222380D01*
X178855476Y-60222380D01*
X178712619Y-60270000D01*
X178331666Y-60317619D02*
X178284047Y-60270000D01*
X178188809Y-60222380D01*
X177950714Y-60222380D01*
X177855476Y-60270000D01*
X177807857Y-60317619D01*
X177760238Y-60412857D01*
X177760238Y-60508095D01*
X177807857Y-60650952D01*
X178379285Y-61222380D01*
X177760238Y-61222380D01*
X177188809Y-60650952D02*
X177284047Y-60603333D01*
X177331666Y-60555714D01*
X177379285Y-60460476D01*
X177379285Y-60412857D01*
X177331666Y-60317619D01*
X177284047Y-60270000D01*
X177188809Y-60222380D01*
X176998333Y-60222380D01*
X176903095Y-60270000D01*
X176855476Y-60317619D01*
X176807857Y-60412857D01*
X176807857Y-60460476D01*
X176855476Y-60555714D01*
X176903095Y-60603333D01*
X176998333Y-60650952D01*
X177188809Y-60650952D01*
X177284047Y-60698571D01*
X177331666Y-60746190D01*
X177379285Y-60841428D01*
X177379285Y-61031904D01*
X177331666Y-61127142D01*
X177284047Y-61174761D01*
X177188809Y-61222380D01*
X176998333Y-61222380D01*
X176903095Y-61174761D01*
X176855476Y-61127142D01*
X176807857Y-61031904D01*
X176807857Y-60841428D01*
X176855476Y-60746190D01*
X176903095Y-60698571D01*
X176998333Y-60650952D01*
X175855476Y-61222380D02*
X176426904Y-61222380D01*
X176141190Y-61222380D02*
X176141190Y-60222380D01*
X176236428Y-60365238D01*
X176331666Y-60460476D01*
X176426904Y-60508095D01*
X175474523Y-60317619D02*
X175426904Y-60270000D01*
X175331666Y-60222380D01*
X175093571Y-60222380D01*
X174998333Y-60270000D01*
X174950714Y-60317619D01*
X174903095Y-60412857D01*
X174903095Y-60508095D01*
X174950714Y-60650952D01*
X175522142Y-61222380D01*
X174903095Y-61222380D01*
X174141190Y-60698571D02*
X173998333Y-60746190D01*
X173950714Y-60793809D01*
X173903095Y-60889047D01*
X173903095Y-61031904D01*
X173950714Y-61127142D01*
X173998333Y-61174761D01*
X174093571Y-61222380D01*
X174474523Y-61222380D01*
X174474523Y-60222380D01*
X174141190Y-60222380D01*
X174045952Y-60270000D01*
X173998333Y-60317619D01*
X173950714Y-60412857D01*
X173950714Y-60508095D01*
X173998333Y-60603333D01*
X174045952Y-60650952D01*
X174141190Y-60698571D01*
X174474523Y-60698571D01*
X178136428Y-65131904D02*
X178136428Y-64331904D01*
X177945952Y-64331904D01*
X177831666Y-64370000D01*
X177755476Y-64446190D01*
X177717380Y-64522380D01*
X177679285Y-64674761D01*
X177679285Y-64789047D01*
X177717380Y-64941428D01*
X177755476Y-65017619D01*
X177831666Y-65093809D01*
X177945952Y-65131904D01*
X178136428Y-65131904D01*
X177374523Y-64408095D02*
X177336428Y-64370000D01*
X177260238Y-64331904D01*
X177069761Y-64331904D01*
X176993571Y-64370000D01*
X176955476Y-64408095D01*
X176917380Y-64484285D01*
X176917380Y-64560476D01*
X176955476Y-64674761D01*
X177412619Y-65131904D01*
X176917380Y-65131904D01*
X176193571Y-64331904D02*
X176574523Y-64331904D01*
X176612619Y-64712857D01*
X176574523Y-64674761D01*
X176498333Y-64636666D01*
X176307857Y-64636666D01*
X176231666Y-64674761D01*
X176193571Y-64712857D01*
X176155476Y-64789047D01*
X176155476Y-64979523D01*
X176193571Y-65055714D01*
X176231666Y-65093809D01*
X176307857Y-65131904D01*
X176498333Y-65131904D01*
X176574523Y-65093809D01*
X176612619Y-65055714D01*
X83954523Y-96797380D02*
X83716428Y-97797380D01*
X83525952Y-97083095D01*
X83335476Y-97797380D01*
X83097380Y-96797380D01*
X82764047Y-97749761D02*
X82621190Y-97797380D01*
X82383095Y-97797380D01*
X82287857Y-97749761D01*
X82240238Y-97702142D01*
X82192619Y-97606904D01*
X82192619Y-97511666D01*
X82240238Y-97416428D01*
X82287857Y-97368809D01*
X82383095Y-97321190D01*
X82573571Y-97273571D01*
X82668809Y-97225952D01*
X82716428Y-97178333D01*
X82764047Y-97083095D01*
X82764047Y-96987857D01*
X82716428Y-96892619D01*
X82668809Y-96845000D01*
X82573571Y-96797380D01*
X82335476Y-96797380D01*
X82192619Y-96845000D01*
X81811666Y-96892619D02*
X81764047Y-96845000D01*
X81668809Y-96797380D01*
X81430714Y-96797380D01*
X81335476Y-96845000D01*
X81287857Y-96892619D01*
X81240238Y-96987857D01*
X81240238Y-97083095D01*
X81287857Y-97225952D01*
X81859285Y-97797380D01*
X81240238Y-97797380D01*
X80668809Y-97225952D02*
X80764047Y-97178333D01*
X80811666Y-97130714D01*
X80859285Y-97035476D01*
X80859285Y-96987857D01*
X80811666Y-96892619D01*
X80764047Y-96845000D01*
X80668809Y-96797380D01*
X80478333Y-96797380D01*
X80383095Y-96845000D01*
X80335476Y-96892619D01*
X80287857Y-96987857D01*
X80287857Y-97035476D01*
X80335476Y-97130714D01*
X80383095Y-97178333D01*
X80478333Y-97225952D01*
X80668809Y-97225952D01*
X80764047Y-97273571D01*
X80811666Y-97321190D01*
X80859285Y-97416428D01*
X80859285Y-97606904D01*
X80811666Y-97702142D01*
X80764047Y-97749761D01*
X80668809Y-97797380D01*
X80478333Y-97797380D01*
X80383095Y-97749761D01*
X80335476Y-97702142D01*
X80287857Y-97606904D01*
X80287857Y-97416428D01*
X80335476Y-97321190D01*
X80383095Y-97273571D01*
X80478333Y-97225952D01*
X79335476Y-97797380D02*
X79906904Y-97797380D01*
X79621190Y-97797380D02*
X79621190Y-96797380D01*
X79716428Y-96940238D01*
X79811666Y-97035476D01*
X79906904Y-97083095D01*
X78954523Y-96892619D02*
X78906904Y-96845000D01*
X78811666Y-96797380D01*
X78573571Y-96797380D01*
X78478333Y-96845000D01*
X78430714Y-96892619D01*
X78383095Y-96987857D01*
X78383095Y-97083095D01*
X78430714Y-97225952D01*
X79002142Y-97797380D01*
X78383095Y-97797380D01*
X77621190Y-97273571D02*
X77478333Y-97321190D01*
X77430714Y-97368809D01*
X77383095Y-97464047D01*
X77383095Y-97606904D01*
X77430714Y-97702142D01*
X77478333Y-97749761D01*
X77573571Y-97797380D01*
X77954523Y-97797380D01*
X77954523Y-96797380D01*
X77621190Y-96797380D01*
X77525952Y-96845000D01*
X77478333Y-96892619D01*
X77430714Y-96987857D01*
X77430714Y-97083095D01*
X77478333Y-97178333D01*
X77525952Y-97225952D01*
X77621190Y-97273571D01*
X77954523Y-97273571D01*
X81616428Y-93706904D02*
X81616428Y-92906904D01*
X81425952Y-92906904D01*
X81311666Y-92945000D01*
X81235476Y-93021190D01*
X81197380Y-93097380D01*
X81159285Y-93249761D01*
X81159285Y-93364047D01*
X81197380Y-93516428D01*
X81235476Y-93592619D01*
X81311666Y-93668809D01*
X81425952Y-93706904D01*
X81616428Y-93706904D01*
X80854523Y-92983095D02*
X80816428Y-92945000D01*
X80740238Y-92906904D01*
X80549761Y-92906904D01*
X80473571Y-92945000D01*
X80435476Y-92983095D01*
X80397380Y-93059285D01*
X80397380Y-93135476D01*
X80435476Y-93249761D01*
X80892619Y-93706904D01*
X80397380Y-93706904D01*
X79711666Y-93173571D02*
X79711666Y-93706904D01*
X79902142Y-92868809D02*
X80092619Y-93440238D01*
X79597380Y-93440238D01*
X180474523Y-124737380D02*
X180236428Y-125737380D01*
X180045952Y-125023095D01*
X179855476Y-125737380D01*
X179617380Y-124737380D01*
X179284047Y-125689761D02*
X179141190Y-125737380D01*
X178903095Y-125737380D01*
X178807857Y-125689761D01*
X178760238Y-125642142D01*
X178712619Y-125546904D01*
X178712619Y-125451666D01*
X178760238Y-125356428D01*
X178807857Y-125308809D01*
X178903095Y-125261190D01*
X179093571Y-125213571D01*
X179188809Y-125165952D01*
X179236428Y-125118333D01*
X179284047Y-125023095D01*
X179284047Y-124927857D01*
X179236428Y-124832619D01*
X179188809Y-124785000D01*
X179093571Y-124737380D01*
X178855476Y-124737380D01*
X178712619Y-124785000D01*
X178331666Y-124832619D02*
X178284047Y-124785000D01*
X178188809Y-124737380D01*
X177950714Y-124737380D01*
X177855476Y-124785000D01*
X177807857Y-124832619D01*
X177760238Y-124927857D01*
X177760238Y-125023095D01*
X177807857Y-125165952D01*
X178379285Y-125737380D01*
X177760238Y-125737380D01*
X177188809Y-125165952D02*
X177284047Y-125118333D01*
X177331666Y-125070714D01*
X177379285Y-124975476D01*
X177379285Y-124927857D01*
X177331666Y-124832619D01*
X177284047Y-124785000D01*
X177188809Y-124737380D01*
X176998333Y-124737380D01*
X176903095Y-124785000D01*
X176855476Y-124832619D01*
X176807857Y-124927857D01*
X176807857Y-124975476D01*
X176855476Y-125070714D01*
X176903095Y-125118333D01*
X176998333Y-125165952D01*
X177188809Y-125165952D01*
X177284047Y-125213571D01*
X177331666Y-125261190D01*
X177379285Y-125356428D01*
X177379285Y-125546904D01*
X177331666Y-125642142D01*
X177284047Y-125689761D01*
X177188809Y-125737380D01*
X176998333Y-125737380D01*
X176903095Y-125689761D01*
X176855476Y-125642142D01*
X176807857Y-125546904D01*
X176807857Y-125356428D01*
X176855476Y-125261190D01*
X176903095Y-125213571D01*
X176998333Y-125165952D01*
X175855476Y-125737380D02*
X176426904Y-125737380D01*
X176141190Y-125737380D02*
X176141190Y-124737380D01*
X176236428Y-124880238D01*
X176331666Y-124975476D01*
X176426904Y-125023095D01*
X175474523Y-124832619D02*
X175426904Y-124785000D01*
X175331666Y-124737380D01*
X175093571Y-124737380D01*
X174998333Y-124785000D01*
X174950714Y-124832619D01*
X174903095Y-124927857D01*
X174903095Y-125023095D01*
X174950714Y-125165952D01*
X175522142Y-125737380D01*
X174903095Y-125737380D01*
X174141190Y-125213571D02*
X173998333Y-125261190D01*
X173950714Y-125308809D01*
X173903095Y-125404047D01*
X173903095Y-125546904D01*
X173950714Y-125642142D01*
X173998333Y-125689761D01*
X174093571Y-125737380D01*
X174474523Y-125737380D01*
X174474523Y-124737380D01*
X174141190Y-124737380D01*
X174045952Y-124785000D01*
X173998333Y-124832619D01*
X173950714Y-124927857D01*
X173950714Y-125023095D01*
X173998333Y-125118333D01*
X174045952Y-125165952D01*
X174141190Y-125213571D01*
X174474523Y-125213571D01*
X178136428Y-121646904D02*
X178136428Y-120846904D01*
X177945952Y-120846904D01*
X177831666Y-120885000D01*
X177755476Y-120961190D01*
X177717380Y-121037380D01*
X177679285Y-121189761D01*
X177679285Y-121304047D01*
X177717380Y-121456428D01*
X177755476Y-121532619D01*
X177831666Y-121608809D01*
X177945952Y-121646904D01*
X178136428Y-121646904D01*
X177374523Y-120923095D02*
X177336428Y-120885000D01*
X177260238Y-120846904D01*
X177069761Y-120846904D01*
X176993571Y-120885000D01*
X176955476Y-120923095D01*
X176917380Y-120999285D01*
X176917380Y-121075476D01*
X176955476Y-121189761D01*
X177412619Y-121646904D01*
X176917380Y-121646904D01*
X176650714Y-120846904D02*
X176155476Y-120846904D01*
X176422142Y-121151666D01*
X176307857Y-121151666D01*
X176231666Y-121189761D01*
X176193571Y-121227857D01*
X176155476Y-121304047D01*
X176155476Y-121494523D01*
X176193571Y-121570714D01*
X176231666Y-121608809D01*
X176307857Y-121646904D01*
X176536428Y-121646904D01*
X176612619Y-121608809D01*
X176650714Y-121570714D01*
X73159523Y-51967380D02*
X72921428Y-52967380D01*
X72730952Y-52253095D01*
X72540476Y-52967380D01*
X72302380Y-51967380D01*
X71969047Y-52919761D02*
X71826190Y-52967380D01*
X71588095Y-52967380D01*
X71492857Y-52919761D01*
X71445238Y-52872142D01*
X71397619Y-52776904D01*
X71397619Y-52681666D01*
X71445238Y-52586428D01*
X71492857Y-52538809D01*
X71588095Y-52491190D01*
X71778571Y-52443571D01*
X71873809Y-52395952D01*
X71921428Y-52348333D01*
X71969047Y-52253095D01*
X71969047Y-52157857D01*
X71921428Y-52062619D01*
X71873809Y-52015000D01*
X71778571Y-51967380D01*
X71540476Y-51967380D01*
X71397619Y-52015000D01*
X71016666Y-52062619D02*
X70969047Y-52015000D01*
X70873809Y-51967380D01*
X70635714Y-51967380D01*
X70540476Y-52015000D01*
X70492857Y-52062619D01*
X70445238Y-52157857D01*
X70445238Y-52253095D01*
X70492857Y-52395952D01*
X71064285Y-52967380D01*
X70445238Y-52967380D01*
X69873809Y-52395952D02*
X69969047Y-52348333D01*
X70016666Y-52300714D01*
X70064285Y-52205476D01*
X70064285Y-52157857D01*
X70016666Y-52062619D01*
X69969047Y-52015000D01*
X69873809Y-51967380D01*
X69683333Y-51967380D01*
X69588095Y-52015000D01*
X69540476Y-52062619D01*
X69492857Y-52157857D01*
X69492857Y-52205476D01*
X69540476Y-52300714D01*
X69588095Y-52348333D01*
X69683333Y-52395952D01*
X69873809Y-52395952D01*
X69969047Y-52443571D01*
X70016666Y-52491190D01*
X70064285Y-52586428D01*
X70064285Y-52776904D01*
X70016666Y-52872142D01*
X69969047Y-52919761D01*
X69873809Y-52967380D01*
X69683333Y-52967380D01*
X69588095Y-52919761D01*
X69540476Y-52872142D01*
X69492857Y-52776904D01*
X69492857Y-52586428D01*
X69540476Y-52491190D01*
X69588095Y-52443571D01*
X69683333Y-52395952D01*
X68540476Y-52967380D02*
X69111904Y-52967380D01*
X68826190Y-52967380D02*
X68826190Y-51967380D01*
X68921428Y-52110238D01*
X69016666Y-52205476D01*
X69111904Y-52253095D01*
X68159523Y-52062619D02*
X68111904Y-52015000D01*
X68016666Y-51967380D01*
X67778571Y-51967380D01*
X67683333Y-52015000D01*
X67635714Y-52062619D01*
X67588095Y-52157857D01*
X67588095Y-52253095D01*
X67635714Y-52395952D01*
X68207142Y-52967380D01*
X67588095Y-52967380D01*
X66826190Y-52443571D02*
X66683333Y-52491190D01*
X66635714Y-52538809D01*
X66588095Y-52634047D01*
X66588095Y-52776904D01*
X66635714Y-52872142D01*
X66683333Y-52919761D01*
X66778571Y-52967380D01*
X67159523Y-52967380D01*
X67159523Y-51967380D01*
X66826190Y-51967380D01*
X66730952Y-52015000D01*
X66683333Y-52062619D01*
X66635714Y-52157857D01*
X66635714Y-52253095D01*
X66683333Y-52348333D01*
X66730952Y-52395952D01*
X66826190Y-52443571D01*
X67159523Y-52443571D01*
X70821428Y-56876904D02*
X70821428Y-56076904D01*
X70630952Y-56076904D01*
X70516666Y-56115000D01*
X70440476Y-56191190D01*
X70402380Y-56267380D01*
X70364285Y-56419761D01*
X70364285Y-56534047D01*
X70402380Y-56686428D01*
X70440476Y-56762619D01*
X70516666Y-56838809D01*
X70630952Y-56876904D01*
X70821428Y-56876904D01*
X70059523Y-56153095D02*
X70021428Y-56115000D01*
X69945238Y-56076904D01*
X69754761Y-56076904D01*
X69678571Y-56115000D01*
X69640476Y-56153095D01*
X69602380Y-56229285D01*
X69602380Y-56305476D01*
X69640476Y-56419761D01*
X70097619Y-56876904D01*
X69602380Y-56876904D01*
X69297619Y-56153095D02*
X69259523Y-56115000D01*
X69183333Y-56076904D01*
X68992857Y-56076904D01*
X68916666Y-56115000D01*
X68878571Y-56153095D01*
X68840476Y-56229285D01*
X68840476Y-56305476D01*
X68878571Y-56419761D01*
X69335714Y-56876904D01*
X68840476Y-56876904D01*
M02*
