G04 #@! TF.GenerationSoftware,KiCad,Pcbnew,(5.1.10)-1*
G04 #@! TF.CreationDate,2021-09-15T11:37:00+02:00*
G04 #@! TF.ProjectId,SheepyPad,53686565-7079-4506-9164-2e6b69636164,rev?*
G04 #@! TF.SameCoordinates,Original*
G04 #@! TF.FileFunction,Legend,Top*
G04 #@! TF.FilePolarity,Positive*
%FSLAX46Y46*%
G04 Gerber Fmt 4.6, Leading zero omitted, Abs format (unit mm)*
G04 Created by KiCad (PCBNEW (5.1.10)-1) date 2021-09-15 11:37:00*
%MOMM*%
%LPD*%
G01*
G04 APERTURE LIST*
%ADD10C,0.010000*%
%ADD11C,0.120000*%
%ADD12C,0.040000*%
%ADD13C,0.150000*%
%ADD14O,1.600000X1.600000*%
%ADD15R,1.600000X1.600000*%
%ADD16O,1.700000X1.700000*%
%ADD17R,1.700000X1.700000*%
%ADD18C,2.000000*%
%ADD19C,1.600000*%
%ADD20C,3.987800*%
%ADD21C,1.750000*%
%ADD22R,2.000000X2.000000*%
%ADD23R,2.000000X3.200000*%
G04 APERTURE END LIST*
D10*
G36*
X77760286Y-87559444D02*
G01*
X77724000Y-87587666D01*
X77687715Y-87559444D01*
X77724000Y-87531222D01*
X77760286Y-87559444D01*
G37*
X77760286Y-87559444D02*
X77724000Y-87587666D01*
X77687715Y-87559444D01*
X77724000Y-87531222D01*
X77760286Y-87559444D01*
G36*
X77388304Y-86028343D02*
G01*
X77376714Y-86085585D01*
X77368991Y-86106000D01*
X77352789Y-86195961D01*
X77334408Y-86375556D01*
X77315767Y-86621577D01*
X77298781Y-86910815D01*
X77293483Y-87020127D01*
X77274758Y-87358457D01*
X77252789Y-87598979D01*
X77225069Y-87756777D01*
X77189090Y-87846930D01*
X77150221Y-87881604D01*
X77042683Y-87900106D01*
X77011184Y-87884698D01*
X76980752Y-87809961D01*
X76935286Y-87659575D01*
X76894002Y-87503000D01*
X76789984Y-87103283D01*
X76702772Y-86810435D01*
X76630702Y-86619356D01*
X76576607Y-86529333D01*
X76552718Y-86442792D01*
X76644883Y-86342122D01*
X76862169Y-86219473D01*
X77014396Y-86150129D01*
X77231929Y-86057531D01*
X77348304Y-86017964D01*
X77388304Y-86028343D01*
G37*
X77388304Y-86028343D02*
X77376714Y-86085585D01*
X77368991Y-86106000D01*
X77352789Y-86195961D01*
X77334408Y-86375556D01*
X77315767Y-86621577D01*
X77298781Y-86910815D01*
X77293483Y-87020127D01*
X77274758Y-87358457D01*
X77252789Y-87598979D01*
X77225069Y-87756777D01*
X77189090Y-87846930D01*
X77150221Y-87881604D01*
X77042683Y-87900106D01*
X77011184Y-87884698D01*
X76980752Y-87809961D01*
X76935286Y-87659575D01*
X76894002Y-87503000D01*
X76789984Y-87103283D01*
X76702772Y-86810435D01*
X76630702Y-86619356D01*
X76576607Y-86529333D01*
X76552718Y-86442792D01*
X76644883Y-86342122D01*
X76862169Y-86219473D01*
X77014396Y-86150129D01*
X77231929Y-86057531D01*
X77348304Y-86017964D01*
X77388304Y-86028343D01*
G36*
X84799715Y-92357222D02*
G01*
X84763429Y-92385444D01*
X84727143Y-92357222D01*
X84763429Y-92329000D01*
X84799715Y-92357222D01*
G37*
X84799715Y-92357222D02*
X84763429Y-92385444D01*
X84727143Y-92357222D01*
X84763429Y-92329000D01*
X84799715Y-92357222D01*
G36*
X84872286Y-92470111D02*
G01*
X84836001Y-92498333D01*
X84799715Y-92470111D01*
X84836001Y-92441889D01*
X84872286Y-92470111D01*
G37*
X84872286Y-92470111D02*
X84836001Y-92498333D01*
X84799715Y-92470111D01*
X84836001Y-92441889D01*
X84872286Y-92470111D01*
G36*
X80544192Y-85665520D02*
G01*
X80886975Y-85679513D01*
X81162889Y-85701679D01*
X81341701Y-85732020D01*
X81388858Y-85753222D01*
X81520071Y-85811842D01*
X81714054Y-85837816D01*
X81724315Y-85837889D01*
X81884612Y-85845842D01*
X81952402Y-85892034D01*
X81965815Y-86009965D01*
X81965241Y-86049555D01*
X81949281Y-86412108D01*
X81917803Y-86771252D01*
X81874242Y-87103886D01*
X81822036Y-87386913D01*
X81764621Y-87597231D01*
X81720835Y-87692424D01*
X81647935Y-87820015D01*
X81625050Y-87898862D01*
X81628852Y-87906032D01*
X81712788Y-87900274D01*
X81864878Y-87840185D01*
X82045719Y-87747233D01*
X82215907Y-87642888D01*
X82336039Y-87548616D01*
X82368592Y-87503000D01*
X82390831Y-87403190D01*
X82427332Y-87219308D01*
X82472710Y-86979132D01*
X82513719Y-86754362D01*
X82575232Y-86426139D01*
X82625375Y-86195915D01*
X82668298Y-86049445D01*
X82708151Y-85972486D01*
X82747843Y-85950777D01*
X82824030Y-85977943D01*
X82988158Y-86049182D01*
X83204788Y-86149110D01*
X83206140Y-86149749D01*
X83627265Y-86348720D01*
X83810555Y-86956674D01*
X83998928Y-87520800D01*
X84204497Y-88026480D01*
X84420409Y-88459801D01*
X84639807Y-88806851D01*
X84833697Y-89033091D01*
X84984263Y-89189419D01*
X85093870Y-89341937D01*
X85181420Y-89525166D01*
X85265818Y-89773628D01*
X85297347Y-89879758D01*
X85459758Y-90438111D01*
X85309403Y-91165384D01*
X85242699Y-91482174D01*
X85189963Y-91706925D01*
X85143196Y-91859188D01*
X85094402Y-91958511D01*
X85035582Y-92024445D01*
X84958740Y-92076540D01*
X84929943Y-92092973D01*
X84838544Y-92166710D01*
X84829898Y-92208431D01*
X84794029Y-92237944D01*
X84680076Y-92246902D01*
X84490231Y-92192129D01*
X84405021Y-92109707D01*
X84320713Y-92024097D01*
X84262209Y-92048190D01*
X84230210Y-92180503D01*
X84225417Y-92419553D01*
X84228006Y-92484717D01*
X84247097Y-92754553D01*
X84274257Y-92915915D01*
X84311062Y-92973108D01*
X84359088Y-92930433D01*
X84378078Y-92894307D01*
X84435915Y-92805513D01*
X84473404Y-92790165D01*
X84482879Y-92849963D01*
X84492106Y-92998708D01*
X84500612Y-93212459D01*
X84507926Y-93467274D01*
X84513574Y-93739213D01*
X84517084Y-94004334D01*
X84517984Y-94238695D01*
X84515801Y-94418355D01*
X84510063Y-94519373D01*
X84507744Y-94530333D01*
X84492415Y-94602738D01*
X84479027Y-94687633D01*
X84473730Y-94764241D01*
X84506818Y-94773957D01*
X84605518Y-94712653D01*
X84684646Y-94656467D01*
X84904704Y-94502603D01*
X85055747Y-94414673D01*
X85173911Y-94380793D01*
X85295330Y-94389084D01*
X85413763Y-94416723D01*
X85670572Y-94482643D01*
X85670572Y-96336555D01*
X74422001Y-96336555D01*
X74422001Y-94548453D01*
X74606844Y-94482949D01*
X74836808Y-94425886D01*
X75034822Y-94445162D01*
X75246307Y-94548905D01*
X75343248Y-94614730D01*
X75511662Y-94727104D01*
X75640261Y-94798681D01*
X75681789Y-94812286D01*
X75702342Y-94759914D01*
X75710587Y-94617633D01*
X75706167Y-94408041D01*
X75697189Y-94271475D01*
X78361279Y-94271475D01*
X78362441Y-94429803D01*
X78376502Y-94656328D01*
X78402463Y-94929000D01*
X78409745Y-94993614D01*
X78452660Y-95325331D01*
X78494566Y-95559446D01*
X78539254Y-95711186D01*
X78590512Y-95795777D01*
X78614072Y-95814444D01*
X78759673Y-95878615D01*
X78857747Y-95848932D01*
X78909286Y-95786222D01*
X78961593Y-95677156D01*
X79025359Y-95503462D01*
X79064869Y-95377000D01*
X79152446Y-95155108D01*
X79273573Y-94940963D01*
X79338329Y-94854889D01*
X79521740Y-94643222D01*
X80076313Y-94643222D01*
X80420340Y-94654868D01*
X80654300Y-94701982D01*
X80811573Y-94802827D01*
X80925541Y-94975668D01*
X80996461Y-95146667D01*
X81079195Y-95368539D01*
X81164612Y-95596170D01*
X81183072Y-95645111D01*
X81266647Y-95813252D01*
X81361847Y-95877733D01*
X81488118Y-95847616D01*
X81546397Y-95814444D01*
X81601298Y-95746415D01*
X81648617Y-95608144D01*
X81691611Y-95386092D01*
X81733537Y-95066721D01*
X81739877Y-95010111D01*
X81771546Y-94708136D01*
X81787710Y-94498740D01*
X81787281Y-94362168D01*
X81769173Y-94278669D01*
X81732298Y-94228488D01*
X81695467Y-94203035D01*
X81615938Y-94177656D01*
X81466442Y-94159470D01*
X81231268Y-94147954D01*
X80894704Y-94142585D01*
X80441039Y-94142842D01*
X79997754Y-94146591D01*
X79533776Y-94153307D01*
X79119312Y-94162626D01*
X78776150Y-94173787D01*
X78526078Y-94186027D01*
X78390882Y-94198585D01*
X78374012Y-94203392D01*
X78361279Y-94271475D01*
X75697189Y-94271475D01*
X75691730Y-94188443D01*
X75671176Y-93905749D01*
X75666973Y-93714729D01*
X75680792Y-93594747D01*
X75714306Y-93525165D01*
X75747751Y-93496998D01*
X75801713Y-93428942D01*
X75843296Y-93290928D01*
X75875626Y-93068198D01*
X75899568Y-92780555D01*
X75914431Y-92427054D01*
X75912795Y-92385444D01*
X76671715Y-92385444D01*
X76698268Y-92431904D01*
X76720096Y-92423074D01*
X76728781Y-92356087D01*
X76720096Y-92347814D01*
X76676952Y-92355563D01*
X76671715Y-92385444D01*
X75912795Y-92385444D01*
X75904767Y-92181282D01*
X75870799Y-92044160D01*
X75812749Y-92016606D01*
X75733533Y-92095596D01*
X75636046Y-92190937D01*
X75515528Y-92200511D01*
X75345899Y-92122369D01*
X75248504Y-92059370D01*
X75143797Y-91978801D01*
X75067494Y-91887468D01*
X75007285Y-91759700D01*
X74950858Y-91569830D01*
X74890534Y-91313000D01*
X74813821Y-90936527D01*
X74773578Y-90635083D01*
X74769999Y-90374391D01*
X74803276Y-90120174D01*
X74873603Y-89838154D01*
X74899320Y-89751638D01*
X74985306Y-89499193D01*
X75076126Y-89318849D01*
X75196597Y-89170890D01*
X75346287Y-89036403D01*
X75476711Y-88919235D01*
X75584490Y-88795386D01*
X75683589Y-88641866D01*
X75787976Y-88435686D01*
X75911618Y-88153859D01*
X75975160Y-88001320D01*
X76094514Y-87708638D01*
X76200596Y-87442039D01*
X76283878Y-87225939D01*
X76334834Y-87084751D01*
X76342894Y-87058895D01*
X76382360Y-86948633D01*
X76415264Y-86925131D01*
X76442051Y-86992452D01*
X76463164Y-87154663D01*
X76479050Y-87415829D01*
X76490152Y-87780014D01*
X76496917Y-88251284D01*
X76498567Y-88481367D01*
X76506849Y-89986555D01*
X77155503Y-90014777D01*
X77562785Y-90044049D01*
X77853163Y-90090285D01*
X77981793Y-90133219D01*
X78177853Y-90214920D01*
X78406217Y-90287716D01*
X78413429Y-90289613D01*
X78627454Y-90360563D01*
X78816641Y-90448572D01*
X78947483Y-90534634D01*
X78986473Y-90599743D01*
X78978464Y-90610120D01*
X78886665Y-90620198D01*
X78696095Y-90608395D01*
X78471549Y-90580530D01*
X78144916Y-90533211D01*
X77800678Y-90485464D01*
X77615143Y-90460844D01*
X77361292Y-90426773D01*
X77145694Y-90395557D01*
X77059669Y-90381688D01*
X76933238Y-90388409D01*
X76818426Y-90473007D01*
X76753958Y-90550925D01*
X76604579Y-90747842D01*
X76815972Y-90832865D01*
X76965459Y-90872993D01*
X77192583Y-90899391D01*
X77520122Y-90913778D01*
X77942394Y-90917889D01*
X78355545Y-90922116D01*
X78640453Y-90934536D01*
X78791042Y-90954755D01*
X78812572Y-90974333D01*
X78724227Y-90997164D01*
X78514344Y-91015087D01*
X78206456Y-91026743D01*
X77834833Y-91030777D01*
X77447224Y-91029572D01*
X77169319Y-91022887D01*
X76965685Y-91006120D01*
X76800887Y-90974669D01*
X76639492Y-90923931D01*
X76450110Y-90850913D01*
X76199821Y-90743953D01*
X76036611Y-90644474D01*
X75914265Y-90515279D01*
X75786567Y-90319173D01*
X75783868Y-90314690D01*
X75673984Y-90138286D01*
X75587454Y-90010851D01*
X75542080Y-89958514D01*
X75541062Y-89958333D01*
X75496696Y-90004631D01*
X75407727Y-90125987D01*
X75293786Y-90295569D01*
X75074911Y-90632805D01*
X75324936Y-91048162D01*
X75527651Y-91340979D01*
X75747371Y-91560060D01*
X75917328Y-91681720D01*
X76130302Y-91819061D01*
X76319234Y-91943615D01*
X76411277Y-92006250D01*
X76545891Y-92093583D01*
X76752736Y-92220086D01*
X76985589Y-92357528D01*
X77342725Y-92599246D01*
X77615956Y-92871898D01*
X77830383Y-93205025D01*
X77968493Y-93514333D01*
X78050277Y-93723994D01*
X78117109Y-93894781D01*
X78156653Y-93995183D01*
X78160138Y-94003888D01*
X78227165Y-94030440D01*
X78388993Y-93988695D01*
X78460644Y-93961555D01*
X78574007Y-93922577D01*
X78704214Y-93894082D01*
X78874988Y-93874482D01*
X79110052Y-93862189D01*
X79433127Y-93855616D01*
X79867937Y-93853175D01*
X80082572Y-93853000D01*
X80572642Y-93854330D01*
X80940975Y-93859326D01*
X81210950Y-93869494D01*
X81405947Y-93886339D01*
X81549344Y-93911368D01*
X81664522Y-93946088D01*
X81692268Y-93956704D01*
X81953796Y-94060409D01*
X82154901Y-93550507D01*
X82263733Y-93299960D01*
X82381927Y-93068084D01*
X82489703Y-92892464D01*
X82525575Y-92846259D01*
X82631496Y-92715943D01*
X82690661Y-92625840D01*
X82695143Y-92611478D01*
X82642994Y-92561604D01*
X82501802Y-92455406D01*
X82294451Y-92308433D01*
X82043823Y-92136234D01*
X81772804Y-91954356D01*
X81504276Y-91778348D01*
X81261123Y-91623759D01*
X81080429Y-91514356D01*
X80893929Y-91382902D01*
X80815661Y-91257321D01*
X80808286Y-91193411D01*
X80823363Y-91084032D01*
X80897798Y-91039176D01*
X81062286Y-91030777D01*
X81230211Y-91018751D01*
X81314106Y-90989181D01*
X81316286Y-90982920D01*
X81384447Y-90962922D01*
X81571478Y-90941091D01*
X81851205Y-90919702D01*
X82197450Y-90901032D01*
X82314143Y-90896154D01*
X82768468Y-90875374D01*
X83092939Y-90850430D01*
X83198087Y-90833222D01*
X84219143Y-90833222D01*
X84255429Y-90861444D01*
X84291715Y-90833222D01*
X84255429Y-90805000D01*
X84219143Y-90833222D01*
X83198087Y-90833222D01*
X83302839Y-90816079D01*
X83413449Y-90767078D01*
X83440052Y-90698184D01*
X83397930Y-90604155D01*
X83351391Y-90540318D01*
X83206266Y-90408142D01*
X83080629Y-90384015D01*
X82804754Y-90427600D01*
X82475359Y-90476332D01*
X82126562Y-90525575D01*
X81792478Y-90570694D01*
X81507226Y-90607055D01*
X81304921Y-90630020D01*
X81228401Y-90635666D01*
X81122782Y-90609360D01*
X81125460Y-90549694D01*
X81135762Y-90493640D01*
X81057116Y-90510241D01*
X81024827Y-90523266D01*
X80888715Y-90547799D01*
X80636311Y-90563576D01*
X80296144Y-90569347D01*
X80028604Y-90566905D01*
X79175429Y-90551000D01*
X79153267Y-90344054D01*
X79139813Y-90269090D01*
X81057164Y-90269090D01*
X81061653Y-90371003D01*
X81107806Y-90409889D01*
X81148185Y-90371261D01*
X81136436Y-90339333D01*
X81136031Y-90320304D01*
X81186275Y-90367635D01*
X81274430Y-90439263D01*
X81315980Y-90449325D01*
X81399598Y-90418238D01*
X81566347Y-90360469D01*
X81642858Y-90334585D01*
X81886257Y-90246924D01*
X82115114Y-90155576D01*
X82150858Y-90140005D01*
X82376596Y-90077211D01*
X82720654Y-90032207D01*
X82985429Y-90014777D01*
X83602286Y-89986555D01*
X83615942Y-88265000D01*
X83619362Y-87756268D01*
X83619531Y-87356084D01*
X83614746Y-87060115D01*
X83603304Y-86864026D01*
X83583504Y-86763483D01*
X83553641Y-86754152D01*
X83512013Y-86831699D01*
X83456917Y-86991789D01*
X83386651Y-87230090D01*
X83312931Y-87493769D01*
X83249536Y-87712701D01*
X83199365Y-87841568D01*
X83147443Y-87901042D01*
X83078792Y-87911795D01*
X83016996Y-87902233D01*
X82940591Y-87887234D01*
X82886249Y-87889344D01*
X82843842Y-87926042D01*
X82803244Y-88014806D01*
X82754327Y-88173116D01*
X82686964Y-88418450D01*
X82659637Y-88519000D01*
X82566134Y-88859751D01*
X82490256Y-89110009D01*
X82418119Y-89289474D01*
X82335839Y-89417850D01*
X82229530Y-89514839D01*
X82085310Y-89600144D01*
X81889294Y-89693466D01*
X81804685Y-89732218D01*
X81544603Y-89854555D01*
X81327598Y-89962257D01*
X81188326Y-90037909D01*
X81162627Y-90054914D01*
X81093133Y-90148758D01*
X81057164Y-90269090D01*
X79139813Y-90269090D01*
X79137687Y-90257249D01*
X79099759Y-90181675D01*
X79021704Y-90105075D01*
X78885739Y-90015193D01*
X78674082Y-89899773D01*
X78368951Y-89746558D01*
X78084919Y-89607674D01*
X77889701Y-89493613D01*
X77776299Y-89362459D01*
X77706923Y-89189761D01*
X77577197Y-88771094D01*
X77479281Y-88449112D01*
X77410110Y-88210917D01*
X77366623Y-88043613D01*
X77345756Y-87934301D01*
X77344447Y-87870085D01*
X77359633Y-87838068D01*
X77383185Y-87826544D01*
X77442831Y-87779390D01*
X77436363Y-87760332D01*
X77469201Y-87736990D01*
X77581054Y-87743511D01*
X77718790Y-87742723D01*
X77760286Y-87707135D01*
X77803029Y-87649757D01*
X77934827Y-87672112D01*
X78161038Y-87775183D01*
X78177297Y-87783727D01*
X78342424Y-87863542D01*
X78450853Y-87902037D01*
X78469451Y-87901575D01*
X78465845Y-87840200D01*
X78427191Y-87704685D01*
X78382171Y-87578515D01*
X78340318Y-87431029D01*
X78296769Y-87214472D01*
X78254612Y-86954215D01*
X78216933Y-86675632D01*
X78186819Y-86404095D01*
X78167358Y-86164975D01*
X78161637Y-85983646D01*
X78172743Y-85885479D01*
X78175534Y-85880222D01*
X78260368Y-85851328D01*
X78428117Y-85837993D01*
X78445112Y-85837889D01*
X78638848Y-85813750D01*
X78773825Y-85755450D01*
X78776286Y-85753222D01*
X78885392Y-85718170D01*
X79109026Y-85691292D01*
X79416956Y-85672588D01*
X79778949Y-85662058D01*
X80164772Y-85659702D01*
X80544192Y-85665520D01*
G37*
X80544192Y-85665520D02*
X80886975Y-85679513D01*
X81162889Y-85701679D01*
X81341701Y-85732020D01*
X81388858Y-85753222D01*
X81520071Y-85811842D01*
X81714054Y-85837816D01*
X81724315Y-85837889D01*
X81884612Y-85845842D01*
X81952402Y-85892034D01*
X81965815Y-86009965D01*
X81965241Y-86049555D01*
X81949281Y-86412108D01*
X81917803Y-86771252D01*
X81874242Y-87103886D01*
X81822036Y-87386913D01*
X81764621Y-87597231D01*
X81720835Y-87692424D01*
X81647935Y-87820015D01*
X81625050Y-87898862D01*
X81628852Y-87906032D01*
X81712788Y-87900274D01*
X81864878Y-87840185D01*
X82045719Y-87747233D01*
X82215907Y-87642888D01*
X82336039Y-87548616D01*
X82368592Y-87503000D01*
X82390831Y-87403190D01*
X82427332Y-87219308D01*
X82472710Y-86979132D01*
X82513719Y-86754362D01*
X82575232Y-86426139D01*
X82625375Y-86195915D01*
X82668298Y-86049445D01*
X82708151Y-85972486D01*
X82747843Y-85950777D01*
X82824030Y-85977943D01*
X82988158Y-86049182D01*
X83204788Y-86149110D01*
X83206140Y-86149749D01*
X83627265Y-86348720D01*
X83810555Y-86956674D01*
X83998928Y-87520800D01*
X84204497Y-88026480D01*
X84420409Y-88459801D01*
X84639807Y-88806851D01*
X84833697Y-89033091D01*
X84984263Y-89189419D01*
X85093870Y-89341937D01*
X85181420Y-89525166D01*
X85265818Y-89773628D01*
X85297347Y-89879758D01*
X85459758Y-90438111D01*
X85309403Y-91165384D01*
X85242699Y-91482174D01*
X85189963Y-91706925D01*
X85143196Y-91859188D01*
X85094402Y-91958511D01*
X85035582Y-92024445D01*
X84958740Y-92076540D01*
X84929943Y-92092973D01*
X84838544Y-92166710D01*
X84829898Y-92208431D01*
X84794029Y-92237944D01*
X84680076Y-92246902D01*
X84490231Y-92192129D01*
X84405021Y-92109707D01*
X84320713Y-92024097D01*
X84262209Y-92048190D01*
X84230210Y-92180503D01*
X84225417Y-92419553D01*
X84228006Y-92484717D01*
X84247097Y-92754553D01*
X84274257Y-92915915D01*
X84311062Y-92973108D01*
X84359088Y-92930433D01*
X84378078Y-92894307D01*
X84435915Y-92805513D01*
X84473404Y-92790165D01*
X84482879Y-92849963D01*
X84492106Y-92998708D01*
X84500612Y-93212459D01*
X84507926Y-93467274D01*
X84513574Y-93739213D01*
X84517084Y-94004334D01*
X84517984Y-94238695D01*
X84515801Y-94418355D01*
X84510063Y-94519373D01*
X84507744Y-94530333D01*
X84492415Y-94602738D01*
X84479027Y-94687633D01*
X84473730Y-94764241D01*
X84506818Y-94773957D01*
X84605518Y-94712653D01*
X84684646Y-94656467D01*
X84904704Y-94502603D01*
X85055747Y-94414673D01*
X85173911Y-94380793D01*
X85295330Y-94389084D01*
X85413763Y-94416723D01*
X85670572Y-94482643D01*
X85670572Y-96336555D01*
X74422001Y-96336555D01*
X74422001Y-94548453D01*
X74606844Y-94482949D01*
X74836808Y-94425886D01*
X75034822Y-94445162D01*
X75246307Y-94548905D01*
X75343248Y-94614730D01*
X75511662Y-94727104D01*
X75640261Y-94798681D01*
X75681789Y-94812286D01*
X75702342Y-94759914D01*
X75710587Y-94617633D01*
X75706167Y-94408041D01*
X75697189Y-94271475D01*
X78361279Y-94271475D01*
X78362441Y-94429803D01*
X78376502Y-94656328D01*
X78402463Y-94929000D01*
X78409745Y-94993614D01*
X78452660Y-95325331D01*
X78494566Y-95559446D01*
X78539254Y-95711186D01*
X78590512Y-95795777D01*
X78614072Y-95814444D01*
X78759673Y-95878615D01*
X78857747Y-95848932D01*
X78909286Y-95786222D01*
X78961593Y-95677156D01*
X79025359Y-95503462D01*
X79064869Y-95377000D01*
X79152446Y-95155108D01*
X79273573Y-94940963D01*
X79338329Y-94854889D01*
X79521740Y-94643222D01*
X80076313Y-94643222D01*
X80420340Y-94654868D01*
X80654300Y-94701982D01*
X80811573Y-94802827D01*
X80925541Y-94975668D01*
X80996461Y-95146667D01*
X81079195Y-95368539D01*
X81164612Y-95596170D01*
X81183072Y-95645111D01*
X81266647Y-95813252D01*
X81361847Y-95877733D01*
X81488118Y-95847616D01*
X81546397Y-95814444D01*
X81601298Y-95746415D01*
X81648617Y-95608144D01*
X81691611Y-95386092D01*
X81733537Y-95066721D01*
X81739877Y-95010111D01*
X81771546Y-94708136D01*
X81787710Y-94498740D01*
X81787281Y-94362168D01*
X81769173Y-94278669D01*
X81732298Y-94228488D01*
X81695467Y-94203035D01*
X81615938Y-94177656D01*
X81466442Y-94159470D01*
X81231268Y-94147954D01*
X80894704Y-94142585D01*
X80441039Y-94142842D01*
X79997754Y-94146591D01*
X79533776Y-94153307D01*
X79119312Y-94162626D01*
X78776150Y-94173787D01*
X78526078Y-94186027D01*
X78390882Y-94198585D01*
X78374012Y-94203392D01*
X78361279Y-94271475D01*
X75697189Y-94271475D01*
X75691730Y-94188443D01*
X75671176Y-93905749D01*
X75666973Y-93714729D01*
X75680792Y-93594747D01*
X75714306Y-93525165D01*
X75747751Y-93496998D01*
X75801713Y-93428942D01*
X75843296Y-93290928D01*
X75875626Y-93068198D01*
X75899568Y-92780555D01*
X75914431Y-92427054D01*
X75912795Y-92385444D01*
X76671715Y-92385444D01*
X76698268Y-92431904D01*
X76720096Y-92423074D01*
X76728781Y-92356087D01*
X76720096Y-92347814D01*
X76676952Y-92355563D01*
X76671715Y-92385444D01*
X75912795Y-92385444D01*
X75904767Y-92181282D01*
X75870799Y-92044160D01*
X75812749Y-92016606D01*
X75733533Y-92095596D01*
X75636046Y-92190937D01*
X75515528Y-92200511D01*
X75345899Y-92122369D01*
X75248504Y-92059370D01*
X75143797Y-91978801D01*
X75067494Y-91887468D01*
X75007285Y-91759700D01*
X74950858Y-91569830D01*
X74890534Y-91313000D01*
X74813821Y-90936527D01*
X74773578Y-90635083D01*
X74769999Y-90374391D01*
X74803276Y-90120174D01*
X74873603Y-89838154D01*
X74899320Y-89751638D01*
X74985306Y-89499193D01*
X75076126Y-89318849D01*
X75196597Y-89170890D01*
X75346287Y-89036403D01*
X75476711Y-88919235D01*
X75584490Y-88795386D01*
X75683589Y-88641866D01*
X75787976Y-88435686D01*
X75911618Y-88153859D01*
X75975160Y-88001320D01*
X76094514Y-87708638D01*
X76200596Y-87442039D01*
X76283878Y-87225939D01*
X76334834Y-87084751D01*
X76342894Y-87058895D01*
X76382360Y-86948633D01*
X76415264Y-86925131D01*
X76442051Y-86992452D01*
X76463164Y-87154663D01*
X76479050Y-87415829D01*
X76490152Y-87780014D01*
X76496917Y-88251284D01*
X76498567Y-88481367D01*
X76506849Y-89986555D01*
X77155503Y-90014777D01*
X77562785Y-90044049D01*
X77853163Y-90090285D01*
X77981793Y-90133219D01*
X78177853Y-90214920D01*
X78406217Y-90287716D01*
X78413429Y-90289613D01*
X78627454Y-90360563D01*
X78816641Y-90448572D01*
X78947483Y-90534634D01*
X78986473Y-90599743D01*
X78978464Y-90610120D01*
X78886665Y-90620198D01*
X78696095Y-90608395D01*
X78471549Y-90580530D01*
X78144916Y-90533211D01*
X77800678Y-90485464D01*
X77615143Y-90460844D01*
X77361292Y-90426773D01*
X77145694Y-90395557D01*
X77059669Y-90381688D01*
X76933238Y-90388409D01*
X76818426Y-90473007D01*
X76753958Y-90550925D01*
X76604579Y-90747842D01*
X76815972Y-90832865D01*
X76965459Y-90872993D01*
X77192583Y-90899391D01*
X77520122Y-90913778D01*
X77942394Y-90917889D01*
X78355545Y-90922116D01*
X78640453Y-90934536D01*
X78791042Y-90954755D01*
X78812572Y-90974333D01*
X78724227Y-90997164D01*
X78514344Y-91015087D01*
X78206456Y-91026743D01*
X77834833Y-91030777D01*
X77447224Y-91029572D01*
X77169319Y-91022887D01*
X76965685Y-91006120D01*
X76800887Y-90974669D01*
X76639492Y-90923931D01*
X76450110Y-90850913D01*
X76199821Y-90743953D01*
X76036611Y-90644474D01*
X75914265Y-90515279D01*
X75786567Y-90319173D01*
X75783868Y-90314690D01*
X75673984Y-90138286D01*
X75587454Y-90010851D01*
X75542080Y-89958514D01*
X75541062Y-89958333D01*
X75496696Y-90004631D01*
X75407727Y-90125987D01*
X75293786Y-90295569D01*
X75074911Y-90632805D01*
X75324936Y-91048162D01*
X75527651Y-91340979D01*
X75747371Y-91560060D01*
X75917328Y-91681720D01*
X76130302Y-91819061D01*
X76319234Y-91943615D01*
X76411277Y-92006250D01*
X76545891Y-92093583D01*
X76752736Y-92220086D01*
X76985589Y-92357528D01*
X77342725Y-92599246D01*
X77615956Y-92871898D01*
X77830383Y-93205025D01*
X77968493Y-93514333D01*
X78050277Y-93723994D01*
X78117109Y-93894781D01*
X78156653Y-93995183D01*
X78160138Y-94003888D01*
X78227165Y-94030440D01*
X78388993Y-93988695D01*
X78460644Y-93961555D01*
X78574007Y-93922577D01*
X78704214Y-93894082D01*
X78874988Y-93874482D01*
X79110052Y-93862189D01*
X79433127Y-93855616D01*
X79867937Y-93853175D01*
X80082572Y-93853000D01*
X80572642Y-93854330D01*
X80940975Y-93859326D01*
X81210950Y-93869494D01*
X81405947Y-93886339D01*
X81549344Y-93911368D01*
X81664522Y-93946088D01*
X81692268Y-93956704D01*
X81953796Y-94060409D01*
X82154901Y-93550507D01*
X82263733Y-93299960D01*
X82381927Y-93068084D01*
X82489703Y-92892464D01*
X82525575Y-92846259D01*
X82631496Y-92715943D01*
X82690661Y-92625840D01*
X82695143Y-92611478D01*
X82642994Y-92561604D01*
X82501802Y-92455406D01*
X82294451Y-92308433D01*
X82043823Y-92136234D01*
X81772804Y-91954356D01*
X81504276Y-91778348D01*
X81261123Y-91623759D01*
X81080429Y-91514356D01*
X80893929Y-91382902D01*
X80815661Y-91257321D01*
X80808286Y-91193411D01*
X80823363Y-91084032D01*
X80897798Y-91039176D01*
X81062286Y-91030777D01*
X81230211Y-91018751D01*
X81314106Y-90989181D01*
X81316286Y-90982920D01*
X81384447Y-90962922D01*
X81571478Y-90941091D01*
X81851205Y-90919702D01*
X82197450Y-90901032D01*
X82314143Y-90896154D01*
X82768468Y-90875374D01*
X83092939Y-90850430D01*
X83198087Y-90833222D01*
X84219143Y-90833222D01*
X84255429Y-90861444D01*
X84291715Y-90833222D01*
X84255429Y-90805000D01*
X84219143Y-90833222D01*
X83198087Y-90833222D01*
X83302839Y-90816079D01*
X83413449Y-90767078D01*
X83440052Y-90698184D01*
X83397930Y-90604155D01*
X83351391Y-90540318D01*
X83206266Y-90408142D01*
X83080629Y-90384015D01*
X82804754Y-90427600D01*
X82475359Y-90476332D01*
X82126562Y-90525575D01*
X81792478Y-90570694D01*
X81507226Y-90607055D01*
X81304921Y-90630020D01*
X81228401Y-90635666D01*
X81122782Y-90609360D01*
X81125460Y-90549694D01*
X81135762Y-90493640D01*
X81057116Y-90510241D01*
X81024827Y-90523266D01*
X80888715Y-90547799D01*
X80636311Y-90563576D01*
X80296144Y-90569347D01*
X80028604Y-90566905D01*
X79175429Y-90551000D01*
X79153267Y-90344054D01*
X79139813Y-90269090D01*
X81057164Y-90269090D01*
X81061653Y-90371003D01*
X81107806Y-90409889D01*
X81148185Y-90371261D01*
X81136436Y-90339333D01*
X81136031Y-90320304D01*
X81186275Y-90367635D01*
X81274430Y-90439263D01*
X81315980Y-90449325D01*
X81399598Y-90418238D01*
X81566347Y-90360469D01*
X81642858Y-90334585D01*
X81886257Y-90246924D01*
X82115114Y-90155576D01*
X82150858Y-90140005D01*
X82376596Y-90077211D01*
X82720654Y-90032207D01*
X82985429Y-90014777D01*
X83602286Y-89986555D01*
X83615942Y-88265000D01*
X83619362Y-87756268D01*
X83619531Y-87356084D01*
X83614746Y-87060115D01*
X83603304Y-86864026D01*
X83583504Y-86763483D01*
X83553641Y-86754152D01*
X83512013Y-86831699D01*
X83456917Y-86991789D01*
X83386651Y-87230090D01*
X83312931Y-87493769D01*
X83249536Y-87712701D01*
X83199365Y-87841568D01*
X83147443Y-87901042D01*
X83078792Y-87911795D01*
X83016996Y-87902233D01*
X82940591Y-87887234D01*
X82886249Y-87889344D01*
X82843842Y-87926042D01*
X82803244Y-88014806D01*
X82754327Y-88173116D01*
X82686964Y-88418450D01*
X82659637Y-88519000D01*
X82566134Y-88859751D01*
X82490256Y-89110009D01*
X82418119Y-89289474D01*
X82335839Y-89417850D01*
X82229530Y-89514839D01*
X82085310Y-89600144D01*
X81889294Y-89693466D01*
X81804685Y-89732218D01*
X81544603Y-89854555D01*
X81327598Y-89962257D01*
X81188326Y-90037909D01*
X81162627Y-90054914D01*
X81093133Y-90148758D01*
X81057164Y-90269090D01*
X79139813Y-90269090D01*
X79137687Y-90257249D01*
X79099759Y-90181675D01*
X79021704Y-90105075D01*
X78885739Y-90015193D01*
X78674082Y-89899773D01*
X78368951Y-89746558D01*
X78084919Y-89607674D01*
X77889701Y-89493613D01*
X77776299Y-89362459D01*
X77706923Y-89189761D01*
X77577197Y-88771094D01*
X77479281Y-88449112D01*
X77410110Y-88210917D01*
X77366623Y-88043613D01*
X77345756Y-87934301D01*
X77344447Y-87870085D01*
X77359633Y-87838068D01*
X77383185Y-87826544D01*
X77442831Y-87779390D01*
X77436363Y-87760332D01*
X77469201Y-87736990D01*
X77581054Y-87743511D01*
X77718790Y-87742723D01*
X77760286Y-87707135D01*
X77803029Y-87649757D01*
X77934827Y-87672112D01*
X78161038Y-87775183D01*
X78177297Y-87783727D01*
X78342424Y-87863542D01*
X78450853Y-87902037D01*
X78469451Y-87901575D01*
X78465845Y-87840200D01*
X78427191Y-87704685D01*
X78382171Y-87578515D01*
X78340318Y-87431029D01*
X78296769Y-87214472D01*
X78254612Y-86954215D01*
X78216933Y-86675632D01*
X78186819Y-86404095D01*
X78167358Y-86164975D01*
X78161637Y-85983646D01*
X78172743Y-85885479D01*
X78175534Y-85880222D01*
X78260368Y-85851328D01*
X78428117Y-85837993D01*
X78445112Y-85837889D01*
X78638848Y-85813750D01*
X78773825Y-85755450D01*
X78776286Y-85753222D01*
X78885392Y-85718170D01*
X79109026Y-85691292D01*
X79416956Y-85672588D01*
X79778949Y-85662058D01*
X80164772Y-85659702D01*
X80544192Y-85665520D01*
G36*
X95576453Y-66138693D02*
G01*
X95942937Y-66378688D01*
X95971397Y-66402647D01*
X96288937Y-66789541D01*
X96391799Y-67284796D01*
X96392999Y-67366039D01*
X96416443Y-67752170D01*
X96509695Y-67887658D01*
X96654937Y-67860294D01*
X96949712Y-67789528D01*
X97440101Y-67717040D01*
X97869375Y-67672313D01*
X98358651Y-67639591D01*
X98710221Y-67666577D01*
X99028183Y-67788846D01*
X99416636Y-68041974D01*
X99813813Y-68336806D01*
X100403250Y-68836468D01*
X100977878Y-69416059D01*
X101394370Y-69925096D01*
X101793398Y-70435755D01*
X102086394Y-70668217D01*
X102228056Y-70677007D01*
X102272554Y-70708996D01*
X102106415Y-70893046D01*
X101957187Y-71026166D01*
X101585568Y-71442138D01*
X101441417Y-71832858D01*
X101441250Y-71844518D01*
X101400849Y-72105379D01*
X101215434Y-72167172D01*
X100985086Y-72132079D01*
X100586146Y-72128100D01*
X100311916Y-72351135D01*
X100296160Y-72373163D01*
X100090478Y-72586956D01*
X99964238Y-72606322D01*
X99909330Y-72679059D01*
X99894159Y-72982054D01*
X99899102Y-73106274D01*
X100016734Y-73650364D01*
X100297649Y-73922949D01*
X100750013Y-73929554D01*
X101000649Y-73851469D01*
X101367370Y-73737819D01*
X101578439Y-73784136D01*
X101738425Y-73973891D01*
X101999271Y-74199724D01*
X102432675Y-74289357D01*
X102641869Y-74295000D01*
X103084315Y-74261223D01*
X103378402Y-74176430D01*
X103425625Y-74136250D01*
X103640800Y-74020731D01*
X103978978Y-73977500D01*
X104352416Y-73898506D01*
X104509075Y-73736263D01*
X104561546Y-73620674D01*
X104558601Y-73775950D01*
X104397376Y-74013082D01*
X103979447Y-74141329D01*
X103620305Y-74235283D01*
X103450743Y-74357594D01*
X103448683Y-74379454D01*
X103581663Y-75118912D01*
X103763495Y-75938158D01*
X103967677Y-76732258D01*
X104167707Y-77396276D01*
X104298677Y-77744934D01*
X104539193Y-78474109D01*
X104606088Y-79134587D01*
X104491907Y-79638874D01*
X104464149Y-79687175D01*
X104418420Y-80006361D01*
X104486018Y-80123738D01*
X104556698Y-80293698D01*
X104421122Y-80330769D01*
X104155884Y-80246295D01*
X103837574Y-80051625D01*
X103800399Y-80022173D01*
X103560318Y-79812396D01*
X103561173Y-79739742D01*
X103743125Y-79744361D01*
X103948850Y-79718196D01*
X104024333Y-79535427D01*
X104013916Y-79175357D01*
X103916471Y-78640415D01*
X103732064Y-78049594D01*
X103673303Y-77905357D01*
X103379399Y-77231875D01*
X103460317Y-77946250D01*
X103562482Y-78506777D01*
X103716447Y-79016789D01*
X103761931Y-79122957D01*
X103892134Y-79462135D01*
X103908713Y-79658110D01*
X103904647Y-79663269D01*
X103787459Y-79612812D01*
X103640652Y-79309864D01*
X103482641Y-78815781D01*
X103331844Y-78191918D01*
X103206676Y-77499630D01*
X103166133Y-77202853D01*
X103078607Y-76610944D01*
X102966701Y-76023024D01*
X102845398Y-75495624D01*
X102729683Y-75085276D01*
X102634539Y-74848513D01*
X102574951Y-74841865D01*
X102563685Y-74929908D01*
X102586014Y-75191633D01*
X102655213Y-75687235D01*
X102757846Y-76338870D01*
X102880477Y-77068695D01*
X103009669Y-77798866D01*
X103131986Y-78451539D01*
X103233993Y-78948872D01*
X103302253Y-79213021D01*
X103303526Y-79216250D01*
X103359212Y-79561138D01*
X103361118Y-80082802D01*
X103317716Y-80646683D01*
X103237483Y-81118218D01*
X103171835Y-81307308D01*
X102821774Y-81776979D01*
X102413070Y-82040912D01*
X102225994Y-82073750D01*
X102038541Y-82057375D01*
X102015231Y-81955301D01*
X102157719Y-81688106D01*
X102236739Y-81557812D01*
X102453200Y-81049408D01*
X102550855Y-80517025D01*
X102551313Y-80486250D01*
X102551313Y-79930625D01*
X102248007Y-80428034D01*
X101831197Y-80954780D01*
X101356252Y-81313717D01*
X100929677Y-81438750D01*
X100679175Y-81494802D01*
X100707356Y-81643939D01*
X100999618Y-81857632D01*
X101195951Y-81958983D01*
X101636541Y-82266917D01*
X101973550Y-82665883D01*
X101993777Y-82702760D01*
X102243153Y-83185000D01*
X98776974Y-83185000D01*
X98539428Y-82589687D01*
X98223520Y-81710147D01*
X98161877Y-81440187D01*
X100369603Y-81440187D01*
X100428827Y-81501141D01*
X100547432Y-81409086D01*
X100699581Y-81179728D01*
X100694661Y-81071559D01*
X100725067Y-80866961D01*
X100855509Y-80674684D01*
X101081658Y-80349611D01*
X101318957Y-79908256D01*
X101345266Y-79851250D01*
X101595911Y-79295625D01*
X101499461Y-79851250D01*
X101364053Y-80377352D01*
X101179928Y-80843437D01*
X101054046Y-81171692D01*
X101136033Y-81264219D01*
X101430331Y-81123190D01*
X101565583Y-81032238D01*
X102034879Y-80524292D01*
X102323879Y-79830029D01*
X102393750Y-79251938D01*
X102350931Y-78907806D01*
X102239175Y-78386903D01*
X102083532Y-77778996D01*
X101909049Y-77173857D01*
X101740776Y-76661252D01*
X101603763Y-76330952D01*
X101561006Y-76267630D01*
X101535425Y-76389519D01*
X101509883Y-76746183D01*
X101493143Y-77163282D01*
X101420173Y-77929490D01*
X101261180Y-78756379D01*
X101044517Y-79529983D01*
X100798536Y-80136336D01*
X100718894Y-80275446D01*
X100527907Y-80690090D01*
X100409787Y-81118907D01*
X100369603Y-81440187D01*
X98161877Y-81440187D01*
X98143423Y-81359375D01*
X99853750Y-81359375D01*
X99933125Y-81438750D01*
X100012500Y-81359375D01*
X99933125Y-81280000D01*
X99853750Y-81359375D01*
X98143423Y-81359375D01*
X98081790Y-81089464D01*
X98101601Y-80856666D01*
X98795416Y-80856666D01*
X98817208Y-80951043D01*
X98901250Y-80962500D01*
X99031919Y-80904415D01*
X99007083Y-80856666D01*
X98818684Y-80837667D01*
X98795416Y-80856666D01*
X98101601Y-80856666D01*
X98113078Y-80721802D01*
X98156147Y-80659852D01*
X98386889Y-80503769D01*
X98522487Y-80524830D01*
X98488292Y-80684687D01*
X98456642Y-80793888D01*
X98518610Y-80750833D01*
X98656263Y-80548134D01*
X98658462Y-80535388D01*
X98901250Y-80535388D01*
X98996198Y-80568347D01*
X99227035Y-80426266D01*
X99512750Y-80165971D01*
X99650263Y-80010000D01*
X99841911Y-79718565D01*
X99813027Y-79624489D01*
X99599789Y-79738300D01*
X99377500Y-79930625D01*
X99079499Y-80249002D01*
X98913530Y-80490154D01*
X98901250Y-80535388D01*
X98658462Y-80535388D01*
X98663125Y-80508377D01*
X98769405Y-80350326D01*
X99047375Y-80044287D01*
X99417187Y-79675693D01*
X99776473Y-79298616D01*
X100038111Y-78965433D01*
X100181270Y-78720062D01*
X100185121Y-78606420D01*
X100028835Y-78668425D01*
X99814062Y-78838923D01*
X99421878Y-79165501D01*
X99180767Y-79335262D01*
X99118600Y-79338475D01*
X99263249Y-79165405D01*
X99479098Y-78955894D01*
X99853572Y-78557479D01*
X100139797Y-78163425D01*
X100300397Y-77839504D01*
X100298001Y-77651492D01*
X100233196Y-77628750D01*
X100064683Y-77737469D01*
X99781276Y-78010710D01*
X99658727Y-78144687D01*
X99393222Y-78438763D01*
X99313913Y-78499796D01*
X99400262Y-78335711D01*
X99471702Y-78216865D01*
X99642797Y-77859355D01*
X99619585Y-77569550D01*
X99532526Y-77383666D01*
X99350512Y-77114795D01*
X99231457Y-77126809D01*
X99165369Y-77432245D01*
X99144376Y-77870693D01*
X99067299Y-78454475D01*
X98833332Y-78865261D01*
X98763158Y-78938200D01*
X98395287Y-79295625D01*
X98727643Y-78662975D01*
X98934426Y-78218471D01*
X99038632Y-77895445D01*
X99038305Y-77739616D01*
X98931490Y-77796706D01*
X98753893Y-78049439D01*
X98443738Y-78429368D01*
X97988177Y-78847797D01*
X97706770Y-79060151D01*
X97167538Y-79516894D01*
X96792244Y-80004106D01*
X96732984Y-80125058D01*
X96566723Y-80459067D01*
X96440279Y-80602771D01*
X96419619Y-80597536D01*
X96418023Y-80394064D01*
X96585495Y-80046365D01*
X96869413Y-79637497D01*
X97217154Y-79250517D01*
X97347735Y-79132638D01*
X97671114Y-78842568D01*
X97862254Y-78636626D01*
X97882863Y-78597791D01*
X97919034Y-78501875D01*
X97948750Y-78501875D01*
X98028125Y-78581250D01*
X98107500Y-78501875D01*
X98028125Y-78422500D01*
X97948750Y-78501875D01*
X97919034Y-78501875D01*
X97953635Y-78410125D01*
X98119054Y-78038366D01*
X98236564Y-77787500D01*
X98503778Y-77132749D01*
X98512306Y-77077935D01*
X99894808Y-77077935D01*
X99926597Y-77141938D01*
X100077970Y-77306063D01*
X100105817Y-77190319D01*
X100067280Y-77066278D01*
X99950406Y-76893392D01*
X99897616Y-76896966D01*
X99894808Y-77077935D01*
X98512306Y-77077935D01*
X98568430Y-76717234D01*
X98430404Y-76543013D01*
X98305937Y-76543246D01*
X97946186Y-76512375D01*
X97815855Y-76455932D01*
X97542311Y-76425027D01*
X97339477Y-76653864D01*
X97274350Y-76937333D01*
X97126864Y-77160350D01*
X96823590Y-77252213D01*
X96510548Y-77180365D01*
X96438277Y-77123750D01*
X96215038Y-77075987D01*
X96067917Y-77107427D01*
X95896775Y-77141754D01*
X95985080Y-77006006D01*
X96004062Y-76985364D01*
X96190325Y-76610113D01*
X96059373Y-76227136D01*
X95870424Y-76028608D01*
X95663442Y-75762784D01*
X95652422Y-75617916D01*
X96414166Y-75617916D01*
X96435958Y-75712293D01*
X96520000Y-75723750D01*
X96650669Y-75665665D01*
X96625833Y-75617916D01*
X96437434Y-75598917D01*
X96414166Y-75617916D01*
X95652422Y-75617916D01*
X95648229Y-75562807D01*
X95646667Y-75543772D01*
X96758125Y-75543772D01*
X97472500Y-75939223D01*
X97944339Y-76171644D01*
X98344605Y-76319988D01*
X98484977Y-76346712D01*
X98666104Y-76316470D01*
X98726522Y-76151627D01*
X98689579Y-75771208D01*
X98676057Y-75684062D01*
X98557924Y-75207941D01*
X98394337Y-74846577D01*
X98343480Y-74782132D01*
X98162957Y-74662195D01*
X97969549Y-74738820D01*
X97725642Y-74978168D01*
X97481275Y-75267502D01*
X97446134Y-75430160D01*
X97600325Y-75559262D01*
X97601367Y-75559878D01*
X97706770Y-75653227D01*
X97541506Y-75662059D01*
X97313750Y-75631040D01*
X96758125Y-75543772D01*
X95646667Y-75543772D01*
X95636991Y-75425939D01*
X95543743Y-75422609D01*
X95268975Y-75420133D01*
X94813058Y-75371371D01*
X94549505Y-75331957D01*
X94058777Y-75271224D01*
X93772409Y-75306564D01*
X93587306Y-75454821D01*
X93557317Y-75494071D01*
X93394702Y-75662181D01*
X93341470Y-75635029D01*
X93258638Y-75637767D01*
X93061768Y-75845333D01*
X93040424Y-75872708D01*
X92853004Y-76209370D01*
X92822813Y-76468020D01*
X92798567Y-76652955D01*
X92726984Y-76676250D01*
X92575827Y-76546199D01*
X92551250Y-76411666D01*
X92505948Y-76234396D01*
X92452976Y-76245357D01*
X92278189Y-76252070D01*
X92087114Y-76046955D01*
X91947429Y-75724378D01*
X91916250Y-75496964D01*
X91876960Y-75202899D01*
X91797187Y-75113952D01*
X91542913Y-75075386D01*
X91264065Y-74935489D01*
X91123033Y-74777256D01*
X91122500Y-74769127D01*
X91249357Y-74700991D01*
X91440000Y-74725252D01*
X91674443Y-74747811D01*
X91730118Y-74617122D01*
X91608157Y-74289981D01*
X91485487Y-74049794D01*
X91819047Y-74049794D01*
X91919375Y-74371620D01*
X92080986Y-74660383D01*
X92229820Y-74771250D01*
X92387143Y-74652843D01*
X92392500Y-74612500D01*
X92270460Y-74459850D01*
X92224381Y-74453750D01*
X92118211Y-74368594D01*
X92134531Y-74327107D01*
X92136815Y-74215625D01*
X98266250Y-74215625D01*
X98345625Y-74295000D01*
X98425000Y-74215625D01*
X98345625Y-74136250D01*
X98266250Y-74215625D01*
X92136815Y-74215625D01*
X92138616Y-74127755D01*
X92026759Y-73912720D01*
X91882425Y-73820252D01*
X91841065Y-73841018D01*
X91819047Y-74049794D01*
X91485487Y-74049794D01*
X91459087Y-73998103D01*
X91173984Y-73463081D01*
X90967049Y-74438199D01*
X90854089Y-75298216D01*
X90836777Y-76265846D01*
X90908461Y-77226755D01*
X91062488Y-78066609D01*
X91202905Y-78491787D01*
X91801901Y-79538515D01*
X92602575Y-80363371D01*
X92834098Y-80532564D01*
X93119544Y-80707019D01*
X93401658Y-80813515D01*
X93743389Y-80853104D01*
X94207686Y-80826843D01*
X94857498Y-80735785D01*
X95753074Y-80581467D01*
X96061900Y-80537820D01*
X96080540Y-80574166D01*
X95964375Y-80634245D01*
X95549940Y-80764532D01*
X95329375Y-80795023D01*
X94879995Y-80877711D01*
X94703623Y-81101953D01*
X94775191Y-81508314D01*
X94819311Y-81620433D01*
X95169847Y-82253273D01*
X95592462Y-82604540D01*
X96104906Y-82708750D01*
X96619634Y-82708750D01*
X96550783Y-81716562D01*
X96522267Y-81136590D01*
X96532223Y-80854134D01*
X96571065Y-80852871D01*
X96629210Y-81116476D01*
X96697072Y-81628622D01*
X96737192Y-82034062D01*
X96839716Y-83185000D01*
X92051955Y-83185000D01*
X92391683Y-82753106D01*
X92720039Y-82415152D01*
X93167108Y-82050259D01*
X93640393Y-81723541D01*
X94047397Y-81500113D01*
X94257812Y-81439429D01*
X94433593Y-81310861D01*
X94456250Y-81200625D01*
X94359542Y-80992544D01*
X94121880Y-81005454D01*
X93821953Y-81231076D01*
X93786344Y-81271082D01*
X93309069Y-81610184D01*
X92727792Y-81707925D01*
X92122268Y-81581866D01*
X91572249Y-81249568D01*
X91157490Y-80728591D01*
X91136637Y-80687650D01*
X90940304Y-80348978D01*
X90783482Y-80177420D01*
X90765312Y-80172355D01*
X90647042Y-80265278D01*
X90756421Y-80540485D01*
X91082135Y-80971202D01*
X91122500Y-81017620D01*
X91408146Y-81362691D01*
X91578125Y-81606151D01*
X91598750Y-81658144D01*
X91479026Y-81761597D01*
X91185711Y-81725606D01*
X90817589Y-81573878D01*
X90567084Y-81410552D01*
X90262004Y-81193279D01*
X90086756Y-81171593D01*
X89932862Y-81331177D01*
X89746051Y-81547189D01*
X89668891Y-81597500D01*
X89632466Y-81452928D01*
X89606012Y-81075884D01*
X89600157Y-80803750D01*
X89852500Y-80803750D01*
X89910584Y-80934419D01*
X89958333Y-80909583D01*
X89977332Y-80721184D01*
X89958333Y-80697916D01*
X89863956Y-80719708D01*
X89852500Y-80803750D01*
X89600157Y-80803750D01*
X89595886Y-80605312D01*
X89586957Y-79928707D01*
X89567201Y-79112829D01*
X89546095Y-78487499D01*
X90349518Y-78487499D01*
X90357437Y-79088985D01*
X90383684Y-79558758D01*
X90428943Y-79821070D01*
X90455336Y-79851250D01*
X90513835Y-79706381D01*
X90546473Y-79326165D01*
X90546354Y-78792188D01*
X90545942Y-78779687D01*
X90509963Y-77708125D01*
X90631607Y-78660625D01*
X90798345Y-79456359D01*
X91070054Y-80207697D01*
X91404614Y-80814886D01*
X91666522Y-81111620D01*
X91862666Y-81239080D01*
X91915892Y-81135520D01*
X91916250Y-81110753D01*
X92000803Y-81052607D01*
X92226916Y-81236215D01*
X92239934Y-81250065D01*
X92500781Y-81497578D01*
X92664481Y-81597500D01*
X92638299Y-81498495D01*
X92442988Y-81255233D01*
X92397096Y-81205517D01*
X92113587Y-80963692D01*
X91907833Y-80891252D01*
X91892876Y-80897570D01*
X91748128Y-80829243D01*
X91586142Y-80548137D01*
X91581089Y-80535490D01*
X91396830Y-79991256D01*
X91317219Y-79709242D01*
X91554453Y-79709242D01*
X91617583Y-79877416D01*
X91644806Y-79930625D01*
X91955613Y-80419311D01*
X92341349Y-80881880D01*
X92729084Y-81243325D01*
X93045890Y-81428638D01*
X93111155Y-81438750D01*
X93308052Y-81381086D01*
X93318541Y-81319112D01*
X93184700Y-81161350D01*
X92876495Y-80849039D01*
X92453626Y-80442149D01*
X92330827Y-80326925D01*
X91883634Y-79918144D01*
X91633990Y-79717534D01*
X91554453Y-79709242D01*
X91317219Y-79709242D01*
X91193216Y-79269978D01*
X90992418Y-78466097D01*
X90816606Y-77674051D01*
X90687952Y-76988282D01*
X90628627Y-76503230D01*
X90627467Y-76473405D01*
X90611514Y-76074994D01*
X90583144Y-75970106D01*
X90525086Y-76134801D01*
X90487499Y-76279375D01*
X90428920Y-76650237D01*
X90385942Y-77192377D01*
X90359248Y-77830047D01*
X90349518Y-78487499D01*
X89546095Y-78487499D01*
X89541221Y-78343125D01*
X89530669Y-77591255D01*
X89551463Y-76827456D01*
X89599097Y-76213737D01*
X89600810Y-76200000D01*
X89711290Y-75326875D01*
X89386842Y-75723750D01*
X89088988Y-76196825D01*
X88798728Y-76832727D01*
X88564645Y-77504005D01*
X88435322Y-78083211D01*
X88423750Y-78250267D01*
X88503084Y-78651367D01*
X88661874Y-78898750D01*
X88861980Y-79137785D01*
X88899999Y-79255126D01*
X88822027Y-79319595D01*
X88631540Y-79183304D01*
X88393679Y-78908635D01*
X88175157Y-78561008D01*
X87993526Y-77948283D01*
X87960934Y-77202054D01*
X88073755Y-76467205D01*
X88238385Y-76035128D01*
X88418736Y-75698994D01*
X88715389Y-75151130D01*
X89092104Y-74458260D01*
X89512645Y-73687112D01*
X89667135Y-73404381D01*
X90065618Y-72668171D01*
X90403175Y-72030506D01*
X90653049Y-71543039D01*
X90788487Y-71257426D01*
X90805000Y-71207614D01*
X90667162Y-71155899D01*
X90324642Y-71170935D01*
X90209687Y-71187106D01*
X89756838Y-71209693D01*
X89413125Y-71142336D01*
X89376250Y-71121906D01*
X89288874Y-71026561D01*
X89475440Y-71029057D01*
X89634809Y-71056839D01*
X90033615Y-71074979D01*
X90239756Y-70976813D01*
X90426037Y-70882854D01*
X90665195Y-70971389D01*
X91051047Y-71063081D01*
X91449155Y-71038614D01*
X91766501Y-70995000D01*
X91848544Y-71081854D01*
X91819735Y-71186795D01*
X91820807Y-71364186D01*
X92051023Y-71432460D01*
X92221747Y-71437500D01*
X92611144Y-71369537D01*
X92807495Y-71209398D01*
X93002353Y-71054561D01*
X93121298Y-71068126D01*
X93389844Y-71060728D01*
X93773404Y-70941556D01*
X94153132Y-70762484D01*
X94410180Y-70575388D01*
X94456250Y-70485440D01*
X94335105Y-70296302D01*
X94197738Y-70197356D01*
X94042422Y-70038874D01*
X94118363Y-69941974D01*
X94285172Y-69716080D01*
X94244428Y-69478533D01*
X94029919Y-69373750D01*
X93732131Y-69474468D01*
X93379525Y-69718121D01*
X93365101Y-69730937D01*
X92967864Y-70088125D01*
X93304288Y-69644002D01*
X93526174Y-69270433D01*
X93537323Y-68931877D01*
X93484480Y-68751711D01*
X93253691Y-68359008D01*
X92979436Y-68119361D01*
X92773624Y-68002258D01*
X92848783Y-68009997D01*
X92948125Y-68042412D01*
X93324741Y-68121024D01*
X93503750Y-68124545D01*
X93791488Y-68093397D01*
X94264985Y-68041399D01*
X94579899Y-68006591D01*
X95212442Y-67980662D01*
X95604240Y-68077743D01*
X95678236Y-68127806D01*
X95844565Y-68237525D01*
X95886713Y-68142552D01*
X95831456Y-67801380D01*
X95708044Y-67368372D01*
X95555319Y-67057625D01*
X95547119Y-67047317D01*
X95254208Y-66867985D01*
X94912043Y-66853916D01*
X94694374Y-66992500D01*
X94491685Y-67145464D01*
X94325098Y-67052138D01*
X94297500Y-66919309D01*
X94424770Y-66615536D01*
X94727136Y-66300162D01*
X95085432Y-66080813D01*
X95271081Y-66040000D01*
X95576453Y-66138693D01*
G37*
X95576453Y-66138693D02*
X95942937Y-66378688D01*
X95971397Y-66402647D01*
X96288937Y-66789541D01*
X96391799Y-67284796D01*
X96392999Y-67366039D01*
X96416443Y-67752170D01*
X96509695Y-67887658D01*
X96654937Y-67860294D01*
X96949712Y-67789528D01*
X97440101Y-67717040D01*
X97869375Y-67672313D01*
X98358651Y-67639591D01*
X98710221Y-67666577D01*
X99028183Y-67788846D01*
X99416636Y-68041974D01*
X99813813Y-68336806D01*
X100403250Y-68836468D01*
X100977878Y-69416059D01*
X101394370Y-69925096D01*
X101793398Y-70435755D01*
X102086394Y-70668217D01*
X102228056Y-70677007D01*
X102272554Y-70708996D01*
X102106415Y-70893046D01*
X101957187Y-71026166D01*
X101585568Y-71442138D01*
X101441417Y-71832858D01*
X101441250Y-71844518D01*
X101400849Y-72105379D01*
X101215434Y-72167172D01*
X100985086Y-72132079D01*
X100586146Y-72128100D01*
X100311916Y-72351135D01*
X100296160Y-72373163D01*
X100090478Y-72586956D01*
X99964238Y-72606322D01*
X99909330Y-72679059D01*
X99894159Y-72982054D01*
X99899102Y-73106274D01*
X100016734Y-73650364D01*
X100297649Y-73922949D01*
X100750013Y-73929554D01*
X101000649Y-73851469D01*
X101367370Y-73737819D01*
X101578439Y-73784136D01*
X101738425Y-73973891D01*
X101999271Y-74199724D01*
X102432675Y-74289357D01*
X102641869Y-74295000D01*
X103084315Y-74261223D01*
X103378402Y-74176430D01*
X103425625Y-74136250D01*
X103640800Y-74020731D01*
X103978978Y-73977500D01*
X104352416Y-73898506D01*
X104509075Y-73736263D01*
X104561546Y-73620674D01*
X104558601Y-73775950D01*
X104397376Y-74013082D01*
X103979447Y-74141329D01*
X103620305Y-74235283D01*
X103450743Y-74357594D01*
X103448683Y-74379454D01*
X103581663Y-75118912D01*
X103763495Y-75938158D01*
X103967677Y-76732258D01*
X104167707Y-77396276D01*
X104298677Y-77744934D01*
X104539193Y-78474109D01*
X104606088Y-79134587D01*
X104491907Y-79638874D01*
X104464149Y-79687175D01*
X104418420Y-80006361D01*
X104486018Y-80123738D01*
X104556698Y-80293698D01*
X104421122Y-80330769D01*
X104155884Y-80246295D01*
X103837574Y-80051625D01*
X103800399Y-80022173D01*
X103560318Y-79812396D01*
X103561173Y-79739742D01*
X103743125Y-79744361D01*
X103948850Y-79718196D01*
X104024333Y-79535427D01*
X104013916Y-79175357D01*
X103916471Y-78640415D01*
X103732064Y-78049594D01*
X103673303Y-77905357D01*
X103379399Y-77231875D01*
X103460317Y-77946250D01*
X103562482Y-78506777D01*
X103716447Y-79016789D01*
X103761931Y-79122957D01*
X103892134Y-79462135D01*
X103908713Y-79658110D01*
X103904647Y-79663269D01*
X103787459Y-79612812D01*
X103640652Y-79309864D01*
X103482641Y-78815781D01*
X103331844Y-78191918D01*
X103206676Y-77499630D01*
X103166133Y-77202853D01*
X103078607Y-76610944D01*
X102966701Y-76023024D01*
X102845398Y-75495624D01*
X102729683Y-75085276D01*
X102634539Y-74848513D01*
X102574951Y-74841865D01*
X102563685Y-74929908D01*
X102586014Y-75191633D01*
X102655213Y-75687235D01*
X102757846Y-76338870D01*
X102880477Y-77068695D01*
X103009669Y-77798866D01*
X103131986Y-78451539D01*
X103233993Y-78948872D01*
X103302253Y-79213021D01*
X103303526Y-79216250D01*
X103359212Y-79561138D01*
X103361118Y-80082802D01*
X103317716Y-80646683D01*
X103237483Y-81118218D01*
X103171835Y-81307308D01*
X102821774Y-81776979D01*
X102413070Y-82040912D01*
X102225994Y-82073750D01*
X102038541Y-82057375D01*
X102015231Y-81955301D01*
X102157719Y-81688106D01*
X102236739Y-81557812D01*
X102453200Y-81049408D01*
X102550855Y-80517025D01*
X102551313Y-80486250D01*
X102551313Y-79930625D01*
X102248007Y-80428034D01*
X101831197Y-80954780D01*
X101356252Y-81313717D01*
X100929677Y-81438750D01*
X100679175Y-81494802D01*
X100707356Y-81643939D01*
X100999618Y-81857632D01*
X101195951Y-81958983D01*
X101636541Y-82266917D01*
X101973550Y-82665883D01*
X101993777Y-82702760D01*
X102243153Y-83185000D01*
X98776974Y-83185000D01*
X98539428Y-82589687D01*
X98223520Y-81710147D01*
X98161877Y-81440187D01*
X100369603Y-81440187D01*
X100428827Y-81501141D01*
X100547432Y-81409086D01*
X100699581Y-81179728D01*
X100694661Y-81071559D01*
X100725067Y-80866961D01*
X100855509Y-80674684D01*
X101081658Y-80349611D01*
X101318957Y-79908256D01*
X101345266Y-79851250D01*
X101595911Y-79295625D01*
X101499461Y-79851250D01*
X101364053Y-80377352D01*
X101179928Y-80843437D01*
X101054046Y-81171692D01*
X101136033Y-81264219D01*
X101430331Y-81123190D01*
X101565583Y-81032238D01*
X102034879Y-80524292D01*
X102323879Y-79830029D01*
X102393750Y-79251938D01*
X102350931Y-78907806D01*
X102239175Y-78386903D01*
X102083532Y-77778996D01*
X101909049Y-77173857D01*
X101740776Y-76661252D01*
X101603763Y-76330952D01*
X101561006Y-76267630D01*
X101535425Y-76389519D01*
X101509883Y-76746183D01*
X101493143Y-77163282D01*
X101420173Y-77929490D01*
X101261180Y-78756379D01*
X101044517Y-79529983D01*
X100798536Y-80136336D01*
X100718894Y-80275446D01*
X100527907Y-80690090D01*
X100409787Y-81118907D01*
X100369603Y-81440187D01*
X98161877Y-81440187D01*
X98143423Y-81359375D01*
X99853750Y-81359375D01*
X99933125Y-81438750D01*
X100012500Y-81359375D01*
X99933125Y-81280000D01*
X99853750Y-81359375D01*
X98143423Y-81359375D01*
X98081790Y-81089464D01*
X98101601Y-80856666D01*
X98795416Y-80856666D01*
X98817208Y-80951043D01*
X98901250Y-80962500D01*
X99031919Y-80904415D01*
X99007083Y-80856666D01*
X98818684Y-80837667D01*
X98795416Y-80856666D01*
X98101601Y-80856666D01*
X98113078Y-80721802D01*
X98156147Y-80659852D01*
X98386889Y-80503769D01*
X98522487Y-80524830D01*
X98488292Y-80684687D01*
X98456642Y-80793888D01*
X98518610Y-80750833D01*
X98656263Y-80548134D01*
X98658462Y-80535388D01*
X98901250Y-80535388D01*
X98996198Y-80568347D01*
X99227035Y-80426266D01*
X99512750Y-80165971D01*
X99650263Y-80010000D01*
X99841911Y-79718565D01*
X99813027Y-79624489D01*
X99599789Y-79738300D01*
X99377500Y-79930625D01*
X99079499Y-80249002D01*
X98913530Y-80490154D01*
X98901250Y-80535388D01*
X98658462Y-80535388D01*
X98663125Y-80508377D01*
X98769405Y-80350326D01*
X99047375Y-80044287D01*
X99417187Y-79675693D01*
X99776473Y-79298616D01*
X100038111Y-78965433D01*
X100181270Y-78720062D01*
X100185121Y-78606420D01*
X100028835Y-78668425D01*
X99814062Y-78838923D01*
X99421878Y-79165501D01*
X99180767Y-79335262D01*
X99118600Y-79338475D01*
X99263249Y-79165405D01*
X99479098Y-78955894D01*
X99853572Y-78557479D01*
X100139797Y-78163425D01*
X100300397Y-77839504D01*
X100298001Y-77651492D01*
X100233196Y-77628750D01*
X100064683Y-77737469D01*
X99781276Y-78010710D01*
X99658727Y-78144687D01*
X99393222Y-78438763D01*
X99313913Y-78499796D01*
X99400262Y-78335711D01*
X99471702Y-78216865D01*
X99642797Y-77859355D01*
X99619585Y-77569550D01*
X99532526Y-77383666D01*
X99350512Y-77114795D01*
X99231457Y-77126809D01*
X99165369Y-77432245D01*
X99144376Y-77870693D01*
X99067299Y-78454475D01*
X98833332Y-78865261D01*
X98763158Y-78938200D01*
X98395287Y-79295625D01*
X98727643Y-78662975D01*
X98934426Y-78218471D01*
X99038632Y-77895445D01*
X99038305Y-77739616D01*
X98931490Y-77796706D01*
X98753893Y-78049439D01*
X98443738Y-78429368D01*
X97988177Y-78847797D01*
X97706770Y-79060151D01*
X97167538Y-79516894D01*
X96792244Y-80004106D01*
X96732984Y-80125058D01*
X96566723Y-80459067D01*
X96440279Y-80602771D01*
X96419619Y-80597536D01*
X96418023Y-80394064D01*
X96585495Y-80046365D01*
X96869413Y-79637497D01*
X97217154Y-79250517D01*
X97347735Y-79132638D01*
X97671114Y-78842568D01*
X97862254Y-78636626D01*
X97882863Y-78597791D01*
X97919034Y-78501875D01*
X97948750Y-78501875D01*
X98028125Y-78581250D01*
X98107500Y-78501875D01*
X98028125Y-78422500D01*
X97948750Y-78501875D01*
X97919034Y-78501875D01*
X97953635Y-78410125D01*
X98119054Y-78038366D01*
X98236564Y-77787500D01*
X98503778Y-77132749D01*
X98512306Y-77077935D01*
X99894808Y-77077935D01*
X99926597Y-77141938D01*
X100077970Y-77306063D01*
X100105817Y-77190319D01*
X100067280Y-77066278D01*
X99950406Y-76893392D01*
X99897616Y-76896966D01*
X99894808Y-77077935D01*
X98512306Y-77077935D01*
X98568430Y-76717234D01*
X98430404Y-76543013D01*
X98305937Y-76543246D01*
X97946186Y-76512375D01*
X97815855Y-76455932D01*
X97542311Y-76425027D01*
X97339477Y-76653864D01*
X97274350Y-76937333D01*
X97126864Y-77160350D01*
X96823590Y-77252213D01*
X96510548Y-77180365D01*
X96438277Y-77123750D01*
X96215038Y-77075987D01*
X96067917Y-77107427D01*
X95896775Y-77141754D01*
X95985080Y-77006006D01*
X96004062Y-76985364D01*
X96190325Y-76610113D01*
X96059373Y-76227136D01*
X95870424Y-76028608D01*
X95663442Y-75762784D01*
X95652422Y-75617916D01*
X96414166Y-75617916D01*
X96435958Y-75712293D01*
X96520000Y-75723750D01*
X96650669Y-75665665D01*
X96625833Y-75617916D01*
X96437434Y-75598917D01*
X96414166Y-75617916D01*
X95652422Y-75617916D01*
X95648229Y-75562807D01*
X95646667Y-75543772D01*
X96758125Y-75543772D01*
X97472500Y-75939223D01*
X97944339Y-76171644D01*
X98344605Y-76319988D01*
X98484977Y-76346712D01*
X98666104Y-76316470D01*
X98726522Y-76151627D01*
X98689579Y-75771208D01*
X98676057Y-75684062D01*
X98557924Y-75207941D01*
X98394337Y-74846577D01*
X98343480Y-74782132D01*
X98162957Y-74662195D01*
X97969549Y-74738820D01*
X97725642Y-74978168D01*
X97481275Y-75267502D01*
X97446134Y-75430160D01*
X97600325Y-75559262D01*
X97601367Y-75559878D01*
X97706770Y-75653227D01*
X97541506Y-75662059D01*
X97313750Y-75631040D01*
X96758125Y-75543772D01*
X95646667Y-75543772D01*
X95636991Y-75425939D01*
X95543743Y-75422609D01*
X95268975Y-75420133D01*
X94813058Y-75371371D01*
X94549505Y-75331957D01*
X94058777Y-75271224D01*
X93772409Y-75306564D01*
X93587306Y-75454821D01*
X93557317Y-75494071D01*
X93394702Y-75662181D01*
X93341470Y-75635029D01*
X93258638Y-75637767D01*
X93061768Y-75845333D01*
X93040424Y-75872708D01*
X92853004Y-76209370D01*
X92822813Y-76468020D01*
X92798567Y-76652955D01*
X92726984Y-76676250D01*
X92575827Y-76546199D01*
X92551250Y-76411666D01*
X92505948Y-76234396D01*
X92452976Y-76245357D01*
X92278189Y-76252070D01*
X92087114Y-76046955D01*
X91947429Y-75724378D01*
X91916250Y-75496964D01*
X91876960Y-75202899D01*
X91797187Y-75113952D01*
X91542913Y-75075386D01*
X91264065Y-74935489D01*
X91123033Y-74777256D01*
X91122500Y-74769127D01*
X91249357Y-74700991D01*
X91440000Y-74725252D01*
X91674443Y-74747811D01*
X91730118Y-74617122D01*
X91608157Y-74289981D01*
X91485487Y-74049794D01*
X91819047Y-74049794D01*
X91919375Y-74371620D01*
X92080986Y-74660383D01*
X92229820Y-74771250D01*
X92387143Y-74652843D01*
X92392500Y-74612500D01*
X92270460Y-74459850D01*
X92224381Y-74453750D01*
X92118211Y-74368594D01*
X92134531Y-74327107D01*
X92136815Y-74215625D01*
X98266250Y-74215625D01*
X98345625Y-74295000D01*
X98425000Y-74215625D01*
X98345625Y-74136250D01*
X98266250Y-74215625D01*
X92136815Y-74215625D01*
X92138616Y-74127755D01*
X92026759Y-73912720D01*
X91882425Y-73820252D01*
X91841065Y-73841018D01*
X91819047Y-74049794D01*
X91485487Y-74049794D01*
X91459087Y-73998103D01*
X91173984Y-73463081D01*
X90967049Y-74438199D01*
X90854089Y-75298216D01*
X90836777Y-76265846D01*
X90908461Y-77226755D01*
X91062488Y-78066609D01*
X91202905Y-78491787D01*
X91801901Y-79538515D01*
X92602575Y-80363371D01*
X92834098Y-80532564D01*
X93119544Y-80707019D01*
X93401658Y-80813515D01*
X93743389Y-80853104D01*
X94207686Y-80826843D01*
X94857498Y-80735785D01*
X95753074Y-80581467D01*
X96061900Y-80537820D01*
X96080540Y-80574166D01*
X95964375Y-80634245D01*
X95549940Y-80764532D01*
X95329375Y-80795023D01*
X94879995Y-80877711D01*
X94703623Y-81101953D01*
X94775191Y-81508314D01*
X94819311Y-81620433D01*
X95169847Y-82253273D01*
X95592462Y-82604540D01*
X96104906Y-82708750D01*
X96619634Y-82708750D01*
X96550783Y-81716562D01*
X96522267Y-81136590D01*
X96532223Y-80854134D01*
X96571065Y-80852871D01*
X96629210Y-81116476D01*
X96697072Y-81628622D01*
X96737192Y-82034062D01*
X96839716Y-83185000D01*
X92051955Y-83185000D01*
X92391683Y-82753106D01*
X92720039Y-82415152D01*
X93167108Y-82050259D01*
X93640393Y-81723541D01*
X94047397Y-81500113D01*
X94257812Y-81439429D01*
X94433593Y-81310861D01*
X94456250Y-81200625D01*
X94359542Y-80992544D01*
X94121880Y-81005454D01*
X93821953Y-81231076D01*
X93786344Y-81271082D01*
X93309069Y-81610184D01*
X92727792Y-81707925D01*
X92122268Y-81581866D01*
X91572249Y-81249568D01*
X91157490Y-80728591D01*
X91136637Y-80687650D01*
X90940304Y-80348978D01*
X90783482Y-80177420D01*
X90765312Y-80172355D01*
X90647042Y-80265278D01*
X90756421Y-80540485D01*
X91082135Y-80971202D01*
X91122500Y-81017620D01*
X91408146Y-81362691D01*
X91578125Y-81606151D01*
X91598750Y-81658144D01*
X91479026Y-81761597D01*
X91185711Y-81725606D01*
X90817589Y-81573878D01*
X90567084Y-81410552D01*
X90262004Y-81193279D01*
X90086756Y-81171593D01*
X89932862Y-81331177D01*
X89746051Y-81547189D01*
X89668891Y-81597500D01*
X89632466Y-81452928D01*
X89606012Y-81075884D01*
X89600157Y-80803750D01*
X89852500Y-80803750D01*
X89910584Y-80934419D01*
X89958333Y-80909583D01*
X89977332Y-80721184D01*
X89958333Y-80697916D01*
X89863956Y-80719708D01*
X89852500Y-80803750D01*
X89600157Y-80803750D01*
X89595886Y-80605312D01*
X89586957Y-79928707D01*
X89567201Y-79112829D01*
X89546095Y-78487499D01*
X90349518Y-78487499D01*
X90357437Y-79088985D01*
X90383684Y-79558758D01*
X90428943Y-79821070D01*
X90455336Y-79851250D01*
X90513835Y-79706381D01*
X90546473Y-79326165D01*
X90546354Y-78792188D01*
X90545942Y-78779687D01*
X90509963Y-77708125D01*
X90631607Y-78660625D01*
X90798345Y-79456359D01*
X91070054Y-80207697D01*
X91404614Y-80814886D01*
X91666522Y-81111620D01*
X91862666Y-81239080D01*
X91915892Y-81135520D01*
X91916250Y-81110753D01*
X92000803Y-81052607D01*
X92226916Y-81236215D01*
X92239934Y-81250065D01*
X92500781Y-81497578D01*
X92664481Y-81597500D01*
X92638299Y-81498495D01*
X92442988Y-81255233D01*
X92397096Y-81205517D01*
X92113587Y-80963692D01*
X91907833Y-80891252D01*
X91892876Y-80897570D01*
X91748128Y-80829243D01*
X91586142Y-80548137D01*
X91581089Y-80535490D01*
X91396830Y-79991256D01*
X91317219Y-79709242D01*
X91554453Y-79709242D01*
X91617583Y-79877416D01*
X91644806Y-79930625D01*
X91955613Y-80419311D01*
X92341349Y-80881880D01*
X92729084Y-81243325D01*
X93045890Y-81428638D01*
X93111155Y-81438750D01*
X93308052Y-81381086D01*
X93318541Y-81319112D01*
X93184700Y-81161350D01*
X92876495Y-80849039D01*
X92453626Y-80442149D01*
X92330827Y-80326925D01*
X91883634Y-79918144D01*
X91633990Y-79717534D01*
X91554453Y-79709242D01*
X91317219Y-79709242D01*
X91193216Y-79269978D01*
X90992418Y-78466097D01*
X90816606Y-77674051D01*
X90687952Y-76988282D01*
X90628627Y-76503230D01*
X90627467Y-76473405D01*
X90611514Y-76074994D01*
X90583144Y-75970106D01*
X90525086Y-76134801D01*
X90487499Y-76279375D01*
X90428920Y-76650237D01*
X90385942Y-77192377D01*
X90359248Y-77830047D01*
X90349518Y-78487499D01*
X89546095Y-78487499D01*
X89541221Y-78343125D01*
X89530669Y-77591255D01*
X89551463Y-76827456D01*
X89599097Y-76213737D01*
X89600810Y-76200000D01*
X89711290Y-75326875D01*
X89386842Y-75723750D01*
X89088988Y-76196825D01*
X88798728Y-76832727D01*
X88564645Y-77504005D01*
X88435322Y-78083211D01*
X88423750Y-78250267D01*
X88503084Y-78651367D01*
X88661874Y-78898750D01*
X88861980Y-79137785D01*
X88899999Y-79255126D01*
X88822027Y-79319595D01*
X88631540Y-79183304D01*
X88393679Y-78908635D01*
X88175157Y-78561008D01*
X87993526Y-77948283D01*
X87960934Y-77202054D01*
X88073755Y-76467205D01*
X88238385Y-76035128D01*
X88418736Y-75698994D01*
X88715389Y-75151130D01*
X89092104Y-74458260D01*
X89512645Y-73687112D01*
X89667135Y-73404381D01*
X90065618Y-72668171D01*
X90403175Y-72030506D01*
X90653049Y-71543039D01*
X90788487Y-71257426D01*
X90805000Y-71207614D01*
X90667162Y-71155899D01*
X90324642Y-71170935D01*
X90209687Y-71187106D01*
X89756838Y-71209693D01*
X89413125Y-71142336D01*
X89376250Y-71121906D01*
X89288874Y-71026561D01*
X89475440Y-71029057D01*
X89634809Y-71056839D01*
X90033615Y-71074979D01*
X90239756Y-70976813D01*
X90426037Y-70882854D01*
X90665195Y-70971389D01*
X91051047Y-71063081D01*
X91449155Y-71038614D01*
X91766501Y-70995000D01*
X91848544Y-71081854D01*
X91819735Y-71186795D01*
X91820807Y-71364186D01*
X92051023Y-71432460D01*
X92221747Y-71437500D01*
X92611144Y-71369537D01*
X92807495Y-71209398D01*
X93002353Y-71054561D01*
X93121298Y-71068126D01*
X93389844Y-71060728D01*
X93773404Y-70941556D01*
X94153132Y-70762484D01*
X94410180Y-70575388D01*
X94456250Y-70485440D01*
X94335105Y-70296302D01*
X94197738Y-70197356D01*
X94042422Y-70038874D01*
X94118363Y-69941974D01*
X94285172Y-69716080D01*
X94244428Y-69478533D01*
X94029919Y-69373750D01*
X93732131Y-69474468D01*
X93379525Y-69718121D01*
X93365101Y-69730937D01*
X92967864Y-70088125D01*
X93304288Y-69644002D01*
X93526174Y-69270433D01*
X93537323Y-68931877D01*
X93484480Y-68751711D01*
X93253691Y-68359008D01*
X92979436Y-68119361D01*
X92773624Y-68002258D01*
X92848783Y-68009997D01*
X92948125Y-68042412D01*
X93324741Y-68121024D01*
X93503750Y-68124545D01*
X93791488Y-68093397D01*
X94264985Y-68041399D01*
X94579899Y-68006591D01*
X95212442Y-67980662D01*
X95604240Y-68077743D01*
X95678236Y-68127806D01*
X95844565Y-68237525D01*
X95886713Y-68142552D01*
X95831456Y-67801380D01*
X95708044Y-67368372D01*
X95555319Y-67057625D01*
X95547119Y-67047317D01*
X95254208Y-66867985D01*
X94912043Y-66853916D01*
X94694374Y-66992500D01*
X94491685Y-67145464D01*
X94325098Y-67052138D01*
X94297500Y-66919309D01*
X94424770Y-66615536D01*
X94727136Y-66300162D01*
X95085432Y-66080813D01*
X95271081Y-66040000D01*
X95576453Y-66138693D01*
G36*
X93403316Y-78056584D02*
G01*
X94240607Y-78285829D01*
X94482929Y-78361048D01*
X95795998Y-78775846D01*
X95426037Y-79075423D01*
X95132505Y-79282816D01*
X94954600Y-79355832D01*
X94754782Y-79323206D01*
X94338928Y-79257942D01*
X93900625Y-79190133D01*
X93146759Y-78995177D01*
X92638794Y-78689968D01*
X92525071Y-78497213D01*
X92738762Y-78497213D01*
X92888253Y-78702563D01*
X93246738Y-78890123D01*
X93424375Y-78942626D01*
X93850425Y-79009697D01*
X94345281Y-79036060D01*
X94809372Y-79023773D01*
X95143128Y-78974894D01*
X95250000Y-78904900D01*
X95109247Y-78775970D01*
X94748977Y-78619407D01*
X94262175Y-78463701D01*
X93741823Y-78337340D01*
X93280907Y-78268815D01*
X93157436Y-78263750D01*
X92820933Y-78331724D01*
X92738762Y-78497213D01*
X92525071Y-78497213D01*
X92404990Y-78293682D01*
X92392500Y-78166788D01*
X92498425Y-77998844D01*
X92828977Y-77961515D01*
X93403316Y-78056584D01*
G37*
X93403316Y-78056584D02*
X94240607Y-78285829D01*
X94482929Y-78361048D01*
X95795998Y-78775846D01*
X95426037Y-79075423D01*
X95132505Y-79282816D01*
X94954600Y-79355832D01*
X94754782Y-79323206D01*
X94338928Y-79257942D01*
X93900625Y-79190133D01*
X93146759Y-78995177D01*
X92638794Y-78689968D01*
X92525071Y-78497213D01*
X92738762Y-78497213D01*
X92888253Y-78702563D01*
X93246738Y-78890123D01*
X93424375Y-78942626D01*
X93850425Y-79009697D01*
X94345281Y-79036060D01*
X94809372Y-79023773D01*
X95143128Y-78974894D01*
X95250000Y-78904900D01*
X95109247Y-78775970D01*
X94748977Y-78619407D01*
X94262175Y-78463701D01*
X93741823Y-78337340D01*
X93280907Y-78268815D01*
X93157436Y-78263750D01*
X92820933Y-78331724D01*
X92738762Y-78497213D01*
X92525071Y-78497213D01*
X92404990Y-78293682D01*
X92392500Y-78166788D01*
X92498425Y-77998844D01*
X92828977Y-77961515D01*
X93403316Y-78056584D01*
G36*
X97836933Y-77109598D02*
G01*
X97869375Y-77152500D01*
X97862118Y-77299019D01*
X97808737Y-77311250D01*
X97584316Y-77195401D01*
X97551875Y-77152500D01*
X97559131Y-77005980D01*
X97612512Y-76993750D01*
X97836933Y-77109598D01*
G37*
X97836933Y-77109598D02*
X97869375Y-77152500D01*
X97862118Y-77299019D01*
X97808737Y-77311250D01*
X97584316Y-77195401D01*
X97551875Y-77152500D01*
X97559131Y-77005980D01*
X97612512Y-76993750D01*
X97836933Y-77109598D01*
G36*
X91916250Y-76279375D02*
G01*
X91836875Y-76358750D01*
X91757500Y-76279375D01*
X91836875Y-76200000D01*
X91916250Y-76279375D01*
G37*
X91916250Y-76279375D02*
X91836875Y-76358750D01*
X91757500Y-76279375D01*
X91836875Y-76200000D01*
X91916250Y-76279375D01*
G36*
X91714505Y-75945338D02*
G01*
X91667159Y-76017492D01*
X91506145Y-76028717D01*
X91336754Y-75989947D01*
X91410234Y-75932805D01*
X91658341Y-75913880D01*
X91714505Y-75945338D01*
G37*
X91714505Y-75945338D02*
X91667159Y-76017492D01*
X91506145Y-76028717D01*
X91336754Y-75989947D01*
X91410234Y-75932805D01*
X91658341Y-75913880D01*
X91714505Y-75945338D01*
G36*
X103653708Y-71091190D02*
G01*
X103754464Y-71188035D01*
X104012142Y-71388245D01*
X104145753Y-71437500D01*
X104363942Y-71571009D01*
X104504626Y-71872464D01*
X104514743Y-72193249D01*
X104457500Y-72310625D01*
X104357355Y-72579548D01*
X104459345Y-72869698D01*
X104571178Y-73158257D01*
X104564231Y-73288684D01*
X104463947Y-73224917D01*
X104381922Y-73036963D01*
X104229357Y-72773845D01*
X104104697Y-72707500D01*
X104068245Y-72611294D01*
X104219375Y-72390000D01*
X104411215Y-72141804D01*
X104383823Y-71953785D01*
X104214308Y-71749401D01*
X103930903Y-71537356D01*
X103713454Y-71506294D01*
X103542229Y-71452418D01*
X103505000Y-71262428D01*
X103529392Y-71041021D01*
X103653708Y-71091190D01*
G37*
X103653708Y-71091190D02*
X103754464Y-71188035D01*
X104012142Y-71388245D01*
X104145753Y-71437500D01*
X104363942Y-71571009D01*
X104504626Y-71872464D01*
X104514743Y-72193249D01*
X104457500Y-72310625D01*
X104357355Y-72579548D01*
X104459345Y-72869698D01*
X104571178Y-73158257D01*
X104564231Y-73288684D01*
X104463947Y-73224917D01*
X104381922Y-73036963D01*
X104229357Y-72773845D01*
X104104697Y-72707500D01*
X104068245Y-72611294D01*
X104219375Y-72390000D01*
X104411215Y-72141804D01*
X104383823Y-71953785D01*
X104214308Y-71749401D01*
X103930903Y-71537356D01*
X103713454Y-71506294D01*
X103542229Y-71452418D01*
X103505000Y-71262428D01*
X103529392Y-71041021D01*
X103653708Y-71091190D01*
G36*
X92233750Y-70881875D02*
G01*
X92154375Y-70961250D01*
X92075000Y-70881875D01*
X92154375Y-70802500D01*
X92233750Y-70881875D01*
G37*
X92233750Y-70881875D02*
X92154375Y-70961250D01*
X92075000Y-70881875D01*
X92154375Y-70802500D01*
X92233750Y-70881875D01*
G36*
X88264999Y-69354311D02*
G01*
X88155201Y-69523780D01*
X88106250Y-69532500D01*
X87967045Y-69652013D01*
X87966416Y-69931580D01*
X88090497Y-70252743D01*
X88208446Y-70405767D01*
X88601527Y-70592422D01*
X88843446Y-70572832D01*
X89125920Y-70545963D01*
X89217500Y-70606100D01*
X89091537Y-70741098D01*
X88790635Y-70760518D01*
X88430268Y-70677095D01*
X88125913Y-70503565D01*
X88104607Y-70483357D01*
X87833410Y-70057128D01*
X87834856Y-69640857D01*
X88026874Y-69373750D01*
X88224132Y-69267490D01*
X88264999Y-69354311D01*
G37*
X88264999Y-69354311D02*
X88155201Y-69523780D01*
X88106250Y-69532500D01*
X87967045Y-69652013D01*
X87966416Y-69931580D01*
X88090497Y-70252743D01*
X88208446Y-70405767D01*
X88601527Y-70592422D01*
X88843446Y-70572832D01*
X89125920Y-70545963D01*
X89217500Y-70606100D01*
X89091537Y-70741098D01*
X88790635Y-70760518D01*
X88430268Y-70677095D01*
X88125913Y-70503565D01*
X88104607Y-70483357D01*
X87833410Y-70057128D01*
X87834856Y-69640857D01*
X88026874Y-69373750D01*
X88224132Y-69267490D01*
X88264999Y-69354311D01*
G36*
X103505000Y-70723125D02*
G01*
X103425625Y-70802500D01*
X103346250Y-70723125D01*
X103425625Y-70643750D01*
X103505000Y-70723125D01*
G37*
X103505000Y-70723125D02*
X103425625Y-70802500D01*
X103346250Y-70723125D01*
X103425625Y-70643750D01*
X103505000Y-70723125D01*
G36*
X92392500Y-70564375D02*
G01*
X92313125Y-70643750D01*
X92233750Y-70564375D01*
X92313125Y-70485000D01*
X92392500Y-70564375D01*
G37*
X92392500Y-70564375D02*
X92313125Y-70643750D01*
X92233750Y-70564375D01*
X92313125Y-70485000D01*
X92392500Y-70564375D01*
G36*
X103068437Y-70538612D02*
G01*
X103088380Y-70596555D01*
X102870000Y-70618684D01*
X102644633Y-70593736D01*
X102671562Y-70538612D01*
X102996578Y-70517645D01*
X103068437Y-70538612D01*
G37*
X103068437Y-70538612D02*
X103088380Y-70596555D01*
X102870000Y-70618684D01*
X102644633Y-70593736D01*
X102671562Y-70538612D01*
X102996578Y-70517645D01*
X103068437Y-70538612D01*
G36*
X92498333Y-70220416D02*
G01*
X92476541Y-70314793D01*
X92392500Y-70326250D01*
X92261830Y-70268165D01*
X92286666Y-70220416D01*
X92475065Y-70201417D01*
X92498333Y-70220416D01*
G37*
X92498333Y-70220416D02*
X92476541Y-70314793D01*
X92392500Y-70326250D01*
X92261830Y-70268165D01*
X92286666Y-70220416D01*
X92475065Y-70201417D01*
X92498333Y-70220416D01*
G36*
X92868750Y-70088125D02*
G01*
X92789375Y-70167500D01*
X92710000Y-70088125D01*
X92789375Y-70008750D01*
X92868750Y-70088125D01*
G37*
X92868750Y-70088125D02*
X92789375Y-70167500D01*
X92710000Y-70088125D01*
X92789375Y-70008750D01*
X92868750Y-70088125D01*
G36*
X89089251Y-68154300D02*
G01*
X89170941Y-68226451D01*
X89028064Y-68249967D01*
X88740864Y-68380566D01*
X88512126Y-68615322D01*
X88336402Y-68815600D01*
X88265000Y-68798677D01*
X88385190Y-68541071D01*
X88659758Y-68290993D01*
X88959699Y-68149295D01*
X89089251Y-68154300D01*
G37*
X89089251Y-68154300D02*
X89170941Y-68226451D01*
X89028064Y-68249967D01*
X88740864Y-68380566D01*
X88512126Y-68615322D01*
X88336402Y-68815600D01*
X88265000Y-68798677D01*
X88385190Y-68541071D01*
X88659758Y-68290993D01*
X88959699Y-68149295D01*
X89089251Y-68154300D01*
G36*
X91989190Y-67570974D02*
G01*
X92346492Y-67817513D01*
X92541799Y-68118166D01*
X92551250Y-68191260D01*
X92476685Y-68186130D01*
X92304123Y-67980322D01*
X91920352Y-67691016D01*
X91368685Y-67648112D01*
X90682245Y-67852254D01*
X90487500Y-67945000D01*
X90059417Y-68140637D01*
X89730336Y-68251459D01*
X89660386Y-68260949D01*
X89679058Y-68201740D01*
X89931762Y-68049053D01*
X90304825Y-67864074D01*
X90849047Y-67644972D01*
X91346714Y-67501417D01*
X91589909Y-67468750D01*
X91989190Y-67570974D01*
G37*
X91989190Y-67570974D02*
X92346492Y-67817513D01*
X92541799Y-68118166D01*
X92551250Y-68191260D01*
X92476685Y-68186130D01*
X92304123Y-67980322D01*
X91920352Y-67691016D01*
X91368685Y-67648112D01*
X90682245Y-67852254D01*
X90487500Y-67945000D01*
X90059417Y-68140637D01*
X89730336Y-68251459D01*
X89660386Y-68260949D01*
X89679058Y-68201740D01*
X89931762Y-68049053D01*
X90304825Y-67864074D01*
X90849047Y-67644972D01*
X91346714Y-67501417D01*
X91589909Y-67468750D01*
X91989190Y-67570974D01*
D11*
X93345000Y-48260000D02*
X95885000Y-48260000D01*
X95885000Y-48260000D02*
X95885000Y-45593000D01*
X95885000Y-45593000D02*
X62865000Y-45593000D01*
X95885000Y-60960000D02*
X95885000Y-63630000D01*
X95885000Y-60960000D02*
X65405000Y-60960000D01*
X67945000Y-60960000D02*
X67945000Y-63630000D01*
X65405000Y-60960000D02*
X65405000Y-63630000D01*
X93345000Y-48260000D02*
X65405000Y-48260000D01*
X65405000Y-48260000D02*
X65405000Y-45590000D01*
X62865000Y-45593000D02*
X62865000Y-50673000D01*
X62865000Y-63627000D02*
X95885000Y-63630000D01*
X95885000Y-63627000D02*
X95885000Y-48260000D01*
X60325000Y-50673000D02*
X62865000Y-50673000D01*
X62865000Y-58547000D02*
X62865000Y-63627000D01*
X60325000Y-58547000D02*
X62865000Y-58547000D01*
X60325000Y-50673000D02*
X60325000Y-58547000D01*
D12*
X94925000Y-97155000D02*
X94925000Y-85155000D01*
X65425000Y-97155000D02*
X65425000Y-85155000D01*
X60425000Y-97155000D02*
X98425000Y-97155000D01*
X98425000Y-97155000D02*
X98425000Y-85155000D01*
X98425000Y-85155000D02*
X60425000Y-85155000D01*
X60425000Y-85155000D02*
X60425000Y-97155000D01*
D11*
X97370000Y-53070000D02*
X97370000Y-57570000D01*
X101370000Y-51820000D02*
X99870000Y-51820000D01*
X103870000Y-57570000D02*
X103870000Y-53070000D01*
X99870000Y-58820000D02*
X101370000Y-58820000D01*
X78645000Y-57050000D02*
X78645000Y-59790000D01*
X78645000Y-59790000D02*
X85185000Y-59790000D01*
X85185000Y-59790000D02*
X85185000Y-57050000D01*
X85185000Y-57050000D02*
X78645000Y-57050000D01*
X77875000Y-58420000D02*
X78645000Y-58420000D01*
X85955000Y-58420000D02*
X85185000Y-58420000D01*
X70335000Y-74715000D02*
X68095000Y-74715000D01*
X68095000Y-74715000D02*
X68095000Y-78955000D01*
X68095000Y-78955000D02*
X70335000Y-78955000D01*
X70335000Y-78955000D02*
X70335000Y-74715000D01*
X69215000Y-72795000D02*
X69215000Y-74715000D01*
X69215000Y-80875000D02*
X69215000Y-78955000D01*
X70335000Y-75435000D02*
X68095000Y-75435000D01*
X70335000Y-75555000D02*
X68095000Y-75555000D01*
X70335000Y-75315000D02*
X68095000Y-75315000D01*
X143660000Y-76415000D02*
X145900000Y-76415000D01*
X145900000Y-76415000D02*
X145900000Y-72175000D01*
X145900000Y-72175000D02*
X143660000Y-72175000D01*
X143660000Y-72175000D02*
X143660000Y-76415000D01*
X144780000Y-78335000D02*
X144780000Y-76415000D01*
X144780000Y-70255000D02*
X144780000Y-72175000D01*
X143660000Y-75695000D02*
X145900000Y-75695000D01*
X143660000Y-75575000D02*
X145900000Y-75575000D01*
X143660000Y-75815000D02*
X145900000Y-75815000D01*
X79415000Y-74310000D02*
X79415000Y-75310000D01*
X79915000Y-74810000D02*
X78915000Y-74810000D01*
X75915000Y-80910000D02*
X73515000Y-80910000D01*
X80715000Y-80910000D02*
X78115000Y-80910000D01*
X85315000Y-80910000D02*
X82915000Y-80910000D01*
X83515000Y-67610000D02*
X83215000Y-67310000D01*
X83515000Y-67010000D02*
X83515000Y-67610000D01*
X83215000Y-67310000D02*
X83515000Y-67010000D01*
X85315000Y-68710000D02*
X73515000Y-68710000D01*
X85315000Y-72810000D02*
X85315000Y-68710000D01*
X73515000Y-72810000D02*
X73515000Y-68710000D01*
X73515000Y-80910000D02*
X73515000Y-76810000D01*
X85315000Y-76810000D02*
X85315000Y-80910000D01*
X82415000Y-74810000D02*
G75*
G03*
X82415000Y-74810000I-3000000J0D01*
G01*
X162710000Y-133565000D02*
X164950000Y-133565000D01*
X164950000Y-133565000D02*
X164950000Y-129325000D01*
X164950000Y-129325000D02*
X162710000Y-129325000D01*
X162710000Y-129325000D02*
X162710000Y-133565000D01*
X163830000Y-135485000D02*
X163830000Y-133565000D01*
X163830000Y-127405000D02*
X163830000Y-129325000D01*
X162710000Y-132845000D02*
X164950000Y-132845000D01*
X162710000Y-132725000D02*
X164950000Y-132725000D01*
X162710000Y-132965000D02*
X164950000Y-132965000D01*
X162710000Y-114515000D02*
X164950000Y-114515000D01*
X164950000Y-114515000D02*
X164950000Y-110275000D01*
X164950000Y-110275000D02*
X162710000Y-110275000D01*
X162710000Y-110275000D02*
X162710000Y-114515000D01*
X163830000Y-116435000D02*
X163830000Y-114515000D01*
X163830000Y-108355000D02*
X163830000Y-110275000D01*
X162710000Y-113795000D02*
X164950000Y-113795000D01*
X162710000Y-113675000D02*
X164950000Y-113675000D01*
X162710000Y-113915000D02*
X164950000Y-113915000D01*
X162710000Y-95465000D02*
X164950000Y-95465000D01*
X164950000Y-95465000D02*
X164950000Y-91225000D01*
X164950000Y-91225000D02*
X162710000Y-91225000D01*
X162710000Y-91225000D02*
X162710000Y-95465000D01*
X163830000Y-97385000D02*
X163830000Y-95465000D01*
X163830000Y-89305000D02*
X163830000Y-91225000D01*
X162710000Y-94745000D02*
X164950000Y-94745000D01*
X162710000Y-94625000D02*
X164950000Y-94625000D01*
X162710000Y-94865000D02*
X164950000Y-94865000D01*
X162710000Y-76415000D02*
X164950000Y-76415000D01*
X164950000Y-76415000D02*
X164950000Y-72175000D01*
X164950000Y-72175000D02*
X162710000Y-72175000D01*
X162710000Y-72175000D02*
X162710000Y-76415000D01*
X163830000Y-78335000D02*
X163830000Y-76415000D01*
X163830000Y-70255000D02*
X163830000Y-72175000D01*
X162710000Y-75695000D02*
X164950000Y-75695000D01*
X162710000Y-75575000D02*
X164950000Y-75575000D01*
X162710000Y-75815000D02*
X164950000Y-75815000D01*
X162710000Y-57365000D02*
X164950000Y-57365000D01*
X164950000Y-57365000D02*
X164950000Y-53125000D01*
X164950000Y-53125000D02*
X162710000Y-53125000D01*
X162710000Y-53125000D02*
X162710000Y-57365000D01*
X163830000Y-59285000D02*
X163830000Y-57365000D01*
X163830000Y-51205000D02*
X163830000Y-53125000D01*
X162710000Y-56645000D02*
X164950000Y-56645000D01*
X162710000Y-56525000D02*
X164950000Y-56525000D01*
X162710000Y-56765000D02*
X164950000Y-56765000D01*
X143660000Y-133565000D02*
X145900000Y-133565000D01*
X145900000Y-133565000D02*
X145900000Y-129325000D01*
X145900000Y-129325000D02*
X143660000Y-129325000D01*
X143660000Y-129325000D02*
X143660000Y-133565000D01*
X144780000Y-135485000D02*
X144780000Y-133565000D01*
X144780000Y-127405000D02*
X144780000Y-129325000D01*
X143660000Y-132845000D02*
X145900000Y-132845000D01*
X143660000Y-132725000D02*
X145900000Y-132725000D01*
X143660000Y-132965000D02*
X145900000Y-132965000D01*
X143660000Y-114515000D02*
X145900000Y-114515000D01*
X145900000Y-114515000D02*
X145900000Y-110275000D01*
X145900000Y-110275000D02*
X143660000Y-110275000D01*
X143660000Y-110275000D02*
X143660000Y-114515000D01*
X144780000Y-116435000D02*
X144780000Y-114515000D01*
X144780000Y-108355000D02*
X144780000Y-110275000D01*
X143660000Y-113795000D02*
X145900000Y-113795000D01*
X143660000Y-113675000D02*
X145900000Y-113675000D01*
X143660000Y-113915000D02*
X145900000Y-113915000D01*
X143660000Y-95465000D02*
X145900000Y-95465000D01*
X145900000Y-95465000D02*
X145900000Y-91225000D01*
X145900000Y-91225000D02*
X143660000Y-91225000D01*
X143660000Y-91225000D02*
X143660000Y-95465000D01*
X144780000Y-97385000D02*
X144780000Y-95465000D01*
X144780000Y-89305000D02*
X144780000Y-91225000D01*
X143660000Y-94745000D02*
X145900000Y-94745000D01*
X143660000Y-94625000D02*
X145900000Y-94625000D01*
X143660000Y-94865000D02*
X145900000Y-94865000D01*
X143660000Y-57365000D02*
X145900000Y-57365000D01*
X145900000Y-57365000D02*
X145900000Y-53125000D01*
X145900000Y-53125000D02*
X143660000Y-53125000D01*
X143660000Y-53125000D02*
X143660000Y-57365000D01*
X144780000Y-59285000D02*
X144780000Y-57365000D01*
X144780000Y-51205000D02*
X144780000Y-53125000D01*
X143660000Y-56645000D02*
X145900000Y-56645000D01*
X143660000Y-56525000D02*
X145900000Y-56525000D01*
X143660000Y-56765000D02*
X145900000Y-56765000D01*
X124610000Y-133565000D02*
X126850000Y-133565000D01*
X126850000Y-133565000D02*
X126850000Y-129325000D01*
X126850000Y-129325000D02*
X124610000Y-129325000D01*
X124610000Y-129325000D02*
X124610000Y-133565000D01*
X125730000Y-135485000D02*
X125730000Y-133565000D01*
X125730000Y-127405000D02*
X125730000Y-129325000D01*
X124610000Y-132845000D02*
X126850000Y-132845000D01*
X124610000Y-132725000D02*
X126850000Y-132725000D01*
X124610000Y-132965000D02*
X126850000Y-132965000D01*
X124610000Y-114515000D02*
X126850000Y-114515000D01*
X126850000Y-114515000D02*
X126850000Y-110275000D01*
X126850000Y-110275000D02*
X124610000Y-110275000D01*
X124610000Y-110275000D02*
X124610000Y-114515000D01*
X125730000Y-116435000D02*
X125730000Y-114515000D01*
X125730000Y-108355000D02*
X125730000Y-110275000D01*
X124610000Y-113795000D02*
X126850000Y-113795000D01*
X124610000Y-113675000D02*
X126850000Y-113675000D01*
X124610000Y-113915000D02*
X126850000Y-113915000D01*
X124610000Y-95465000D02*
X126850000Y-95465000D01*
X126850000Y-95465000D02*
X126850000Y-91225000D01*
X126850000Y-91225000D02*
X124610000Y-91225000D01*
X124610000Y-91225000D02*
X124610000Y-95465000D01*
X125730000Y-97385000D02*
X125730000Y-95465000D01*
X125730000Y-89305000D02*
X125730000Y-91225000D01*
X124610000Y-94745000D02*
X126850000Y-94745000D01*
X124610000Y-94625000D02*
X126850000Y-94625000D01*
X124610000Y-94865000D02*
X126850000Y-94865000D01*
X124610000Y-76415000D02*
X126850000Y-76415000D01*
X126850000Y-76415000D02*
X126850000Y-72175000D01*
X126850000Y-72175000D02*
X124610000Y-72175000D01*
X124610000Y-72175000D02*
X124610000Y-76415000D01*
X125730000Y-78335000D02*
X125730000Y-76415000D01*
X125730000Y-70255000D02*
X125730000Y-72175000D01*
X124610000Y-75695000D02*
X126850000Y-75695000D01*
X124610000Y-75575000D02*
X126850000Y-75575000D01*
X124610000Y-75815000D02*
X126850000Y-75815000D01*
X124610000Y-57365000D02*
X126850000Y-57365000D01*
X126850000Y-57365000D02*
X126850000Y-53125000D01*
X126850000Y-53125000D02*
X124610000Y-53125000D01*
X124610000Y-53125000D02*
X124610000Y-57365000D01*
X125730000Y-59285000D02*
X125730000Y-57365000D01*
X125730000Y-51205000D02*
X125730000Y-53125000D01*
X124610000Y-56645000D02*
X126850000Y-56645000D01*
X124610000Y-56525000D02*
X126850000Y-56525000D01*
X124610000Y-56765000D02*
X126850000Y-56765000D01*
X105560000Y-133565000D02*
X107800000Y-133565000D01*
X107800000Y-133565000D02*
X107800000Y-129325000D01*
X107800000Y-129325000D02*
X105560000Y-129325000D01*
X105560000Y-129325000D02*
X105560000Y-133565000D01*
X106680000Y-135485000D02*
X106680000Y-133565000D01*
X106680000Y-127405000D02*
X106680000Y-129325000D01*
X105560000Y-132845000D02*
X107800000Y-132845000D01*
X105560000Y-132725000D02*
X107800000Y-132725000D01*
X105560000Y-132965000D02*
X107800000Y-132965000D01*
X105560000Y-114515000D02*
X107800000Y-114515000D01*
X107800000Y-114515000D02*
X107800000Y-110275000D01*
X107800000Y-110275000D02*
X105560000Y-110275000D01*
X105560000Y-110275000D02*
X105560000Y-114515000D01*
X106680000Y-116435000D02*
X106680000Y-114515000D01*
X106680000Y-108355000D02*
X106680000Y-110275000D01*
X105560000Y-113795000D02*
X107800000Y-113795000D01*
X105560000Y-113675000D02*
X107800000Y-113675000D01*
X105560000Y-113915000D02*
X107800000Y-113915000D01*
X105560000Y-95465000D02*
X107800000Y-95465000D01*
X107800000Y-95465000D02*
X107800000Y-91225000D01*
X107800000Y-91225000D02*
X105560000Y-91225000D01*
X105560000Y-91225000D02*
X105560000Y-95465000D01*
X106680000Y-97385000D02*
X106680000Y-95465000D01*
X106680000Y-89305000D02*
X106680000Y-91225000D01*
X105560000Y-94745000D02*
X107800000Y-94745000D01*
X105560000Y-94625000D02*
X107800000Y-94625000D01*
X105560000Y-94865000D02*
X107800000Y-94865000D01*
X105560000Y-76415000D02*
X107800000Y-76415000D01*
X107800000Y-76415000D02*
X107800000Y-72175000D01*
X107800000Y-72175000D02*
X105560000Y-72175000D01*
X105560000Y-72175000D02*
X105560000Y-76415000D01*
X106680000Y-78335000D02*
X106680000Y-76415000D01*
X106680000Y-70255000D02*
X106680000Y-72175000D01*
X105560000Y-75695000D02*
X107800000Y-75695000D01*
X105560000Y-75575000D02*
X107800000Y-75575000D01*
X105560000Y-75815000D02*
X107800000Y-75815000D01*
X105560000Y-57365000D02*
X107800000Y-57365000D01*
X107800000Y-57365000D02*
X107800000Y-53125000D01*
X107800000Y-53125000D02*
X105560000Y-53125000D01*
X105560000Y-53125000D02*
X105560000Y-57365000D01*
X106680000Y-59285000D02*
X106680000Y-57365000D01*
X106680000Y-51205000D02*
X106680000Y-53125000D01*
X105560000Y-56645000D02*
X107800000Y-56645000D01*
X105560000Y-56525000D02*
X107800000Y-56525000D01*
X105560000Y-56765000D02*
X107800000Y-56765000D01*
D13*
X93432380Y-55371904D02*
X94241904Y-55371904D01*
X94337142Y-55324285D01*
X94384761Y-55276666D01*
X94432380Y-55181428D01*
X94432380Y-54990952D01*
X94384761Y-54895714D01*
X94337142Y-54848095D01*
X94241904Y-54800476D01*
X93432380Y-54800476D01*
X94432380Y-53800476D02*
X94432380Y-54371904D01*
X94432380Y-54086190D02*
X93432380Y-54086190D01*
X93575238Y-54181428D01*
X93670476Y-54276666D01*
X93718095Y-54371904D01*
X96453571Y-92411666D02*
X96501190Y-92268809D01*
X96548809Y-92221190D01*
X96644047Y-92173571D01*
X96786904Y-92173571D01*
X96882142Y-92221190D01*
X96929761Y-92268809D01*
X96977380Y-92364047D01*
X96977380Y-92745000D01*
X95977380Y-92745000D01*
X95977380Y-92411666D01*
X96025000Y-92316428D01*
X96072619Y-92268809D01*
X96167857Y-92221190D01*
X96263095Y-92221190D01*
X96358333Y-92268809D01*
X96405952Y-92316428D01*
X96453571Y-92411666D01*
X96453571Y-92745000D01*
X96977380Y-91745000D02*
X96310714Y-91745000D01*
X96501190Y-91745000D02*
X96405952Y-91697380D01*
X96358333Y-91649761D01*
X96310714Y-91554523D01*
X96310714Y-91459285D01*
X96977380Y-90697380D02*
X95977380Y-90697380D01*
X96929761Y-90697380D02*
X96977380Y-90792619D01*
X96977380Y-90983095D01*
X96929761Y-91078333D01*
X96882142Y-91125952D01*
X96786904Y-91173571D01*
X96501190Y-91173571D01*
X96405952Y-91125952D01*
X96358333Y-91078333D01*
X96310714Y-90983095D01*
X96310714Y-90792619D01*
X96358333Y-90697380D01*
X96977380Y-89697380D02*
X96977380Y-90268809D01*
X96977380Y-89983095D02*
X95977380Y-89983095D01*
X96120238Y-90078333D01*
X96215476Y-90173571D01*
X96263095Y-90268809D01*
X64228571Y-88255714D02*
X64264285Y-88148571D01*
X64264285Y-87970000D01*
X64228571Y-87898571D01*
X64192857Y-87862857D01*
X64121428Y-87827142D01*
X64050000Y-87827142D01*
X63978571Y-87862857D01*
X63942857Y-87898571D01*
X63907142Y-87970000D01*
X63871428Y-88112857D01*
X63835714Y-88184285D01*
X63800000Y-88220000D01*
X63728571Y-88255714D01*
X63657142Y-88255714D01*
X63585714Y-88220000D01*
X63550000Y-88184285D01*
X63514285Y-88112857D01*
X63514285Y-87934285D01*
X63550000Y-87827142D01*
X64264285Y-87505714D02*
X63514285Y-87505714D01*
X63514285Y-87327142D01*
X63550000Y-87220000D01*
X63621428Y-87148571D01*
X63692857Y-87112857D01*
X63835714Y-87077142D01*
X63942857Y-87077142D01*
X64085714Y-87112857D01*
X64157142Y-87148571D01*
X64228571Y-87220000D01*
X64264285Y-87327142D01*
X64264285Y-87505714D01*
X64050000Y-86791428D02*
X64050000Y-86434285D01*
X64264285Y-86862857D02*
X63514285Y-86612857D01*
X64264285Y-86362857D01*
X64228571Y-90777857D02*
X64264285Y-90670714D01*
X64264285Y-90492142D01*
X64228571Y-90420714D01*
X64192857Y-90385000D01*
X64121428Y-90349285D01*
X64050000Y-90349285D01*
X63978571Y-90385000D01*
X63942857Y-90420714D01*
X63907142Y-90492142D01*
X63871428Y-90635000D01*
X63835714Y-90706428D01*
X63800000Y-90742142D01*
X63728571Y-90777857D01*
X63657142Y-90777857D01*
X63585714Y-90742142D01*
X63550000Y-90706428D01*
X63514285Y-90635000D01*
X63514285Y-90456428D01*
X63550000Y-90349285D01*
X64192857Y-89599285D02*
X64228571Y-89635000D01*
X64264285Y-89742142D01*
X64264285Y-89813571D01*
X64228571Y-89920714D01*
X64157142Y-89992142D01*
X64085714Y-90027857D01*
X63942857Y-90063571D01*
X63835714Y-90063571D01*
X63692857Y-90027857D01*
X63621428Y-89992142D01*
X63550000Y-89920714D01*
X63514285Y-89813571D01*
X63514285Y-89742142D01*
X63550000Y-89635000D01*
X63585714Y-89599285D01*
X64264285Y-88920714D02*
X64264285Y-89277857D01*
X63514285Y-89277857D01*
X63514285Y-93425000D02*
X64264285Y-93175000D01*
X63514285Y-92925000D01*
X64192857Y-92246428D02*
X64228571Y-92282142D01*
X64264285Y-92389285D01*
X64264285Y-92460714D01*
X64228571Y-92567857D01*
X64157142Y-92639285D01*
X64085714Y-92675000D01*
X63942857Y-92710714D01*
X63835714Y-92710714D01*
X63692857Y-92675000D01*
X63621428Y-92639285D01*
X63550000Y-92567857D01*
X63514285Y-92460714D01*
X63514285Y-92389285D01*
X63550000Y-92282142D01*
X63585714Y-92246428D01*
X64192857Y-91496428D02*
X64228571Y-91532142D01*
X64264285Y-91639285D01*
X64264285Y-91710714D01*
X64228571Y-91817857D01*
X64157142Y-91889285D01*
X64085714Y-91925000D01*
X63942857Y-91960714D01*
X63835714Y-91960714D01*
X63692857Y-91925000D01*
X63621428Y-91889285D01*
X63550000Y-91817857D01*
X63514285Y-91710714D01*
X63514285Y-91639285D01*
X63550000Y-91532142D01*
X63585714Y-91496428D01*
X63550000Y-95536428D02*
X63514285Y-95607857D01*
X63514285Y-95715000D01*
X63550000Y-95822142D01*
X63621428Y-95893571D01*
X63692857Y-95929285D01*
X63835714Y-95965000D01*
X63942857Y-95965000D01*
X64085714Y-95929285D01*
X64157142Y-95893571D01*
X64228571Y-95822142D01*
X64264285Y-95715000D01*
X64264285Y-95643571D01*
X64228571Y-95536428D01*
X64192857Y-95500714D01*
X63942857Y-95500714D01*
X63942857Y-95643571D01*
X64264285Y-95179285D02*
X63514285Y-95179285D01*
X64264285Y-94750714D01*
X63514285Y-94750714D01*
X64264285Y-94393571D02*
X63514285Y-94393571D01*
X63514285Y-94215000D01*
X63550000Y-94107857D01*
X63621428Y-94036428D01*
X63692857Y-94000714D01*
X63835714Y-93965000D01*
X63942857Y-93965000D01*
X64085714Y-94000714D01*
X64157142Y-94036428D01*
X64228571Y-94107857D01*
X64264285Y-94215000D01*
X64264285Y-94393571D01*
X65921428Y-85812380D02*
X66111904Y-85812380D01*
X66207142Y-85860000D01*
X66302380Y-85955238D01*
X66350000Y-86145714D01*
X66350000Y-86479047D01*
X66302380Y-86669523D01*
X66207142Y-86764761D01*
X66111904Y-86812380D01*
X65921428Y-86812380D01*
X65826190Y-86764761D01*
X65730952Y-86669523D01*
X65683333Y-86479047D01*
X65683333Y-86145714D01*
X65730952Y-85955238D01*
X65826190Y-85860000D01*
X65921428Y-85812380D01*
X67254761Y-86812380D02*
X66778571Y-86812380D01*
X66778571Y-85812380D01*
X67588095Y-86288571D02*
X67921428Y-86288571D01*
X68064285Y-86812380D02*
X67588095Y-86812380D01*
X67588095Y-85812380D01*
X68064285Y-85812380D01*
X68492857Y-86812380D02*
X68492857Y-85812380D01*
X68730952Y-85812380D01*
X68873809Y-85860000D01*
X68969047Y-85955238D01*
X69016666Y-86050476D01*
X69064285Y-86240952D01*
X69064285Y-86383809D01*
X69016666Y-86574285D01*
X68969047Y-86669523D01*
X68873809Y-86764761D01*
X68730952Y-86812380D01*
X68492857Y-86812380D01*
X70254761Y-86812380D02*
X70254761Y-85812380D01*
X70635714Y-85812380D01*
X70730952Y-85860000D01*
X70778571Y-85907619D01*
X70826190Y-86002857D01*
X70826190Y-86145714D01*
X70778571Y-86240952D01*
X70730952Y-86288571D01*
X70635714Y-86336190D01*
X70254761Y-86336190D01*
X71683333Y-86812380D02*
X71683333Y-86288571D01*
X71635714Y-86193333D01*
X71540476Y-86145714D01*
X71350000Y-86145714D01*
X71254761Y-86193333D01*
X71683333Y-86764761D02*
X71588095Y-86812380D01*
X71350000Y-86812380D01*
X71254761Y-86764761D01*
X71207142Y-86669523D01*
X71207142Y-86574285D01*
X71254761Y-86479047D01*
X71350000Y-86431428D01*
X71588095Y-86431428D01*
X71683333Y-86383809D01*
X72159523Y-86145714D02*
X72159523Y-86812380D01*
X72159523Y-86240952D02*
X72207142Y-86193333D01*
X72302380Y-86145714D01*
X72445238Y-86145714D01*
X72540476Y-86193333D01*
X72588095Y-86288571D01*
X72588095Y-86812380D01*
X73445238Y-86764761D02*
X73350000Y-86812380D01*
X73159523Y-86812380D01*
X73064285Y-86764761D01*
X73016666Y-86669523D01*
X73016666Y-86288571D01*
X73064285Y-86193333D01*
X73159523Y-86145714D01*
X73350000Y-86145714D01*
X73445238Y-86193333D01*
X73492857Y-86288571D01*
X73492857Y-86383809D01*
X73016666Y-86479047D01*
X74064285Y-86812380D02*
X73969047Y-86764761D01*
X73921428Y-86669523D01*
X73921428Y-85812380D01*
X105274761Y-56653333D02*
X105322380Y-56510476D01*
X105322380Y-56272380D01*
X105274761Y-56177142D01*
X105227142Y-56129523D01*
X105131904Y-56081904D01*
X105036666Y-56081904D01*
X104941428Y-56129523D01*
X104893809Y-56177142D01*
X104846190Y-56272380D01*
X104798571Y-56462857D01*
X104750952Y-56558095D01*
X104703333Y-56605714D01*
X104608095Y-56653333D01*
X104512857Y-56653333D01*
X104417619Y-56605714D01*
X104370000Y-56558095D01*
X104322380Y-56462857D01*
X104322380Y-56224761D01*
X104370000Y-56081904D01*
X104322380Y-55748571D02*
X105322380Y-55510476D01*
X104608095Y-55320000D01*
X105322380Y-55129523D01*
X104322380Y-54891428D01*
X105322380Y-53986666D02*
X105322380Y-54558095D01*
X105322380Y-54272380D02*
X104322380Y-54272380D01*
X104465238Y-54367619D01*
X104560476Y-54462857D01*
X104608095Y-54558095D01*
X81748333Y-56502380D02*
X81415000Y-56026190D01*
X81176904Y-56502380D02*
X81176904Y-55502380D01*
X81557857Y-55502380D01*
X81653095Y-55550000D01*
X81700714Y-55597619D01*
X81748333Y-55692857D01*
X81748333Y-55835714D01*
X81700714Y-55930952D01*
X81653095Y-55978571D01*
X81557857Y-56026190D01*
X81176904Y-56026190D01*
X82700714Y-56502380D02*
X82129285Y-56502380D01*
X82415000Y-56502380D02*
X82415000Y-55502380D01*
X82319761Y-55645238D01*
X82224523Y-55740476D01*
X82129285Y-55788095D01*
X71787380Y-78049285D02*
X70787380Y-78049285D01*
X70787380Y-77811190D01*
X70835000Y-77668333D01*
X70930238Y-77573095D01*
X71025476Y-77525476D01*
X71215952Y-77477857D01*
X71358809Y-77477857D01*
X71549285Y-77525476D01*
X71644523Y-77573095D01*
X71739761Y-77668333D01*
X71787380Y-77811190D01*
X71787380Y-78049285D01*
X70882619Y-77096904D02*
X70835000Y-77049285D01*
X70787380Y-76954047D01*
X70787380Y-76715952D01*
X70835000Y-76620714D01*
X70882619Y-76573095D01*
X70977857Y-76525476D01*
X71073095Y-76525476D01*
X71215952Y-76573095D01*
X71787380Y-77144523D01*
X71787380Y-76525476D01*
X71787380Y-75573095D02*
X71787380Y-76144523D01*
X71787380Y-75858809D02*
X70787380Y-75858809D01*
X70930238Y-75954047D01*
X71025476Y-76049285D01*
X71073095Y-76144523D01*
X71467380Y-72016904D02*
X70467380Y-72016904D01*
X71467380Y-71445476D02*
X70895952Y-71874047D01*
X70467380Y-71445476D02*
X71038809Y-72016904D01*
X143112380Y-75509285D02*
X142112380Y-75509285D01*
X142112380Y-75271190D01*
X142160000Y-75128333D01*
X142255238Y-75033095D01*
X142350476Y-74985476D01*
X142540952Y-74937857D01*
X142683809Y-74937857D01*
X142874285Y-74985476D01*
X142969523Y-75033095D01*
X143064761Y-75128333D01*
X143112380Y-75271190D01*
X143112380Y-75509285D01*
X143112380Y-73985476D02*
X143112380Y-74556904D01*
X143112380Y-74271190D02*
X142112380Y-74271190D01*
X142255238Y-74366428D01*
X142350476Y-74461666D01*
X142398095Y-74556904D01*
X142207619Y-73604523D02*
X142160000Y-73556904D01*
X142112380Y-73461666D01*
X142112380Y-73223571D01*
X142160000Y-73128333D01*
X142207619Y-73080714D01*
X142302857Y-73033095D01*
X142398095Y-73033095D01*
X142540952Y-73080714D01*
X143112380Y-73652142D01*
X143112380Y-73033095D01*
X143432380Y-79636904D02*
X142432380Y-79636904D01*
X143432380Y-79065476D02*
X142860952Y-79494047D01*
X142432380Y-79065476D02*
X143003809Y-79636904D01*
X71524761Y-68643333D02*
X71572380Y-68500476D01*
X71572380Y-68262380D01*
X71524761Y-68167142D01*
X71477142Y-68119523D01*
X71381904Y-68071904D01*
X71286666Y-68071904D01*
X71191428Y-68119523D01*
X71143809Y-68167142D01*
X71096190Y-68262380D01*
X71048571Y-68452857D01*
X71000952Y-68548095D01*
X70953333Y-68595714D01*
X70858095Y-68643333D01*
X70762857Y-68643333D01*
X70667619Y-68595714D01*
X70620000Y-68548095D01*
X70572380Y-68452857D01*
X70572380Y-68214761D01*
X70620000Y-68071904D01*
X70572380Y-67738571D02*
X71572380Y-67500476D01*
X70858095Y-67310000D01*
X71572380Y-67119523D01*
X70572380Y-66881428D01*
X70667619Y-66548095D02*
X70620000Y-66500476D01*
X70572380Y-66405238D01*
X70572380Y-66167142D01*
X70620000Y-66071904D01*
X70667619Y-66024285D01*
X70762857Y-65976666D01*
X70858095Y-65976666D01*
X71000952Y-66024285D01*
X71572380Y-66595714D01*
X71572380Y-65976666D01*
X162162380Y-132659285D02*
X161162380Y-132659285D01*
X161162380Y-132421190D01*
X161210000Y-132278333D01*
X161305238Y-132183095D01*
X161400476Y-132135476D01*
X161590952Y-132087857D01*
X161733809Y-132087857D01*
X161924285Y-132135476D01*
X162019523Y-132183095D01*
X162114761Y-132278333D01*
X162162380Y-132421190D01*
X162162380Y-132659285D01*
X161257619Y-131706904D02*
X161210000Y-131659285D01*
X161162380Y-131564047D01*
X161162380Y-131325952D01*
X161210000Y-131230714D01*
X161257619Y-131183095D01*
X161352857Y-131135476D01*
X161448095Y-131135476D01*
X161590952Y-131183095D01*
X162162380Y-131754523D01*
X162162380Y-131135476D01*
X161162380Y-130516428D02*
X161162380Y-130421190D01*
X161210000Y-130325952D01*
X161257619Y-130278333D01*
X161352857Y-130230714D01*
X161543333Y-130183095D01*
X161781428Y-130183095D01*
X161971904Y-130230714D01*
X162067142Y-130278333D01*
X162114761Y-130325952D01*
X162162380Y-130421190D01*
X162162380Y-130516428D01*
X162114761Y-130611666D01*
X162067142Y-130659285D01*
X161971904Y-130706904D01*
X161781428Y-130754523D01*
X161543333Y-130754523D01*
X161352857Y-130706904D01*
X161257619Y-130659285D01*
X161210000Y-130611666D01*
X161162380Y-130516428D01*
X162482380Y-136786904D02*
X161482380Y-136786904D01*
X162482380Y-136215476D02*
X161910952Y-136644047D01*
X161482380Y-136215476D02*
X162053809Y-136786904D01*
X162162380Y-113609285D02*
X161162380Y-113609285D01*
X161162380Y-113371190D01*
X161210000Y-113228333D01*
X161305238Y-113133095D01*
X161400476Y-113085476D01*
X161590952Y-113037857D01*
X161733809Y-113037857D01*
X161924285Y-113085476D01*
X162019523Y-113133095D01*
X162114761Y-113228333D01*
X162162380Y-113371190D01*
X162162380Y-113609285D01*
X162162380Y-112085476D02*
X162162380Y-112656904D01*
X162162380Y-112371190D02*
X161162380Y-112371190D01*
X161305238Y-112466428D01*
X161400476Y-112561666D01*
X161448095Y-112656904D01*
X162162380Y-111609285D02*
X162162380Y-111418809D01*
X162114761Y-111323571D01*
X162067142Y-111275952D01*
X161924285Y-111180714D01*
X161733809Y-111133095D01*
X161352857Y-111133095D01*
X161257619Y-111180714D01*
X161210000Y-111228333D01*
X161162380Y-111323571D01*
X161162380Y-111514047D01*
X161210000Y-111609285D01*
X161257619Y-111656904D01*
X161352857Y-111704523D01*
X161590952Y-111704523D01*
X161686190Y-111656904D01*
X161733809Y-111609285D01*
X161781428Y-111514047D01*
X161781428Y-111323571D01*
X161733809Y-111228333D01*
X161686190Y-111180714D01*
X161590952Y-111133095D01*
X162482380Y-117736904D02*
X161482380Y-117736904D01*
X162482380Y-117165476D02*
X161910952Y-117594047D01*
X161482380Y-117165476D02*
X162053809Y-117736904D01*
X162162380Y-94559285D02*
X161162380Y-94559285D01*
X161162380Y-94321190D01*
X161210000Y-94178333D01*
X161305238Y-94083095D01*
X161400476Y-94035476D01*
X161590952Y-93987857D01*
X161733809Y-93987857D01*
X161924285Y-94035476D01*
X162019523Y-94083095D01*
X162114761Y-94178333D01*
X162162380Y-94321190D01*
X162162380Y-94559285D01*
X162162380Y-93035476D02*
X162162380Y-93606904D01*
X162162380Y-93321190D02*
X161162380Y-93321190D01*
X161305238Y-93416428D01*
X161400476Y-93511666D01*
X161448095Y-93606904D01*
X161590952Y-92464047D02*
X161543333Y-92559285D01*
X161495714Y-92606904D01*
X161400476Y-92654523D01*
X161352857Y-92654523D01*
X161257619Y-92606904D01*
X161210000Y-92559285D01*
X161162380Y-92464047D01*
X161162380Y-92273571D01*
X161210000Y-92178333D01*
X161257619Y-92130714D01*
X161352857Y-92083095D01*
X161400476Y-92083095D01*
X161495714Y-92130714D01*
X161543333Y-92178333D01*
X161590952Y-92273571D01*
X161590952Y-92464047D01*
X161638571Y-92559285D01*
X161686190Y-92606904D01*
X161781428Y-92654523D01*
X161971904Y-92654523D01*
X162067142Y-92606904D01*
X162114761Y-92559285D01*
X162162380Y-92464047D01*
X162162380Y-92273571D01*
X162114761Y-92178333D01*
X162067142Y-92130714D01*
X161971904Y-92083095D01*
X161781428Y-92083095D01*
X161686190Y-92130714D01*
X161638571Y-92178333D01*
X161590952Y-92273571D01*
X162482380Y-98686904D02*
X161482380Y-98686904D01*
X162482380Y-98115476D02*
X161910952Y-98544047D01*
X161482380Y-98115476D02*
X162053809Y-98686904D01*
X162162380Y-75509285D02*
X161162380Y-75509285D01*
X161162380Y-75271190D01*
X161210000Y-75128333D01*
X161305238Y-75033095D01*
X161400476Y-74985476D01*
X161590952Y-74937857D01*
X161733809Y-74937857D01*
X161924285Y-74985476D01*
X162019523Y-75033095D01*
X162114761Y-75128333D01*
X162162380Y-75271190D01*
X162162380Y-75509285D01*
X162162380Y-73985476D02*
X162162380Y-74556904D01*
X162162380Y-74271190D02*
X161162380Y-74271190D01*
X161305238Y-74366428D01*
X161400476Y-74461666D01*
X161448095Y-74556904D01*
X161162380Y-73652142D02*
X161162380Y-72985476D01*
X162162380Y-73414047D01*
X162482380Y-79636904D02*
X161482380Y-79636904D01*
X162482380Y-79065476D02*
X161910952Y-79494047D01*
X161482380Y-79065476D02*
X162053809Y-79636904D01*
X162162380Y-56459285D02*
X161162380Y-56459285D01*
X161162380Y-56221190D01*
X161210000Y-56078333D01*
X161305238Y-55983095D01*
X161400476Y-55935476D01*
X161590952Y-55887857D01*
X161733809Y-55887857D01*
X161924285Y-55935476D01*
X162019523Y-55983095D01*
X162114761Y-56078333D01*
X162162380Y-56221190D01*
X162162380Y-56459285D01*
X162162380Y-54935476D02*
X162162380Y-55506904D01*
X162162380Y-55221190D02*
X161162380Y-55221190D01*
X161305238Y-55316428D01*
X161400476Y-55411666D01*
X161448095Y-55506904D01*
X161162380Y-54078333D02*
X161162380Y-54268809D01*
X161210000Y-54364047D01*
X161257619Y-54411666D01*
X161400476Y-54506904D01*
X161590952Y-54554523D01*
X161971904Y-54554523D01*
X162067142Y-54506904D01*
X162114761Y-54459285D01*
X162162380Y-54364047D01*
X162162380Y-54173571D01*
X162114761Y-54078333D01*
X162067142Y-54030714D01*
X161971904Y-53983095D01*
X161733809Y-53983095D01*
X161638571Y-54030714D01*
X161590952Y-54078333D01*
X161543333Y-54173571D01*
X161543333Y-54364047D01*
X161590952Y-54459285D01*
X161638571Y-54506904D01*
X161733809Y-54554523D01*
X162482380Y-60586904D02*
X161482380Y-60586904D01*
X162482380Y-60015476D02*
X161910952Y-60444047D01*
X161482380Y-60015476D02*
X162053809Y-60586904D01*
X143112380Y-132659285D02*
X142112380Y-132659285D01*
X142112380Y-132421190D01*
X142160000Y-132278333D01*
X142255238Y-132183095D01*
X142350476Y-132135476D01*
X142540952Y-132087857D01*
X142683809Y-132087857D01*
X142874285Y-132135476D01*
X142969523Y-132183095D01*
X143064761Y-132278333D01*
X143112380Y-132421190D01*
X143112380Y-132659285D01*
X143112380Y-131135476D02*
X143112380Y-131706904D01*
X143112380Y-131421190D02*
X142112380Y-131421190D01*
X142255238Y-131516428D01*
X142350476Y-131611666D01*
X142398095Y-131706904D01*
X142112380Y-130230714D02*
X142112380Y-130706904D01*
X142588571Y-130754523D01*
X142540952Y-130706904D01*
X142493333Y-130611666D01*
X142493333Y-130373571D01*
X142540952Y-130278333D01*
X142588571Y-130230714D01*
X142683809Y-130183095D01*
X142921904Y-130183095D01*
X143017142Y-130230714D01*
X143064761Y-130278333D01*
X143112380Y-130373571D01*
X143112380Y-130611666D01*
X143064761Y-130706904D01*
X143017142Y-130754523D01*
X143432380Y-136786904D02*
X142432380Y-136786904D01*
X143432380Y-136215476D02*
X142860952Y-136644047D01*
X142432380Y-136215476D02*
X143003809Y-136786904D01*
X143112380Y-113609285D02*
X142112380Y-113609285D01*
X142112380Y-113371190D01*
X142160000Y-113228333D01*
X142255238Y-113133095D01*
X142350476Y-113085476D01*
X142540952Y-113037857D01*
X142683809Y-113037857D01*
X142874285Y-113085476D01*
X142969523Y-113133095D01*
X143064761Y-113228333D01*
X143112380Y-113371190D01*
X143112380Y-113609285D01*
X143112380Y-112085476D02*
X143112380Y-112656904D01*
X143112380Y-112371190D02*
X142112380Y-112371190D01*
X142255238Y-112466428D01*
X142350476Y-112561666D01*
X142398095Y-112656904D01*
X142445714Y-111228333D02*
X143112380Y-111228333D01*
X142064761Y-111466428D02*
X142779047Y-111704523D01*
X142779047Y-111085476D01*
X143432380Y-117736904D02*
X142432380Y-117736904D01*
X143432380Y-117165476D02*
X142860952Y-117594047D01*
X142432380Y-117165476D02*
X143003809Y-117736904D01*
X143112380Y-94559285D02*
X142112380Y-94559285D01*
X142112380Y-94321190D01*
X142160000Y-94178333D01*
X142255238Y-94083095D01*
X142350476Y-94035476D01*
X142540952Y-93987857D01*
X142683809Y-93987857D01*
X142874285Y-94035476D01*
X142969523Y-94083095D01*
X143064761Y-94178333D01*
X143112380Y-94321190D01*
X143112380Y-94559285D01*
X143112380Y-93035476D02*
X143112380Y-93606904D01*
X143112380Y-93321190D02*
X142112380Y-93321190D01*
X142255238Y-93416428D01*
X142350476Y-93511666D01*
X142398095Y-93606904D01*
X142112380Y-92702142D02*
X142112380Y-92083095D01*
X142493333Y-92416428D01*
X142493333Y-92273571D01*
X142540952Y-92178333D01*
X142588571Y-92130714D01*
X142683809Y-92083095D01*
X142921904Y-92083095D01*
X143017142Y-92130714D01*
X143064761Y-92178333D01*
X143112380Y-92273571D01*
X143112380Y-92559285D01*
X143064761Y-92654523D01*
X143017142Y-92702142D01*
X143432380Y-98686904D02*
X142432380Y-98686904D01*
X143432380Y-98115476D02*
X142860952Y-98544047D01*
X142432380Y-98115476D02*
X143003809Y-98686904D01*
X143112380Y-56459285D02*
X142112380Y-56459285D01*
X142112380Y-56221190D01*
X142160000Y-56078333D01*
X142255238Y-55983095D01*
X142350476Y-55935476D01*
X142540952Y-55887857D01*
X142683809Y-55887857D01*
X142874285Y-55935476D01*
X142969523Y-55983095D01*
X143064761Y-56078333D01*
X143112380Y-56221190D01*
X143112380Y-56459285D01*
X143112380Y-54935476D02*
X143112380Y-55506904D01*
X143112380Y-55221190D02*
X142112380Y-55221190D01*
X142255238Y-55316428D01*
X142350476Y-55411666D01*
X142398095Y-55506904D01*
X143112380Y-53983095D02*
X143112380Y-54554523D01*
X143112380Y-54268809D02*
X142112380Y-54268809D01*
X142255238Y-54364047D01*
X142350476Y-54459285D01*
X142398095Y-54554523D01*
X143432380Y-60586904D02*
X142432380Y-60586904D01*
X143432380Y-60015476D02*
X142860952Y-60444047D01*
X142432380Y-60015476D02*
X143003809Y-60586904D01*
X124062380Y-132659285D02*
X123062380Y-132659285D01*
X123062380Y-132421190D01*
X123110000Y-132278333D01*
X123205238Y-132183095D01*
X123300476Y-132135476D01*
X123490952Y-132087857D01*
X123633809Y-132087857D01*
X123824285Y-132135476D01*
X123919523Y-132183095D01*
X124014761Y-132278333D01*
X124062380Y-132421190D01*
X124062380Y-132659285D01*
X124062380Y-131135476D02*
X124062380Y-131706904D01*
X124062380Y-131421190D02*
X123062380Y-131421190D01*
X123205238Y-131516428D01*
X123300476Y-131611666D01*
X123348095Y-131706904D01*
X123062380Y-130516428D02*
X123062380Y-130421190D01*
X123110000Y-130325952D01*
X123157619Y-130278333D01*
X123252857Y-130230714D01*
X123443333Y-130183095D01*
X123681428Y-130183095D01*
X123871904Y-130230714D01*
X123967142Y-130278333D01*
X124014761Y-130325952D01*
X124062380Y-130421190D01*
X124062380Y-130516428D01*
X124014761Y-130611666D01*
X123967142Y-130659285D01*
X123871904Y-130706904D01*
X123681428Y-130754523D01*
X123443333Y-130754523D01*
X123252857Y-130706904D01*
X123157619Y-130659285D01*
X123110000Y-130611666D01*
X123062380Y-130516428D01*
X124382380Y-136786904D02*
X123382380Y-136786904D01*
X124382380Y-136215476D02*
X123810952Y-136644047D01*
X123382380Y-136215476D02*
X123953809Y-136786904D01*
X124062380Y-113133095D02*
X123062380Y-113133095D01*
X123062380Y-112895000D01*
X123110000Y-112752142D01*
X123205238Y-112656904D01*
X123300476Y-112609285D01*
X123490952Y-112561666D01*
X123633809Y-112561666D01*
X123824285Y-112609285D01*
X123919523Y-112656904D01*
X124014761Y-112752142D01*
X124062380Y-112895000D01*
X124062380Y-113133095D01*
X124062380Y-112085476D02*
X124062380Y-111895000D01*
X124014761Y-111799761D01*
X123967142Y-111752142D01*
X123824285Y-111656904D01*
X123633809Y-111609285D01*
X123252857Y-111609285D01*
X123157619Y-111656904D01*
X123110000Y-111704523D01*
X123062380Y-111799761D01*
X123062380Y-111990238D01*
X123110000Y-112085476D01*
X123157619Y-112133095D01*
X123252857Y-112180714D01*
X123490952Y-112180714D01*
X123586190Y-112133095D01*
X123633809Y-112085476D01*
X123681428Y-111990238D01*
X123681428Y-111799761D01*
X123633809Y-111704523D01*
X123586190Y-111656904D01*
X123490952Y-111609285D01*
X124382380Y-117736904D02*
X123382380Y-117736904D01*
X124382380Y-117165476D02*
X123810952Y-117594047D01*
X123382380Y-117165476D02*
X123953809Y-117736904D01*
X124062380Y-94083095D02*
X123062380Y-94083095D01*
X123062380Y-93845000D01*
X123110000Y-93702142D01*
X123205238Y-93606904D01*
X123300476Y-93559285D01*
X123490952Y-93511666D01*
X123633809Y-93511666D01*
X123824285Y-93559285D01*
X123919523Y-93606904D01*
X124014761Y-93702142D01*
X124062380Y-93845000D01*
X124062380Y-94083095D01*
X123490952Y-92940238D02*
X123443333Y-93035476D01*
X123395714Y-93083095D01*
X123300476Y-93130714D01*
X123252857Y-93130714D01*
X123157619Y-93083095D01*
X123110000Y-93035476D01*
X123062380Y-92940238D01*
X123062380Y-92749761D01*
X123110000Y-92654523D01*
X123157619Y-92606904D01*
X123252857Y-92559285D01*
X123300476Y-92559285D01*
X123395714Y-92606904D01*
X123443333Y-92654523D01*
X123490952Y-92749761D01*
X123490952Y-92940238D01*
X123538571Y-93035476D01*
X123586190Y-93083095D01*
X123681428Y-93130714D01*
X123871904Y-93130714D01*
X123967142Y-93083095D01*
X124014761Y-93035476D01*
X124062380Y-92940238D01*
X124062380Y-92749761D01*
X124014761Y-92654523D01*
X123967142Y-92606904D01*
X123871904Y-92559285D01*
X123681428Y-92559285D01*
X123586190Y-92606904D01*
X123538571Y-92654523D01*
X123490952Y-92749761D01*
X124382380Y-98686904D02*
X123382380Y-98686904D01*
X124382380Y-98115476D02*
X123810952Y-98544047D01*
X123382380Y-98115476D02*
X123953809Y-98686904D01*
X124062380Y-75033095D02*
X123062380Y-75033095D01*
X123062380Y-74795000D01*
X123110000Y-74652142D01*
X123205238Y-74556904D01*
X123300476Y-74509285D01*
X123490952Y-74461666D01*
X123633809Y-74461666D01*
X123824285Y-74509285D01*
X123919523Y-74556904D01*
X124014761Y-74652142D01*
X124062380Y-74795000D01*
X124062380Y-75033095D01*
X123062380Y-74128333D02*
X123062380Y-73461666D01*
X124062380Y-73890238D01*
X124382380Y-79636904D02*
X123382380Y-79636904D01*
X124382380Y-79065476D02*
X123810952Y-79494047D01*
X123382380Y-79065476D02*
X123953809Y-79636904D01*
X124062380Y-55983095D02*
X123062380Y-55983095D01*
X123062380Y-55745000D01*
X123110000Y-55602142D01*
X123205238Y-55506904D01*
X123300476Y-55459285D01*
X123490952Y-55411666D01*
X123633809Y-55411666D01*
X123824285Y-55459285D01*
X123919523Y-55506904D01*
X124014761Y-55602142D01*
X124062380Y-55745000D01*
X124062380Y-55983095D01*
X123062380Y-54554523D02*
X123062380Y-54745000D01*
X123110000Y-54840238D01*
X123157619Y-54887857D01*
X123300476Y-54983095D01*
X123490952Y-55030714D01*
X123871904Y-55030714D01*
X123967142Y-54983095D01*
X124014761Y-54935476D01*
X124062380Y-54840238D01*
X124062380Y-54649761D01*
X124014761Y-54554523D01*
X123967142Y-54506904D01*
X123871904Y-54459285D01*
X123633809Y-54459285D01*
X123538571Y-54506904D01*
X123490952Y-54554523D01*
X123443333Y-54649761D01*
X123443333Y-54840238D01*
X123490952Y-54935476D01*
X123538571Y-54983095D01*
X123633809Y-55030714D01*
X124382380Y-60586904D02*
X123382380Y-60586904D01*
X124382380Y-60015476D02*
X123810952Y-60444047D01*
X123382380Y-60015476D02*
X123953809Y-60586904D01*
X105012380Y-132183095D02*
X104012380Y-132183095D01*
X104012380Y-131945000D01*
X104060000Y-131802142D01*
X104155238Y-131706904D01*
X104250476Y-131659285D01*
X104440952Y-131611666D01*
X104583809Y-131611666D01*
X104774285Y-131659285D01*
X104869523Y-131706904D01*
X104964761Y-131802142D01*
X105012380Y-131945000D01*
X105012380Y-132183095D01*
X104012380Y-130706904D02*
X104012380Y-131183095D01*
X104488571Y-131230714D01*
X104440952Y-131183095D01*
X104393333Y-131087857D01*
X104393333Y-130849761D01*
X104440952Y-130754523D01*
X104488571Y-130706904D01*
X104583809Y-130659285D01*
X104821904Y-130659285D01*
X104917142Y-130706904D01*
X104964761Y-130754523D01*
X105012380Y-130849761D01*
X105012380Y-131087857D01*
X104964761Y-131183095D01*
X104917142Y-131230714D01*
X105332380Y-136786904D02*
X104332380Y-136786904D01*
X105332380Y-136215476D02*
X104760952Y-136644047D01*
X104332380Y-136215476D02*
X104903809Y-136786904D01*
X105012380Y-113133095D02*
X104012380Y-113133095D01*
X104012380Y-112895000D01*
X104060000Y-112752142D01*
X104155238Y-112656904D01*
X104250476Y-112609285D01*
X104440952Y-112561666D01*
X104583809Y-112561666D01*
X104774285Y-112609285D01*
X104869523Y-112656904D01*
X104964761Y-112752142D01*
X105012380Y-112895000D01*
X105012380Y-113133095D01*
X104345714Y-111704523D02*
X105012380Y-111704523D01*
X103964761Y-111942619D02*
X104679047Y-112180714D01*
X104679047Y-111561666D01*
X105332380Y-117736904D02*
X104332380Y-117736904D01*
X105332380Y-117165476D02*
X104760952Y-117594047D01*
X104332380Y-117165476D02*
X104903809Y-117736904D01*
X105012380Y-94083095D02*
X104012380Y-94083095D01*
X104012380Y-93845000D01*
X104060000Y-93702142D01*
X104155238Y-93606904D01*
X104250476Y-93559285D01*
X104440952Y-93511666D01*
X104583809Y-93511666D01*
X104774285Y-93559285D01*
X104869523Y-93606904D01*
X104964761Y-93702142D01*
X105012380Y-93845000D01*
X105012380Y-94083095D01*
X104012380Y-93178333D02*
X104012380Y-92559285D01*
X104393333Y-92892619D01*
X104393333Y-92749761D01*
X104440952Y-92654523D01*
X104488571Y-92606904D01*
X104583809Y-92559285D01*
X104821904Y-92559285D01*
X104917142Y-92606904D01*
X104964761Y-92654523D01*
X105012380Y-92749761D01*
X105012380Y-93035476D01*
X104964761Y-93130714D01*
X104917142Y-93178333D01*
X105332380Y-98686904D02*
X104332380Y-98686904D01*
X105332380Y-98115476D02*
X104760952Y-98544047D01*
X104332380Y-98115476D02*
X104903809Y-98686904D01*
X109037380Y-73128095D02*
X108037380Y-73128095D01*
X108037380Y-72890000D01*
X108085000Y-72747142D01*
X108180238Y-72651904D01*
X108275476Y-72604285D01*
X108465952Y-72556666D01*
X108608809Y-72556666D01*
X108799285Y-72604285D01*
X108894523Y-72651904D01*
X108989761Y-72747142D01*
X109037380Y-72890000D01*
X109037380Y-73128095D01*
X108132619Y-72175714D02*
X108085000Y-72128095D01*
X108037380Y-72032857D01*
X108037380Y-71794761D01*
X108085000Y-71699523D01*
X108132619Y-71651904D01*
X108227857Y-71604285D01*
X108323095Y-71604285D01*
X108465952Y-71651904D01*
X109037380Y-72223333D01*
X109037380Y-71604285D01*
X107132380Y-81541904D02*
X106132380Y-81541904D01*
X107132380Y-80970476D02*
X106560952Y-81399047D01*
X106132380Y-80970476D02*
X106703809Y-81541904D01*
X105012380Y-55983095D02*
X104012380Y-55983095D01*
X104012380Y-55745000D01*
X104060000Y-55602142D01*
X104155238Y-55506904D01*
X104250476Y-55459285D01*
X104440952Y-55411666D01*
X104583809Y-55411666D01*
X104774285Y-55459285D01*
X104869523Y-55506904D01*
X104964761Y-55602142D01*
X105012380Y-55745000D01*
X105012380Y-55983095D01*
X105012380Y-54459285D02*
X105012380Y-55030714D01*
X105012380Y-54745000D02*
X104012380Y-54745000D01*
X104155238Y-54840238D01*
X104250476Y-54935476D01*
X104298095Y-55030714D01*
X105332380Y-60586904D02*
X104332380Y-60586904D01*
X105332380Y-60015476D02*
X104760952Y-60444047D01*
X104332380Y-60015476D02*
X104903809Y-60586904D01*
%LPC*%
D14*
X94615000Y-62230000D03*
X92075000Y-62230000D03*
X89535000Y-62230000D03*
X66675000Y-46990000D03*
X86995000Y-62230000D03*
X69215000Y-46990000D03*
X84455000Y-62230000D03*
X71755000Y-46990000D03*
X81915000Y-62230000D03*
X74295000Y-46990000D03*
X79375000Y-62230000D03*
X76835000Y-46990000D03*
X76835000Y-62230000D03*
X79375000Y-46990000D03*
X74295000Y-62230000D03*
X81915000Y-46990000D03*
X71755000Y-62230000D03*
X84455000Y-46990000D03*
X69215000Y-62230000D03*
X86995000Y-46990000D03*
D15*
X66675000Y-62230000D03*
D14*
X89535000Y-46990000D03*
X92075000Y-46990000D03*
X94615000Y-46990000D03*
D16*
X61925000Y-87345000D03*
X61925000Y-89885000D03*
X61925000Y-92425000D03*
D17*
X61925000Y-94965000D03*
D18*
X102870000Y-58570000D03*
X98370000Y-58570000D03*
X102870000Y-52070000D03*
X98370000Y-52070000D03*
D14*
X86995000Y-58420000D03*
D19*
X76835000Y-58420000D03*
D14*
X69215000Y-81915000D03*
D15*
X69215000Y-71755000D03*
D20*
X116205000Y-55245000D03*
D21*
X111125000Y-55245000D03*
X121285000Y-55245000D03*
D20*
X116205000Y-112395000D03*
D21*
X111125000Y-112395000D03*
X121285000Y-112395000D03*
D14*
X144780000Y-69215000D03*
D15*
X144780000Y-79375000D03*
D22*
X81915000Y-67310000D03*
D18*
X79415000Y-67310000D03*
X76915000Y-67310000D03*
D23*
X85015000Y-74810000D03*
X73815000Y-74810000D03*
D18*
X81915000Y-81810000D03*
X76915000Y-81810000D03*
D20*
X173355000Y-131445000D03*
D21*
X168275000Y-131445000D03*
X178435000Y-131445000D03*
D20*
X173355000Y-112395000D03*
D21*
X168275000Y-112395000D03*
X178435000Y-112395000D03*
D20*
X173355000Y-93345000D03*
D21*
X168275000Y-93345000D03*
X178435000Y-93345000D03*
D20*
X173355000Y-74295000D03*
D21*
X168275000Y-74295000D03*
X178435000Y-74295000D03*
D20*
X173355000Y-55245000D03*
D21*
X168275000Y-55245000D03*
X178435000Y-55245000D03*
D20*
X154305000Y-131445000D03*
D21*
X149225000Y-131445000D03*
X159385000Y-131445000D03*
D20*
X154305000Y-112395000D03*
D21*
X149225000Y-112395000D03*
X159385000Y-112395000D03*
D20*
X154305000Y-93345000D03*
D21*
X149225000Y-93345000D03*
X159385000Y-93345000D03*
D20*
X154305000Y-74295000D03*
D21*
X149225000Y-74295000D03*
X159385000Y-74295000D03*
D20*
X154305000Y-55245000D03*
D21*
X149225000Y-55245000D03*
X159385000Y-55245000D03*
D20*
X135255000Y-131445000D03*
D21*
X130175000Y-131445000D03*
X140335000Y-131445000D03*
D20*
X135255000Y-112395000D03*
D21*
X130175000Y-112395000D03*
X140335000Y-112395000D03*
D20*
X135255000Y-93345000D03*
D21*
X130175000Y-93345000D03*
X140335000Y-93345000D03*
D20*
X135255000Y-74295000D03*
D21*
X130175000Y-74295000D03*
X140335000Y-74295000D03*
D20*
X135255000Y-55245000D03*
D21*
X130175000Y-55245000D03*
X140335000Y-55245000D03*
D20*
X116205000Y-131445000D03*
D21*
X111125000Y-131445000D03*
X121285000Y-131445000D03*
D20*
X116205000Y-93345000D03*
D21*
X111125000Y-93345000D03*
X121285000Y-93345000D03*
D20*
X116205000Y-74295000D03*
D21*
X111125000Y-74295000D03*
X121285000Y-74295000D03*
D14*
X163830000Y-126365000D03*
D15*
X163830000Y-136525000D03*
D14*
X163830000Y-107315000D03*
D15*
X163830000Y-117475000D03*
D14*
X163830000Y-88265000D03*
D15*
X163830000Y-98425000D03*
D14*
X163830000Y-69215000D03*
D15*
X163830000Y-79375000D03*
D14*
X163830000Y-50165000D03*
D15*
X163830000Y-60325000D03*
D14*
X144780000Y-126365000D03*
D15*
X144780000Y-136525000D03*
D14*
X144780000Y-107315000D03*
D15*
X144780000Y-117475000D03*
D14*
X144780000Y-88265000D03*
D15*
X144780000Y-98425000D03*
D14*
X144780000Y-50165000D03*
D15*
X144780000Y-60325000D03*
D14*
X125730000Y-126365000D03*
D15*
X125730000Y-136525000D03*
D14*
X125730000Y-107315000D03*
D15*
X125730000Y-117475000D03*
D14*
X125730000Y-88265000D03*
D15*
X125730000Y-98425000D03*
D14*
X125730000Y-69215000D03*
D15*
X125730000Y-79375000D03*
D14*
X125730000Y-50165000D03*
D15*
X125730000Y-60325000D03*
D14*
X106680000Y-126365000D03*
D15*
X106680000Y-136525000D03*
D14*
X106680000Y-107315000D03*
D15*
X106680000Y-117475000D03*
D14*
X106680000Y-88265000D03*
D15*
X106680000Y-98425000D03*
D14*
X106680000Y-69215000D03*
D15*
X106680000Y-79375000D03*
D14*
X106680000Y-50165000D03*
D15*
X106680000Y-60325000D03*
M02*
