G04 #@! TF.GenerationSoftware,KiCad,Pcbnew,(5.1.10)-1*
G04 #@! TF.CreationDate,2021-09-15T11:37:00+02:00*
G04 #@! TF.ProjectId,SheepyPad,53686565-7079-4506-9164-2e6b69636164,rev?*
G04 #@! TF.SameCoordinates,Original*
G04 #@! TF.FileFunction,Soldermask,Top*
G04 #@! TF.FilePolarity,Negative*
%FSLAX46Y46*%
G04 Gerber Fmt 4.6, Leading zero omitted, Abs format (unit mm)*
G04 Created by KiCad (PCBNEW (5.1.10)-1) date 2021-09-15 11:37:00*
%MOMM*%
%LPD*%
G01*
G04 APERTURE LIST*
%ADD10O,1.600000X1.600000*%
%ADD11R,1.600000X1.600000*%
%ADD12O,1.700000X1.700000*%
%ADD13R,1.700000X1.700000*%
%ADD14C,2.000000*%
%ADD15C,1.600000*%
%ADD16C,3.987800*%
%ADD17C,1.750000*%
%ADD18R,2.000000X2.000000*%
%ADD19R,2.000000X3.200000*%
G04 APERTURE END LIST*
D10*
X94615000Y-62230000D03*
X92075000Y-62230000D03*
X89535000Y-62230000D03*
X66675000Y-46990000D03*
X86995000Y-62230000D03*
X69215000Y-46990000D03*
X84455000Y-62230000D03*
X71755000Y-46990000D03*
X81915000Y-62230000D03*
X74295000Y-46990000D03*
X79375000Y-62230000D03*
X76835000Y-46990000D03*
X76835000Y-62230000D03*
X79375000Y-46990000D03*
X74295000Y-62230000D03*
X81915000Y-46990000D03*
X71755000Y-62230000D03*
X84455000Y-46990000D03*
X69215000Y-62230000D03*
X86995000Y-46990000D03*
D11*
X66675000Y-62230000D03*
D10*
X89535000Y-46990000D03*
X92075000Y-46990000D03*
X94615000Y-46990000D03*
D12*
X61925000Y-87345000D03*
X61925000Y-89885000D03*
X61925000Y-92425000D03*
D13*
X61925000Y-94965000D03*
D14*
X102870000Y-58570000D03*
X98370000Y-58570000D03*
X102870000Y-52070000D03*
X98370000Y-52070000D03*
D10*
X86995000Y-58420000D03*
D15*
X76835000Y-58420000D03*
D10*
X69215000Y-81915000D03*
D11*
X69215000Y-71755000D03*
D16*
X116205000Y-55245000D03*
D17*
X111125000Y-55245000D03*
X121285000Y-55245000D03*
D16*
X116205000Y-112395000D03*
D17*
X111125000Y-112395000D03*
X121285000Y-112395000D03*
D10*
X144780000Y-69215000D03*
D11*
X144780000Y-79375000D03*
D18*
X81915000Y-67310000D03*
D14*
X79415000Y-67310000D03*
X76915000Y-67310000D03*
D19*
X85015000Y-74810000D03*
X73815000Y-74810000D03*
D14*
X81915000Y-81810000D03*
X76915000Y-81810000D03*
D16*
X173355000Y-131445000D03*
D17*
X168275000Y-131445000D03*
X178435000Y-131445000D03*
D16*
X173355000Y-112395000D03*
D17*
X168275000Y-112395000D03*
X178435000Y-112395000D03*
D16*
X173355000Y-93345000D03*
D17*
X168275000Y-93345000D03*
X178435000Y-93345000D03*
D16*
X173355000Y-74295000D03*
D17*
X168275000Y-74295000D03*
X178435000Y-74295000D03*
D16*
X173355000Y-55245000D03*
D17*
X168275000Y-55245000D03*
X178435000Y-55245000D03*
D16*
X154305000Y-131445000D03*
D17*
X149225000Y-131445000D03*
X159385000Y-131445000D03*
D16*
X154305000Y-112395000D03*
D17*
X149225000Y-112395000D03*
X159385000Y-112395000D03*
D16*
X154305000Y-93345000D03*
D17*
X149225000Y-93345000D03*
X159385000Y-93345000D03*
D16*
X154305000Y-74295000D03*
D17*
X149225000Y-74295000D03*
X159385000Y-74295000D03*
D16*
X154305000Y-55245000D03*
D17*
X149225000Y-55245000D03*
X159385000Y-55245000D03*
D16*
X135255000Y-131445000D03*
D17*
X130175000Y-131445000D03*
X140335000Y-131445000D03*
D16*
X135255000Y-112395000D03*
D17*
X130175000Y-112395000D03*
X140335000Y-112395000D03*
D16*
X135255000Y-93345000D03*
D17*
X130175000Y-93345000D03*
X140335000Y-93345000D03*
D16*
X135255000Y-74295000D03*
D17*
X130175000Y-74295000D03*
X140335000Y-74295000D03*
D16*
X135255000Y-55245000D03*
D17*
X130175000Y-55245000D03*
X140335000Y-55245000D03*
D16*
X116205000Y-131445000D03*
D17*
X111125000Y-131445000D03*
X121285000Y-131445000D03*
D16*
X116205000Y-93345000D03*
D17*
X111125000Y-93345000D03*
X121285000Y-93345000D03*
D16*
X116205000Y-74295000D03*
D17*
X111125000Y-74295000D03*
X121285000Y-74295000D03*
D10*
X163830000Y-126365000D03*
D11*
X163830000Y-136525000D03*
D10*
X163830000Y-107315000D03*
D11*
X163830000Y-117475000D03*
D10*
X163830000Y-88265000D03*
D11*
X163830000Y-98425000D03*
D10*
X163830000Y-69215000D03*
D11*
X163830000Y-79375000D03*
D10*
X163830000Y-50165000D03*
D11*
X163830000Y-60325000D03*
D10*
X144780000Y-126365000D03*
D11*
X144780000Y-136525000D03*
D10*
X144780000Y-107315000D03*
D11*
X144780000Y-117475000D03*
D10*
X144780000Y-88265000D03*
D11*
X144780000Y-98425000D03*
D10*
X144780000Y-50165000D03*
D11*
X144780000Y-60325000D03*
D10*
X125730000Y-126365000D03*
D11*
X125730000Y-136525000D03*
D10*
X125730000Y-107315000D03*
D11*
X125730000Y-117475000D03*
D10*
X125730000Y-88265000D03*
D11*
X125730000Y-98425000D03*
D10*
X125730000Y-69215000D03*
D11*
X125730000Y-79375000D03*
D10*
X125730000Y-50165000D03*
D11*
X125730000Y-60325000D03*
D10*
X106680000Y-126365000D03*
D11*
X106680000Y-136525000D03*
D10*
X106680000Y-107315000D03*
D11*
X106680000Y-117475000D03*
D10*
X106680000Y-88265000D03*
D11*
X106680000Y-98425000D03*
D10*
X106680000Y-69215000D03*
D11*
X106680000Y-79375000D03*
D10*
X106680000Y-50165000D03*
D11*
X106680000Y-60325000D03*
M02*
