G04 #@! TF.GenerationSoftware,KiCad,Pcbnew,(5.1.10)-1*
G04 #@! TF.CreationDate,2021-09-16T23:28:20+02:00*
G04 #@! TF.ProjectId,SheepyPad,53686565-7079-4506-9164-2e6b69636164,rev?*
G04 #@! TF.SameCoordinates,Original*
G04 #@! TF.FileFunction,Other,Fab,Top*
%FSLAX46Y46*%
G04 Gerber Fmt 4.6, Leading zero omitted, Abs format (unit mm)*
G04 Created by KiCad (PCBNEW (5.1.10)-1) date 2021-09-16 23:28:20*
%MOMM*%
%LPD*%
G01*
G04 APERTURE LIST*
%ADD10C,0.100000*%
%ADD11C,0.120000*%
%ADD12C,0.150000*%
G04 APERTURE END LIST*
D10*
X73005000Y-52070000D02*
X70505000Y-52070000D01*
X70505000Y-52070000D02*
X70505000Y-57070000D01*
X70505000Y-57070000D02*
X73005000Y-57070000D01*
X73005000Y-57070000D02*
X73005000Y-52070000D01*
X119769000Y-63520000D02*
X119769000Y-66020000D01*
X119769000Y-66020000D02*
X125769000Y-66020000D01*
X125769000Y-66020000D02*
X125769000Y-63520000D01*
X125769000Y-63520000D02*
X119769000Y-63520000D01*
X169330000Y-66020000D02*
X169330000Y-63520000D01*
X169330000Y-63520000D02*
X163330000Y-63520000D01*
X163330000Y-63520000D02*
X163330000Y-66020000D01*
X163330000Y-66020000D02*
X169330000Y-66020000D01*
X169410000Y-123170000D02*
X169410000Y-120670000D01*
X169410000Y-120670000D02*
X163410000Y-120670000D01*
X163410000Y-120670000D02*
X163410000Y-123170000D01*
X163410000Y-123170000D02*
X169410000Y-123170000D01*
X120230000Y-120670000D02*
X120230000Y-123170000D01*
X120230000Y-123170000D02*
X126230000Y-123170000D01*
X126230000Y-123170000D02*
X126230000Y-120670000D01*
X126230000Y-120670000D02*
X120230000Y-120670000D01*
X77732000Y-87015000D02*
X77732000Y-89515000D01*
X77732000Y-89515000D02*
X83732000Y-89515000D01*
X83732000Y-89515000D02*
X83732000Y-87015000D01*
X83732000Y-87015000D02*
X77732000Y-87015000D01*
X66802000Y-50800000D02*
X66802000Y-58420000D01*
X66802000Y-58420000D02*
X60452000Y-58420000D01*
X60452000Y-58420000D02*
X60452000Y-50800000D01*
X60452000Y-50800000D02*
X66802000Y-50800000D01*
X62992000Y-63500000D02*
X62992000Y-45720000D01*
X62992000Y-45720000D02*
X95758000Y-45720000D01*
X95758000Y-45720000D02*
X95758000Y-63500000D01*
X95758000Y-63500000D02*
X62992000Y-63500000D01*
X103620000Y-55320000D02*
X103620000Y-58320000D01*
X103620000Y-58320000D02*
X97620000Y-58320000D01*
X97620000Y-58320000D02*
X97620000Y-52320000D01*
X97620000Y-52320000D02*
X103620000Y-52320000D01*
X103620000Y-52320000D02*
X103620000Y-55320000D01*
X102635564Y-55320000D02*
G75*
G03*
X102635564Y-55320000I-2015564J0D01*
G01*
X78765000Y-57170000D02*
X78765000Y-59670000D01*
X78765000Y-59670000D02*
X85065000Y-59670000D01*
X85065000Y-59670000D02*
X85065000Y-57170000D01*
X85065000Y-57170000D02*
X78765000Y-57170000D01*
X76835000Y-58420000D02*
X78765000Y-58420000D01*
X86995000Y-58420000D02*
X85065000Y-58420000D01*
X70215000Y-72930000D02*
X68215000Y-72930000D01*
X68215000Y-72930000D02*
X68215000Y-76930000D01*
X68215000Y-76930000D02*
X70215000Y-76930000D01*
X70215000Y-76930000D02*
X70215000Y-72930000D01*
X69215000Y-69850000D02*
X69215000Y-72930000D01*
X69215000Y-80010000D02*
X69215000Y-76930000D01*
X70215000Y-73530000D02*
X68215000Y-73530000D01*
X70215000Y-73630000D02*
X68215000Y-73630000D01*
X70215000Y-73430000D02*
X68215000Y-73430000D01*
X143780000Y-76295000D02*
X145780000Y-76295000D01*
X145780000Y-76295000D02*
X145780000Y-72295000D01*
X145780000Y-72295000D02*
X143780000Y-72295000D01*
X143780000Y-72295000D02*
X143780000Y-76295000D01*
X144780000Y-79375000D02*
X144780000Y-76295000D01*
X144780000Y-69215000D02*
X144780000Y-72295000D01*
X143780000Y-75695000D02*
X145780000Y-75695000D01*
X143780000Y-75595000D02*
X145780000Y-75595000D01*
X143780000Y-75795000D02*
X145780000Y-75795000D01*
D11*
X79415000Y-71810000D02*
X79415000Y-77810000D01*
X82415000Y-74810000D02*
X76415000Y-74810000D01*
X84115000Y-68810000D02*
X85215000Y-69810000D01*
X73615000Y-68810000D02*
X84115000Y-68810000D01*
X73615000Y-80810000D02*
X73615000Y-68810000D01*
X85215000Y-80810000D02*
X73615000Y-80810000D01*
X85215000Y-69810000D02*
X85215000Y-80810000D01*
X82415000Y-74810000D02*
G75*
G03*
X82415000Y-74810000I-3000000J0D01*
G01*
D10*
X162830000Y-133445000D02*
X164830000Y-133445000D01*
X164830000Y-133445000D02*
X164830000Y-129445000D01*
X164830000Y-129445000D02*
X162830000Y-129445000D01*
X162830000Y-129445000D02*
X162830000Y-133445000D01*
X163830000Y-136525000D02*
X163830000Y-133445000D01*
X163830000Y-126365000D02*
X163830000Y-129445000D01*
X162830000Y-132845000D02*
X164830000Y-132845000D01*
X162830000Y-132745000D02*
X164830000Y-132745000D01*
X162830000Y-132945000D02*
X164830000Y-132945000D01*
X162830000Y-114395000D02*
X164830000Y-114395000D01*
X164830000Y-114395000D02*
X164830000Y-110395000D01*
X164830000Y-110395000D02*
X162830000Y-110395000D01*
X162830000Y-110395000D02*
X162830000Y-114395000D01*
X163830000Y-117475000D02*
X163830000Y-114395000D01*
X163830000Y-107315000D02*
X163830000Y-110395000D01*
X162830000Y-113795000D02*
X164830000Y-113795000D01*
X162830000Y-113695000D02*
X164830000Y-113695000D01*
X162830000Y-113895000D02*
X164830000Y-113895000D01*
X162830000Y-95345000D02*
X164830000Y-95345000D01*
X164830000Y-95345000D02*
X164830000Y-91345000D01*
X164830000Y-91345000D02*
X162830000Y-91345000D01*
X162830000Y-91345000D02*
X162830000Y-95345000D01*
X163830000Y-98425000D02*
X163830000Y-95345000D01*
X163830000Y-88265000D02*
X163830000Y-91345000D01*
X162830000Y-94745000D02*
X164830000Y-94745000D01*
X162830000Y-94645000D02*
X164830000Y-94645000D01*
X162830000Y-94845000D02*
X164830000Y-94845000D01*
X162830000Y-76295000D02*
X164830000Y-76295000D01*
X164830000Y-76295000D02*
X164830000Y-72295000D01*
X164830000Y-72295000D02*
X162830000Y-72295000D01*
X162830000Y-72295000D02*
X162830000Y-76295000D01*
X163830000Y-79375000D02*
X163830000Y-76295000D01*
X163830000Y-69215000D02*
X163830000Y-72295000D01*
X162830000Y-75695000D02*
X164830000Y-75695000D01*
X162830000Y-75595000D02*
X164830000Y-75595000D01*
X162830000Y-75795000D02*
X164830000Y-75795000D01*
X162830000Y-57245000D02*
X164830000Y-57245000D01*
X164830000Y-57245000D02*
X164830000Y-53245000D01*
X164830000Y-53245000D02*
X162830000Y-53245000D01*
X162830000Y-53245000D02*
X162830000Y-57245000D01*
X163830000Y-60325000D02*
X163830000Y-57245000D01*
X163830000Y-50165000D02*
X163830000Y-53245000D01*
X162830000Y-56645000D02*
X164830000Y-56645000D01*
X162830000Y-56545000D02*
X164830000Y-56545000D01*
X162830000Y-56745000D02*
X164830000Y-56745000D01*
X143780000Y-133445000D02*
X145780000Y-133445000D01*
X145780000Y-133445000D02*
X145780000Y-129445000D01*
X145780000Y-129445000D02*
X143780000Y-129445000D01*
X143780000Y-129445000D02*
X143780000Y-133445000D01*
X144780000Y-136525000D02*
X144780000Y-133445000D01*
X144780000Y-126365000D02*
X144780000Y-129445000D01*
X143780000Y-132845000D02*
X145780000Y-132845000D01*
X143780000Y-132745000D02*
X145780000Y-132745000D01*
X143780000Y-132945000D02*
X145780000Y-132945000D01*
X143780000Y-114395000D02*
X145780000Y-114395000D01*
X145780000Y-114395000D02*
X145780000Y-110395000D01*
X145780000Y-110395000D02*
X143780000Y-110395000D01*
X143780000Y-110395000D02*
X143780000Y-114395000D01*
X144780000Y-117475000D02*
X144780000Y-114395000D01*
X144780000Y-107315000D02*
X144780000Y-110395000D01*
X143780000Y-113795000D02*
X145780000Y-113795000D01*
X143780000Y-113695000D02*
X145780000Y-113695000D01*
X143780000Y-113895000D02*
X145780000Y-113895000D01*
X143780000Y-95345000D02*
X145780000Y-95345000D01*
X145780000Y-95345000D02*
X145780000Y-91345000D01*
X145780000Y-91345000D02*
X143780000Y-91345000D01*
X143780000Y-91345000D02*
X143780000Y-95345000D01*
X144780000Y-98425000D02*
X144780000Y-95345000D01*
X144780000Y-88265000D02*
X144780000Y-91345000D01*
X143780000Y-94745000D02*
X145780000Y-94745000D01*
X143780000Y-94645000D02*
X145780000Y-94645000D01*
X143780000Y-94845000D02*
X145780000Y-94845000D01*
X143780000Y-57245000D02*
X145780000Y-57245000D01*
X145780000Y-57245000D02*
X145780000Y-53245000D01*
X145780000Y-53245000D02*
X143780000Y-53245000D01*
X143780000Y-53245000D02*
X143780000Y-57245000D01*
X144780000Y-60325000D02*
X144780000Y-57245000D01*
X144780000Y-50165000D02*
X144780000Y-53245000D01*
X143780000Y-56645000D02*
X145780000Y-56645000D01*
X143780000Y-56545000D02*
X145780000Y-56545000D01*
X143780000Y-56745000D02*
X145780000Y-56745000D01*
X124730000Y-133445000D02*
X126730000Y-133445000D01*
X126730000Y-133445000D02*
X126730000Y-129445000D01*
X126730000Y-129445000D02*
X124730000Y-129445000D01*
X124730000Y-129445000D02*
X124730000Y-133445000D01*
X125730000Y-136525000D02*
X125730000Y-133445000D01*
X125730000Y-126365000D02*
X125730000Y-129445000D01*
X124730000Y-132845000D02*
X126730000Y-132845000D01*
X124730000Y-132745000D02*
X126730000Y-132745000D01*
X124730000Y-132945000D02*
X126730000Y-132945000D01*
X124730000Y-114395000D02*
X126730000Y-114395000D01*
X126730000Y-114395000D02*
X126730000Y-110395000D01*
X126730000Y-110395000D02*
X124730000Y-110395000D01*
X124730000Y-110395000D02*
X124730000Y-114395000D01*
X125730000Y-117475000D02*
X125730000Y-114395000D01*
X125730000Y-107315000D02*
X125730000Y-110395000D01*
X124730000Y-113795000D02*
X126730000Y-113795000D01*
X124730000Y-113695000D02*
X126730000Y-113695000D01*
X124730000Y-113895000D02*
X126730000Y-113895000D01*
X124730000Y-95345000D02*
X126730000Y-95345000D01*
X126730000Y-95345000D02*
X126730000Y-91345000D01*
X126730000Y-91345000D02*
X124730000Y-91345000D01*
X124730000Y-91345000D02*
X124730000Y-95345000D01*
X125730000Y-98425000D02*
X125730000Y-95345000D01*
X125730000Y-88265000D02*
X125730000Y-91345000D01*
X124730000Y-94745000D02*
X126730000Y-94745000D01*
X124730000Y-94645000D02*
X126730000Y-94645000D01*
X124730000Y-94845000D02*
X126730000Y-94845000D01*
X124730000Y-76295000D02*
X126730000Y-76295000D01*
X126730000Y-76295000D02*
X126730000Y-72295000D01*
X126730000Y-72295000D02*
X124730000Y-72295000D01*
X124730000Y-72295000D02*
X124730000Y-76295000D01*
X125730000Y-79375000D02*
X125730000Y-76295000D01*
X125730000Y-69215000D02*
X125730000Y-72295000D01*
X124730000Y-75695000D02*
X126730000Y-75695000D01*
X124730000Y-75595000D02*
X126730000Y-75595000D01*
X124730000Y-75795000D02*
X126730000Y-75795000D01*
X124730000Y-57245000D02*
X126730000Y-57245000D01*
X126730000Y-57245000D02*
X126730000Y-53245000D01*
X126730000Y-53245000D02*
X124730000Y-53245000D01*
X124730000Y-53245000D02*
X124730000Y-57245000D01*
X125730000Y-60325000D02*
X125730000Y-57245000D01*
X125730000Y-50165000D02*
X125730000Y-53245000D01*
X124730000Y-56645000D02*
X126730000Y-56645000D01*
X124730000Y-56545000D02*
X126730000Y-56545000D01*
X124730000Y-56745000D02*
X126730000Y-56745000D01*
X105680000Y-133445000D02*
X107680000Y-133445000D01*
X107680000Y-133445000D02*
X107680000Y-129445000D01*
X107680000Y-129445000D02*
X105680000Y-129445000D01*
X105680000Y-129445000D02*
X105680000Y-133445000D01*
X106680000Y-136525000D02*
X106680000Y-133445000D01*
X106680000Y-126365000D02*
X106680000Y-129445000D01*
X105680000Y-132845000D02*
X107680000Y-132845000D01*
X105680000Y-132745000D02*
X107680000Y-132745000D01*
X105680000Y-132945000D02*
X107680000Y-132945000D01*
X105680000Y-114395000D02*
X107680000Y-114395000D01*
X107680000Y-114395000D02*
X107680000Y-110395000D01*
X107680000Y-110395000D02*
X105680000Y-110395000D01*
X105680000Y-110395000D02*
X105680000Y-114395000D01*
X106680000Y-117475000D02*
X106680000Y-114395000D01*
X106680000Y-107315000D02*
X106680000Y-110395000D01*
X105680000Y-113795000D02*
X107680000Y-113795000D01*
X105680000Y-113695000D02*
X107680000Y-113695000D01*
X105680000Y-113895000D02*
X107680000Y-113895000D01*
X105680000Y-95345000D02*
X107680000Y-95345000D01*
X107680000Y-95345000D02*
X107680000Y-91345000D01*
X107680000Y-91345000D02*
X105680000Y-91345000D01*
X105680000Y-91345000D02*
X105680000Y-95345000D01*
X106680000Y-98425000D02*
X106680000Y-95345000D01*
X106680000Y-88265000D02*
X106680000Y-91345000D01*
X105680000Y-94745000D02*
X107680000Y-94745000D01*
X105680000Y-94645000D02*
X107680000Y-94645000D01*
X105680000Y-94845000D02*
X107680000Y-94845000D01*
X105680000Y-76295000D02*
X107680000Y-76295000D01*
X107680000Y-76295000D02*
X107680000Y-72295000D01*
X107680000Y-72295000D02*
X105680000Y-72295000D01*
X105680000Y-72295000D02*
X105680000Y-76295000D01*
X106680000Y-79375000D02*
X106680000Y-76295000D01*
X106680000Y-69215000D02*
X106680000Y-72295000D01*
X105680000Y-75695000D02*
X107680000Y-75695000D01*
X105680000Y-75595000D02*
X107680000Y-75595000D01*
X105680000Y-75795000D02*
X107680000Y-75795000D01*
X105680000Y-57245000D02*
X107680000Y-57245000D01*
X107680000Y-57245000D02*
X107680000Y-53245000D01*
X107680000Y-53245000D02*
X105680000Y-53245000D01*
X105680000Y-53245000D02*
X105680000Y-57245000D01*
X106680000Y-60325000D02*
X106680000Y-57245000D01*
X106680000Y-50165000D02*
X106680000Y-53245000D01*
X105680000Y-56645000D02*
X107680000Y-56645000D01*
X105680000Y-56545000D02*
X107680000Y-56545000D01*
X105680000Y-56745000D02*
X107680000Y-56745000D01*
D12*
X69707380Y-55689047D02*
X69707380Y-56260476D01*
X69707380Y-55974761D02*
X68707380Y-55974761D01*
X68850238Y-56070000D01*
X68945476Y-56165238D01*
X68993095Y-56260476D01*
X68707380Y-55070000D02*
X68707380Y-54974761D01*
X68755000Y-54879523D01*
X68802619Y-54831904D01*
X68897857Y-54784285D01*
X69088333Y-54736666D01*
X69326428Y-54736666D01*
X69516904Y-54784285D01*
X69612142Y-54831904D01*
X69659761Y-54879523D01*
X69707380Y-54974761D01*
X69707380Y-55070000D01*
X69659761Y-55165238D01*
X69612142Y-55212857D01*
X69516904Y-55260476D01*
X69326428Y-55308095D01*
X69088333Y-55308095D01*
X68897857Y-55260476D01*
X68802619Y-55212857D01*
X68755000Y-55165238D01*
X68707380Y-55070000D01*
X68707380Y-54117619D02*
X68707380Y-54022380D01*
X68755000Y-53927142D01*
X68802619Y-53879523D01*
X68897857Y-53831904D01*
X69088333Y-53784285D01*
X69326428Y-53784285D01*
X69516904Y-53831904D01*
X69612142Y-53879523D01*
X69659761Y-53927142D01*
X69707380Y-54022380D01*
X69707380Y-54117619D01*
X69659761Y-54212857D01*
X69612142Y-54260476D01*
X69516904Y-54308095D01*
X69326428Y-54355714D01*
X69088333Y-54355714D01*
X68897857Y-54308095D01*
X68802619Y-54260476D01*
X68755000Y-54212857D01*
X68707380Y-54117619D01*
X69040714Y-53355714D02*
X69707380Y-53355714D01*
X69135952Y-53355714D02*
X69088333Y-53308095D01*
X69040714Y-53212857D01*
X69040714Y-53070000D01*
X69088333Y-52974761D01*
X69183571Y-52927142D01*
X69707380Y-52927142D01*
X72112142Y-54736666D02*
X72159761Y-54784285D01*
X72207380Y-54927142D01*
X72207380Y-55022380D01*
X72159761Y-55165238D01*
X72064523Y-55260476D01*
X71969285Y-55308095D01*
X71778809Y-55355714D01*
X71635952Y-55355714D01*
X71445476Y-55308095D01*
X71350238Y-55260476D01*
X71255000Y-55165238D01*
X71207380Y-55022380D01*
X71207380Y-54927142D01*
X71255000Y-54784285D01*
X71302619Y-54736666D01*
X71207380Y-53879523D02*
X71207380Y-54070000D01*
X71255000Y-54165238D01*
X71302619Y-54212857D01*
X71445476Y-54308095D01*
X71635952Y-54355714D01*
X72016904Y-54355714D01*
X72112142Y-54308095D01*
X72159761Y-54260476D01*
X72207380Y-54165238D01*
X72207380Y-53974761D01*
X72159761Y-53879523D01*
X72112142Y-53831904D01*
X72016904Y-53784285D01*
X71778809Y-53784285D01*
X71683571Y-53831904D01*
X71635952Y-53879523D01*
X71588333Y-53974761D01*
X71588333Y-54165238D01*
X71635952Y-54260476D01*
X71683571Y-54308095D01*
X71778809Y-54355714D01*
X121649952Y-67722380D02*
X121078523Y-67722380D01*
X121364238Y-67722380D02*
X121364238Y-66722380D01*
X121269000Y-66865238D01*
X121173761Y-66960476D01*
X121078523Y-67008095D01*
X122269000Y-66722380D02*
X122364238Y-66722380D01*
X122459476Y-66770000D01*
X122507095Y-66817619D01*
X122554714Y-66912857D01*
X122602333Y-67103333D01*
X122602333Y-67341428D01*
X122554714Y-67531904D01*
X122507095Y-67627142D01*
X122459476Y-67674761D01*
X122364238Y-67722380D01*
X122269000Y-67722380D01*
X122173761Y-67674761D01*
X122126142Y-67627142D01*
X122078523Y-67531904D01*
X122030904Y-67341428D01*
X122030904Y-67103333D01*
X122078523Y-66912857D01*
X122126142Y-66817619D01*
X122173761Y-66770000D01*
X122269000Y-66722380D01*
X123221380Y-66722380D02*
X123316619Y-66722380D01*
X123411857Y-66770000D01*
X123459476Y-66817619D01*
X123507095Y-66912857D01*
X123554714Y-67103333D01*
X123554714Y-67341428D01*
X123507095Y-67531904D01*
X123459476Y-67627142D01*
X123411857Y-67674761D01*
X123316619Y-67722380D01*
X123221380Y-67722380D01*
X123126142Y-67674761D01*
X123078523Y-67627142D01*
X123030904Y-67531904D01*
X122983285Y-67341428D01*
X122983285Y-67103333D01*
X123030904Y-66912857D01*
X123078523Y-66817619D01*
X123126142Y-66770000D01*
X123221380Y-66722380D01*
X123983285Y-67055714D02*
X123983285Y-67722380D01*
X123983285Y-67150952D02*
X124030904Y-67103333D01*
X124126142Y-67055714D01*
X124269000Y-67055714D01*
X124364238Y-67103333D01*
X124411857Y-67198571D01*
X124411857Y-67722380D01*
X122602333Y-65127142D02*
X122554714Y-65174761D01*
X122411857Y-65222380D01*
X122316619Y-65222380D01*
X122173761Y-65174761D01*
X122078523Y-65079523D01*
X122030904Y-64984285D01*
X121983285Y-64793809D01*
X121983285Y-64650952D01*
X122030904Y-64460476D01*
X122078523Y-64365238D01*
X122173761Y-64270000D01*
X122316619Y-64222380D01*
X122411857Y-64222380D01*
X122554714Y-64270000D01*
X122602333Y-64317619D01*
X123507095Y-64222380D02*
X123030904Y-64222380D01*
X122983285Y-64698571D01*
X123030904Y-64650952D01*
X123126142Y-64603333D01*
X123364238Y-64603333D01*
X123459476Y-64650952D01*
X123507095Y-64698571D01*
X123554714Y-64793809D01*
X123554714Y-65031904D01*
X123507095Y-65127142D01*
X123459476Y-65174761D01*
X123364238Y-65222380D01*
X123126142Y-65222380D01*
X123030904Y-65174761D01*
X122983285Y-65127142D01*
X165210952Y-62722380D02*
X164639523Y-62722380D01*
X164925238Y-62722380D02*
X164925238Y-61722380D01*
X164830000Y-61865238D01*
X164734761Y-61960476D01*
X164639523Y-62008095D01*
X165830000Y-61722380D02*
X165925238Y-61722380D01*
X166020476Y-61770000D01*
X166068095Y-61817619D01*
X166115714Y-61912857D01*
X166163333Y-62103333D01*
X166163333Y-62341428D01*
X166115714Y-62531904D01*
X166068095Y-62627142D01*
X166020476Y-62674761D01*
X165925238Y-62722380D01*
X165830000Y-62722380D01*
X165734761Y-62674761D01*
X165687142Y-62627142D01*
X165639523Y-62531904D01*
X165591904Y-62341428D01*
X165591904Y-62103333D01*
X165639523Y-61912857D01*
X165687142Y-61817619D01*
X165734761Y-61770000D01*
X165830000Y-61722380D01*
X166782380Y-61722380D02*
X166877619Y-61722380D01*
X166972857Y-61770000D01*
X167020476Y-61817619D01*
X167068095Y-61912857D01*
X167115714Y-62103333D01*
X167115714Y-62341428D01*
X167068095Y-62531904D01*
X167020476Y-62627142D01*
X166972857Y-62674761D01*
X166877619Y-62722380D01*
X166782380Y-62722380D01*
X166687142Y-62674761D01*
X166639523Y-62627142D01*
X166591904Y-62531904D01*
X166544285Y-62341428D01*
X166544285Y-62103333D01*
X166591904Y-61912857D01*
X166639523Y-61817619D01*
X166687142Y-61770000D01*
X166782380Y-61722380D01*
X167544285Y-62055714D02*
X167544285Y-62722380D01*
X167544285Y-62150952D02*
X167591904Y-62103333D01*
X167687142Y-62055714D01*
X167830000Y-62055714D01*
X167925238Y-62103333D01*
X167972857Y-62198571D01*
X167972857Y-62722380D01*
X166163333Y-65127142D02*
X166115714Y-65174761D01*
X165972857Y-65222380D01*
X165877619Y-65222380D01*
X165734761Y-65174761D01*
X165639523Y-65079523D01*
X165591904Y-64984285D01*
X165544285Y-64793809D01*
X165544285Y-64650952D01*
X165591904Y-64460476D01*
X165639523Y-64365238D01*
X165734761Y-64270000D01*
X165877619Y-64222380D01*
X165972857Y-64222380D01*
X166115714Y-64270000D01*
X166163333Y-64317619D01*
X167020476Y-64555714D02*
X167020476Y-65222380D01*
X166782380Y-64174761D02*
X166544285Y-64889047D01*
X167163333Y-64889047D01*
X165290952Y-119872380D02*
X164719523Y-119872380D01*
X165005238Y-119872380D02*
X165005238Y-118872380D01*
X164910000Y-119015238D01*
X164814761Y-119110476D01*
X164719523Y-119158095D01*
X165910000Y-118872380D02*
X166005238Y-118872380D01*
X166100476Y-118920000D01*
X166148095Y-118967619D01*
X166195714Y-119062857D01*
X166243333Y-119253333D01*
X166243333Y-119491428D01*
X166195714Y-119681904D01*
X166148095Y-119777142D01*
X166100476Y-119824761D01*
X166005238Y-119872380D01*
X165910000Y-119872380D01*
X165814761Y-119824761D01*
X165767142Y-119777142D01*
X165719523Y-119681904D01*
X165671904Y-119491428D01*
X165671904Y-119253333D01*
X165719523Y-119062857D01*
X165767142Y-118967619D01*
X165814761Y-118920000D01*
X165910000Y-118872380D01*
X166862380Y-118872380D02*
X166957619Y-118872380D01*
X167052857Y-118920000D01*
X167100476Y-118967619D01*
X167148095Y-119062857D01*
X167195714Y-119253333D01*
X167195714Y-119491428D01*
X167148095Y-119681904D01*
X167100476Y-119777142D01*
X167052857Y-119824761D01*
X166957619Y-119872380D01*
X166862380Y-119872380D01*
X166767142Y-119824761D01*
X166719523Y-119777142D01*
X166671904Y-119681904D01*
X166624285Y-119491428D01*
X166624285Y-119253333D01*
X166671904Y-119062857D01*
X166719523Y-118967619D01*
X166767142Y-118920000D01*
X166862380Y-118872380D01*
X167624285Y-119205714D02*
X167624285Y-119872380D01*
X167624285Y-119300952D02*
X167671904Y-119253333D01*
X167767142Y-119205714D01*
X167910000Y-119205714D01*
X168005238Y-119253333D01*
X168052857Y-119348571D01*
X168052857Y-119872380D01*
X166243333Y-122277142D02*
X166195714Y-122324761D01*
X166052857Y-122372380D01*
X165957619Y-122372380D01*
X165814761Y-122324761D01*
X165719523Y-122229523D01*
X165671904Y-122134285D01*
X165624285Y-121943809D01*
X165624285Y-121800952D01*
X165671904Y-121610476D01*
X165719523Y-121515238D01*
X165814761Y-121420000D01*
X165957619Y-121372380D01*
X166052857Y-121372380D01*
X166195714Y-121420000D01*
X166243333Y-121467619D01*
X166576666Y-121372380D02*
X167195714Y-121372380D01*
X166862380Y-121753333D01*
X167005238Y-121753333D01*
X167100476Y-121800952D01*
X167148095Y-121848571D01*
X167195714Y-121943809D01*
X167195714Y-122181904D01*
X167148095Y-122277142D01*
X167100476Y-122324761D01*
X167005238Y-122372380D01*
X166719523Y-122372380D01*
X166624285Y-122324761D01*
X166576666Y-122277142D01*
X122110952Y-124872380D02*
X121539523Y-124872380D01*
X121825238Y-124872380D02*
X121825238Y-123872380D01*
X121730000Y-124015238D01*
X121634761Y-124110476D01*
X121539523Y-124158095D01*
X122730000Y-123872380D02*
X122825238Y-123872380D01*
X122920476Y-123920000D01*
X122968095Y-123967619D01*
X123015714Y-124062857D01*
X123063333Y-124253333D01*
X123063333Y-124491428D01*
X123015714Y-124681904D01*
X122968095Y-124777142D01*
X122920476Y-124824761D01*
X122825238Y-124872380D01*
X122730000Y-124872380D01*
X122634761Y-124824761D01*
X122587142Y-124777142D01*
X122539523Y-124681904D01*
X122491904Y-124491428D01*
X122491904Y-124253333D01*
X122539523Y-124062857D01*
X122587142Y-123967619D01*
X122634761Y-123920000D01*
X122730000Y-123872380D01*
X123682380Y-123872380D02*
X123777619Y-123872380D01*
X123872857Y-123920000D01*
X123920476Y-123967619D01*
X123968095Y-124062857D01*
X124015714Y-124253333D01*
X124015714Y-124491428D01*
X123968095Y-124681904D01*
X123920476Y-124777142D01*
X123872857Y-124824761D01*
X123777619Y-124872380D01*
X123682380Y-124872380D01*
X123587142Y-124824761D01*
X123539523Y-124777142D01*
X123491904Y-124681904D01*
X123444285Y-124491428D01*
X123444285Y-124253333D01*
X123491904Y-124062857D01*
X123539523Y-123967619D01*
X123587142Y-123920000D01*
X123682380Y-123872380D01*
X124444285Y-124205714D02*
X124444285Y-124872380D01*
X124444285Y-124300952D02*
X124491904Y-124253333D01*
X124587142Y-124205714D01*
X124730000Y-124205714D01*
X124825238Y-124253333D01*
X124872857Y-124348571D01*
X124872857Y-124872380D01*
X123063333Y-122277142D02*
X123015714Y-122324761D01*
X122872857Y-122372380D01*
X122777619Y-122372380D01*
X122634761Y-122324761D01*
X122539523Y-122229523D01*
X122491904Y-122134285D01*
X122444285Y-121943809D01*
X122444285Y-121800952D01*
X122491904Y-121610476D01*
X122539523Y-121515238D01*
X122634761Y-121420000D01*
X122777619Y-121372380D01*
X122872857Y-121372380D01*
X123015714Y-121420000D01*
X123063333Y-121467619D01*
X123444285Y-121467619D02*
X123491904Y-121420000D01*
X123587142Y-121372380D01*
X123825238Y-121372380D01*
X123920476Y-121420000D01*
X123968095Y-121467619D01*
X124015714Y-121562857D01*
X124015714Y-121658095D01*
X123968095Y-121800952D01*
X123396666Y-122372380D01*
X124015714Y-122372380D01*
X79612952Y-91217380D02*
X79041523Y-91217380D01*
X79327238Y-91217380D02*
X79327238Y-90217380D01*
X79232000Y-90360238D01*
X79136761Y-90455476D01*
X79041523Y-90503095D01*
X80232000Y-90217380D02*
X80327238Y-90217380D01*
X80422476Y-90265000D01*
X80470095Y-90312619D01*
X80517714Y-90407857D01*
X80565333Y-90598333D01*
X80565333Y-90836428D01*
X80517714Y-91026904D01*
X80470095Y-91122142D01*
X80422476Y-91169761D01*
X80327238Y-91217380D01*
X80232000Y-91217380D01*
X80136761Y-91169761D01*
X80089142Y-91122142D01*
X80041523Y-91026904D01*
X79993904Y-90836428D01*
X79993904Y-90598333D01*
X80041523Y-90407857D01*
X80089142Y-90312619D01*
X80136761Y-90265000D01*
X80232000Y-90217380D01*
X81184380Y-90217380D02*
X81279619Y-90217380D01*
X81374857Y-90265000D01*
X81422476Y-90312619D01*
X81470095Y-90407857D01*
X81517714Y-90598333D01*
X81517714Y-90836428D01*
X81470095Y-91026904D01*
X81422476Y-91122142D01*
X81374857Y-91169761D01*
X81279619Y-91217380D01*
X81184380Y-91217380D01*
X81089142Y-91169761D01*
X81041523Y-91122142D01*
X80993904Y-91026904D01*
X80946285Y-90836428D01*
X80946285Y-90598333D01*
X80993904Y-90407857D01*
X81041523Y-90312619D01*
X81089142Y-90265000D01*
X81184380Y-90217380D01*
X81946285Y-90550714D02*
X81946285Y-91217380D01*
X81946285Y-90645952D02*
X81993904Y-90598333D01*
X82089142Y-90550714D01*
X82232000Y-90550714D01*
X82327238Y-90598333D01*
X82374857Y-90693571D01*
X82374857Y-91217380D01*
X80565333Y-88622142D02*
X80517714Y-88669761D01*
X80374857Y-88717380D01*
X80279619Y-88717380D01*
X80136761Y-88669761D01*
X80041523Y-88574523D01*
X79993904Y-88479285D01*
X79946285Y-88288809D01*
X79946285Y-88145952D01*
X79993904Y-87955476D01*
X80041523Y-87860238D01*
X80136761Y-87765000D01*
X80279619Y-87717380D01*
X80374857Y-87717380D01*
X80517714Y-87765000D01*
X80565333Y-87812619D01*
X81517714Y-88717380D02*
X80946285Y-88717380D01*
X81232000Y-88717380D02*
X81232000Y-87717380D01*
X81136761Y-87860238D01*
X81041523Y-87955476D01*
X80946285Y-88003095D01*
X68445952Y-56284761D02*
X68588809Y-56332380D01*
X68826904Y-56332380D01*
X68922142Y-56284761D01*
X68969761Y-56237142D01*
X69017380Y-56141904D01*
X69017380Y-56046666D01*
X68969761Y-55951428D01*
X68922142Y-55903809D01*
X68826904Y-55856190D01*
X68636428Y-55808571D01*
X68541190Y-55760952D01*
X68493571Y-55713333D01*
X68445952Y-55618095D01*
X68445952Y-55522857D01*
X68493571Y-55427619D01*
X68541190Y-55380000D01*
X68636428Y-55332380D01*
X68874523Y-55332380D01*
X69017380Y-55380000D01*
X69445952Y-55665714D02*
X69445952Y-56665714D01*
X69445952Y-55713333D02*
X69541190Y-55665714D01*
X69731666Y-55665714D01*
X69826904Y-55713333D01*
X69874523Y-55760952D01*
X69922142Y-55856190D01*
X69922142Y-56141904D01*
X69874523Y-56237142D01*
X69826904Y-56284761D01*
X69731666Y-56332380D01*
X69541190Y-56332380D01*
X69445952Y-56284761D01*
X70779285Y-56332380D02*
X70779285Y-55808571D01*
X70731666Y-55713333D01*
X70636428Y-55665714D01*
X70445952Y-55665714D01*
X70350714Y-55713333D01*
X70779285Y-56284761D02*
X70684047Y-56332380D01*
X70445952Y-56332380D01*
X70350714Y-56284761D01*
X70303095Y-56189523D01*
X70303095Y-56094285D01*
X70350714Y-55999047D01*
X70445952Y-55951428D01*
X70684047Y-55951428D01*
X70779285Y-55903809D01*
X71255476Y-56332380D02*
X71255476Y-55665714D01*
X71255476Y-55856190D02*
X71303095Y-55760952D01*
X71350714Y-55713333D01*
X71445952Y-55665714D01*
X71541190Y-55665714D01*
X71874523Y-56332380D02*
X71874523Y-55332380D01*
X71969761Y-55951428D02*
X72255476Y-56332380D01*
X72255476Y-55665714D02*
X71874523Y-56046666D01*
X72541190Y-55665714D02*
X72922142Y-55665714D01*
X72684047Y-56332380D02*
X72684047Y-55475238D01*
X72731666Y-55380000D01*
X72826904Y-55332380D01*
X72922142Y-55332380D01*
X73684047Y-55665714D02*
X73684047Y-56332380D01*
X73255476Y-55665714D02*
X73255476Y-56189523D01*
X73303095Y-56284761D01*
X73398333Y-56332380D01*
X73541190Y-56332380D01*
X73636428Y-56284761D01*
X73684047Y-56237142D01*
X74160238Y-55665714D02*
X74160238Y-56332380D01*
X74160238Y-55760952D02*
X74207857Y-55713333D01*
X74303095Y-55665714D01*
X74445952Y-55665714D01*
X74541190Y-55713333D01*
X74588809Y-55808571D01*
X74588809Y-56332380D01*
X74826904Y-56427619D02*
X75588809Y-56427619D01*
X75826904Y-56332380D02*
X75826904Y-55332380D01*
X76207857Y-55332380D01*
X76303095Y-55380000D01*
X76350714Y-55427619D01*
X76398333Y-55522857D01*
X76398333Y-55665714D01*
X76350714Y-55760952D01*
X76303095Y-55808571D01*
X76207857Y-55856190D01*
X75826904Y-55856190D01*
X76826904Y-56332380D02*
X76826904Y-55665714D01*
X76826904Y-55856190D02*
X76874523Y-55760952D01*
X76922142Y-55713333D01*
X77017380Y-55665714D01*
X77112619Y-55665714D01*
X77588809Y-56332380D02*
X77493571Y-56284761D01*
X77445952Y-56237142D01*
X77398333Y-56141904D01*
X77398333Y-55856190D01*
X77445952Y-55760952D01*
X77493571Y-55713333D01*
X77588809Y-55665714D01*
X77731666Y-55665714D01*
X77826904Y-55713333D01*
X77874523Y-55760952D01*
X77922142Y-55856190D01*
X77922142Y-56141904D01*
X77874523Y-56237142D01*
X77826904Y-56284761D01*
X77731666Y-56332380D01*
X77588809Y-56332380D01*
X78112619Y-56427619D02*
X78874523Y-56427619D01*
X79112619Y-56332380D02*
X79112619Y-55332380D01*
X79445952Y-56046666D01*
X79779285Y-55332380D01*
X79779285Y-56332380D01*
X80255476Y-56332380D02*
X80255476Y-55665714D01*
X80255476Y-55332380D02*
X80207857Y-55380000D01*
X80255476Y-55427619D01*
X80303095Y-55380000D01*
X80255476Y-55332380D01*
X80255476Y-55427619D01*
X81160238Y-56284761D02*
X81065000Y-56332380D01*
X80874523Y-56332380D01*
X80779285Y-56284761D01*
X80731666Y-56237142D01*
X80684047Y-56141904D01*
X80684047Y-55856190D01*
X80731666Y-55760952D01*
X80779285Y-55713333D01*
X80874523Y-55665714D01*
X81065000Y-55665714D01*
X81160238Y-55713333D01*
X81588809Y-56332380D02*
X81588809Y-55665714D01*
X81588809Y-55856190D02*
X81636428Y-55760952D01*
X81684047Y-55713333D01*
X81779285Y-55665714D01*
X81874523Y-55665714D01*
X82350714Y-56332380D02*
X82255476Y-56284761D01*
X82207857Y-56237142D01*
X82160238Y-56141904D01*
X82160238Y-55856190D01*
X82207857Y-55760952D01*
X82255476Y-55713333D01*
X82350714Y-55665714D01*
X82493571Y-55665714D01*
X82588809Y-55713333D01*
X82636428Y-55760952D01*
X82684047Y-55856190D01*
X82684047Y-56141904D01*
X82636428Y-56237142D01*
X82588809Y-56284761D01*
X82493571Y-56332380D01*
X82350714Y-56332380D01*
X73533095Y-54062380D02*
X73533095Y-54871904D01*
X73580714Y-54967142D01*
X73628333Y-55014761D01*
X73723571Y-55062380D01*
X73914047Y-55062380D01*
X74009285Y-55014761D01*
X74056904Y-54967142D01*
X74104523Y-54871904D01*
X74104523Y-54062380D01*
X75104523Y-55062380D02*
X74533095Y-55062380D01*
X74818809Y-55062380D02*
X74818809Y-54062380D01*
X74723571Y-54205238D01*
X74628333Y-54300476D01*
X74533095Y-54348095D01*
X76758333Y-83559761D02*
X76901190Y-83607380D01*
X77139285Y-83607380D01*
X77234523Y-83559761D01*
X77282142Y-83512142D01*
X77329761Y-83416904D01*
X77329761Y-83321666D01*
X77282142Y-83226428D01*
X77234523Y-83178809D01*
X77139285Y-83131190D01*
X76948809Y-83083571D01*
X76853571Y-83035952D01*
X76805952Y-82988333D01*
X76758333Y-82893095D01*
X76758333Y-82797857D01*
X76805952Y-82702619D01*
X76853571Y-82655000D01*
X76948809Y-82607380D01*
X77186904Y-82607380D01*
X77329761Y-82655000D01*
X77710714Y-83559761D02*
X77853571Y-83607380D01*
X78091666Y-83607380D01*
X78186904Y-83559761D01*
X78234523Y-83512142D01*
X78282142Y-83416904D01*
X78282142Y-83321666D01*
X78234523Y-83226428D01*
X78186904Y-83178809D01*
X78091666Y-83131190D01*
X77901190Y-83083571D01*
X77805952Y-83035952D01*
X77758333Y-82988333D01*
X77710714Y-82893095D01*
X77710714Y-82797857D01*
X77758333Y-82702619D01*
X77805952Y-82655000D01*
X77901190Y-82607380D01*
X78139285Y-82607380D01*
X78282142Y-82655000D01*
X78710714Y-83607380D02*
X78710714Y-82607380D01*
X78948809Y-82607380D01*
X79091666Y-82655000D01*
X79186904Y-82750238D01*
X79234523Y-82845476D01*
X79282142Y-83035952D01*
X79282142Y-83178809D01*
X79234523Y-83369285D01*
X79186904Y-83464523D01*
X79091666Y-83559761D01*
X78948809Y-83607380D01*
X78710714Y-83607380D01*
X80234523Y-83607380D02*
X79663095Y-83607380D01*
X79948809Y-83607380D02*
X79948809Y-82607380D01*
X79853571Y-82750238D01*
X79758333Y-82845476D01*
X79663095Y-82893095D01*
X80567857Y-82607380D02*
X81186904Y-82607380D01*
X80853571Y-82988333D01*
X80996428Y-82988333D01*
X81091666Y-83035952D01*
X81139285Y-83083571D01*
X81186904Y-83178809D01*
X81186904Y-83416904D01*
X81139285Y-83512142D01*
X81091666Y-83559761D01*
X80996428Y-83607380D01*
X80710714Y-83607380D01*
X80615476Y-83559761D01*
X80567857Y-83512142D01*
X81805952Y-82607380D02*
X81901190Y-82607380D01*
X81996428Y-82655000D01*
X82044047Y-82702619D01*
X82091666Y-82797857D01*
X82139285Y-82988333D01*
X82139285Y-83226428D01*
X82091666Y-83416904D01*
X82044047Y-83512142D01*
X81996428Y-83559761D01*
X81901190Y-83607380D01*
X81805952Y-83607380D01*
X81710714Y-83559761D01*
X81663095Y-83512142D01*
X81615476Y-83416904D01*
X81567857Y-83226428D01*
X81567857Y-82988333D01*
X81615476Y-82797857D01*
X81663095Y-82702619D01*
X81710714Y-82655000D01*
X81805952Y-82607380D01*
X82996428Y-82607380D02*
X82805952Y-82607380D01*
X82710714Y-82655000D01*
X82663095Y-82702619D01*
X82567857Y-82845476D01*
X82520238Y-83035952D01*
X82520238Y-83416904D01*
X82567857Y-83512142D01*
X82615476Y-83559761D01*
X82710714Y-83607380D01*
X82901190Y-83607380D01*
X82996428Y-83559761D01*
X83044047Y-83512142D01*
X83091666Y-83416904D01*
X83091666Y-83178809D01*
X83044047Y-83083571D01*
X82996428Y-83035952D01*
X82901190Y-82988333D01*
X82710714Y-82988333D01*
X82615476Y-83035952D01*
X82567857Y-83083571D01*
X82520238Y-83178809D01*
X96574761Y-58867619D02*
X96622380Y-58724761D01*
X96622380Y-58486666D01*
X96574761Y-58391428D01*
X96527142Y-58343809D01*
X96431904Y-58296190D01*
X96336666Y-58296190D01*
X96241428Y-58343809D01*
X96193809Y-58391428D01*
X96146190Y-58486666D01*
X96098571Y-58677142D01*
X96050952Y-58772380D01*
X96003333Y-58820000D01*
X95908095Y-58867619D01*
X95812857Y-58867619D01*
X95717619Y-58820000D01*
X95670000Y-58772380D01*
X95622380Y-58677142D01*
X95622380Y-58439047D01*
X95670000Y-58296190D01*
X95622380Y-57962857D02*
X96622380Y-57724761D01*
X95908095Y-57534285D01*
X96622380Y-57343809D01*
X95622380Y-57105714D01*
X96717619Y-56962857D02*
X96717619Y-56200952D01*
X96622380Y-55962857D02*
X95622380Y-55962857D01*
X95622380Y-55581904D01*
X95670000Y-55486666D01*
X95717619Y-55439047D01*
X95812857Y-55391428D01*
X95955714Y-55391428D01*
X96050952Y-55439047D01*
X96098571Y-55486666D01*
X96146190Y-55581904D01*
X96146190Y-55962857D01*
X95955714Y-54534285D02*
X96622380Y-54534285D01*
X95955714Y-54962857D02*
X96479523Y-54962857D01*
X96574761Y-54915238D01*
X96622380Y-54820000D01*
X96622380Y-54677142D01*
X96574761Y-54581904D01*
X96527142Y-54534285D01*
X96574761Y-54105714D02*
X96622380Y-54010476D01*
X96622380Y-53820000D01*
X96574761Y-53724761D01*
X96479523Y-53677142D01*
X96431904Y-53677142D01*
X96336666Y-53724761D01*
X96289047Y-53820000D01*
X96289047Y-53962857D01*
X96241428Y-54058095D01*
X96146190Y-54105714D01*
X96098571Y-54105714D01*
X96003333Y-54058095D01*
X95955714Y-53962857D01*
X95955714Y-53820000D01*
X96003333Y-53724761D01*
X96622380Y-53248571D02*
X95622380Y-53248571D01*
X96622380Y-52820000D02*
X96098571Y-52820000D01*
X96003333Y-52867619D01*
X95955714Y-52962857D01*
X95955714Y-53105714D01*
X96003333Y-53200952D01*
X96050952Y-53248571D01*
X101024761Y-56653333D02*
X101072380Y-56510476D01*
X101072380Y-56272380D01*
X101024761Y-56177142D01*
X100977142Y-56129523D01*
X100881904Y-56081904D01*
X100786666Y-56081904D01*
X100691428Y-56129523D01*
X100643809Y-56177142D01*
X100596190Y-56272380D01*
X100548571Y-56462857D01*
X100500952Y-56558095D01*
X100453333Y-56605714D01*
X100358095Y-56653333D01*
X100262857Y-56653333D01*
X100167619Y-56605714D01*
X100120000Y-56558095D01*
X100072380Y-56462857D01*
X100072380Y-56224761D01*
X100120000Y-56081904D01*
X100072380Y-55748571D02*
X101072380Y-55510476D01*
X100358095Y-55320000D01*
X101072380Y-55129523D01*
X100072380Y-54891428D01*
X101072380Y-53986666D02*
X101072380Y-54558095D01*
X101072380Y-54272380D02*
X100072380Y-54272380D01*
X100215238Y-54367619D01*
X100310476Y-54462857D01*
X100358095Y-54558095D01*
X72969523Y-58872380D02*
X72398095Y-58872380D01*
X72683809Y-58872380D02*
X72683809Y-57872380D01*
X72588571Y-58015238D01*
X72493333Y-58110476D01*
X72398095Y-58158095D01*
X73588571Y-57872380D02*
X73683809Y-57872380D01*
X73779047Y-57920000D01*
X73826666Y-57967619D01*
X73874285Y-58062857D01*
X73921904Y-58253333D01*
X73921904Y-58491428D01*
X73874285Y-58681904D01*
X73826666Y-58777142D01*
X73779047Y-58824761D01*
X73683809Y-58872380D01*
X73588571Y-58872380D01*
X73493333Y-58824761D01*
X73445714Y-58777142D01*
X73398095Y-58681904D01*
X73350476Y-58491428D01*
X73350476Y-58253333D01*
X73398095Y-58062857D01*
X73445714Y-57967619D01*
X73493333Y-57920000D01*
X73588571Y-57872380D01*
X74350476Y-58872380D02*
X74350476Y-57872380D01*
X74921904Y-58872380D02*
X74493333Y-58300952D01*
X74921904Y-57872380D02*
X74350476Y-58443809D01*
X81748333Y-58872380D02*
X81415000Y-58396190D01*
X81176904Y-58872380D02*
X81176904Y-57872380D01*
X81557857Y-57872380D01*
X81653095Y-57920000D01*
X81700714Y-57967619D01*
X81748333Y-58062857D01*
X81748333Y-58205714D01*
X81700714Y-58300952D01*
X81653095Y-58348571D01*
X81557857Y-58396190D01*
X81176904Y-58396190D01*
X82700714Y-58872380D02*
X82129285Y-58872380D01*
X82415000Y-58872380D02*
X82415000Y-57872380D01*
X82319761Y-58015238D01*
X82224523Y-58110476D01*
X82129285Y-58158095D01*
X67547380Y-77691904D02*
X66547380Y-77691904D01*
X66547380Y-77453809D01*
X66595000Y-77310952D01*
X66690238Y-77215714D01*
X66785476Y-77168095D01*
X66975952Y-77120476D01*
X67118809Y-77120476D01*
X67309285Y-77168095D01*
X67404523Y-77215714D01*
X67499761Y-77310952D01*
X67547380Y-77453809D01*
X67547380Y-77691904D01*
X67642619Y-76930000D02*
X67642619Y-76168095D01*
X67499761Y-75977619D02*
X67547380Y-75834761D01*
X67547380Y-75596666D01*
X67499761Y-75501428D01*
X67452142Y-75453809D01*
X67356904Y-75406190D01*
X67261666Y-75406190D01*
X67166428Y-75453809D01*
X67118809Y-75501428D01*
X67071190Y-75596666D01*
X67023571Y-75787142D01*
X66975952Y-75882380D01*
X66928333Y-75930000D01*
X66833095Y-75977619D01*
X66737857Y-75977619D01*
X66642619Y-75930000D01*
X66595000Y-75882380D01*
X66547380Y-75787142D01*
X66547380Y-75549047D01*
X66595000Y-75406190D01*
X67547380Y-74977619D02*
X66880714Y-74977619D01*
X66975952Y-74977619D02*
X66928333Y-74930000D01*
X66880714Y-74834761D01*
X66880714Y-74691904D01*
X66928333Y-74596666D01*
X67023571Y-74549047D01*
X67547380Y-74549047D01*
X67023571Y-74549047D02*
X66928333Y-74501428D01*
X66880714Y-74406190D01*
X66880714Y-74263333D01*
X66928333Y-74168095D01*
X67023571Y-74120476D01*
X67547380Y-74120476D01*
X67547380Y-73215714D02*
X67023571Y-73215714D01*
X66928333Y-73263333D01*
X66880714Y-73358571D01*
X66880714Y-73549047D01*
X66928333Y-73644285D01*
X67499761Y-73215714D02*
X67547380Y-73310952D01*
X67547380Y-73549047D01*
X67499761Y-73644285D01*
X67404523Y-73691904D01*
X67309285Y-73691904D01*
X67214047Y-73644285D01*
X67166428Y-73549047D01*
X67166428Y-73310952D01*
X67118809Y-73215714D01*
X67547380Y-72596666D02*
X67499761Y-72691904D01*
X67404523Y-72739523D01*
X66547380Y-72739523D01*
X67547380Y-72072857D02*
X67499761Y-72168095D01*
X67404523Y-72215714D01*
X66547380Y-72215714D01*
X71467380Y-70111904D02*
X70467380Y-70111904D01*
X71467380Y-69540476D02*
X70895952Y-69969047D01*
X70467380Y-69540476D02*
X71038809Y-70111904D01*
D11*
X69576904Y-76201428D02*
X68776904Y-76201428D01*
X68776904Y-76010952D01*
X68815000Y-75896666D01*
X68891190Y-75820476D01*
X68967380Y-75782380D01*
X69119761Y-75744285D01*
X69234047Y-75744285D01*
X69386428Y-75782380D01*
X69462619Y-75820476D01*
X69538809Y-75896666D01*
X69576904Y-76010952D01*
X69576904Y-76201428D01*
X68853095Y-75439523D02*
X68815000Y-75401428D01*
X68776904Y-75325238D01*
X68776904Y-75134761D01*
X68815000Y-75058571D01*
X68853095Y-75020476D01*
X68929285Y-74982380D01*
X69005476Y-74982380D01*
X69119761Y-75020476D01*
X69576904Y-75477619D01*
X69576904Y-74982380D01*
X69576904Y-74220476D02*
X69576904Y-74677619D01*
X69576904Y-74449047D02*
X68776904Y-74449047D01*
X68891190Y-74525238D01*
X68967380Y-74601428D01*
X69005476Y-74677619D01*
D12*
X147352380Y-77056904D02*
X146352380Y-77056904D01*
X146352380Y-76818809D01*
X146400000Y-76675952D01*
X146495238Y-76580714D01*
X146590476Y-76533095D01*
X146780952Y-76485476D01*
X146923809Y-76485476D01*
X147114285Y-76533095D01*
X147209523Y-76580714D01*
X147304761Y-76675952D01*
X147352380Y-76818809D01*
X147352380Y-77056904D01*
X147447619Y-76295000D02*
X147447619Y-75533095D01*
X147304761Y-75342619D02*
X147352380Y-75199761D01*
X147352380Y-74961666D01*
X147304761Y-74866428D01*
X147257142Y-74818809D01*
X147161904Y-74771190D01*
X147066666Y-74771190D01*
X146971428Y-74818809D01*
X146923809Y-74866428D01*
X146876190Y-74961666D01*
X146828571Y-75152142D01*
X146780952Y-75247380D01*
X146733333Y-75295000D01*
X146638095Y-75342619D01*
X146542857Y-75342619D01*
X146447619Y-75295000D01*
X146400000Y-75247380D01*
X146352380Y-75152142D01*
X146352380Y-74914047D01*
X146400000Y-74771190D01*
X147352380Y-74342619D02*
X146685714Y-74342619D01*
X146780952Y-74342619D02*
X146733333Y-74295000D01*
X146685714Y-74199761D01*
X146685714Y-74056904D01*
X146733333Y-73961666D01*
X146828571Y-73914047D01*
X147352380Y-73914047D01*
X146828571Y-73914047D02*
X146733333Y-73866428D01*
X146685714Y-73771190D01*
X146685714Y-73628333D01*
X146733333Y-73533095D01*
X146828571Y-73485476D01*
X147352380Y-73485476D01*
X147352380Y-72580714D02*
X146828571Y-72580714D01*
X146733333Y-72628333D01*
X146685714Y-72723571D01*
X146685714Y-72914047D01*
X146733333Y-73009285D01*
X147304761Y-72580714D02*
X147352380Y-72675952D01*
X147352380Y-72914047D01*
X147304761Y-73009285D01*
X147209523Y-73056904D01*
X147114285Y-73056904D01*
X147019047Y-73009285D01*
X146971428Y-72914047D01*
X146971428Y-72675952D01*
X146923809Y-72580714D01*
X147352380Y-71961666D02*
X147304761Y-72056904D01*
X147209523Y-72104523D01*
X146352380Y-72104523D01*
X147352380Y-71437857D02*
X147304761Y-71533095D01*
X147209523Y-71580714D01*
X146352380Y-71580714D01*
X143432380Y-79636904D02*
X142432380Y-79636904D01*
X143432380Y-79065476D02*
X142860952Y-79494047D01*
X142432380Y-79065476D02*
X143003809Y-79636904D01*
D11*
X145141904Y-74966428D02*
X144341904Y-74966428D01*
X144341904Y-74775952D01*
X144380000Y-74661666D01*
X144456190Y-74585476D01*
X144532380Y-74547380D01*
X144684761Y-74509285D01*
X144799047Y-74509285D01*
X144951428Y-74547380D01*
X145027619Y-74585476D01*
X145103809Y-74661666D01*
X145141904Y-74775952D01*
X145141904Y-74966428D01*
X145141904Y-73747380D02*
X145141904Y-74204523D01*
X145141904Y-73975952D02*
X144341904Y-73975952D01*
X144456190Y-74052142D01*
X144532380Y-74128333D01*
X144570476Y-74204523D01*
X144418095Y-73442619D02*
X144380000Y-73404523D01*
X144341904Y-73328333D01*
X144341904Y-73137857D01*
X144380000Y-73061666D01*
X144418095Y-73023571D01*
X144494285Y-72985476D01*
X144570476Y-72985476D01*
X144684761Y-73023571D01*
X145141904Y-73480714D01*
X145141904Y-72985476D01*
D12*
X71967380Y-82524285D02*
X71491190Y-82857619D01*
X71967380Y-83095714D02*
X70967380Y-83095714D01*
X70967380Y-82714761D01*
X71015000Y-82619523D01*
X71062619Y-82571904D01*
X71157857Y-82524285D01*
X71300714Y-82524285D01*
X71395952Y-82571904D01*
X71443571Y-82619523D01*
X71491190Y-82714761D01*
X71491190Y-83095714D01*
X71967380Y-81952857D02*
X71919761Y-82048095D01*
X71872142Y-82095714D01*
X71776904Y-82143333D01*
X71491190Y-82143333D01*
X71395952Y-82095714D01*
X71348333Y-82048095D01*
X71300714Y-81952857D01*
X71300714Y-81810000D01*
X71348333Y-81714761D01*
X71395952Y-81667142D01*
X71491190Y-81619523D01*
X71776904Y-81619523D01*
X71872142Y-81667142D01*
X71919761Y-81714761D01*
X71967380Y-81810000D01*
X71967380Y-81952857D01*
X71300714Y-81333809D02*
X71300714Y-80952857D01*
X70967380Y-81190952D02*
X71824523Y-81190952D01*
X71919761Y-81143333D01*
X71967380Y-81048095D01*
X71967380Y-80952857D01*
X71967380Y-80190952D02*
X71443571Y-80190952D01*
X71348333Y-80238571D01*
X71300714Y-80333809D01*
X71300714Y-80524285D01*
X71348333Y-80619523D01*
X71919761Y-80190952D02*
X71967380Y-80286190D01*
X71967380Y-80524285D01*
X71919761Y-80619523D01*
X71824523Y-80667142D01*
X71729285Y-80667142D01*
X71634047Y-80619523D01*
X71586428Y-80524285D01*
X71586428Y-80286190D01*
X71538809Y-80190952D01*
X71967380Y-79714761D02*
X71300714Y-79714761D01*
X71491190Y-79714761D02*
X71395952Y-79667142D01*
X71348333Y-79619523D01*
X71300714Y-79524285D01*
X71300714Y-79429047D01*
X71300714Y-79190952D02*
X71967380Y-78952857D01*
X71300714Y-78714761D02*
X71967380Y-78952857D01*
X72205476Y-79048095D01*
X72253095Y-79095714D01*
X72300714Y-79190952D01*
X72062619Y-78571904D02*
X72062619Y-77810000D01*
X71443571Y-77571904D02*
X71443571Y-77238571D01*
X71967380Y-77095714D02*
X71967380Y-77571904D01*
X70967380Y-77571904D01*
X70967380Y-77095714D01*
X71300714Y-76667142D02*
X71967380Y-76667142D01*
X71395952Y-76667142D02*
X71348333Y-76619523D01*
X71300714Y-76524285D01*
X71300714Y-76381428D01*
X71348333Y-76286190D01*
X71443571Y-76238571D01*
X71967380Y-76238571D01*
X71919761Y-75333809D02*
X71967380Y-75429047D01*
X71967380Y-75619523D01*
X71919761Y-75714761D01*
X71872142Y-75762380D01*
X71776904Y-75810000D01*
X71491190Y-75810000D01*
X71395952Y-75762380D01*
X71348333Y-75714761D01*
X71300714Y-75619523D01*
X71300714Y-75429047D01*
X71348333Y-75333809D01*
X71967380Y-74762380D02*
X71919761Y-74857619D01*
X71872142Y-74905238D01*
X71776904Y-74952857D01*
X71491190Y-74952857D01*
X71395952Y-74905238D01*
X71348333Y-74857619D01*
X71300714Y-74762380D01*
X71300714Y-74619523D01*
X71348333Y-74524285D01*
X71395952Y-74476666D01*
X71491190Y-74429047D01*
X71776904Y-74429047D01*
X71872142Y-74476666D01*
X71919761Y-74524285D01*
X71967380Y-74619523D01*
X71967380Y-74762380D01*
X71967380Y-73571904D02*
X70967380Y-73571904D01*
X71919761Y-73571904D02*
X71967380Y-73667142D01*
X71967380Y-73857619D01*
X71919761Y-73952857D01*
X71872142Y-74000476D01*
X71776904Y-74048095D01*
X71491190Y-74048095D01*
X71395952Y-74000476D01*
X71348333Y-73952857D01*
X71300714Y-73857619D01*
X71300714Y-73667142D01*
X71348333Y-73571904D01*
X71919761Y-72714761D02*
X71967380Y-72810000D01*
X71967380Y-73000476D01*
X71919761Y-73095714D01*
X71824523Y-73143333D01*
X71443571Y-73143333D01*
X71348333Y-73095714D01*
X71300714Y-73000476D01*
X71300714Y-72810000D01*
X71348333Y-72714761D01*
X71443571Y-72667142D01*
X71538809Y-72667142D01*
X71634047Y-73143333D01*
X71967380Y-72238571D02*
X71300714Y-72238571D01*
X71491190Y-72238571D02*
X71395952Y-72190952D01*
X71348333Y-72143333D01*
X71300714Y-72048095D01*
X71300714Y-71952857D01*
X72062619Y-71857619D02*
X72062619Y-71095714D01*
X71919761Y-70905238D02*
X71967380Y-70762380D01*
X71967380Y-70524285D01*
X71919761Y-70429047D01*
X71872142Y-70381428D01*
X71776904Y-70333809D01*
X71681666Y-70333809D01*
X71586428Y-70381428D01*
X71538809Y-70429047D01*
X71491190Y-70524285D01*
X71443571Y-70714761D01*
X71395952Y-70810000D01*
X71348333Y-70857619D01*
X71253095Y-70905238D01*
X71157857Y-70905238D01*
X71062619Y-70857619D01*
X71015000Y-70810000D01*
X70967380Y-70714761D01*
X70967380Y-70476666D01*
X71015000Y-70333809D01*
X71300714Y-70000476D02*
X71967380Y-69810000D01*
X71491190Y-69619523D01*
X71967380Y-69429047D01*
X71300714Y-69238571D01*
X71967380Y-68857619D02*
X71300714Y-68857619D01*
X70967380Y-68857619D02*
X71015000Y-68905238D01*
X71062619Y-68857619D01*
X71015000Y-68810000D01*
X70967380Y-68857619D01*
X71062619Y-68857619D01*
X71300714Y-68524285D02*
X71300714Y-68143333D01*
X70967380Y-68381428D02*
X71824523Y-68381428D01*
X71919761Y-68333809D01*
X71967380Y-68238571D01*
X71967380Y-68143333D01*
X71919761Y-67381428D02*
X71967380Y-67476666D01*
X71967380Y-67667142D01*
X71919761Y-67762380D01*
X71872142Y-67810000D01*
X71776904Y-67857619D01*
X71491190Y-67857619D01*
X71395952Y-67810000D01*
X71348333Y-67762380D01*
X71300714Y-67667142D01*
X71300714Y-67476666D01*
X71348333Y-67381428D01*
X71967380Y-66952857D02*
X70967380Y-66952857D01*
X71967380Y-66524285D02*
X71443571Y-66524285D01*
X71348333Y-66571904D01*
X71300714Y-66667142D01*
X71300714Y-66810000D01*
X71348333Y-66905238D01*
X71395952Y-66952857D01*
X76019761Y-79743333D02*
X76067380Y-79600476D01*
X76067380Y-79362380D01*
X76019761Y-79267142D01*
X75972142Y-79219523D01*
X75876904Y-79171904D01*
X75781666Y-79171904D01*
X75686428Y-79219523D01*
X75638809Y-79267142D01*
X75591190Y-79362380D01*
X75543571Y-79552857D01*
X75495952Y-79648095D01*
X75448333Y-79695714D01*
X75353095Y-79743333D01*
X75257857Y-79743333D01*
X75162619Y-79695714D01*
X75115000Y-79648095D01*
X75067380Y-79552857D01*
X75067380Y-79314761D01*
X75115000Y-79171904D01*
X75067380Y-78838571D02*
X76067380Y-78600476D01*
X75353095Y-78410000D01*
X76067380Y-78219523D01*
X75067380Y-77981428D01*
X75162619Y-77648095D02*
X75115000Y-77600476D01*
X75067380Y-77505238D01*
X75067380Y-77267142D01*
X75115000Y-77171904D01*
X75162619Y-77124285D01*
X75257857Y-77076666D01*
X75353095Y-77076666D01*
X75495952Y-77124285D01*
X76067380Y-77695714D01*
X76067380Y-77076666D01*
X166402380Y-134206904D02*
X165402380Y-134206904D01*
X165402380Y-133968809D01*
X165450000Y-133825952D01*
X165545238Y-133730714D01*
X165640476Y-133683095D01*
X165830952Y-133635476D01*
X165973809Y-133635476D01*
X166164285Y-133683095D01*
X166259523Y-133730714D01*
X166354761Y-133825952D01*
X166402380Y-133968809D01*
X166402380Y-134206904D01*
X166497619Y-133445000D02*
X166497619Y-132683095D01*
X166354761Y-132492619D02*
X166402380Y-132349761D01*
X166402380Y-132111666D01*
X166354761Y-132016428D01*
X166307142Y-131968809D01*
X166211904Y-131921190D01*
X166116666Y-131921190D01*
X166021428Y-131968809D01*
X165973809Y-132016428D01*
X165926190Y-132111666D01*
X165878571Y-132302142D01*
X165830952Y-132397380D01*
X165783333Y-132445000D01*
X165688095Y-132492619D01*
X165592857Y-132492619D01*
X165497619Y-132445000D01*
X165450000Y-132397380D01*
X165402380Y-132302142D01*
X165402380Y-132064047D01*
X165450000Y-131921190D01*
X166402380Y-131492619D02*
X165735714Y-131492619D01*
X165830952Y-131492619D02*
X165783333Y-131445000D01*
X165735714Y-131349761D01*
X165735714Y-131206904D01*
X165783333Y-131111666D01*
X165878571Y-131064047D01*
X166402380Y-131064047D01*
X165878571Y-131064047D02*
X165783333Y-131016428D01*
X165735714Y-130921190D01*
X165735714Y-130778333D01*
X165783333Y-130683095D01*
X165878571Y-130635476D01*
X166402380Y-130635476D01*
X166402380Y-129730714D02*
X165878571Y-129730714D01*
X165783333Y-129778333D01*
X165735714Y-129873571D01*
X165735714Y-130064047D01*
X165783333Y-130159285D01*
X166354761Y-129730714D02*
X166402380Y-129825952D01*
X166402380Y-130064047D01*
X166354761Y-130159285D01*
X166259523Y-130206904D01*
X166164285Y-130206904D01*
X166069047Y-130159285D01*
X166021428Y-130064047D01*
X166021428Y-129825952D01*
X165973809Y-129730714D01*
X166402380Y-129111666D02*
X166354761Y-129206904D01*
X166259523Y-129254523D01*
X165402380Y-129254523D01*
X166402380Y-128587857D02*
X166354761Y-128683095D01*
X166259523Y-128730714D01*
X165402380Y-128730714D01*
X162482380Y-136786904D02*
X161482380Y-136786904D01*
X162482380Y-136215476D02*
X161910952Y-136644047D01*
X161482380Y-136215476D02*
X162053809Y-136786904D01*
D11*
X164191904Y-132116428D02*
X163391904Y-132116428D01*
X163391904Y-131925952D01*
X163430000Y-131811666D01*
X163506190Y-131735476D01*
X163582380Y-131697380D01*
X163734761Y-131659285D01*
X163849047Y-131659285D01*
X164001428Y-131697380D01*
X164077619Y-131735476D01*
X164153809Y-131811666D01*
X164191904Y-131925952D01*
X164191904Y-132116428D01*
X163468095Y-131354523D02*
X163430000Y-131316428D01*
X163391904Y-131240238D01*
X163391904Y-131049761D01*
X163430000Y-130973571D01*
X163468095Y-130935476D01*
X163544285Y-130897380D01*
X163620476Y-130897380D01*
X163734761Y-130935476D01*
X164191904Y-131392619D01*
X164191904Y-130897380D01*
X163391904Y-130402142D02*
X163391904Y-130325952D01*
X163430000Y-130249761D01*
X163468095Y-130211666D01*
X163544285Y-130173571D01*
X163696666Y-130135476D01*
X163887142Y-130135476D01*
X164039523Y-130173571D01*
X164115714Y-130211666D01*
X164153809Y-130249761D01*
X164191904Y-130325952D01*
X164191904Y-130402142D01*
X164153809Y-130478333D01*
X164115714Y-130516428D01*
X164039523Y-130554523D01*
X163887142Y-130592619D01*
X163696666Y-130592619D01*
X163544285Y-130554523D01*
X163468095Y-130516428D01*
X163430000Y-130478333D01*
X163391904Y-130402142D01*
D12*
X166402380Y-115156904D02*
X165402380Y-115156904D01*
X165402380Y-114918809D01*
X165450000Y-114775952D01*
X165545238Y-114680714D01*
X165640476Y-114633095D01*
X165830952Y-114585476D01*
X165973809Y-114585476D01*
X166164285Y-114633095D01*
X166259523Y-114680714D01*
X166354761Y-114775952D01*
X166402380Y-114918809D01*
X166402380Y-115156904D01*
X166497619Y-114395000D02*
X166497619Y-113633095D01*
X166354761Y-113442619D02*
X166402380Y-113299761D01*
X166402380Y-113061666D01*
X166354761Y-112966428D01*
X166307142Y-112918809D01*
X166211904Y-112871190D01*
X166116666Y-112871190D01*
X166021428Y-112918809D01*
X165973809Y-112966428D01*
X165926190Y-113061666D01*
X165878571Y-113252142D01*
X165830952Y-113347380D01*
X165783333Y-113395000D01*
X165688095Y-113442619D01*
X165592857Y-113442619D01*
X165497619Y-113395000D01*
X165450000Y-113347380D01*
X165402380Y-113252142D01*
X165402380Y-113014047D01*
X165450000Y-112871190D01*
X166402380Y-112442619D02*
X165735714Y-112442619D01*
X165830952Y-112442619D02*
X165783333Y-112395000D01*
X165735714Y-112299761D01*
X165735714Y-112156904D01*
X165783333Y-112061666D01*
X165878571Y-112014047D01*
X166402380Y-112014047D01*
X165878571Y-112014047D02*
X165783333Y-111966428D01*
X165735714Y-111871190D01*
X165735714Y-111728333D01*
X165783333Y-111633095D01*
X165878571Y-111585476D01*
X166402380Y-111585476D01*
X166402380Y-110680714D02*
X165878571Y-110680714D01*
X165783333Y-110728333D01*
X165735714Y-110823571D01*
X165735714Y-111014047D01*
X165783333Y-111109285D01*
X166354761Y-110680714D02*
X166402380Y-110775952D01*
X166402380Y-111014047D01*
X166354761Y-111109285D01*
X166259523Y-111156904D01*
X166164285Y-111156904D01*
X166069047Y-111109285D01*
X166021428Y-111014047D01*
X166021428Y-110775952D01*
X165973809Y-110680714D01*
X166402380Y-110061666D02*
X166354761Y-110156904D01*
X166259523Y-110204523D01*
X165402380Y-110204523D01*
X166402380Y-109537857D02*
X166354761Y-109633095D01*
X166259523Y-109680714D01*
X165402380Y-109680714D01*
X162482380Y-117736904D02*
X161482380Y-117736904D01*
X162482380Y-117165476D02*
X161910952Y-117594047D01*
X161482380Y-117165476D02*
X162053809Y-117736904D01*
D11*
X164191904Y-113066428D02*
X163391904Y-113066428D01*
X163391904Y-112875952D01*
X163430000Y-112761666D01*
X163506190Y-112685476D01*
X163582380Y-112647380D01*
X163734761Y-112609285D01*
X163849047Y-112609285D01*
X164001428Y-112647380D01*
X164077619Y-112685476D01*
X164153809Y-112761666D01*
X164191904Y-112875952D01*
X164191904Y-113066428D01*
X164191904Y-111847380D02*
X164191904Y-112304523D01*
X164191904Y-112075952D02*
X163391904Y-112075952D01*
X163506190Y-112152142D01*
X163582380Y-112228333D01*
X163620476Y-112304523D01*
X164191904Y-111466428D02*
X164191904Y-111314047D01*
X164153809Y-111237857D01*
X164115714Y-111199761D01*
X164001428Y-111123571D01*
X163849047Y-111085476D01*
X163544285Y-111085476D01*
X163468095Y-111123571D01*
X163430000Y-111161666D01*
X163391904Y-111237857D01*
X163391904Y-111390238D01*
X163430000Y-111466428D01*
X163468095Y-111504523D01*
X163544285Y-111542619D01*
X163734761Y-111542619D01*
X163810952Y-111504523D01*
X163849047Y-111466428D01*
X163887142Y-111390238D01*
X163887142Y-111237857D01*
X163849047Y-111161666D01*
X163810952Y-111123571D01*
X163734761Y-111085476D01*
D12*
X166402380Y-96106904D02*
X165402380Y-96106904D01*
X165402380Y-95868809D01*
X165450000Y-95725952D01*
X165545238Y-95630714D01*
X165640476Y-95583095D01*
X165830952Y-95535476D01*
X165973809Y-95535476D01*
X166164285Y-95583095D01*
X166259523Y-95630714D01*
X166354761Y-95725952D01*
X166402380Y-95868809D01*
X166402380Y-96106904D01*
X166497619Y-95345000D02*
X166497619Y-94583095D01*
X166354761Y-94392619D02*
X166402380Y-94249761D01*
X166402380Y-94011666D01*
X166354761Y-93916428D01*
X166307142Y-93868809D01*
X166211904Y-93821190D01*
X166116666Y-93821190D01*
X166021428Y-93868809D01*
X165973809Y-93916428D01*
X165926190Y-94011666D01*
X165878571Y-94202142D01*
X165830952Y-94297380D01*
X165783333Y-94345000D01*
X165688095Y-94392619D01*
X165592857Y-94392619D01*
X165497619Y-94345000D01*
X165450000Y-94297380D01*
X165402380Y-94202142D01*
X165402380Y-93964047D01*
X165450000Y-93821190D01*
X166402380Y-93392619D02*
X165735714Y-93392619D01*
X165830952Y-93392619D02*
X165783333Y-93345000D01*
X165735714Y-93249761D01*
X165735714Y-93106904D01*
X165783333Y-93011666D01*
X165878571Y-92964047D01*
X166402380Y-92964047D01*
X165878571Y-92964047D02*
X165783333Y-92916428D01*
X165735714Y-92821190D01*
X165735714Y-92678333D01*
X165783333Y-92583095D01*
X165878571Y-92535476D01*
X166402380Y-92535476D01*
X166402380Y-91630714D02*
X165878571Y-91630714D01*
X165783333Y-91678333D01*
X165735714Y-91773571D01*
X165735714Y-91964047D01*
X165783333Y-92059285D01*
X166354761Y-91630714D02*
X166402380Y-91725952D01*
X166402380Y-91964047D01*
X166354761Y-92059285D01*
X166259523Y-92106904D01*
X166164285Y-92106904D01*
X166069047Y-92059285D01*
X166021428Y-91964047D01*
X166021428Y-91725952D01*
X165973809Y-91630714D01*
X166402380Y-91011666D02*
X166354761Y-91106904D01*
X166259523Y-91154523D01*
X165402380Y-91154523D01*
X166402380Y-90487857D02*
X166354761Y-90583095D01*
X166259523Y-90630714D01*
X165402380Y-90630714D01*
X162482380Y-98686904D02*
X161482380Y-98686904D01*
X162482380Y-98115476D02*
X161910952Y-98544047D01*
X161482380Y-98115476D02*
X162053809Y-98686904D01*
D11*
X164191904Y-94016428D02*
X163391904Y-94016428D01*
X163391904Y-93825952D01*
X163430000Y-93711666D01*
X163506190Y-93635476D01*
X163582380Y-93597380D01*
X163734761Y-93559285D01*
X163849047Y-93559285D01*
X164001428Y-93597380D01*
X164077619Y-93635476D01*
X164153809Y-93711666D01*
X164191904Y-93825952D01*
X164191904Y-94016428D01*
X164191904Y-92797380D02*
X164191904Y-93254523D01*
X164191904Y-93025952D02*
X163391904Y-93025952D01*
X163506190Y-93102142D01*
X163582380Y-93178333D01*
X163620476Y-93254523D01*
X163734761Y-92340238D02*
X163696666Y-92416428D01*
X163658571Y-92454523D01*
X163582380Y-92492619D01*
X163544285Y-92492619D01*
X163468095Y-92454523D01*
X163430000Y-92416428D01*
X163391904Y-92340238D01*
X163391904Y-92187857D01*
X163430000Y-92111666D01*
X163468095Y-92073571D01*
X163544285Y-92035476D01*
X163582380Y-92035476D01*
X163658571Y-92073571D01*
X163696666Y-92111666D01*
X163734761Y-92187857D01*
X163734761Y-92340238D01*
X163772857Y-92416428D01*
X163810952Y-92454523D01*
X163887142Y-92492619D01*
X164039523Y-92492619D01*
X164115714Y-92454523D01*
X164153809Y-92416428D01*
X164191904Y-92340238D01*
X164191904Y-92187857D01*
X164153809Y-92111666D01*
X164115714Y-92073571D01*
X164039523Y-92035476D01*
X163887142Y-92035476D01*
X163810952Y-92073571D01*
X163772857Y-92111666D01*
X163734761Y-92187857D01*
D12*
X166402380Y-77056904D02*
X165402380Y-77056904D01*
X165402380Y-76818809D01*
X165450000Y-76675952D01*
X165545238Y-76580714D01*
X165640476Y-76533095D01*
X165830952Y-76485476D01*
X165973809Y-76485476D01*
X166164285Y-76533095D01*
X166259523Y-76580714D01*
X166354761Y-76675952D01*
X166402380Y-76818809D01*
X166402380Y-77056904D01*
X166497619Y-76295000D02*
X166497619Y-75533095D01*
X166354761Y-75342619D02*
X166402380Y-75199761D01*
X166402380Y-74961666D01*
X166354761Y-74866428D01*
X166307142Y-74818809D01*
X166211904Y-74771190D01*
X166116666Y-74771190D01*
X166021428Y-74818809D01*
X165973809Y-74866428D01*
X165926190Y-74961666D01*
X165878571Y-75152142D01*
X165830952Y-75247380D01*
X165783333Y-75295000D01*
X165688095Y-75342619D01*
X165592857Y-75342619D01*
X165497619Y-75295000D01*
X165450000Y-75247380D01*
X165402380Y-75152142D01*
X165402380Y-74914047D01*
X165450000Y-74771190D01*
X166402380Y-74342619D02*
X165735714Y-74342619D01*
X165830952Y-74342619D02*
X165783333Y-74295000D01*
X165735714Y-74199761D01*
X165735714Y-74056904D01*
X165783333Y-73961666D01*
X165878571Y-73914047D01*
X166402380Y-73914047D01*
X165878571Y-73914047D02*
X165783333Y-73866428D01*
X165735714Y-73771190D01*
X165735714Y-73628333D01*
X165783333Y-73533095D01*
X165878571Y-73485476D01*
X166402380Y-73485476D01*
X166402380Y-72580714D02*
X165878571Y-72580714D01*
X165783333Y-72628333D01*
X165735714Y-72723571D01*
X165735714Y-72914047D01*
X165783333Y-73009285D01*
X166354761Y-72580714D02*
X166402380Y-72675952D01*
X166402380Y-72914047D01*
X166354761Y-73009285D01*
X166259523Y-73056904D01*
X166164285Y-73056904D01*
X166069047Y-73009285D01*
X166021428Y-72914047D01*
X166021428Y-72675952D01*
X165973809Y-72580714D01*
X166402380Y-71961666D02*
X166354761Y-72056904D01*
X166259523Y-72104523D01*
X165402380Y-72104523D01*
X166402380Y-71437857D02*
X166354761Y-71533095D01*
X166259523Y-71580714D01*
X165402380Y-71580714D01*
X162482380Y-79636904D02*
X161482380Y-79636904D01*
X162482380Y-79065476D02*
X161910952Y-79494047D01*
X161482380Y-79065476D02*
X162053809Y-79636904D01*
D11*
X164191904Y-74966428D02*
X163391904Y-74966428D01*
X163391904Y-74775952D01*
X163430000Y-74661666D01*
X163506190Y-74585476D01*
X163582380Y-74547380D01*
X163734761Y-74509285D01*
X163849047Y-74509285D01*
X164001428Y-74547380D01*
X164077619Y-74585476D01*
X164153809Y-74661666D01*
X164191904Y-74775952D01*
X164191904Y-74966428D01*
X164191904Y-73747380D02*
X164191904Y-74204523D01*
X164191904Y-73975952D02*
X163391904Y-73975952D01*
X163506190Y-74052142D01*
X163582380Y-74128333D01*
X163620476Y-74204523D01*
X163391904Y-73480714D02*
X163391904Y-72947380D01*
X164191904Y-73290238D01*
D12*
X166402380Y-58006904D02*
X165402380Y-58006904D01*
X165402380Y-57768809D01*
X165450000Y-57625952D01*
X165545238Y-57530714D01*
X165640476Y-57483095D01*
X165830952Y-57435476D01*
X165973809Y-57435476D01*
X166164285Y-57483095D01*
X166259523Y-57530714D01*
X166354761Y-57625952D01*
X166402380Y-57768809D01*
X166402380Y-58006904D01*
X166497619Y-57245000D02*
X166497619Y-56483095D01*
X166354761Y-56292619D02*
X166402380Y-56149761D01*
X166402380Y-55911666D01*
X166354761Y-55816428D01*
X166307142Y-55768809D01*
X166211904Y-55721190D01*
X166116666Y-55721190D01*
X166021428Y-55768809D01*
X165973809Y-55816428D01*
X165926190Y-55911666D01*
X165878571Y-56102142D01*
X165830952Y-56197380D01*
X165783333Y-56245000D01*
X165688095Y-56292619D01*
X165592857Y-56292619D01*
X165497619Y-56245000D01*
X165450000Y-56197380D01*
X165402380Y-56102142D01*
X165402380Y-55864047D01*
X165450000Y-55721190D01*
X166402380Y-55292619D02*
X165735714Y-55292619D01*
X165830952Y-55292619D02*
X165783333Y-55245000D01*
X165735714Y-55149761D01*
X165735714Y-55006904D01*
X165783333Y-54911666D01*
X165878571Y-54864047D01*
X166402380Y-54864047D01*
X165878571Y-54864047D02*
X165783333Y-54816428D01*
X165735714Y-54721190D01*
X165735714Y-54578333D01*
X165783333Y-54483095D01*
X165878571Y-54435476D01*
X166402380Y-54435476D01*
X166402380Y-53530714D02*
X165878571Y-53530714D01*
X165783333Y-53578333D01*
X165735714Y-53673571D01*
X165735714Y-53864047D01*
X165783333Y-53959285D01*
X166354761Y-53530714D02*
X166402380Y-53625952D01*
X166402380Y-53864047D01*
X166354761Y-53959285D01*
X166259523Y-54006904D01*
X166164285Y-54006904D01*
X166069047Y-53959285D01*
X166021428Y-53864047D01*
X166021428Y-53625952D01*
X165973809Y-53530714D01*
X166402380Y-52911666D02*
X166354761Y-53006904D01*
X166259523Y-53054523D01*
X165402380Y-53054523D01*
X166402380Y-52387857D02*
X166354761Y-52483095D01*
X166259523Y-52530714D01*
X165402380Y-52530714D01*
X162482380Y-60586904D02*
X161482380Y-60586904D01*
X162482380Y-60015476D02*
X161910952Y-60444047D01*
X161482380Y-60015476D02*
X162053809Y-60586904D01*
D11*
X164191904Y-55916428D02*
X163391904Y-55916428D01*
X163391904Y-55725952D01*
X163430000Y-55611666D01*
X163506190Y-55535476D01*
X163582380Y-55497380D01*
X163734761Y-55459285D01*
X163849047Y-55459285D01*
X164001428Y-55497380D01*
X164077619Y-55535476D01*
X164153809Y-55611666D01*
X164191904Y-55725952D01*
X164191904Y-55916428D01*
X164191904Y-54697380D02*
X164191904Y-55154523D01*
X164191904Y-54925952D02*
X163391904Y-54925952D01*
X163506190Y-55002142D01*
X163582380Y-55078333D01*
X163620476Y-55154523D01*
X163391904Y-54011666D02*
X163391904Y-54164047D01*
X163430000Y-54240238D01*
X163468095Y-54278333D01*
X163582380Y-54354523D01*
X163734761Y-54392619D01*
X164039523Y-54392619D01*
X164115714Y-54354523D01*
X164153809Y-54316428D01*
X164191904Y-54240238D01*
X164191904Y-54087857D01*
X164153809Y-54011666D01*
X164115714Y-53973571D01*
X164039523Y-53935476D01*
X163849047Y-53935476D01*
X163772857Y-53973571D01*
X163734761Y-54011666D01*
X163696666Y-54087857D01*
X163696666Y-54240238D01*
X163734761Y-54316428D01*
X163772857Y-54354523D01*
X163849047Y-54392619D01*
D12*
X147352380Y-134206904D02*
X146352380Y-134206904D01*
X146352380Y-133968809D01*
X146400000Y-133825952D01*
X146495238Y-133730714D01*
X146590476Y-133683095D01*
X146780952Y-133635476D01*
X146923809Y-133635476D01*
X147114285Y-133683095D01*
X147209523Y-133730714D01*
X147304761Y-133825952D01*
X147352380Y-133968809D01*
X147352380Y-134206904D01*
X147447619Y-133445000D02*
X147447619Y-132683095D01*
X147304761Y-132492619D02*
X147352380Y-132349761D01*
X147352380Y-132111666D01*
X147304761Y-132016428D01*
X147257142Y-131968809D01*
X147161904Y-131921190D01*
X147066666Y-131921190D01*
X146971428Y-131968809D01*
X146923809Y-132016428D01*
X146876190Y-132111666D01*
X146828571Y-132302142D01*
X146780952Y-132397380D01*
X146733333Y-132445000D01*
X146638095Y-132492619D01*
X146542857Y-132492619D01*
X146447619Y-132445000D01*
X146400000Y-132397380D01*
X146352380Y-132302142D01*
X146352380Y-132064047D01*
X146400000Y-131921190D01*
X147352380Y-131492619D02*
X146685714Y-131492619D01*
X146780952Y-131492619D02*
X146733333Y-131445000D01*
X146685714Y-131349761D01*
X146685714Y-131206904D01*
X146733333Y-131111666D01*
X146828571Y-131064047D01*
X147352380Y-131064047D01*
X146828571Y-131064047D02*
X146733333Y-131016428D01*
X146685714Y-130921190D01*
X146685714Y-130778333D01*
X146733333Y-130683095D01*
X146828571Y-130635476D01*
X147352380Y-130635476D01*
X147352380Y-129730714D02*
X146828571Y-129730714D01*
X146733333Y-129778333D01*
X146685714Y-129873571D01*
X146685714Y-130064047D01*
X146733333Y-130159285D01*
X147304761Y-129730714D02*
X147352380Y-129825952D01*
X147352380Y-130064047D01*
X147304761Y-130159285D01*
X147209523Y-130206904D01*
X147114285Y-130206904D01*
X147019047Y-130159285D01*
X146971428Y-130064047D01*
X146971428Y-129825952D01*
X146923809Y-129730714D01*
X147352380Y-129111666D02*
X147304761Y-129206904D01*
X147209523Y-129254523D01*
X146352380Y-129254523D01*
X147352380Y-128587857D02*
X147304761Y-128683095D01*
X147209523Y-128730714D01*
X146352380Y-128730714D01*
X143432380Y-136786904D02*
X142432380Y-136786904D01*
X143432380Y-136215476D02*
X142860952Y-136644047D01*
X142432380Y-136215476D02*
X143003809Y-136786904D01*
D11*
X145141904Y-132116428D02*
X144341904Y-132116428D01*
X144341904Y-131925952D01*
X144380000Y-131811666D01*
X144456190Y-131735476D01*
X144532380Y-131697380D01*
X144684761Y-131659285D01*
X144799047Y-131659285D01*
X144951428Y-131697380D01*
X145027619Y-131735476D01*
X145103809Y-131811666D01*
X145141904Y-131925952D01*
X145141904Y-132116428D01*
X145141904Y-130897380D02*
X145141904Y-131354523D01*
X145141904Y-131125952D02*
X144341904Y-131125952D01*
X144456190Y-131202142D01*
X144532380Y-131278333D01*
X144570476Y-131354523D01*
X144341904Y-130173571D02*
X144341904Y-130554523D01*
X144722857Y-130592619D01*
X144684761Y-130554523D01*
X144646666Y-130478333D01*
X144646666Y-130287857D01*
X144684761Y-130211666D01*
X144722857Y-130173571D01*
X144799047Y-130135476D01*
X144989523Y-130135476D01*
X145065714Y-130173571D01*
X145103809Y-130211666D01*
X145141904Y-130287857D01*
X145141904Y-130478333D01*
X145103809Y-130554523D01*
X145065714Y-130592619D01*
D12*
X147352380Y-115156904D02*
X146352380Y-115156904D01*
X146352380Y-114918809D01*
X146400000Y-114775952D01*
X146495238Y-114680714D01*
X146590476Y-114633095D01*
X146780952Y-114585476D01*
X146923809Y-114585476D01*
X147114285Y-114633095D01*
X147209523Y-114680714D01*
X147304761Y-114775952D01*
X147352380Y-114918809D01*
X147352380Y-115156904D01*
X147447619Y-114395000D02*
X147447619Y-113633095D01*
X147304761Y-113442619D02*
X147352380Y-113299761D01*
X147352380Y-113061666D01*
X147304761Y-112966428D01*
X147257142Y-112918809D01*
X147161904Y-112871190D01*
X147066666Y-112871190D01*
X146971428Y-112918809D01*
X146923809Y-112966428D01*
X146876190Y-113061666D01*
X146828571Y-113252142D01*
X146780952Y-113347380D01*
X146733333Y-113395000D01*
X146638095Y-113442619D01*
X146542857Y-113442619D01*
X146447619Y-113395000D01*
X146400000Y-113347380D01*
X146352380Y-113252142D01*
X146352380Y-113014047D01*
X146400000Y-112871190D01*
X147352380Y-112442619D02*
X146685714Y-112442619D01*
X146780952Y-112442619D02*
X146733333Y-112395000D01*
X146685714Y-112299761D01*
X146685714Y-112156904D01*
X146733333Y-112061666D01*
X146828571Y-112014047D01*
X147352380Y-112014047D01*
X146828571Y-112014047D02*
X146733333Y-111966428D01*
X146685714Y-111871190D01*
X146685714Y-111728333D01*
X146733333Y-111633095D01*
X146828571Y-111585476D01*
X147352380Y-111585476D01*
X147352380Y-110680714D02*
X146828571Y-110680714D01*
X146733333Y-110728333D01*
X146685714Y-110823571D01*
X146685714Y-111014047D01*
X146733333Y-111109285D01*
X147304761Y-110680714D02*
X147352380Y-110775952D01*
X147352380Y-111014047D01*
X147304761Y-111109285D01*
X147209523Y-111156904D01*
X147114285Y-111156904D01*
X147019047Y-111109285D01*
X146971428Y-111014047D01*
X146971428Y-110775952D01*
X146923809Y-110680714D01*
X147352380Y-110061666D02*
X147304761Y-110156904D01*
X147209523Y-110204523D01*
X146352380Y-110204523D01*
X147352380Y-109537857D02*
X147304761Y-109633095D01*
X147209523Y-109680714D01*
X146352380Y-109680714D01*
X143432380Y-117736904D02*
X142432380Y-117736904D01*
X143432380Y-117165476D02*
X142860952Y-117594047D01*
X142432380Y-117165476D02*
X143003809Y-117736904D01*
D11*
X145141904Y-113066428D02*
X144341904Y-113066428D01*
X144341904Y-112875952D01*
X144380000Y-112761666D01*
X144456190Y-112685476D01*
X144532380Y-112647380D01*
X144684761Y-112609285D01*
X144799047Y-112609285D01*
X144951428Y-112647380D01*
X145027619Y-112685476D01*
X145103809Y-112761666D01*
X145141904Y-112875952D01*
X145141904Y-113066428D01*
X145141904Y-111847380D02*
X145141904Y-112304523D01*
X145141904Y-112075952D02*
X144341904Y-112075952D01*
X144456190Y-112152142D01*
X144532380Y-112228333D01*
X144570476Y-112304523D01*
X144608571Y-111161666D02*
X145141904Y-111161666D01*
X144303809Y-111352142D02*
X144875238Y-111542619D01*
X144875238Y-111047380D01*
D12*
X147352380Y-96106904D02*
X146352380Y-96106904D01*
X146352380Y-95868809D01*
X146400000Y-95725952D01*
X146495238Y-95630714D01*
X146590476Y-95583095D01*
X146780952Y-95535476D01*
X146923809Y-95535476D01*
X147114285Y-95583095D01*
X147209523Y-95630714D01*
X147304761Y-95725952D01*
X147352380Y-95868809D01*
X147352380Y-96106904D01*
X147447619Y-95345000D02*
X147447619Y-94583095D01*
X147304761Y-94392619D02*
X147352380Y-94249761D01*
X147352380Y-94011666D01*
X147304761Y-93916428D01*
X147257142Y-93868809D01*
X147161904Y-93821190D01*
X147066666Y-93821190D01*
X146971428Y-93868809D01*
X146923809Y-93916428D01*
X146876190Y-94011666D01*
X146828571Y-94202142D01*
X146780952Y-94297380D01*
X146733333Y-94345000D01*
X146638095Y-94392619D01*
X146542857Y-94392619D01*
X146447619Y-94345000D01*
X146400000Y-94297380D01*
X146352380Y-94202142D01*
X146352380Y-93964047D01*
X146400000Y-93821190D01*
X147352380Y-93392619D02*
X146685714Y-93392619D01*
X146780952Y-93392619D02*
X146733333Y-93345000D01*
X146685714Y-93249761D01*
X146685714Y-93106904D01*
X146733333Y-93011666D01*
X146828571Y-92964047D01*
X147352380Y-92964047D01*
X146828571Y-92964047D02*
X146733333Y-92916428D01*
X146685714Y-92821190D01*
X146685714Y-92678333D01*
X146733333Y-92583095D01*
X146828571Y-92535476D01*
X147352380Y-92535476D01*
X147352380Y-91630714D02*
X146828571Y-91630714D01*
X146733333Y-91678333D01*
X146685714Y-91773571D01*
X146685714Y-91964047D01*
X146733333Y-92059285D01*
X147304761Y-91630714D02*
X147352380Y-91725952D01*
X147352380Y-91964047D01*
X147304761Y-92059285D01*
X147209523Y-92106904D01*
X147114285Y-92106904D01*
X147019047Y-92059285D01*
X146971428Y-91964047D01*
X146971428Y-91725952D01*
X146923809Y-91630714D01*
X147352380Y-91011666D02*
X147304761Y-91106904D01*
X147209523Y-91154523D01*
X146352380Y-91154523D01*
X147352380Y-90487857D02*
X147304761Y-90583095D01*
X147209523Y-90630714D01*
X146352380Y-90630714D01*
X143432380Y-98686904D02*
X142432380Y-98686904D01*
X143432380Y-98115476D02*
X142860952Y-98544047D01*
X142432380Y-98115476D02*
X143003809Y-98686904D01*
D11*
X145141904Y-94016428D02*
X144341904Y-94016428D01*
X144341904Y-93825952D01*
X144380000Y-93711666D01*
X144456190Y-93635476D01*
X144532380Y-93597380D01*
X144684761Y-93559285D01*
X144799047Y-93559285D01*
X144951428Y-93597380D01*
X145027619Y-93635476D01*
X145103809Y-93711666D01*
X145141904Y-93825952D01*
X145141904Y-94016428D01*
X145141904Y-92797380D02*
X145141904Y-93254523D01*
X145141904Y-93025952D02*
X144341904Y-93025952D01*
X144456190Y-93102142D01*
X144532380Y-93178333D01*
X144570476Y-93254523D01*
X144341904Y-92530714D02*
X144341904Y-92035476D01*
X144646666Y-92302142D01*
X144646666Y-92187857D01*
X144684761Y-92111666D01*
X144722857Y-92073571D01*
X144799047Y-92035476D01*
X144989523Y-92035476D01*
X145065714Y-92073571D01*
X145103809Y-92111666D01*
X145141904Y-92187857D01*
X145141904Y-92416428D01*
X145103809Y-92492619D01*
X145065714Y-92530714D01*
D12*
X147352380Y-58006904D02*
X146352380Y-58006904D01*
X146352380Y-57768809D01*
X146400000Y-57625952D01*
X146495238Y-57530714D01*
X146590476Y-57483095D01*
X146780952Y-57435476D01*
X146923809Y-57435476D01*
X147114285Y-57483095D01*
X147209523Y-57530714D01*
X147304761Y-57625952D01*
X147352380Y-57768809D01*
X147352380Y-58006904D01*
X147447619Y-57245000D02*
X147447619Y-56483095D01*
X147304761Y-56292619D02*
X147352380Y-56149761D01*
X147352380Y-55911666D01*
X147304761Y-55816428D01*
X147257142Y-55768809D01*
X147161904Y-55721190D01*
X147066666Y-55721190D01*
X146971428Y-55768809D01*
X146923809Y-55816428D01*
X146876190Y-55911666D01*
X146828571Y-56102142D01*
X146780952Y-56197380D01*
X146733333Y-56245000D01*
X146638095Y-56292619D01*
X146542857Y-56292619D01*
X146447619Y-56245000D01*
X146400000Y-56197380D01*
X146352380Y-56102142D01*
X146352380Y-55864047D01*
X146400000Y-55721190D01*
X147352380Y-55292619D02*
X146685714Y-55292619D01*
X146780952Y-55292619D02*
X146733333Y-55245000D01*
X146685714Y-55149761D01*
X146685714Y-55006904D01*
X146733333Y-54911666D01*
X146828571Y-54864047D01*
X147352380Y-54864047D01*
X146828571Y-54864047D02*
X146733333Y-54816428D01*
X146685714Y-54721190D01*
X146685714Y-54578333D01*
X146733333Y-54483095D01*
X146828571Y-54435476D01*
X147352380Y-54435476D01*
X147352380Y-53530714D02*
X146828571Y-53530714D01*
X146733333Y-53578333D01*
X146685714Y-53673571D01*
X146685714Y-53864047D01*
X146733333Y-53959285D01*
X147304761Y-53530714D02*
X147352380Y-53625952D01*
X147352380Y-53864047D01*
X147304761Y-53959285D01*
X147209523Y-54006904D01*
X147114285Y-54006904D01*
X147019047Y-53959285D01*
X146971428Y-53864047D01*
X146971428Y-53625952D01*
X146923809Y-53530714D01*
X147352380Y-52911666D02*
X147304761Y-53006904D01*
X147209523Y-53054523D01*
X146352380Y-53054523D01*
X147352380Y-52387857D02*
X147304761Y-52483095D01*
X147209523Y-52530714D01*
X146352380Y-52530714D01*
X143432380Y-60586904D02*
X142432380Y-60586904D01*
X143432380Y-60015476D02*
X142860952Y-60444047D01*
X142432380Y-60015476D02*
X143003809Y-60586904D01*
D11*
X145141904Y-55916428D02*
X144341904Y-55916428D01*
X144341904Y-55725952D01*
X144380000Y-55611666D01*
X144456190Y-55535476D01*
X144532380Y-55497380D01*
X144684761Y-55459285D01*
X144799047Y-55459285D01*
X144951428Y-55497380D01*
X145027619Y-55535476D01*
X145103809Y-55611666D01*
X145141904Y-55725952D01*
X145141904Y-55916428D01*
X145141904Y-54697380D02*
X145141904Y-55154523D01*
X145141904Y-54925952D02*
X144341904Y-54925952D01*
X144456190Y-55002142D01*
X144532380Y-55078333D01*
X144570476Y-55154523D01*
X145141904Y-53935476D02*
X145141904Y-54392619D01*
X145141904Y-54164047D02*
X144341904Y-54164047D01*
X144456190Y-54240238D01*
X144532380Y-54316428D01*
X144570476Y-54392619D01*
D12*
X128302380Y-134206904D02*
X127302380Y-134206904D01*
X127302380Y-133968809D01*
X127350000Y-133825952D01*
X127445238Y-133730714D01*
X127540476Y-133683095D01*
X127730952Y-133635476D01*
X127873809Y-133635476D01*
X128064285Y-133683095D01*
X128159523Y-133730714D01*
X128254761Y-133825952D01*
X128302380Y-133968809D01*
X128302380Y-134206904D01*
X128397619Y-133445000D02*
X128397619Y-132683095D01*
X128254761Y-132492619D02*
X128302380Y-132349761D01*
X128302380Y-132111666D01*
X128254761Y-132016428D01*
X128207142Y-131968809D01*
X128111904Y-131921190D01*
X128016666Y-131921190D01*
X127921428Y-131968809D01*
X127873809Y-132016428D01*
X127826190Y-132111666D01*
X127778571Y-132302142D01*
X127730952Y-132397380D01*
X127683333Y-132445000D01*
X127588095Y-132492619D01*
X127492857Y-132492619D01*
X127397619Y-132445000D01*
X127350000Y-132397380D01*
X127302380Y-132302142D01*
X127302380Y-132064047D01*
X127350000Y-131921190D01*
X128302380Y-131492619D02*
X127635714Y-131492619D01*
X127730952Y-131492619D02*
X127683333Y-131445000D01*
X127635714Y-131349761D01*
X127635714Y-131206904D01*
X127683333Y-131111666D01*
X127778571Y-131064047D01*
X128302380Y-131064047D01*
X127778571Y-131064047D02*
X127683333Y-131016428D01*
X127635714Y-130921190D01*
X127635714Y-130778333D01*
X127683333Y-130683095D01*
X127778571Y-130635476D01*
X128302380Y-130635476D01*
X128302380Y-129730714D02*
X127778571Y-129730714D01*
X127683333Y-129778333D01*
X127635714Y-129873571D01*
X127635714Y-130064047D01*
X127683333Y-130159285D01*
X128254761Y-129730714D02*
X128302380Y-129825952D01*
X128302380Y-130064047D01*
X128254761Y-130159285D01*
X128159523Y-130206904D01*
X128064285Y-130206904D01*
X127969047Y-130159285D01*
X127921428Y-130064047D01*
X127921428Y-129825952D01*
X127873809Y-129730714D01*
X128302380Y-129111666D02*
X128254761Y-129206904D01*
X128159523Y-129254523D01*
X127302380Y-129254523D01*
X128302380Y-128587857D02*
X128254761Y-128683095D01*
X128159523Y-128730714D01*
X127302380Y-128730714D01*
X124382380Y-136786904D02*
X123382380Y-136786904D01*
X124382380Y-136215476D02*
X123810952Y-136644047D01*
X123382380Y-136215476D02*
X123953809Y-136786904D01*
D11*
X126091904Y-132116428D02*
X125291904Y-132116428D01*
X125291904Y-131925952D01*
X125330000Y-131811666D01*
X125406190Y-131735476D01*
X125482380Y-131697380D01*
X125634761Y-131659285D01*
X125749047Y-131659285D01*
X125901428Y-131697380D01*
X125977619Y-131735476D01*
X126053809Y-131811666D01*
X126091904Y-131925952D01*
X126091904Y-132116428D01*
X126091904Y-130897380D02*
X126091904Y-131354523D01*
X126091904Y-131125952D02*
X125291904Y-131125952D01*
X125406190Y-131202142D01*
X125482380Y-131278333D01*
X125520476Y-131354523D01*
X125291904Y-130402142D02*
X125291904Y-130325952D01*
X125330000Y-130249761D01*
X125368095Y-130211666D01*
X125444285Y-130173571D01*
X125596666Y-130135476D01*
X125787142Y-130135476D01*
X125939523Y-130173571D01*
X126015714Y-130211666D01*
X126053809Y-130249761D01*
X126091904Y-130325952D01*
X126091904Y-130402142D01*
X126053809Y-130478333D01*
X126015714Y-130516428D01*
X125939523Y-130554523D01*
X125787142Y-130592619D01*
X125596666Y-130592619D01*
X125444285Y-130554523D01*
X125368095Y-130516428D01*
X125330000Y-130478333D01*
X125291904Y-130402142D01*
D12*
X128302380Y-115156904D02*
X127302380Y-115156904D01*
X127302380Y-114918809D01*
X127350000Y-114775952D01*
X127445238Y-114680714D01*
X127540476Y-114633095D01*
X127730952Y-114585476D01*
X127873809Y-114585476D01*
X128064285Y-114633095D01*
X128159523Y-114680714D01*
X128254761Y-114775952D01*
X128302380Y-114918809D01*
X128302380Y-115156904D01*
X128397619Y-114395000D02*
X128397619Y-113633095D01*
X128254761Y-113442619D02*
X128302380Y-113299761D01*
X128302380Y-113061666D01*
X128254761Y-112966428D01*
X128207142Y-112918809D01*
X128111904Y-112871190D01*
X128016666Y-112871190D01*
X127921428Y-112918809D01*
X127873809Y-112966428D01*
X127826190Y-113061666D01*
X127778571Y-113252142D01*
X127730952Y-113347380D01*
X127683333Y-113395000D01*
X127588095Y-113442619D01*
X127492857Y-113442619D01*
X127397619Y-113395000D01*
X127350000Y-113347380D01*
X127302380Y-113252142D01*
X127302380Y-113014047D01*
X127350000Y-112871190D01*
X128302380Y-112442619D02*
X127635714Y-112442619D01*
X127730952Y-112442619D02*
X127683333Y-112395000D01*
X127635714Y-112299761D01*
X127635714Y-112156904D01*
X127683333Y-112061666D01*
X127778571Y-112014047D01*
X128302380Y-112014047D01*
X127778571Y-112014047D02*
X127683333Y-111966428D01*
X127635714Y-111871190D01*
X127635714Y-111728333D01*
X127683333Y-111633095D01*
X127778571Y-111585476D01*
X128302380Y-111585476D01*
X128302380Y-110680714D02*
X127778571Y-110680714D01*
X127683333Y-110728333D01*
X127635714Y-110823571D01*
X127635714Y-111014047D01*
X127683333Y-111109285D01*
X128254761Y-110680714D02*
X128302380Y-110775952D01*
X128302380Y-111014047D01*
X128254761Y-111109285D01*
X128159523Y-111156904D01*
X128064285Y-111156904D01*
X127969047Y-111109285D01*
X127921428Y-111014047D01*
X127921428Y-110775952D01*
X127873809Y-110680714D01*
X128302380Y-110061666D02*
X128254761Y-110156904D01*
X128159523Y-110204523D01*
X127302380Y-110204523D01*
X128302380Y-109537857D02*
X128254761Y-109633095D01*
X128159523Y-109680714D01*
X127302380Y-109680714D01*
X124382380Y-117736904D02*
X123382380Y-117736904D01*
X124382380Y-117165476D02*
X123810952Y-117594047D01*
X123382380Y-117165476D02*
X123953809Y-117736904D01*
D11*
X126091904Y-112685476D02*
X125291904Y-112685476D01*
X125291904Y-112495000D01*
X125330000Y-112380714D01*
X125406190Y-112304523D01*
X125482380Y-112266428D01*
X125634761Y-112228333D01*
X125749047Y-112228333D01*
X125901428Y-112266428D01*
X125977619Y-112304523D01*
X126053809Y-112380714D01*
X126091904Y-112495000D01*
X126091904Y-112685476D01*
X126091904Y-111847380D02*
X126091904Y-111695000D01*
X126053809Y-111618809D01*
X126015714Y-111580714D01*
X125901428Y-111504523D01*
X125749047Y-111466428D01*
X125444285Y-111466428D01*
X125368095Y-111504523D01*
X125330000Y-111542619D01*
X125291904Y-111618809D01*
X125291904Y-111771190D01*
X125330000Y-111847380D01*
X125368095Y-111885476D01*
X125444285Y-111923571D01*
X125634761Y-111923571D01*
X125710952Y-111885476D01*
X125749047Y-111847380D01*
X125787142Y-111771190D01*
X125787142Y-111618809D01*
X125749047Y-111542619D01*
X125710952Y-111504523D01*
X125634761Y-111466428D01*
D12*
X128302380Y-96106904D02*
X127302380Y-96106904D01*
X127302380Y-95868809D01*
X127350000Y-95725952D01*
X127445238Y-95630714D01*
X127540476Y-95583095D01*
X127730952Y-95535476D01*
X127873809Y-95535476D01*
X128064285Y-95583095D01*
X128159523Y-95630714D01*
X128254761Y-95725952D01*
X128302380Y-95868809D01*
X128302380Y-96106904D01*
X128397619Y-95345000D02*
X128397619Y-94583095D01*
X128254761Y-94392619D02*
X128302380Y-94249761D01*
X128302380Y-94011666D01*
X128254761Y-93916428D01*
X128207142Y-93868809D01*
X128111904Y-93821190D01*
X128016666Y-93821190D01*
X127921428Y-93868809D01*
X127873809Y-93916428D01*
X127826190Y-94011666D01*
X127778571Y-94202142D01*
X127730952Y-94297380D01*
X127683333Y-94345000D01*
X127588095Y-94392619D01*
X127492857Y-94392619D01*
X127397619Y-94345000D01*
X127350000Y-94297380D01*
X127302380Y-94202142D01*
X127302380Y-93964047D01*
X127350000Y-93821190D01*
X128302380Y-93392619D02*
X127635714Y-93392619D01*
X127730952Y-93392619D02*
X127683333Y-93345000D01*
X127635714Y-93249761D01*
X127635714Y-93106904D01*
X127683333Y-93011666D01*
X127778571Y-92964047D01*
X128302380Y-92964047D01*
X127778571Y-92964047D02*
X127683333Y-92916428D01*
X127635714Y-92821190D01*
X127635714Y-92678333D01*
X127683333Y-92583095D01*
X127778571Y-92535476D01*
X128302380Y-92535476D01*
X128302380Y-91630714D02*
X127778571Y-91630714D01*
X127683333Y-91678333D01*
X127635714Y-91773571D01*
X127635714Y-91964047D01*
X127683333Y-92059285D01*
X128254761Y-91630714D02*
X128302380Y-91725952D01*
X128302380Y-91964047D01*
X128254761Y-92059285D01*
X128159523Y-92106904D01*
X128064285Y-92106904D01*
X127969047Y-92059285D01*
X127921428Y-91964047D01*
X127921428Y-91725952D01*
X127873809Y-91630714D01*
X128302380Y-91011666D02*
X128254761Y-91106904D01*
X128159523Y-91154523D01*
X127302380Y-91154523D01*
X128302380Y-90487857D02*
X128254761Y-90583095D01*
X128159523Y-90630714D01*
X127302380Y-90630714D01*
X124382380Y-98686904D02*
X123382380Y-98686904D01*
X124382380Y-98115476D02*
X123810952Y-98544047D01*
X123382380Y-98115476D02*
X123953809Y-98686904D01*
D11*
X126091904Y-93635476D02*
X125291904Y-93635476D01*
X125291904Y-93445000D01*
X125330000Y-93330714D01*
X125406190Y-93254523D01*
X125482380Y-93216428D01*
X125634761Y-93178333D01*
X125749047Y-93178333D01*
X125901428Y-93216428D01*
X125977619Y-93254523D01*
X126053809Y-93330714D01*
X126091904Y-93445000D01*
X126091904Y-93635476D01*
X125634761Y-92721190D02*
X125596666Y-92797380D01*
X125558571Y-92835476D01*
X125482380Y-92873571D01*
X125444285Y-92873571D01*
X125368095Y-92835476D01*
X125330000Y-92797380D01*
X125291904Y-92721190D01*
X125291904Y-92568809D01*
X125330000Y-92492619D01*
X125368095Y-92454523D01*
X125444285Y-92416428D01*
X125482380Y-92416428D01*
X125558571Y-92454523D01*
X125596666Y-92492619D01*
X125634761Y-92568809D01*
X125634761Y-92721190D01*
X125672857Y-92797380D01*
X125710952Y-92835476D01*
X125787142Y-92873571D01*
X125939523Y-92873571D01*
X126015714Y-92835476D01*
X126053809Y-92797380D01*
X126091904Y-92721190D01*
X126091904Y-92568809D01*
X126053809Y-92492619D01*
X126015714Y-92454523D01*
X125939523Y-92416428D01*
X125787142Y-92416428D01*
X125710952Y-92454523D01*
X125672857Y-92492619D01*
X125634761Y-92568809D01*
D12*
X128302380Y-77056904D02*
X127302380Y-77056904D01*
X127302380Y-76818809D01*
X127350000Y-76675952D01*
X127445238Y-76580714D01*
X127540476Y-76533095D01*
X127730952Y-76485476D01*
X127873809Y-76485476D01*
X128064285Y-76533095D01*
X128159523Y-76580714D01*
X128254761Y-76675952D01*
X128302380Y-76818809D01*
X128302380Y-77056904D01*
X128397619Y-76295000D02*
X128397619Y-75533095D01*
X128254761Y-75342619D02*
X128302380Y-75199761D01*
X128302380Y-74961666D01*
X128254761Y-74866428D01*
X128207142Y-74818809D01*
X128111904Y-74771190D01*
X128016666Y-74771190D01*
X127921428Y-74818809D01*
X127873809Y-74866428D01*
X127826190Y-74961666D01*
X127778571Y-75152142D01*
X127730952Y-75247380D01*
X127683333Y-75295000D01*
X127588095Y-75342619D01*
X127492857Y-75342619D01*
X127397619Y-75295000D01*
X127350000Y-75247380D01*
X127302380Y-75152142D01*
X127302380Y-74914047D01*
X127350000Y-74771190D01*
X128302380Y-74342619D02*
X127635714Y-74342619D01*
X127730952Y-74342619D02*
X127683333Y-74295000D01*
X127635714Y-74199761D01*
X127635714Y-74056904D01*
X127683333Y-73961666D01*
X127778571Y-73914047D01*
X128302380Y-73914047D01*
X127778571Y-73914047D02*
X127683333Y-73866428D01*
X127635714Y-73771190D01*
X127635714Y-73628333D01*
X127683333Y-73533095D01*
X127778571Y-73485476D01*
X128302380Y-73485476D01*
X128302380Y-72580714D02*
X127778571Y-72580714D01*
X127683333Y-72628333D01*
X127635714Y-72723571D01*
X127635714Y-72914047D01*
X127683333Y-73009285D01*
X128254761Y-72580714D02*
X128302380Y-72675952D01*
X128302380Y-72914047D01*
X128254761Y-73009285D01*
X128159523Y-73056904D01*
X128064285Y-73056904D01*
X127969047Y-73009285D01*
X127921428Y-72914047D01*
X127921428Y-72675952D01*
X127873809Y-72580714D01*
X128302380Y-71961666D02*
X128254761Y-72056904D01*
X128159523Y-72104523D01*
X127302380Y-72104523D01*
X128302380Y-71437857D02*
X128254761Y-71533095D01*
X128159523Y-71580714D01*
X127302380Y-71580714D01*
X124382380Y-79636904D02*
X123382380Y-79636904D01*
X124382380Y-79065476D02*
X123810952Y-79494047D01*
X123382380Y-79065476D02*
X123953809Y-79636904D01*
D11*
X126091904Y-74585476D02*
X125291904Y-74585476D01*
X125291904Y-74395000D01*
X125330000Y-74280714D01*
X125406190Y-74204523D01*
X125482380Y-74166428D01*
X125634761Y-74128333D01*
X125749047Y-74128333D01*
X125901428Y-74166428D01*
X125977619Y-74204523D01*
X126053809Y-74280714D01*
X126091904Y-74395000D01*
X126091904Y-74585476D01*
X125291904Y-73861666D02*
X125291904Y-73328333D01*
X126091904Y-73671190D01*
D12*
X128302380Y-58006904D02*
X127302380Y-58006904D01*
X127302380Y-57768809D01*
X127350000Y-57625952D01*
X127445238Y-57530714D01*
X127540476Y-57483095D01*
X127730952Y-57435476D01*
X127873809Y-57435476D01*
X128064285Y-57483095D01*
X128159523Y-57530714D01*
X128254761Y-57625952D01*
X128302380Y-57768809D01*
X128302380Y-58006904D01*
X128397619Y-57245000D02*
X128397619Y-56483095D01*
X128254761Y-56292619D02*
X128302380Y-56149761D01*
X128302380Y-55911666D01*
X128254761Y-55816428D01*
X128207142Y-55768809D01*
X128111904Y-55721190D01*
X128016666Y-55721190D01*
X127921428Y-55768809D01*
X127873809Y-55816428D01*
X127826190Y-55911666D01*
X127778571Y-56102142D01*
X127730952Y-56197380D01*
X127683333Y-56245000D01*
X127588095Y-56292619D01*
X127492857Y-56292619D01*
X127397619Y-56245000D01*
X127350000Y-56197380D01*
X127302380Y-56102142D01*
X127302380Y-55864047D01*
X127350000Y-55721190D01*
X128302380Y-55292619D02*
X127635714Y-55292619D01*
X127730952Y-55292619D02*
X127683333Y-55245000D01*
X127635714Y-55149761D01*
X127635714Y-55006904D01*
X127683333Y-54911666D01*
X127778571Y-54864047D01*
X128302380Y-54864047D01*
X127778571Y-54864047D02*
X127683333Y-54816428D01*
X127635714Y-54721190D01*
X127635714Y-54578333D01*
X127683333Y-54483095D01*
X127778571Y-54435476D01*
X128302380Y-54435476D01*
X128302380Y-53530714D02*
X127778571Y-53530714D01*
X127683333Y-53578333D01*
X127635714Y-53673571D01*
X127635714Y-53864047D01*
X127683333Y-53959285D01*
X128254761Y-53530714D02*
X128302380Y-53625952D01*
X128302380Y-53864047D01*
X128254761Y-53959285D01*
X128159523Y-54006904D01*
X128064285Y-54006904D01*
X127969047Y-53959285D01*
X127921428Y-53864047D01*
X127921428Y-53625952D01*
X127873809Y-53530714D01*
X128302380Y-52911666D02*
X128254761Y-53006904D01*
X128159523Y-53054523D01*
X127302380Y-53054523D01*
X128302380Y-52387857D02*
X128254761Y-52483095D01*
X128159523Y-52530714D01*
X127302380Y-52530714D01*
X124382380Y-60586904D02*
X123382380Y-60586904D01*
X124382380Y-60015476D02*
X123810952Y-60444047D01*
X123382380Y-60015476D02*
X123953809Y-60586904D01*
D11*
X126091904Y-55535476D02*
X125291904Y-55535476D01*
X125291904Y-55345000D01*
X125330000Y-55230714D01*
X125406190Y-55154523D01*
X125482380Y-55116428D01*
X125634761Y-55078333D01*
X125749047Y-55078333D01*
X125901428Y-55116428D01*
X125977619Y-55154523D01*
X126053809Y-55230714D01*
X126091904Y-55345000D01*
X126091904Y-55535476D01*
X125291904Y-54392619D02*
X125291904Y-54545000D01*
X125330000Y-54621190D01*
X125368095Y-54659285D01*
X125482380Y-54735476D01*
X125634761Y-54773571D01*
X125939523Y-54773571D01*
X126015714Y-54735476D01*
X126053809Y-54697380D01*
X126091904Y-54621190D01*
X126091904Y-54468809D01*
X126053809Y-54392619D01*
X126015714Y-54354523D01*
X125939523Y-54316428D01*
X125749047Y-54316428D01*
X125672857Y-54354523D01*
X125634761Y-54392619D01*
X125596666Y-54468809D01*
X125596666Y-54621190D01*
X125634761Y-54697380D01*
X125672857Y-54735476D01*
X125749047Y-54773571D01*
D12*
X109252380Y-134206904D02*
X108252380Y-134206904D01*
X108252380Y-133968809D01*
X108300000Y-133825952D01*
X108395238Y-133730714D01*
X108490476Y-133683095D01*
X108680952Y-133635476D01*
X108823809Y-133635476D01*
X109014285Y-133683095D01*
X109109523Y-133730714D01*
X109204761Y-133825952D01*
X109252380Y-133968809D01*
X109252380Y-134206904D01*
X109347619Y-133445000D02*
X109347619Y-132683095D01*
X109204761Y-132492619D02*
X109252380Y-132349761D01*
X109252380Y-132111666D01*
X109204761Y-132016428D01*
X109157142Y-131968809D01*
X109061904Y-131921190D01*
X108966666Y-131921190D01*
X108871428Y-131968809D01*
X108823809Y-132016428D01*
X108776190Y-132111666D01*
X108728571Y-132302142D01*
X108680952Y-132397380D01*
X108633333Y-132445000D01*
X108538095Y-132492619D01*
X108442857Y-132492619D01*
X108347619Y-132445000D01*
X108300000Y-132397380D01*
X108252380Y-132302142D01*
X108252380Y-132064047D01*
X108300000Y-131921190D01*
X109252380Y-131492619D02*
X108585714Y-131492619D01*
X108680952Y-131492619D02*
X108633333Y-131445000D01*
X108585714Y-131349761D01*
X108585714Y-131206904D01*
X108633333Y-131111666D01*
X108728571Y-131064047D01*
X109252380Y-131064047D01*
X108728571Y-131064047D02*
X108633333Y-131016428D01*
X108585714Y-130921190D01*
X108585714Y-130778333D01*
X108633333Y-130683095D01*
X108728571Y-130635476D01*
X109252380Y-130635476D01*
X109252380Y-129730714D02*
X108728571Y-129730714D01*
X108633333Y-129778333D01*
X108585714Y-129873571D01*
X108585714Y-130064047D01*
X108633333Y-130159285D01*
X109204761Y-129730714D02*
X109252380Y-129825952D01*
X109252380Y-130064047D01*
X109204761Y-130159285D01*
X109109523Y-130206904D01*
X109014285Y-130206904D01*
X108919047Y-130159285D01*
X108871428Y-130064047D01*
X108871428Y-129825952D01*
X108823809Y-129730714D01*
X109252380Y-129111666D02*
X109204761Y-129206904D01*
X109109523Y-129254523D01*
X108252380Y-129254523D01*
X109252380Y-128587857D02*
X109204761Y-128683095D01*
X109109523Y-128730714D01*
X108252380Y-128730714D01*
X105332380Y-136786904D02*
X104332380Y-136786904D01*
X105332380Y-136215476D02*
X104760952Y-136644047D01*
X104332380Y-136215476D02*
X104903809Y-136786904D01*
D11*
X107041904Y-131735476D02*
X106241904Y-131735476D01*
X106241904Y-131545000D01*
X106280000Y-131430714D01*
X106356190Y-131354523D01*
X106432380Y-131316428D01*
X106584761Y-131278333D01*
X106699047Y-131278333D01*
X106851428Y-131316428D01*
X106927619Y-131354523D01*
X107003809Y-131430714D01*
X107041904Y-131545000D01*
X107041904Y-131735476D01*
X106241904Y-130554523D02*
X106241904Y-130935476D01*
X106622857Y-130973571D01*
X106584761Y-130935476D01*
X106546666Y-130859285D01*
X106546666Y-130668809D01*
X106584761Y-130592619D01*
X106622857Y-130554523D01*
X106699047Y-130516428D01*
X106889523Y-130516428D01*
X106965714Y-130554523D01*
X107003809Y-130592619D01*
X107041904Y-130668809D01*
X107041904Y-130859285D01*
X107003809Y-130935476D01*
X106965714Y-130973571D01*
D12*
X109252380Y-115156904D02*
X108252380Y-115156904D01*
X108252380Y-114918809D01*
X108300000Y-114775952D01*
X108395238Y-114680714D01*
X108490476Y-114633095D01*
X108680952Y-114585476D01*
X108823809Y-114585476D01*
X109014285Y-114633095D01*
X109109523Y-114680714D01*
X109204761Y-114775952D01*
X109252380Y-114918809D01*
X109252380Y-115156904D01*
X109347619Y-114395000D02*
X109347619Y-113633095D01*
X109204761Y-113442619D02*
X109252380Y-113299761D01*
X109252380Y-113061666D01*
X109204761Y-112966428D01*
X109157142Y-112918809D01*
X109061904Y-112871190D01*
X108966666Y-112871190D01*
X108871428Y-112918809D01*
X108823809Y-112966428D01*
X108776190Y-113061666D01*
X108728571Y-113252142D01*
X108680952Y-113347380D01*
X108633333Y-113395000D01*
X108538095Y-113442619D01*
X108442857Y-113442619D01*
X108347619Y-113395000D01*
X108300000Y-113347380D01*
X108252380Y-113252142D01*
X108252380Y-113014047D01*
X108300000Y-112871190D01*
X109252380Y-112442619D02*
X108585714Y-112442619D01*
X108680952Y-112442619D02*
X108633333Y-112395000D01*
X108585714Y-112299761D01*
X108585714Y-112156904D01*
X108633333Y-112061666D01*
X108728571Y-112014047D01*
X109252380Y-112014047D01*
X108728571Y-112014047D02*
X108633333Y-111966428D01*
X108585714Y-111871190D01*
X108585714Y-111728333D01*
X108633333Y-111633095D01*
X108728571Y-111585476D01*
X109252380Y-111585476D01*
X109252380Y-110680714D02*
X108728571Y-110680714D01*
X108633333Y-110728333D01*
X108585714Y-110823571D01*
X108585714Y-111014047D01*
X108633333Y-111109285D01*
X109204761Y-110680714D02*
X109252380Y-110775952D01*
X109252380Y-111014047D01*
X109204761Y-111109285D01*
X109109523Y-111156904D01*
X109014285Y-111156904D01*
X108919047Y-111109285D01*
X108871428Y-111014047D01*
X108871428Y-110775952D01*
X108823809Y-110680714D01*
X109252380Y-110061666D02*
X109204761Y-110156904D01*
X109109523Y-110204523D01*
X108252380Y-110204523D01*
X109252380Y-109537857D02*
X109204761Y-109633095D01*
X109109523Y-109680714D01*
X108252380Y-109680714D01*
X105332380Y-117736904D02*
X104332380Y-117736904D01*
X105332380Y-117165476D02*
X104760952Y-117594047D01*
X104332380Y-117165476D02*
X104903809Y-117736904D01*
D11*
X107041904Y-112685476D02*
X106241904Y-112685476D01*
X106241904Y-112495000D01*
X106280000Y-112380714D01*
X106356190Y-112304523D01*
X106432380Y-112266428D01*
X106584761Y-112228333D01*
X106699047Y-112228333D01*
X106851428Y-112266428D01*
X106927619Y-112304523D01*
X107003809Y-112380714D01*
X107041904Y-112495000D01*
X107041904Y-112685476D01*
X106508571Y-111542619D02*
X107041904Y-111542619D01*
X106203809Y-111733095D02*
X106775238Y-111923571D01*
X106775238Y-111428333D01*
D12*
X109252380Y-96106904D02*
X108252380Y-96106904D01*
X108252380Y-95868809D01*
X108300000Y-95725952D01*
X108395238Y-95630714D01*
X108490476Y-95583095D01*
X108680952Y-95535476D01*
X108823809Y-95535476D01*
X109014285Y-95583095D01*
X109109523Y-95630714D01*
X109204761Y-95725952D01*
X109252380Y-95868809D01*
X109252380Y-96106904D01*
X109347619Y-95345000D02*
X109347619Y-94583095D01*
X109204761Y-94392619D02*
X109252380Y-94249761D01*
X109252380Y-94011666D01*
X109204761Y-93916428D01*
X109157142Y-93868809D01*
X109061904Y-93821190D01*
X108966666Y-93821190D01*
X108871428Y-93868809D01*
X108823809Y-93916428D01*
X108776190Y-94011666D01*
X108728571Y-94202142D01*
X108680952Y-94297380D01*
X108633333Y-94345000D01*
X108538095Y-94392619D01*
X108442857Y-94392619D01*
X108347619Y-94345000D01*
X108300000Y-94297380D01*
X108252380Y-94202142D01*
X108252380Y-93964047D01*
X108300000Y-93821190D01*
X109252380Y-93392619D02*
X108585714Y-93392619D01*
X108680952Y-93392619D02*
X108633333Y-93345000D01*
X108585714Y-93249761D01*
X108585714Y-93106904D01*
X108633333Y-93011666D01*
X108728571Y-92964047D01*
X109252380Y-92964047D01*
X108728571Y-92964047D02*
X108633333Y-92916428D01*
X108585714Y-92821190D01*
X108585714Y-92678333D01*
X108633333Y-92583095D01*
X108728571Y-92535476D01*
X109252380Y-92535476D01*
X109252380Y-91630714D02*
X108728571Y-91630714D01*
X108633333Y-91678333D01*
X108585714Y-91773571D01*
X108585714Y-91964047D01*
X108633333Y-92059285D01*
X109204761Y-91630714D02*
X109252380Y-91725952D01*
X109252380Y-91964047D01*
X109204761Y-92059285D01*
X109109523Y-92106904D01*
X109014285Y-92106904D01*
X108919047Y-92059285D01*
X108871428Y-91964047D01*
X108871428Y-91725952D01*
X108823809Y-91630714D01*
X109252380Y-91011666D02*
X109204761Y-91106904D01*
X109109523Y-91154523D01*
X108252380Y-91154523D01*
X109252380Y-90487857D02*
X109204761Y-90583095D01*
X109109523Y-90630714D01*
X108252380Y-90630714D01*
X105332380Y-98686904D02*
X104332380Y-98686904D01*
X105332380Y-98115476D02*
X104760952Y-98544047D01*
X104332380Y-98115476D02*
X104903809Y-98686904D01*
D11*
X107041904Y-93635476D02*
X106241904Y-93635476D01*
X106241904Y-93445000D01*
X106280000Y-93330714D01*
X106356190Y-93254523D01*
X106432380Y-93216428D01*
X106584761Y-93178333D01*
X106699047Y-93178333D01*
X106851428Y-93216428D01*
X106927619Y-93254523D01*
X107003809Y-93330714D01*
X107041904Y-93445000D01*
X107041904Y-93635476D01*
X106241904Y-92911666D02*
X106241904Y-92416428D01*
X106546666Y-92683095D01*
X106546666Y-92568809D01*
X106584761Y-92492619D01*
X106622857Y-92454523D01*
X106699047Y-92416428D01*
X106889523Y-92416428D01*
X106965714Y-92454523D01*
X107003809Y-92492619D01*
X107041904Y-92568809D01*
X107041904Y-92797380D01*
X107003809Y-92873571D01*
X106965714Y-92911666D01*
D12*
X109252380Y-77056904D02*
X108252380Y-77056904D01*
X108252380Y-76818809D01*
X108300000Y-76675952D01*
X108395238Y-76580714D01*
X108490476Y-76533095D01*
X108680952Y-76485476D01*
X108823809Y-76485476D01*
X109014285Y-76533095D01*
X109109523Y-76580714D01*
X109204761Y-76675952D01*
X109252380Y-76818809D01*
X109252380Y-77056904D01*
X109347619Y-76295000D02*
X109347619Y-75533095D01*
X109204761Y-75342619D02*
X109252380Y-75199761D01*
X109252380Y-74961666D01*
X109204761Y-74866428D01*
X109157142Y-74818809D01*
X109061904Y-74771190D01*
X108966666Y-74771190D01*
X108871428Y-74818809D01*
X108823809Y-74866428D01*
X108776190Y-74961666D01*
X108728571Y-75152142D01*
X108680952Y-75247380D01*
X108633333Y-75295000D01*
X108538095Y-75342619D01*
X108442857Y-75342619D01*
X108347619Y-75295000D01*
X108300000Y-75247380D01*
X108252380Y-75152142D01*
X108252380Y-74914047D01*
X108300000Y-74771190D01*
X109252380Y-74342619D02*
X108585714Y-74342619D01*
X108680952Y-74342619D02*
X108633333Y-74295000D01*
X108585714Y-74199761D01*
X108585714Y-74056904D01*
X108633333Y-73961666D01*
X108728571Y-73914047D01*
X109252380Y-73914047D01*
X108728571Y-73914047D02*
X108633333Y-73866428D01*
X108585714Y-73771190D01*
X108585714Y-73628333D01*
X108633333Y-73533095D01*
X108728571Y-73485476D01*
X109252380Y-73485476D01*
X109252380Y-72580714D02*
X108728571Y-72580714D01*
X108633333Y-72628333D01*
X108585714Y-72723571D01*
X108585714Y-72914047D01*
X108633333Y-73009285D01*
X109204761Y-72580714D02*
X109252380Y-72675952D01*
X109252380Y-72914047D01*
X109204761Y-73009285D01*
X109109523Y-73056904D01*
X109014285Y-73056904D01*
X108919047Y-73009285D01*
X108871428Y-72914047D01*
X108871428Y-72675952D01*
X108823809Y-72580714D01*
X109252380Y-71961666D02*
X109204761Y-72056904D01*
X109109523Y-72104523D01*
X108252380Y-72104523D01*
X109252380Y-71437857D02*
X109204761Y-71533095D01*
X109109523Y-71580714D01*
X108252380Y-71580714D01*
X105332380Y-79636904D02*
X104332380Y-79636904D01*
X105332380Y-79065476D02*
X104760952Y-79494047D01*
X104332380Y-79065476D02*
X104903809Y-79636904D01*
D11*
X107041904Y-74585476D02*
X106241904Y-74585476D01*
X106241904Y-74395000D01*
X106280000Y-74280714D01*
X106356190Y-74204523D01*
X106432380Y-74166428D01*
X106584761Y-74128333D01*
X106699047Y-74128333D01*
X106851428Y-74166428D01*
X106927619Y-74204523D01*
X107003809Y-74280714D01*
X107041904Y-74395000D01*
X107041904Y-74585476D01*
X106318095Y-73823571D02*
X106280000Y-73785476D01*
X106241904Y-73709285D01*
X106241904Y-73518809D01*
X106280000Y-73442619D01*
X106318095Y-73404523D01*
X106394285Y-73366428D01*
X106470476Y-73366428D01*
X106584761Y-73404523D01*
X107041904Y-73861666D01*
X107041904Y-73366428D01*
D12*
X109252380Y-58006904D02*
X108252380Y-58006904D01*
X108252380Y-57768809D01*
X108300000Y-57625952D01*
X108395238Y-57530714D01*
X108490476Y-57483095D01*
X108680952Y-57435476D01*
X108823809Y-57435476D01*
X109014285Y-57483095D01*
X109109523Y-57530714D01*
X109204761Y-57625952D01*
X109252380Y-57768809D01*
X109252380Y-58006904D01*
X109347619Y-57245000D02*
X109347619Y-56483095D01*
X109204761Y-56292619D02*
X109252380Y-56149761D01*
X109252380Y-55911666D01*
X109204761Y-55816428D01*
X109157142Y-55768809D01*
X109061904Y-55721190D01*
X108966666Y-55721190D01*
X108871428Y-55768809D01*
X108823809Y-55816428D01*
X108776190Y-55911666D01*
X108728571Y-56102142D01*
X108680952Y-56197380D01*
X108633333Y-56245000D01*
X108538095Y-56292619D01*
X108442857Y-56292619D01*
X108347619Y-56245000D01*
X108300000Y-56197380D01*
X108252380Y-56102142D01*
X108252380Y-55864047D01*
X108300000Y-55721190D01*
X109252380Y-55292619D02*
X108585714Y-55292619D01*
X108680952Y-55292619D02*
X108633333Y-55245000D01*
X108585714Y-55149761D01*
X108585714Y-55006904D01*
X108633333Y-54911666D01*
X108728571Y-54864047D01*
X109252380Y-54864047D01*
X108728571Y-54864047D02*
X108633333Y-54816428D01*
X108585714Y-54721190D01*
X108585714Y-54578333D01*
X108633333Y-54483095D01*
X108728571Y-54435476D01*
X109252380Y-54435476D01*
X109252380Y-53530714D02*
X108728571Y-53530714D01*
X108633333Y-53578333D01*
X108585714Y-53673571D01*
X108585714Y-53864047D01*
X108633333Y-53959285D01*
X109204761Y-53530714D02*
X109252380Y-53625952D01*
X109252380Y-53864047D01*
X109204761Y-53959285D01*
X109109523Y-54006904D01*
X109014285Y-54006904D01*
X108919047Y-53959285D01*
X108871428Y-53864047D01*
X108871428Y-53625952D01*
X108823809Y-53530714D01*
X109252380Y-52911666D02*
X109204761Y-53006904D01*
X109109523Y-53054523D01*
X108252380Y-53054523D01*
X109252380Y-52387857D02*
X109204761Y-52483095D01*
X109109523Y-52530714D01*
X108252380Y-52530714D01*
X105332380Y-60586904D02*
X104332380Y-60586904D01*
X105332380Y-60015476D02*
X104760952Y-60444047D01*
X104332380Y-60015476D02*
X104903809Y-60586904D01*
M02*
