G04 #@! TF.GenerationSoftware,KiCad,Pcbnew,(5.1.10)-1*
G04 #@! TF.CreationDate,2021-09-16T00:51:03+02:00*
G04 #@! TF.ProjectId,SheepyPad,53686565-7079-4506-9164-2e6b69636164,rev?*
G04 #@! TF.SameCoordinates,Original*
G04 #@! TF.FileFunction,Other,Fab,Bot*
%FSLAX46Y46*%
G04 Gerber Fmt 4.6, Leading zero omitted, Abs format (unit mm)*
G04 Created by KiCad (PCBNEW (5.1.10)-1) date 2021-09-16 00:51:03*
%MOMM*%
%LPD*%
G01*
G04 APERTURE LIST*
%ADD10C,0.100000*%
%ADD11C,0.150000*%
G04 APERTURE END LIST*
D10*
X114395000Y-64770000D02*
G75*
G03*
X114395000Y-64770000I-2000000J0D01*
G01*
X114895000Y-67270000D02*
X109895000Y-67270000D01*
X114895000Y-62270000D02*
X114895000Y-67270000D01*
X109895000Y-62270000D02*
X114895000Y-62270000D01*
X109895000Y-67270000D02*
X109895000Y-62270000D01*
X114895000Y-63270000D02*
X113895000Y-62270000D01*
X114395000Y-121920000D02*
G75*
G03*
X114395000Y-121920000I-2000000J0D01*
G01*
X109895000Y-119420000D02*
X114895000Y-119420000D01*
X109895000Y-124420000D02*
X109895000Y-119420000D01*
X114895000Y-124420000D02*
X109895000Y-124420000D01*
X114895000Y-119420000D02*
X114895000Y-124420000D01*
X109895000Y-123420000D02*
X110895000Y-124420000D01*
X179165000Y-64770000D02*
G75*
G03*
X179165000Y-64770000I-2000000J0D01*
G01*
X179665000Y-67270000D02*
X174665000Y-67270000D01*
X179665000Y-62270000D02*
X179665000Y-67270000D01*
X174665000Y-62270000D02*
X179665000Y-62270000D01*
X174665000Y-67270000D02*
X174665000Y-62270000D01*
X179665000Y-63270000D02*
X178665000Y-62270000D01*
X82645000Y-93345000D02*
G75*
G03*
X82645000Y-93345000I-2000000J0D01*
G01*
X78145000Y-90845000D02*
X83145000Y-90845000D01*
X78145000Y-95845000D02*
X78145000Y-90845000D01*
X83145000Y-95845000D02*
X78145000Y-95845000D01*
X83145000Y-90845000D02*
X83145000Y-95845000D01*
X78145000Y-94845000D02*
X79145000Y-95845000D01*
X179165000Y-121920000D02*
G75*
G03*
X179165000Y-121920000I-2000000J0D01*
G01*
X174665000Y-119420000D02*
X179665000Y-119420000D01*
X174665000Y-124420000D02*
X174665000Y-119420000D01*
X179665000Y-124420000D02*
X174665000Y-124420000D01*
X179665000Y-119420000D02*
X179665000Y-124420000D01*
X174665000Y-123420000D02*
X175665000Y-124420000D01*
X68675000Y-54610000D02*
G75*
G03*
X68675000Y-54610000I-2000000J0D01*
G01*
X69175000Y-57110000D02*
X64175000Y-57110000D01*
X69175000Y-52110000D02*
X69175000Y-57110000D01*
X64175000Y-52110000D02*
X69175000Y-52110000D01*
X64175000Y-57110000D02*
X64175000Y-52110000D01*
X69175000Y-53110000D02*
X68175000Y-52110000D01*
D11*
X115704523Y-60222380D02*
X115466428Y-61222380D01*
X115275952Y-60508095D01*
X115085476Y-61222380D01*
X114847380Y-60222380D01*
X114514047Y-61174761D02*
X114371190Y-61222380D01*
X114133095Y-61222380D01*
X114037857Y-61174761D01*
X113990238Y-61127142D01*
X113942619Y-61031904D01*
X113942619Y-60936666D01*
X113990238Y-60841428D01*
X114037857Y-60793809D01*
X114133095Y-60746190D01*
X114323571Y-60698571D01*
X114418809Y-60650952D01*
X114466428Y-60603333D01*
X114514047Y-60508095D01*
X114514047Y-60412857D01*
X114466428Y-60317619D01*
X114418809Y-60270000D01*
X114323571Y-60222380D01*
X114085476Y-60222380D01*
X113942619Y-60270000D01*
X113561666Y-60317619D02*
X113514047Y-60270000D01*
X113418809Y-60222380D01*
X113180714Y-60222380D01*
X113085476Y-60270000D01*
X113037857Y-60317619D01*
X112990238Y-60412857D01*
X112990238Y-60508095D01*
X113037857Y-60650952D01*
X113609285Y-61222380D01*
X112990238Y-61222380D01*
X112418809Y-60650952D02*
X112514047Y-60603333D01*
X112561666Y-60555714D01*
X112609285Y-60460476D01*
X112609285Y-60412857D01*
X112561666Y-60317619D01*
X112514047Y-60270000D01*
X112418809Y-60222380D01*
X112228333Y-60222380D01*
X112133095Y-60270000D01*
X112085476Y-60317619D01*
X112037857Y-60412857D01*
X112037857Y-60460476D01*
X112085476Y-60555714D01*
X112133095Y-60603333D01*
X112228333Y-60650952D01*
X112418809Y-60650952D01*
X112514047Y-60698571D01*
X112561666Y-60746190D01*
X112609285Y-60841428D01*
X112609285Y-61031904D01*
X112561666Y-61127142D01*
X112514047Y-61174761D01*
X112418809Y-61222380D01*
X112228333Y-61222380D01*
X112133095Y-61174761D01*
X112085476Y-61127142D01*
X112037857Y-61031904D01*
X112037857Y-60841428D01*
X112085476Y-60746190D01*
X112133095Y-60698571D01*
X112228333Y-60650952D01*
X111085476Y-61222380D02*
X111656904Y-61222380D01*
X111371190Y-61222380D02*
X111371190Y-60222380D01*
X111466428Y-60365238D01*
X111561666Y-60460476D01*
X111656904Y-60508095D01*
X110704523Y-60317619D02*
X110656904Y-60270000D01*
X110561666Y-60222380D01*
X110323571Y-60222380D01*
X110228333Y-60270000D01*
X110180714Y-60317619D01*
X110133095Y-60412857D01*
X110133095Y-60508095D01*
X110180714Y-60650952D01*
X110752142Y-61222380D01*
X110133095Y-61222380D01*
X109371190Y-60698571D02*
X109228333Y-60746190D01*
X109180714Y-60793809D01*
X109133095Y-60889047D01*
X109133095Y-61031904D01*
X109180714Y-61127142D01*
X109228333Y-61174761D01*
X109323571Y-61222380D01*
X109704523Y-61222380D01*
X109704523Y-60222380D01*
X109371190Y-60222380D01*
X109275952Y-60270000D01*
X109228333Y-60317619D01*
X109180714Y-60412857D01*
X109180714Y-60508095D01*
X109228333Y-60603333D01*
X109275952Y-60650952D01*
X109371190Y-60698571D01*
X109704523Y-60698571D01*
X113366428Y-65131904D02*
X113366428Y-64331904D01*
X113175952Y-64331904D01*
X113061666Y-64370000D01*
X112985476Y-64446190D01*
X112947380Y-64522380D01*
X112909285Y-64674761D01*
X112909285Y-64789047D01*
X112947380Y-64941428D01*
X112985476Y-65017619D01*
X113061666Y-65093809D01*
X113175952Y-65131904D01*
X113366428Y-65131904D01*
X112604523Y-64408095D02*
X112566428Y-64370000D01*
X112490238Y-64331904D01*
X112299761Y-64331904D01*
X112223571Y-64370000D01*
X112185476Y-64408095D01*
X112147380Y-64484285D01*
X112147380Y-64560476D01*
X112185476Y-64674761D01*
X112642619Y-65131904D01*
X112147380Y-65131904D01*
X111880714Y-64331904D02*
X111347380Y-64331904D01*
X111690238Y-65131904D01*
X115704523Y-125372380D02*
X115466428Y-126372380D01*
X115275952Y-125658095D01*
X115085476Y-126372380D01*
X114847380Y-125372380D01*
X114514047Y-126324761D02*
X114371190Y-126372380D01*
X114133095Y-126372380D01*
X114037857Y-126324761D01*
X113990238Y-126277142D01*
X113942619Y-126181904D01*
X113942619Y-126086666D01*
X113990238Y-125991428D01*
X114037857Y-125943809D01*
X114133095Y-125896190D01*
X114323571Y-125848571D01*
X114418809Y-125800952D01*
X114466428Y-125753333D01*
X114514047Y-125658095D01*
X114514047Y-125562857D01*
X114466428Y-125467619D01*
X114418809Y-125420000D01*
X114323571Y-125372380D01*
X114085476Y-125372380D01*
X113942619Y-125420000D01*
X113561666Y-125467619D02*
X113514047Y-125420000D01*
X113418809Y-125372380D01*
X113180714Y-125372380D01*
X113085476Y-125420000D01*
X113037857Y-125467619D01*
X112990238Y-125562857D01*
X112990238Y-125658095D01*
X113037857Y-125800952D01*
X113609285Y-126372380D01*
X112990238Y-126372380D01*
X112418809Y-125800952D02*
X112514047Y-125753333D01*
X112561666Y-125705714D01*
X112609285Y-125610476D01*
X112609285Y-125562857D01*
X112561666Y-125467619D01*
X112514047Y-125420000D01*
X112418809Y-125372380D01*
X112228333Y-125372380D01*
X112133095Y-125420000D01*
X112085476Y-125467619D01*
X112037857Y-125562857D01*
X112037857Y-125610476D01*
X112085476Y-125705714D01*
X112133095Y-125753333D01*
X112228333Y-125800952D01*
X112418809Y-125800952D01*
X112514047Y-125848571D01*
X112561666Y-125896190D01*
X112609285Y-125991428D01*
X112609285Y-126181904D01*
X112561666Y-126277142D01*
X112514047Y-126324761D01*
X112418809Y-126372380D01*
X112228333Y-126372380D01*
X112133095Y-126324761D01*
X112085476Y-126277142D01*
X112037857Y-126181904D01*
X112037857Y-125991428D01*
X112085476Y-125896190D01*
X112133095Y-125848571D01*
X112228333Y-125800952D01*
X111085476Y-126372380D02*
X111656904Y-126372380D01*
X111371190Y-126372380D02*
X111371190Y-125372380D01*
X111466428Y-125515238D01*
X111561666Y-125610476D01*
X111656904Y-125658095D01*
X110704523Y-125467619D02*
X110656904Y-125420000D01*
X110561666Y-125372380D01*
X110323571Y-125372380D01*
X110228333Y-125420000D01*
X110180714Y-125467619D01*
X110133095Y-125562857D01*
X110133095Y-125658095D01*
X110180714Y-125800952D01*
X110752142Y-126372380D01*
X110133095Y-126372380D01*
X109371190Y-125848571D02*
X109228333Y-125896190D01*
X109180714Y-125943809D01*
X109133095Y-126039047D01*
X109133095Y-126181904D01*
X109180714Y-126277142D01*
X109228333Y-126324761D01*
X109323571Y-126372380D01*
X109704523Y-126372380D01*
X109704523Y-125372380D01*
X109371190Y-125372380D01*
X109275952Y-125420000D01*
X109228333Y-125467619D01*
X109180714Y-125562857D01*
X109180714Y-125658095D01*
X109228333Y-125753333D01*
X109275952Y-125800952D01*
X109371190Y-125848571D01*
X109704523Y-125848571D01*
X113366428Y-122281904D02*
X113366428Y-121481904D01*
X113175952Y-121481904D01*
X113061666Y-121520000D01*
X112985476Y-121596190D01*
X112947380Y-121672380D01*
X112909285Y-121824761D01*
X112909285Y-121939047D01*
X112947380Y-122091428D01*
X112985476Y-122167619D01*
X113061666Y-122243809D01*
X113175952Y-122281904D01*
X113366428Y-122281904D01*
X112604523Y-121558095D02*
X112566428Y-121520000D01*
X112490238Y-121481904D01*
X112299761Y-121481904D01*
X112223571Y-121520000D01*
X112185476Y-121558095D01*
X112147380Y-121634285D01*
X112147380Y-121710476D01*
X112185476Y-121824761D01*
X112642619Y-122281904D01*
X112147380Y-122281904D01*
X111461666Y-121481904D02*
X111614047Y-121481904D01*
X111690238Y-121520000D01*
X111728333Y-121558095D01*
X111804523Y-121672380D01*
X111842619Y-121824761D01*
X111842619Y-122129523D01*
X111804523Y-122205714D01*
X111766428Y-122243809D01*
X111690238Y-122281904D01*
X111537857Y-122281904D01*
X111461666Y-122243809D01*
X111423571Y-122205714D01*
X111385476Y-122129523D01*
X111385476Y-121939047D01*
X111423571Y-121862857D01*
X111461666Y-121824761D01*
X111537857Y-121786666D01*
X111690238Y-121786666D01*
X111766428Y-121824761D01*
X111804523Y-121862857D01*
X111842619Y-121939047D01*
X180474523Y-60222380D02*
X180236428Y-61222380D01*
X180045952Y-60508095D01*
X179855476Y-61222380D01*
X179617380Y-60222380D01*
X179284047Y-61174761D02*
X179141190Y-61222380D01*
X178903095Y-61222380D01*
X178807857Y-61174761D01*
X178760238Y-61127142D01*
X178712619Y-61031904D01*
X178712619Y-60936666D01*
X178760238Y-60841428D01*
X178807857Y-60793809D01*
X178903095Y-60746190D01*
X179093571Y-60698571D01*
X179188809Y-60650952D01*
X179236428Y-60603333D01*
X179284047Y-60508095D01*
X179284047Y-60412857D01*
X179236428Y-60317619D01*
X179188809Y-60270000D01*
X179093571Y-60222380D01*
X178855476Y-60222380D01*
X178712619Y-60270000D01*
X178331666Y-60317619D02*
X178284047Y-60270000D01*
X178188809Y-60222380D01*
X177950714Y-60222380D01*
X177855476Y-60270000D01*
X177807857Y-60317619D01*
X177760238Y-60412857D01*
X177760238Y-60508095D01*
X177807857Y-60650952D01*
X178379285Y-61222380D01*
X177760238Y-61222380D01*
X177188809Y-60650952D02*
X177284047Y-60603333D01*
X177331666Y-60555714D01*
X177379285Y-60460476D01*
X177379285Y-60412857D01*
X177331666Y-60317619D01*
X177284047Y-60270000D01*
X177188809Y-60222380D01*
X176998333Y-60222380D01*
X176903095Y-60270000D01*
X176855476Y-60317619D01*
X176807857Y-60412857D01*
X176807857Y-60460476D01*
X176855476Y-60555714D01*
X176903095Y-60603333D01*
X176998333Y-60650952D01*
X177188809Y-60650952D01*
X177284047Y-60698571D01*
X177331666Y-60746190D01*
X177379285Y-60841428D01*
X177379285Y-61031904D01*
X177331666Y-61127142D01*
X177284047Y-61174761D01*
X177188809Y-61222380D01*
X176998333Y-61222380D01*
X176903095Y-61174761D01*
X176855476Y-61127142D01*
X176807857Y-61031904D01*
X176807857Y-60841428D01*
X176855476Y-60746190D01*
X176903095Y-60698571D01*
X176998333Y-60650952D01*
X175855476Y-61222380D02*
X176426904Y-61222380D01*
X176141190Y-61222380D02*
X176141190Y-60222380D01*
X176236428Y-60365238D01*
X176331666Y-60460476D01*
X176426904Y-60508095D01*
X175474523Y-60317619D02*
X175426904Y-60270000D01*
X175331666Y-60222380D01*
X175093571Y-60222380D01*
X174998333Y-60270000D01*
X174950714Y-60317619D01*
X174903095Y-60412857D01*
X174903095Y-60508095D01*
X174950714Y-60650952D01*
X175522142Y-61222380D01*
X174903095Y-61222380D01*
X174141190Y-60698571D02*
X173998333Y-60746190D01*
X173950714Y-60793809D01*
X173903095Y-60889047D01*
X173903095Y-61031904D01*
X173950714Y-61127142D01*
X173998333Y-61174761D01*
X174093571Y-61222380D01*
X174474523Y-61222380D01*
X174474523Y-60222380D01*
X174141190Y-60222380D01*
X174045952Y-60270000D01*
X173998333Y-60317619D01*
X173950714Y-60412857D01*
X173950714Y-60508095D01*
X173998333Y-60603333D01*
X174045952Y-60650952D01*
X174141190Y-60698571D01*
X174474523Y-60698571D01*
X178136428Y-65131904D02*
X178136428Y-64331904D01*
X177945952Y-64331904D01*
X177831666Y-64370000D01*
X177755476Y-64446190D01*
X177717380Y-64522380D01*
X177679285Y-64674761D01*
X177679285Y-64789047D01*
X177717380Y-64941428D01*
X177755476Y-65017619D01*
X177831666Y-65093809D01*
X177945952Y-65131904D01*
X178136428Y-65131904D01*
X177374523Y-64408095D02*
X177336428Y-64370000D01*
X177260238Y-64331904D01*
X177069761Y-64331904D01*
X176993571Y-64370000D01*
X176955476Y-64408095D01*
X176917380Y-64484285D01*
X176917380Y-64560476D01*
X176955476Y-64674761D01*
X177412619Y-65131904D01*
X176917380Y-65131904D01*
X176193571Y-64331904D02*
X176574523Y-64331904D01*
X176612619Y-64712857D01*
X176574523Y-64674761D01*
X176498333Y-64636666D01*
X176307857Y-64636666D01*
X176231666Y-64674761D01*
X176193571Y-64712857D01*
X176155476Y-64789047D01*
X176155476Y-64979523D01*
X176193571Y-65055714D01*
X176231666Y-65093809D01*
X176307857Y-65131904D01*
X176498333Y-65131904D01*
X176574523Y-65093809D01*
X176612619Y-65055714D01*
X83954523Y-96797380D02*
X83716428Y-97797380D01*
X83525952Y-97083095D01*
X83335476Y-97797380D01*
X83097380Y-96797380D01*
X82764047Y-97749761D02*
X82621190Y-97797380D01*
X82383095Y-97797380D01*
X82287857Y-97749761D01*
X82240238Y-97702142D01*
X82192619Y-97606904D01*
X82192619Y-97511666D01*
X82240238Y-97416428D01*
X82287857Y-97368809D01*
X82383095Y-97321190D01*
X82573571Y-97273571D01*
X82668809Y-97225952D01*
X82716428Y-97178333D01*
X82764047Y-97083095D01*
X82764047Y-96987857D01*
X82716428Y-96892619D01*
X82668809Y-96845000D01*
X82573571Y-96797380D01*
X82335476Y-96797380D01*
X82192619Y-96845000D01*
X81811666Y-96892619D02*
X81764047Y-96845000D01*
X81668809Y-96797380D01*
X81430714Y-96797380D01*
X81335476Y-96845000D01*
X81287857Y-96892619D01*
X81240238Y-96987857D01*
X81240238Y-97083095D01*
X81287857Y-97225952D01*
X81859285Y-97797380D01*
X81240238Y-97797380D01*
X80668809Y-97225952D02*
X80764047Y-97178333D01*
X80811666Y-97130714D01*
X80859285Y-97035476D01*
X80859285Y-96987857D01*
X80811666Y-96892619D01*
X80764047Y-96845000D01*
X80668809Y-96797380D01*
X80478333Y-96797380D01*
X80383095Y-96845000D01*
X80335476Y-96892619D01*
X80287857Y-96987857D01*
X80287857Y-97035476D01*
X80335476Y-97130714D01*
X80383095Y-97178333D01*
X80478333Y-97225952D01*
X80668809Y-97225952D01*
X80764047Y-97273571D01*
X80811666Y-97321190D01*
X80859285Y-97416428D01*
X80859285Y-97606904D01*
X80811666Y-97702142D01*
X80764047Y-97749761D01*
X80668809Y-97797380D01*
X80478333Y-97797380D01*
X80383095Y-97749761D01*
X80335476Y-97702142D01*
X80287857Y-97606904D01*
X80287857Y-97416428D01*
X80335476Y-97321190D01*
X80383095Y-97273571D01*
X80478333Y-97225952D01*
X79335476Y-97797380D02*
X79906904Y-97797380D01*
X79621190Y-97797380D02*
X79621190Y-96797380D01*
X79716428Y-96940238D01*
X79811666Y-97035476D01*
X79906904Y-97083095D01*
X78954523Y-96892619D02*
X78906904Y-96845000D01*
X78811666Y-96797380D01*
X78573571Y-96797380D01*
X78478333Y-96845000D01*
X78430714Y-96892619D01*
X78383095Y-96987857D01*
X78383095Y-97083095D01*
X78430714Y-97225952D01*
X79002142Y-97797380D01*
X78383095Y-97797380D01*
X77621190Y-97273571D02*
X77478333Y-97321190D01*
X77430714Y-97368809D01*
X77383095Y-97464047D01*
X77383095Y-97606904D01*
X77430714Y-97702142D01*
X77478333Y-97749761D01*
X77573571Y-97797380D01*
X77954523Y-97797380D01*
X77954523Y-96797380D01*
X77621190Y-96797380D01*
X77525952Y-96845000D01*
X77478333Y-96892619D01*
X77430714Y-96987857D01*
X77430714Y-97083095D01*
X77478333Y-97178333D01*
X77525952Y-97225952D01*
X77621190Y-97273571D01*
X77954523Y-97273571D01*
X81616428Y-93706904D02*
X81616428Y-92906904D01*
X81425952Y-92906904D01*
X81311666Y-92945000D01*
X81235476Y-93021190D01*
X81197380Y-93097380D01*
X81159285Y-93249761D01*
X81159285Y-93364047D01*
X81197380Y-93516428D01*
X81235476Y-93592619D01*
X81311666Y-93668809D01*
X81425952Y-93706904D01*
X81616428Y-93706904D01*
X80854523Y-92983095D02*
X80816428Y-92945000D01*
X80740238Y-92906904D01*
X80549761Y-92906904D01*
X80473571Y-92945000D01*
X80435476Y-92983095D01*
X80397380Y-93059285D01*
X80397380Y-93135476D01*
X80435476Y-93249761D01*
X80892619Y-93706904D01*
X80397380Y-93706904D01*
X79711666Y-93173571D02*
X79711666Y-93706904D01*
X79902142Y-92868809D02*
X80092619Y-93440238D01*
X79597380Y-93440238D01*
X180474523Y-125372380D02*
X180236428Y-126372380D01*
X180045952Y-125658095D01*
X179855476Y-126372380D01*
X179617380Y-125372380D01*
X179284047Y-126324761D02*
X179141190Y-126372380D01*
X178903095Y-126372380D01*
X178807857Y-126324761D01*
X178760238Y-126277142D01*
X178712619Y-126181904D01*
X178712619Y-126086666D01*
X178760238Y-125991428D01*
X178807857Y-125943809D01*
X178903095Y-125896190D01*
X179093571Y-125848571D01*
X179188809Y-125800952D01*
X179236428Y-125753333D01*
X179284047Y-125658095D01*
X179284047Y-125562857D01*
X179236428Y-125467619D01*
X179188809Y-125420000D01*
X179093571Y-125372380D01*
X178855476Y-125372380D01*
X178712619Y-125420000D01*
X178331666Y-125467619D02*
X178284047Y-125420000D01*
X178188809Y-125372380D01*
X177950714Y-125372380D01*
X177855476Y-125420000D01*
X177807857Y-125467619D01*
X177760238Y-125562857D01*
X177760238Y-125658095D01*
X177807857Y-125800952D01*
X178379285Y-126372380D01*
X177760238Y-126372380D01*
X177188809Y-125800952D02*
X177284047Y-125753333D01*
X177331666Y-125705714D01*
X177379285Y-125610476D01*
X177379285Y-125562857D01*
X177331666Y-125467619D01*
X177284047Y-125420000D01*
X177188809Y-125372380D01*
X176998333Y-125372380D01*
X176903095Y-125420000D01*
X176855476Y-125467619D01*
X176807857Y-125562857D01*
X176807857Y-125610476D01*
X176855476Y-125705714D01*
X176903095Y-125753333D01*
X176998333Y-125800952D01*
X177188809Y-125800952D01*
X177284047Y-125848571D01*
X177331666Y-125896190D01*
X177379285Y-125991428D01*
X177379285Y-126181904D01*
X177331666Y-126277142D01*
X177284047Y-126324761D01*
X177188809Y-126372380D01*
X176998333Y-126372380D01*
X176903095Y-126324761D01*
X176855476Y-126277142D01*
X176807857Y-126181904D01*
X176807857Y-125991428D01*
X176855476Y-125896190D01*
X176903095Y-125848571D01*
X176998333Y-125800952D01*
X175855476Y-126372380D02*
X176426904Y-126372380D01*
X176141190Y-126372380D02*
X176141190Y-125372380D01*
X176236428Y-125515238D01*
X176331666Y-125610476D01*
X176426904Y-125658095D01*
X175474523Y-125467619D02*
X175426904Y-125420000D01*
X175331666Y-125372380D01*
X175093571Y-125372380D01*
X174998333Y-125420000D01*
X174950714Y-125467619D01*
X174903095Y-125562857D01*
X174903095Y-125658095D01*
X174950714Y-125800952D01*
X175522142Y-126372380D01*
X174903095Y-126372380D01*
X174141190Y-125848571D02*
X173998333Y-125896190D01*
X173950714Y-125943809D01*
X173903095Y-126039047D01*
X173903095Y-126181904D01*
X173950714Y-126277142D01*
X173998333Y-126324761D01*
X174093571Y-126372380D01*
X174474523Y-126372380D01*
X174474523Y-125372380D01*
X174141190Y-125372380D01*
X174045952Y-125420000D01*
X173998333Y-125467619D01*
X173950714Y-125562857D01*
X173950714Y-125658095D01*
X173998333Y-125753333D01*
X174045952Y-125800952D01*
X174141190Y-125848571D01*
X174474523Y-125848571D01*
X178136428Y-122281904D02*
X178136428Y-121481904D01*
X177945952Y-121481904D01*
X177831666Y-121520000D01*
X177755476Y-121596190D01*
X177717380Y-121672380D01*
X177679285Y-121824761D01*
X177679285Y-121939047D01*
X177717380Y-122091428D01*
X177755476Y-122167619D01*
X177831666Y-122243809D01*
X177945952Y-122281904D01*
X178136428Y-122281904D01*
X177374523Y-121558095D02*
X177336428Y-121520000D01*
X177260238Y-121481904D01*
X177069761Y-121481904D01*
X176993571Y-121520000D01*
X176955476Y-121558095D01*
X176917380Y-121634285D01*
X176917380Y-121710476D01*
X176955476Y-121824761D01*
X177412619Y-122281904D01*
X176917380Y-122281904D01*
X176650714Y-121481904D02*
X176155476Y-121481904D01*
X176422142Y-121786666D01*
X176307857Y-121786666D01*
X176231666Y-121824761D01*
X176193571Y-121862857D01*
X176155476Y-121939047D01*
X176155476Y-122129523D01*
X176193571Y-122205714D01*
X176231666Y-122243809D01*
X176307857Y-122281904D01*
X176536428Y-122281904D01*
X176612619Y-122243809D01*
X176650714Y-122205714D01*
X69984523Y-50062380D02*
X69746428Y-51062380D01*
X69555952Y-50348095D01*
X69365476Y-51062380D01*
X69127380Y-50062380D01*
X68794047Y-51014761D02*
X68651190Y-51062380D01*
X68413095Y-51062380D01*
X68317857Y-51014761D01*
X68270238Y-50967142D01*
X68222619Y-50871904D01*
X68222619Y-50776666D01*
X68270238Y-50681428D01*
X68317857Y-50633809D01*
X68413095Y-50586190D01*
X68603571Y-50538571D01*
X68698809Y-50490952D01*
X68746428Y-50443333D01*
X68794047Y-50348095D01*
X68794047Y-50252857D01*
X68746428Y-50157619D01*
X68698809Y-50110000D01*
X68603571Y-50062380D01*
X68365476Y-50062380D01*
X68222619Y-50110000D01*
X67841666Y-50157619D02*
X67794047Y-50110000D01*
X67698809Y-50062380D01*
X67460714Y-50062380D01*
X67365476Y-50110000D01*
X67317857Y-50157619D01*
X67270238Y-50252857D01*
X67270238Y-50348095D01*
X67317857Y-50490952D01*
X67889285Y-51062380D01*
X67270238Y-51062380D01*
X66698809Y-50490952D02*
X66794047Y-50443333D01*
X66841666Y-50395714D01*
X66889285Y-50300476D01*
X66889285Y-50252857D01*
X66841666Y-50157619D01*
X66794047Y-50110000D01*
X66698809Y-50062380D01*
X66508333Y-50062380D01*
X66413095Y-50110000D01*
X66365476Y-50157619D01*
X66317857Y-50252857D01*
X66317857Y-50300476D01*
X66365476Y-50395714D01*
X66413095Y-50443333D01*
X66508333Y-50490952D01*
X66698809Y-50490952D01*
X66794047Y-50538571D01*
X66841666Y-50586190D01*
X66889285Y-50681428D01*
X66889285Y-50871904D01*
X66841666Y-50967142D01*
X66794047Y-51014761D01*
X66698809Y-51062380D01*
X66508333Y-51062380D01*
X66413095Y-51014761D01*
X66365476Y-50967142D01*
X66317857Y-50871904D01*
X66317857Y-50681428D01*
X66365476Y-50586190D01*
X66413095Y-50538571D01*
X66508333Y-50490952D01*
X65365476Y-51062380D02*
X65936904Y-51062380D01*
X65651190Y-51062380D02*
X65651190Y-50062380D01*
X65746428Y-50205238D01*
X65841666Y-50300476D01*
X65936904Y-50348095D01*
X64984523Y-50157619D02*
X64936904Y-50110000D01*
X64841666Y-50062380D01*
X64603571Y-50062380D01*
X64508333Y-50110000D01*
X64460714Y-50157619D01*
X64413095Y-50252857D01*
X64413095Y-50348095D01*
X64460714Y-50490952D01*
X65032142Y-51062380D01*
X64413095Y-51062380D01*
X63651190Y-50538571D02*
X63508333Y-50586190D01*
X63460714Y-50633809D01*
X63413095Y-50729047D01*
X63413095Y-50871904D01*
X63460714Y-50967142D01*
X63508333Y-51014761D01*
X63603571Y-51062380D01*
X63984523Y-51062380D01*
X63984523Y-50062380D01*
X63651190Y-50062380D01*
X63555952Y-50110000D01*
X63508333Y-50157619D01*
X63460714Y-50252857D01*
X63460714Y-50348095D01*
X63508333Y-50443333D01*
X63555952Y-50490952D01*
X63651190Y-50538571D01*
X63984523Y-50538571D01*
X67646428Y-54971904D02*
X67646428Y-54171904D01*
X67455952Y-54171904D01*
X67341666Y-54210000D01*
X67265476Y-54286190D01*
X67227380Y-54362380D01*
X67189285Y-54514761D01*
X67189285Y-54629047D01*
X67227380Y-54781428D01*
X67265476Y-54857619D01*
X67341666Y-54933809D01*
X67455952Y-54971904D01*
X67646428Y-54971904D01*
X66884523Y-54248095D02*
X66846428Y-54210000D01*
X66770238Y-54171904D01*
X66579761Y-54171904D01*
X66503571Y-54210000D01*
X66465476Y-54248095D01*
X66427380Y-54324285D01*
X66427380Y-54400476D01*
X66465476Y-54514761D01*
X66922619Y-54971904D01*
X66427380Y-54971904D01*
X66122619Y-54248095D02*
X66084523Y-54210000D01*
X66008333Y-54171904D01*
X65817857Y-54171904D01*
X65741666Y-54210000D01*
X65703571Y-54248095D01*
X65665476Y-54324285D01*
X65665476Y-54400476D01*
X65703571Y-54514761D01*
X66160714Y-54971904D01*
X65665476Y-54971904D01*
M02*
