M48
; DRILL file {KiCad (5.1.10)-1} date 09/16/21 00:51:06
; FORMAT={-:-/ absolute / inch / decimal}
; #@! TF.CreationDate,2021-09-16T00:51:06+02:00
; #@! TF.GenerationSoftware,Kicad,Pcbnew,(5.1.10)-1
; #@! TF.FileFunction,NonPlated,1,2,NPTH
FMAT,2
INCH
T1C0.0689
T2C0.1570
%
G90
G05
T1
X4.375Y-2.175
X4.375Y-2.925
X4.375Y-3.675
X4.375Y-4.425
X4.375Y-5.175
X4.775Y-2.175
X4.775Y-2.925
X4.775Y-3.675
X4.775Y-4.425
X4.775Y-5.175
X5.125Y-2.175
X5.125Y-2.925
X5.125Y-3.675
X5.125Y-4.425
X5.125Y-5.175
X5.525Y-2.175
X5.525Y-2.925
X5.525Y-3.675
X5.525Y-4.425
X5.525Y-5.175
X5.875Y-2.175
X5.875Y-2.925
X5.875Y-3.675
X5.875Y-4.425
X5.875Y-5.175
X6.275Y-2.175
X6.275Y-2.925
X6.275Y-3.675
X6.275Y-4.425
X6.275Y-5.175
X6.625Y-2.175
X6.625Y-2.925
X6.625Y-3.675
X6.625Y-4.425
X6.625Y-5.175
X7.025Y-2.175
X7.025Y-2.925
X7.025Y-3.675
X7.025Y-4.425
X7.025Y-5.175
T2
X4.575Y-2.175
X4.575Y-2.925
X4.575Y-3.675
X4.575Y-4.425
X4.575Y-5.175
X5.325Y-2.175
X5.325Y-2.925
X5.325Y-3.675
X5.325Y-4.425
X5.325Y-5.175
X6.075Y-2.175
X6.075Y-2.925
X6.075Y-3.675
X6.075Y-4.425
X6.075Y-5.175
X6.825Y-2.175
X6.825Y-2.925
X6.825Y-3.675
X6.825Y-4.425
X6.825Y-5.175
T0
M30
