G04 #@! TF.GenerationSoftware,KiCad,Pcbnew,(5.1.10)-1*
G04 #@! TF.CreationDate,2021-09-16T15:24:46+02:00*
G04 #@! TF.ProjectId,SheepyPad,53686565-7079-4506-9164-2e6b69636164,rev?*
G04 #@! TF.SameCoordinates,Original*
G04 #@! TF.FileFunction,Other,User*
%FSLAX46Y46*%
G04 Gerber Fmt 4.6, Leading zero omitted, Abs format (unit mm)*
G04 Created by KiCad (PCBNEW (5.1.10)-1) date 2021-09-16 15:24:46*
%MOMM*%
%LPD*%
G01*
G04 APERTURE LIST*
%ADD10C,0.050000*%
G04 APERTURE END LIST*
D10*
X108945000Y-67520000D02*
X108945000Y-62020000D01*
X108945000Y-62020000D02*
X115845000Y-62020000D01*
X115845000Y-62020000D02*
X115845000Y-67520000D01*
X115845000Y-67520000D02*
X108945000Y-67520000D01*
X115845000Y-119170000D02*
X115845000Y-124670000D01*
X115845000Y-124670000D02*
X108945000Y-124670000D01*
X108945000Y-124670000D02*
X108945000Y-119170000D01*
X108945000Y-119170000D02*
X115845000Y-119170000D01*
X173715000Y-67520000D02*
X173715000Y-62020000D01*
X173715000Y-62020000D02*
X180615000Y-62020000D01*
X180615000Y-62020000D02*
X180615000Y-67520000D01*
X180615000Y-67520000D02*
X173715000Y-67520000D01*
X84095000Y-90595000D02*
X84095000Y-96095000D01*
X84095000Y-96095000D02*
X77195000Y-96095000D01*
X77195000Y-96095000D02*
X77195000Y-90595000D01*
X77195000Y-90595000D02*
X84095000Y-90595000D01*
X180615000Y-119170000D02*
X180615000Y-124670000D01*
X180615000Y-124670000D02*
X173715000Y-124670000D01*
X173715000Y-124670000D02*
X173715000Y-119170000D01*
X173715000Y-119170000D02*
X180615000Y-119170000D01*
X63225000Y-56090000D02*
X63225000Y-50590000D01*
X63225000Y-50590000D02*
X70125000Y-50590000D01*
X70125000Y-50590000D02*
X70125000Y-56090000D01*
X70125000Y-56090000D02*
X63225000Y-56090000D01*
M02*
