G04 #@! TF.GenerationSoftware,KiCad,Pcbnew,(5.1.10)-1*
G04 #@! TF.CreationDate,2021-09-15T11:51:34+02:00*
G04 #@! TF.ProjectId,SheepyPad,53686565-7079-4506-9164-2e6b69636164,rev?*
G04 #@! TF.SameCoordinates,Original*
G04 #@! TF.FileFunction,Legend,Bot*
G04 #@! TF.FilePolarity,Positive*
%FSLAX46Y46*%
G04 Gerber Fmt 4.6, Leading zero omitted, Abs format (unit mm)*
G04 Created by KiCad (PCBNEW (5.1.10)-1) date 2021-09-15 11:51:34*
%MOMM*%
%LPD*%
G01*
G04 APERTURE LIST*
%ADD10C,0.120000*%
%ADD11C,0.150000*%
%ADD12R,1.500000X1.000000*%
%ADD13O,1.600000X1.600000*%
%ADD14R,1.600000X1.600000*%
%ADD15O,1.700000X1.700000*%
%ADD16R,1.700000X1.700000*%
%ADD17C,2.000000*%
%ADD18C,1.600000*%
%ADD19C,2.250000*%
%ADD20C,3.987800*%
%ADD21C,1.750000*%
%ADD22R,2.000000X2.000000*%
%ADD23R,2.000000X3.200000*%
G04 APERTURE END LIST*
D10*
X116045000Y-62655000D02*
X116045000Y-63805000D01*
X108745000Y-62655000D02*
X116045000Y-62655000D01*
X108745000Y-68155000D02*
X116045000Y-68155000D01*
X108745000Y-124035000D02*
X108745000Y-122885000D01*
X116045000Y-124035000D02*
X108745000Y-124035000D01*
X116045000Y-118535000D02*
X108745000Y-118535000D01*
X180815000Y-62020000D02*
X180815000Y-63170000D01*
X173515000Y-62020000D02*
X180815000Y-62020000D01*
X173515000Y-67520000D02*
X180815000Y-67520000D01*
X76995000Y-96095000D02*
X76995000Y-94945000D01*
X84295000Y-96095000D02*
X76995000Y-96095000D01*
X84295000Y-90595000D02*
X76995000Y-90595000D01*
X173515000Y-124035000D02*
X173515000Y-122885000D01*
X180815000Y-124035000D02*
X173515000Y-124035000D01*
X180815000Y-118535000D02*
X173515000Y-118535000D01*
X73500000Y-53765000D02*
X73500000Y-54915000D01*
X66200000Y-53765000D02*
X73500000Y-53765000D01*
X66200000Y-59265000D02*
X73500000Y-59265000D01*
D11*
X113609285Y-69357380D02*
X113609285Y-68357380D01*
X113371190Y-68357380D01*
X113228333Y-68405000D01*
X113133095Y-68500238D01*
X113085476Y-68595476D01*
X113037857Y-68785952D01*
X113037857Y-68928809D01*
X113085476Y-69119285D01*
X113133095Y-69214523D01*
X113228333Y-69309761D01*
X113371190Y-69357380D01*
X113609285Y-69357380D01*
X112656904Y-68452619D02*
X112609285Y-68405000D01*
X112514047Y-68357380D01*
X112275952Y-68357380D01*
X112180714Y-68405000D01*
X112133095Y-68452619D01*
X112085476Y-68547857D01*
X112085476Y-68643095D01*
X112133095Y-68785952D01*
X112704523Y-69357380D01*
X112085476Y-69357380D01*
X111752142Y-68357380D02*
X111085476Y-68357380D01*
X111514047Y-69357380D01*
X107959285Y-67457380D02*
X108530714Y-67457380D01*
X108245000Y-67457380D02*
X108245000Y-66457380D01*
X108340238Y-66600238D01*
X108435476Y-66695476D01*
X108530714Y-66743095D01*
X113609285Y-118237380D02*
X113609285Y-117237380D01*
X113371190Y-117237380D01*
X113228333Y-117285000D01*
X113133095Y-117380238D01*
X113085476Y-117475476D01*
X113037857Y-117665952D01*
X113037857Y-117808809D01*
X113085476Y-117999285D01*
X113133095Y-118094523D01*
X113228333Y-118189761D01*
X113371190Y-118237380D01*
X113609285Y-118237380D01*
X112656904Y-117332619D02*
X112609285Y-117285000D01*
X112514047Y-117237380D01*
X112275952Y-117237380D01*
X112180714Y-117285000D01*
X112133095Y-117332619D01*
X112085476Y-117427857D01*
X112085476Y-117523095D01*
X112133095Y-117665952D01*
X112704523Y-118237380D01*
X112085476Y-118237380D01*
X111228333Y-117237380D02*
X111418809Y-117237380D01*
X111514047Y-117285000D01*
X111561666Y-117332619D01*
X111656904Y-117475476D01*
X111704523Y-117665952D01*
X111704523Y-118046904D01*
X111656904Y-118142142D01*
X111609285Y-118189761D01*
X111514047Y-118237380D01*
X111323571Y-118237380D01*
X111228333Y-118189761D01*
X111180714Y-118142142D01*
X111133095Y-118046904D01*
X111133095Y-117808809D01*
X111180714Y-117713571D01*
X111228333Y-117665952D01*
X111323571Y-117618333D01*
X111514047Y-117618333D01*
X111609285Y-117665952D01*
X111656904Y-117713571D01*
X111704523Y-117808809D01*
X116259285Y-120137380D02*
X116830714Y-120137380D01*
X116545000Y-120137380D02*
X116545000Y-119137380D01*
X116640238Y-119280238D01*
X116735476Y-119375476D01*
X116830714Y-119423095D01*
X178379285Y-68722380D02*
X178379285Y-67722380D01*
X178141190Y-67722380D01*
X177998333Y-67770000D01*
X177903095Y-67865238D01*
X177855476Y-67960476D01*
X177807857Y-68150952D01*
X177807857Y-68293809D01*
X177855476Y-68484285D01*
X177903095Y-68579523D01*
X177998333Y-68674761D01*
X178141190Y-68722380D01*
X178379285Y-68722380D01*
X177426904Y-67817619D02*
X177379285Y-67770000D01*
X177284047Y-67722380D01*
X177045952Y-67722380D01*
X176950714Y-67770000D01*
X176903095Y-67817619D01*
X176855476Y-67912857D01*
X176855476Y-68008095D01*
X176903095Y-68150952D01*
X177474523Y-68722380D01*
X176855476Y-68722380D01*
X175950714Y-67722380D02*
X176426904Y-67722380D01*
X176474523Y-68198571D01*
X176426904Y-68150952D01*
X176331666Y-68103333D01*
X176093571Y-68103333D01*
X175998333Y-68150952D01*
X175950714Y-68198571D01*
X175903095Y-68293809D01*
X175903095Y-68531904D01*
X175950714Y-68627142D01*
X175998333Y-68674761D01*
X176093571Y-68722380D01*
X176331666Y-68722380D01*
X176426904Y-68674761D01*
X176474523Y-68627142D01*
X172729285Y-66822380D02*
X173300714Y-66822380D01*
X173015000Y-66822380D02*
X173015000Y-65822380D01*
X173110238Y-65965238D01*
X173205476Y-66060476D01*
X173300714Y-66108095D01*
X81859285Y-90297380D02*
X81859285Y-89297380D01*
X81621190Y-89297380D01*
X81478333Y-89345000D01*
X81383095Y-89440238D01*
X81335476Y-89535476D01*
X81287857Y-89725952D01*
X81287857Y-89868809D01*
X81335476Y-90059285D01*
X81383095Y-90154523D01*
X81478333Y-90249761D01*
X81621190Y-90297380D01*
X81859285Y-90297380D01*
X80906904Y-89392619D02*
X80859285Y-89345000D01*
X80764047Y-89297380D01*
X80525952Y-89297380D01*
X80430714Y-89345000D01*
X80383095Y-89392619D01*
X80335476Y-89487857D01*
X80335476Y-89583095D01*
X80383095Y-89725952D01*
X80954523Y-90297380D01*
X80335476Y-90297380D01*
X79478333Y-89630714D02*
X79478333Y-90297380D01*
X79716428Y-89249761D02*
X79954523Y-89964047D01*
X79335476Y-89964047D01*
X84509285Y-92197380D02*
X85080714Y-92197380D01*
X84795000Y-92197380D02*
X84795000Y-91197380D01*
X84890238Y-91340238D01*
X84985476Y-91435476D01*
X85080714Y-91483095D01*
X178379285Y-118237380D02*
X178379285Y-117237380D01*
X178141190Y-117237380D01*
X177998333Y-117285000D01*
X177903095Y-117380238D01*
X177855476Y-117475476D01*
X177807857Y-117665952D01*
X177807857Y-117808809D01*
X177855476Y-117999285D01*
X177903095Y-118094523D01*
X177998333Y-118189761D01*
X178141190Y-118237380D01*
X178379285Y-118237380D01*
X177426904Y-117332619D02*
X177379285Y-117285000D01*
X177284047Y-117237380D01*
X177045952Y-117237380D01*
X176950714Y-117285000D01*
X176903095Y-117332619D01*
X176855476Y-117427857D01*
X176855476Y-117523095D01*
X176903095Y-117665952D01*
X177474523Y-118237380D01*
X176855476Y-118237380D01*
X176522142Y-117237380D02*
X175903095Y-117237380D01*
X176236428Y-117618333D01*
X176093571Y-117618333D01*
X175998333Y-117665952D01*
X175950714Y-117713571D01*
X175903095Y-117808809D01*
X175903095Y-118046904D01*
X175950714Y-118142142D01*
X175998333Y-118189761D01*
X176093571Y-118237380D01*
X176379285Y-118237380D01*
X176474523Y-118189761D01*
X176522142Y-118142142D01*
X181029285Y-120137380D02*
X181600714Y-120137380D01*
X181315000Y-120137380D02*
X181315000Y-119137380D01*
X181410238Y-119280238D01*
X181505476Y-119375476D01*
X181600714Y-119423095D01*
X71064285Y-60467380D02*
X71064285Y-59467380D01*
X70826190Y-59467380D01*
X70683333Y-59515000D01*
X70588095Y-59610238D01*
X70540476Y-59705476D01*
X70492857Y-59895952D01*
X70492857Y-60038809D01*
X70540476Y-60229285D01*
X70588095Y-60324523D01*
X70683333Y-60419761D01*
X70826190Y-60467380D01*
X71064285Y-60467380D01*
X70111904Y-59562619D02*
X70064285Y-59515000D01*
X69969047Y-59467380D01*
X69730952Y-59467380D01*
X69635714Y-59515000D01*
X69588095Y-59562619D01*
X69540476Y-59657857D01*
X69540476Y-59753095D01*
X69588095Y-59895952D01*
X70159523Y-60467380D01*
X69540476Y-60467380D01*
X69159523Y-59562619D02*
X69111904Y-59515000D01*
X69016666Y-59467380D01*
X68778571Y-59467380D01*
X68683333Y-59515000D01*
X68635714Y-59562619D01*
X68588095Y-59657857D01*
X68588095Y-59753095D01*
X68635714Y-59895952D01*
X69207142Y-60467380D01*
X68588095Y-60467380D01*
X65414285Y-58567380D02*
X65985714Y-58567380D01*
X65700000Y-58567380D02*
X65700000Y-57567380D01*
X65795238Y-57710238D01*
X65890476Y-57805476D01*
X65985714Y-57853095D01*
%LPC*%
D12*
X109945000Y-67005000D03*
X109945000Y-63805000D03*
X114845000Y-67005000D03*
X114845000Y-63805000D03*
X114845000Y-119685000D03*
X114845000Y-122885000D03*
X109945000Y-119685000D03*
X109945000Y-122885000D03*
X174715000Y-66370000D03*
X174715000Y-63170000D03*
X179615000Y-66370000D03*
X179615000Y-63170000D03*
X83095000Y-91745000D03*
X83095000Y-94945000D03*
X78195000Y-91745000D03*
X78195000Y-94945000D03*
X179615000Y-119685000D03*
X179615000Y-122885000D03*
X174715000Y-119685000D03*
X174715000Y-122885000D03*
X67400000Y-58115000D03*
X67400000Y-54915000D03*
X72300000Y-58115000D03*
X72300000Y-54915000D03*
D13*
X94615000Y-62230000D03*
X92075000Y-62230000D03*
X89535000Y-62230000D03*
X66675000Y-46990000D03*
X86995000Y-62230000D03*
X69215000Y-46990000D03*
X84455000Y-62230000D03*
X71755000Y-46990000D03*
X81915000Y-62230000D03*
X74295000Y-46990000D03*
X79375000Y-62230000D03*
X76835000Y-46990000D03*
X76835000Y-62230000D03*
X79375000Y-46990000D03*
X74295000Y-62230000D03*
X81915000Y-46990000D03*
X71755000Y-62230000D03*
X84455000Y-46990000D03*
X69215000Y-62230000D03*
X86995000Y-46990000D03*
D14*
X66675000Y-62230000D03*
D13*
X89535000Y-46990000D03*
X92075000Y-46990000D03*
X94615000Y-46990000D03*
D15*
X61925000Y-87345000D03*
X61925000Y-89885000D03*
X61925000Y-92425000D03*
D16*
X61925000Y-94965000D03*
D17*
X102870000Y-58570000D03*
X98370000Y-58570000D03*
X102870000Y-52070000D03*
X98370000Y-52070000D03*
D13*
X86995000Y-58420000D03*
D18*
X76835000Y-58420000D03*
D13*
X69215000Y-81915000D03*
D14*
X69215000Y-71755000D03*
D19*
X118745000Y-50165000D03*
D20*
X116205000Y-55245000D03*
D19*
X112395000Y-52705000D03*
D21*
X111125000Y-55245000D03*
X121285000Y-55245000D03*
D19*
X118745000Y-107315000D03*
D20*
X116205000Y-112395000D03*
D19*
X112395000Y-109855000D03*
D21*
X111125000Y-112395000D03*
X121285000Y-112395000D03*
D13*
X144780000Y-69215000D03*
D14*
X144780000Y-79375000D03*
D22*
X81915000Y-67310000D03*
D17*
X79415000Y-67310000D03*
X76915000Y-67310000D03*
D23*
X85015000Y-74810000D03*
X73815000Y-74810000D03*
D17*
X81915000Y-81810000D03*
X76915000Y-81810000D03*
D19*
X175895000Y-126365000D03*
D20*
X173355000Y-131445000D03*
D19*
X169545000Y-128905000D03*
D21*
X168275000Y-131445000D03*
X178435000Y-131445000D03*
D19*
X175895000Y-107315000D03*
D20*
X173355000Y-112395000D03*
D19*
X169545000Y-109855000D03*
D21*
X168275000Y-112395000D03*
X178435000Y-112395000D03*
D19*
X175895000Y-88265000D03*
D20*
X173355000Y-93345000D03*
D19*
X169545000Y-90805000D03*
D21*
X168275000Y-93345000D03*
X178435000Y-93345000D03*
D19*
X175895000Y-69215000D03*
D20*
X173355000Y-74295000D03*
D19*
X169545000Y-71755000D03*
D21*
X168275000Y-74295000D03*
X178435000Y-74295000D03*
D19*
X175895000Y-50165000D03*
D20*
X173355000Y-55245000D03*
D19*
X169545000Y-52705000D03*
D21*
X168275000Y-55245000D03*
X178435000Y-55245000D03*
D19*
X156845000Y-126365000D03*
D20*
X154305000Y-131445000D03*
D19*
X150495000Y-128905000D03*
D21*
X149225000Y-131445000D03*
X159385000Y-131445000D03*
D19*
X156845000Y-107315000D03*
D20*
X154305000Y-112395000D03*
D19*
X150495000Y-109855000D03*
D21*
X149225000Y-112395000D03*
X159385000Y-112395000D03*
D19*
X156845000Y-88265000D03*
D20*
X154305000Y-93345000D03*
D19*
X150495000Y-90805000D03*
D21*
X149225000Y-93345000D03*
X159385000Y-93345000D03*
D19*
X156845000Y-69215000D03*
D20*
X154305000Y-74295000D03*
D19*
X150495000Y-71755000D03*
D21*
X149225000Y-74295000D03*
X159385000Y-74295000D03*
D19*
X156845000Y-50165000D03*
D20*
X154305000Y-55245000D03*
D19*
X150495000Y-52705000D03*
D21*
X149225000Y-55245000D03*
X159385000Y-55245000D03*
D19*
X137795000Y-126365000D03*
D20*
X135255000Y-131445000D03*
D19*
X131445000Y-128905000D03*
D21*
X130175000Y-131445000D03*
X140335000Y-131445000D03*
D19*
X137795000Y-107315000D03*
D20*
X135255000Y-112395000D03*
D19*
X131445000Y-109855000D03*
D21*
X130175000Y-112395000D03*
X140335000Y-112395000D03*
D19*
X137795000Y-88265000D03*
D20*
X135255000Y-93345000D03*
D19*
X131445000Y-90805000D03*
D21*
X130175000Y-93345000D03*
X140335000Y-93345000D03*
D19*
X137795000Y-69215000D03*
D20*
X135255000Y-74295000D03*
D19*
X131445000Y-71755000D03*
D21*
X130175000Y-74295000D03*
X140335000Y-74295000D03*
D19*
X137795000Y-50165000D03*
D20*
X135255000Y-55245000D03*
D19*
X131445000Y-52705000D03*
D21*
X130175000Y-55245000D03*
X140335000Y-55245000D03*
D19*
X118745000Y-126365000D03*
D20*
X116205000Y-131445000D03*
D19*
X112395000Y-128905000D03*
D21*
X111125000Y-131445000D03*
X121285000Y-131445000D03*
D19*
X118745000Y-88265000D03*
D20*
X116205000Y-93345000D03*
D19*
X112395000Y-90805000D03*
D21*
X111125000Y-93345000D03*
X121285000Y-93345000D03*
D19*
X118745000Y-69215000D03*
D20*
X116205000Y-74295000D03*
D19*
X112395000Y-71755000D03*
D21*
X111125000Y-74295000D03*
X121285000Y-74295000D03*
D13*
X163830000Y-126365000D03*
D14*
X163830000Y-136525000D03*
D13*
X163830000Y-107315000D03*
D14*
X163830000Y-117475000D03*
D13*
X163830000Y-88265000D03*
D14*
X163830000Y-98425000D03*
D13*
X163830000Y-69215000D03*
D14*
X163830000Y-79375000D03*
D13*
X163830000Y-50165000D03*
D14*
X163830000Y-60325000D03*
D13*
X144780000Y-126365000D03*
D14*
X144780000Y-136525000D03*
D13*
X144780000Y-107315000D03*
D14*
X144780000Y-117475000D03*
D13*
X144780000Y-88265000D03*
D14*
X144780000Y-98425000D03*
D13*
X144780000Y-50165000D03*
D14*
X144780000Y-60325000D03*
D13*
X125730000Y-126365000D03*
D14*
X125730000Y-136525000D03*
D13*
X125730000Y-107315000D03*
D14*
X125730000Y-117475000D03*
D13*
X125730000Y-88265000D03*
D14*
X125730000Y-98425000D03*
D13*
X125730000Y-69215000D03*
D14*
X125730000Y-79375000D03*
D13*
X125730000Y-50165000D03*
D14*
X125730000Y-60325000D03*
D13*
X106680000Y-126365000D03*
D14*
X106680000Y-136525000D03*
D13*
X106680000Y-107315000D03*
D14*
X106680000Y-117475000D03*
D13*
X106680000Y-88265000D03*
D14*
X106680000Y-98425000D03*
D13*
X106680000Y-69215000D03*
D14*
X106680000Y-79375000D03*
D13*
X106680000Y-50165000D03*
D14*
X106680000Y-60325000D03*
M02*
