G04 #@! TF.GenerationSoftware,KiCad,Pcbnew,(5.1.10)-1*
G04 #@! TF.CreationDate,2021-09-15T21:29:11+02:00*
G04 #@! TF.ProjectId,SheepyPad,53686565-7079-4506-9164-2e6b69636164,rev?*
G04 #@! TF.SameCoordinates,Original*
G04 #@! TF.FileFunction,Soldermask,Bot*
G04 #@! TF.FilePolarity,Negative*
%FSLAX46Y46*%
G04 Gerber Fmt 4.6, Leading zero omitted, Abs format (unit mm)*
G04 Created by KiCad (PCBNEW (5.1.10)-1) date 2021-09-15 21:29:11*
%MOMM*%
%LPD*%
G01*
G04 APERTURE LIST*
%ADD10O,1.700000X1.700000*%
%ADD11R,1.700000X1.700000*%
%ADD12R,1.500000X1.000000*%
%ADD13O,1.600000X1.600000*%
%ADD14R,1.600000X1.600000*%
%ADD15C,2.000000*%
%ADD16C,1.600000*%
%ADD17C,2.250000*%
%ADD18C,3.987800*%
%ADD19C,1.750000*%
%ADD20R,2.000000X2.000000*%
%ADD21R,2.000000X3.200000*%
G04 APERTURE END LIST*
D10*
X61925000Y-87345000D03*
X61925000Y-89885000D03*
X61925000Y-92425000D03*
D11*
X61925000Y-94965000D03*
D12*
X109945000Y-67005000D03*
X109945000Y-63805000D03*
X114845000Y-67005000D03*
X114845000Y-63805000D03*
X114845000Y-119685000D03*
X114845000Y-122885000D03*
X109945000Y-119685000D03*
X109945000Y-122885000D03*
X174715000Y-66370000D03*
X174715000Y-63170000D03*
X179615000Y-66370000D03*
X179615000Y-63170000D03*
X83095000Y-91745000D03*
X83095000Y-94945000D03*
X78195000Y-91745000D03*
X78195000Y-94945000D03*
X179615000Y-119685000D03*
X179615000Y-122885000D03*
X174715000Y-119685000D03*
X174715000Y-122885000D03*
X67400000Y-58115000D03*
X67400000Y-54915000D03*
X72300000Y-58115000D03*
X72300000Y-54915000D03*
D13*
X94615000Y-62230000D03*
X92075000Y-62230000D03*
X89535000Y-62230000D03*
X66675000Y-46990000D03*
X86995000Y-62230000D03*
X69215000Y-46990000D03*
X84455000Y-62230000D03*
X71755000Y-46990000D03*
X81915000Y-62230000D03*
X74295000Y-46990000D03*
X79375000Y-62230000D03*
X76835000Y-46990000D03*
X76835000Y-62230000D03*
X79375000Y-46990000D03*
X74295000Y-62230000D03*
X81915000Y-46990000D03*
X71755000Y-62230000D03*
X84455000Y-46990000D03*
X69215000Y-62230000D03*
X86995000Y-46990000D03*
D14*
X66675000Y-62230000D03*
D13*
X89535000Y-46990000D03*
X92075000Y-46990000D03*
X94615000Y-46990000D03*
D15*
X102870000Y-58570000D03*
X98370000Y-58570000D03*
X102870000Y-52070000D03*
X98370000Y-52070000D03*
D13*
X86995000Y-58420000D03*
D16*
X76835000Y-58420000D03*
D13*
X69215000Y-80010000D03*
D14*
X69215000Y-69850000D03*
D17*
X118745000Y-50165000D03*
D18*
X116205000Y-55245000D03*
D17*
X112395000Y-52705000D03*
D19*
X111125000Y-55245000D03*
X121285000Y-55245000D03*
D17*
X118745000Y-107315000D03*
D18*
X116205000Y-112395000D03*
D17*
X112395000Y-109855000D03*
D19*
X111125000Y-112395000D03*
X121285000Y-112395000D03*
D13*
X144780000Y-69215000D03*
D14*
X144780000Y-79375000D03*
D20*
X81915000Y-67310000D03*
D15*
X79415000Y-67310000D03*
X76915000Y-67310000D03*
D21*
X85015000Y-74810000D03*
X73815000Y-74810000D03*
D15*
X81915000Y-81810000D03*
X76915000Y-81810000D03*
D17*
X175895000Y-126365000D03*
D18*
X173355000Y-131445000D03*
D17*
X169545000Y-128905000D03*
D19*
X168275000Y-131445000D03*
X178435000Y-131445000D03*
D17*
X175895000Y-107315000D03*
D18*
X173355000Y-112395000D03*
D17*
X169545000Y-109855000D03*
D19*
X168275000Y-112395000D03*
X178435000Y-112395000D03*
D17*
X175895000Y-88265000D03*
D18*
X173355000Y-93345000D03*
D17*
X169545000Y-90805000D03*
D19*
X168275000Y-93345000D03*
X178435000Y-93345000D03*
D17*
X175895000Y-69215000D03*
D18*
X173355000Y-74295000D03*
D17*
X169545000Y-71755000D03*
D19*
X168275000Y-74295000D03*
X178435000Y-74295000D03*
D17*
X175895000Y-50165000D03*
D18*
X173355000Y-55245000D03*
D17*
X169545000Y-52705000D03*
D19*
X168275000Y-55245000D03*
X178435000Y-55245000D03*
D17*
X156845000Y-126365000D03*
D18*
X154305000Y-131445000D03*
D17*
X150495000Y-128905000D03*
D19*
X149225000Y-131445000D03*
X159385000Y-131445000D03*
D17*
X156845000Y-107315000D03*
D18*
X154305000Y-112395000D03*
D17*
X150495000Y-109855000D03*
D19*
X149225000Y-112395000D03*
X159385000Y-112395000D03*
D17*
X156845000Y-88265000D03*
D18*
X154305000Y-93345000D03*
D17*
X150495000Y-90805000D03*
D19*
X149225000Y-93345000D03*
X159385000Y-93345000D03*
D17*
X156845000Y-69215000D03*
D18*
X154305000Y-74295000D03*
D17*
X150495000Y-71755000D03*
D19*
X149225000Y-74295000D03*
X159385000Y-74295000D03*
D17*
X156845000Y-50165000D03*
D18*
X154305000Y-55245000D03*
D17*
X150495000Y-52705000D03*
D19*
X149225000Y-55245000D03*
X159385000Y-55245000D03*
D17*
X137795000Y-126365000D03*
D18*
X135255000Y-131445000D03*
D17*
X131445000Y-128905000D03*
D19*
X130175000Y-131445000D03*
X140335000Y-131445000D03*
D17*
X137795000Y-107315000D03*
D18*
X135255000Y-112395000D03*
D17*
X131445000Y-109855000D03*
D19*
X130175000Y-112395000D03*
X140335000Y-112395000D03*
D17*
X137795000Y-88265000D03*
D18*
X135255000Y-93345000D03*
D17*
X131445000Y-90805000D03*
D19*
X130175000Y-93345000D03*
X140335000Y-93345000D03*
D17*
X137795000Y-69215000D03*
D18*
X135255000Y-74295000D03*
D17*
X131445000Y-71755000D03*
D19*
X130175000Y-74295000D03*
X140335000Y-74295000D03*
D17*
X137795000Y-50165000D03*
D18*
X135255000Y-55245000D03*
D17*
X131445000Y-52705000D03*
D19*
X130175000Y-55245000D03*
X140335000Y-55245000D03*
D17*
X118745000Y-126365000D03*
D18*
X116205000Y-131445000D03*
D17*
X112395000Y-128905000D03*
D19*
X111125000Y-131445000D03*
X121285000Y-131445000D03*
D17*
X118745000Y-88265000D03*
D18*
X116205000Y-93345000D03*
D17*
X112395000Y-90805000D03*
D19*
X111125000Y-93345000D03*
X121285000Y-93345000D03*
D17*
X118745000Y-69215000D03*
D18*
X116205000Y-74295000D03*
D17*
X112395000Y-71755000D03*
D19*
X111125000Y-74295000D03*
X121285000Y-74295000D03*
D13*
X163830000Y-126365000D03*
D14*
X163830000Y-136525000D03*
D13*
X163830000Y-107315000D03*
D14*
X163830000Y-117475000D03*
D13*
X163830000Y-88265000D03*
D14*
X163830000Y-98425000D03*
D13*
X163830000Y-69215000D03*
D14*
X163830000Y-79375000D03*
D13*
X163830000Y-50165000D03*
D14*
X163830000Y-60325000D03*
D13*
X144780000Y-126365000D03*
D14*
X144780000Y-136525000D03*
D13*
X144780000Y-107315000D03*
D14*
X144780000Y-117475000D03*
D13*
X144780000Y-88265000D03*
D14*
X144780000Y-98425000D03*
D13*
X144780000Y-50165000D03*
D14*
X144780000Y-60325000D03*
D13*
X125730000Y-126365000D03*
D14*
X125730000Y-136525000D03*
D13*
X125730000Y-107315000D03*
D14*
X125730000Y-117475000D03*
D13*
X125730000Y-88265000D03*
D14*
X125730000Y-98425000D03*
D13*
X125730000Y-69215000D03*
D14*
X125730000Y-79375000D03*
D13*
X125730000Y-50165000D03*
D14*
X125730000Y-60325000D03*
D13*
X106680000Y-126365000D03*
D14*
X106680000Y-136525000D03*
D13*
X106680000Y-107315000D03*
D14*
X106680000Y-117475000D03*
D13*
X106680000Y-88265000D03*
D14*
X106680000Y-98425000D03*
D13*
X106680000Y-69215000D03*
D14*
X106680000Y-79375000D03*
D13*
X106680000Y-50165000D03*
D14*
X106680000Y-60325000D03*
M02*
