G04 #@! TF.GenerationSoftware,KiCad,Pcbnew,(5.1.10)-1*
G04 #@! TF.CreationDate,2021-09-16T00:51:03+02:00*
G04 #@! TF.ProjectId,SheepyPad,53686565-7079-4506-9164-2e6b69636164,rev?*
G04 #@! TF.SameCoordinates,Original*
G04 #@! TF.FileFunction,Other,User*
%FSLAX46Y46*%
G04 Gerber Fmt 4.6, Leading zero omitted, Abs format (unit mm)*
G04 Created by KiCad (PCBNEW (5.1.10)-1) date 2021-09-16 00:51:03*
%MOMM*%
%LPD*%
G01*
G04 APERTURE LIST*
%ADD10C,0.050000*%
%ADD11C,0.040000*%
G04 APERTURE END LIST*
D10*
X60198000Y-63754000D02*
X60198000Y-45466000D01*
X60198000Y-63754000D02*
X96012000Y-63754000D01*
X96012000Y-45466000D02*
X60198000Y-45466000D01*
X96012000Y-45466000D02*
X96012000Y-63754000D01*
D11*
X60425000Y-97155000D02*
X98425000Y-97155000D01*
X98425000Y-97155000D02*
X98425000Y-85155000D01*
X98425000Y-85155000D02*
X60425000Y-85155000D01*
X60425000Y-85155000D02*
X60425000Y-97155000D01*
D10*
X104120000Y-60070000D02*
X97120000Y-60070000D01*
X96870000Y-59820000D02*
X96870000Y-50820000D01*
X97120000Y-50570000D02*
X104120000Y-50570000D01*
X104370000Y-50820000D02*
X104370000Y-59820000D01*
X96870000Y-50570000D02*
X96870000Y-50820000D01*
X97120000Y-50570000D02*
X96870000Y-50570000D01*
X104370000Y-50570000D02*
X104370000Y-50820000D01*
X104120000Y-50570000D02*
X104370000Y-50570000D01*
X104370000Y-60070000D02*
X104120000Y-60070000D01*
X104370000Y-59820000D02*
X104370000Y-60070000D01*
X96870000Y-60070000D02*
X97120000Y-60070000D01*
X96870000Y-59820000D02*
X96870000Y-60070000D01*
X88045000Y-56920000D02*
X75785000Y-56920000D01*
X88045000Y-59920000D02*
X88045000Y-56920000D01*
X75785000Y-59920000D02*
X88045000Y-59920000D01*
X75785000Y-56920000D02*
X75785000Y-59920000D01*
X70465000Y-81060000D02*
X70465000Y-68800000D01*
X67965000Y-81060000D02*
X70465000Y-81060000D01*
X67965000Y-68800000D02*
X67965000Y-81060000D01*
X70465000Y-68800000D02*
X67965000Y-68800000D01*
X143530000Y-68165000D02*
X143530000Y-80425000D01*
X146030000Y-68165000D02*
X143530000Y-68165000D01*
X146030000Y-80425000D02*
X146030000Y-68165000D01*
X143530000Y-80425000D02*
X146030000Y-80425000D01*
X72315000Y-83310000D02*
X72315000Y-65810000D01*
X72315000Y-83310000D02*
X86515000Y-83310000D01*
X86515000Y-65810000D02*
X72315000Y-65810000D01*
X86515000Y-65810000D02*
X86515000Y-83310000D01*
X162580000Y-125315000D02*
X162580000Y-137575000D01*
X165080000Y-125315000D02*
X162580000Y-125315000D01*
X165080000Y-137575000D02*
X165080000Y-125315000D01*
X162580000Y-137575000D02*
X165080000Y-137575000D01*
X162580000Y-106265000D02*
X162580000Y-118525000D01*
X165080000Y-106265000D02*
X162580000Y-106265000D01*
X165080000Y-118525000D02*
X165080000Y-106265000D01*
X162580000Y-118525000D02*
X165080000Y-118525000D01*
X162580000Y-87215000D02*
X162580000Y-99475000D01*
X165080000Y-87215000D02*
X162580000Y-87215000D01*
X165080000Y-99475000D02*
X165080000Y-87215000D01*
X162580000Y-99475000D02*
X165080000Y-99475000D01*
X162580000Y-68165000D02*
X162580000Y-80425000D01*
X165080000Y-68165000D02*
X162580000Y-68165000D01*
X165080000Y-80425000D02*
X165080000Y-68165000D01*
X162580000Y-80425000D02*
X165080000Y-80425000D01*
X162580000Y-49115000D02*
X162580000Y-61375000D01*
X165080000Y-49115000D02*
X162580000Y-49115000D01*
X165080000Y-61375000D02*
X165080000Y-49115000D01*
X162580000Y-61375000D02*
X165080000Y-61375000D01*
X143530000Y-125315000D02*
X143530000Y-137575000D01*
X146030000Y-125315000D02*
X143530000Y-125315000D01*
X146030000Y-137575000D02*
X146030000Y-125315000D01*
X143530000Y-137575000D02*
X146030000Y-137575000D01*
X143530000Y-106265000D02*
X143530000Y-118525000D01*
X146030000Y-106265000D02*
X143530000Y-106265000D01*
X146030000Y-118525000D02*
X146030000Y-106265000D01*
X143530000Y-118525000D02*
X146030000Y-118525000D01*
X143530000Y-87215000D02*
X143530000Y-99475000D01*
X146030000Y-87215000D02*
X143530000Y-87215000D01*
X146030000Y-99475000D02*
X146030000Y-87215000D01*
X143530000Y-99475000D02*
X146030000Y-99475000D01*
X143530000Y-49115000D02*
X143530000Y-61375000D01*
X146030000Y-49115000D02*
X143530000Y-49115000D01*
X146030000Y-61375000D02*
X146030000Y-49115000D01*
X143530000Y-61375000D02*
X146030000Y-61375000D01*
X124480000Y-125315000D02*
X124480000Y-137575000D01*
X126980000Y-125315000D02*
X124480000Y-125315000D01*
X126980000Y-137575000D02*
X126980000Y-125315000D01*
X124480000Y-137575000D02*
X126980000Y-137575000D01*
X124480000Y-106265000D02*
X124480000Y-118525000D01*
X126980000Y-106265000D02*
X124480000Y-106265000D01*
X126980000Y-118525000D02*
X126980000Y-106265000D01*
X124480000Y-118525000D02*
X126980000Y-118525000D01*
X124480000Y-87215000D02*
X124480000Y-99475000D01*
X126980000Y-87215000D02*
X124480000Y-87215000D01*
X126980000Y-99475000D02*
X126980000Y-87215000D01*
X124480000Y-99475000D02*
X126980000Y-99475000D01*
X124480000Y-68165000D02*
X124480000Y-80425000D01*
X126980000Y-68165000D02*
X124480000Y-68165000D01*
X126980000Y-80425000D02*
X126980000Y-68165000D01*
X124480000Y-80425000D02*
X126980000Y-80425000D01*
X124480000Y-49115000D02*
X124480000Y-61375000D01*
X126980000Y-49115000D02*
X124480000Y-49115000D01*
X126980000Y-61375000D02*
X126980000Y-49115000D01*
X124480000Y-61375000D02*
X126980000Y-61375000D01*
X105430000Y-125315000D02*
X105430000Y-137575000D01*
X107930000Y-125315000D02*
X105430000Y-125315000D01*
X107930000Y-137575000D02*
X107930000Y-125315000D01*
X105430000Y-137575000D02*
X107930000Y-137575000D01*
X105430000Y-106265000D02*
X105430000Y-118525000D01*
X107930000Y-106265000D02*
X105430000Y-106265000D01*
X107930000Y-118525000D02*
X107930000Y-106265000D01*
X105430000Y-118525000D02*
X107930000Y-118525000D01*
X105430000Y-87215000D02*
X105430000Y-99475000D01*
X107930000Y-87215000D02*
X105430000Y-87215000D01*
X107930000Y-99475000D02*
X107930000Y-87215000D01*
X105430000Y-99475000D02*
X107930000Y-99475000D01*
X105430000Y-68165000D02*
X105430000Y-80425000D01*
X107930000Y-68165000D02*
X105430000Y-68165000D01*
X107930000Y-80425000D02*
X107930000Y-68165000D01*
X105430000Y-80425000D02*
X107930000Y-80425000D01*
X105430000Y-49115000D02*
X105430000Y-61375000D01*
X107930000Y-49115000D02*
X105430000Y-49115000D01*
X107930000Y-61375000D02*
X107930000Y-49115000D01*
X105430000Y-61375000D02*
X107930000Y-61375000D01*
M02*
