G04 #@! TF.GenerationSoftware,KiCad,Pcbnew,(5.1.10)-1*
G04 #@! TF.CreationDate,2021-09-16T01:11:39+02:00*
G04 #@! TF.ProjectId,SheepyPad,53686565-7079-4506-9164-2e6b69636164,rev?*
G04 #@! TF.SameCoordinates,Original*
G04 #@! TF.FileFunction,Legend,Top*
G04 #@! TF.FilePolarity,Positive*
%FSLAX46Y46*%
G04 Gerber Fmt 4.6, Leading zero omitted, Abs format (unit mm)*
G04 Created by KiCad (PCBNEW (5.1.10)-1) date 2021-09-16 01:11:39*
%MOMM*%
%LPD*%
G01*
G04 APERTURE LIST*
%ADD10C,0.150000*%
%ADD11C,0.120000*%
%ADD12C,0.040000*%
%ADD13C,0.010000*%
%ADD14O,1.600000X1.600000*%
%ADD15R,1.600000X1.600000*%
%ADD16O,1.700000X1.700000*%
%ADD17R,1.700000X1.700000*%
%ADD18C,2.000000*%
%ADD19C,1.600000*%
%ADD20C,3.987800*%
%ADD21C,1.750000*%
%ADD22R,2.000000X2.000000*%
%ADD23R,2.000000X3.200000*%
G04 APERTURE END LIST*
D10*
X89500000Y-83157142D02*
X89714285Y-83228571D01*
X90071428Y-83228571D01*
X90214285Y-83157142D01*
X90285714Y-83085714D01*
X90357142Y-82942857D01*
X90357142Y-82800000D01*
X90285714Y-82657142D01*
X90214285Y-82585714D01*
X90071428Y-82514285D01*
X89785714Y-82442857D01*
X89642857Y-82371428D01*
X89571428Y-82300000D01*
X89500000Y-82157142D01*
X89500000Y-82014285D01*
X89571428Y-81871428D01*
X89642857Y-81800000D01*
X89785714Y-81728571D01*
X90142857Y-81728571D01*
X90357142Y-81800000D01*
X91000000Y-83228571D02*
X91000000Y-81728571D01*
X91642857Y-83228571D02*
X91642857Y-82442857D01*
X91571428Y-82300000D01*
X91428571Y-82228571D01*
X91214285Y-82228571D01*
X91071428Y-82300000D01*
X91000000Y-82371428D01*
X92928571Y-83157142D02*
X92785714Y-83228571D01*
X92500000Y-83228571D01*
X92357142Y-83157142D01*
X92285714Y-83014285D01*
X92285714Y-82442857D01*
X92357142Y-82300000D01*
X92500000Y-82228571D01*
X92785714Y-82228571D01*
X92928571Y-82300000D01*
X93000000Y-82442857D01*
X93000000Y-82585714D01*
X92285714Y-82728571D01*
X94214285Y-83157142D02*
X94071428Y-83228571D01*
X93785714Y-83228571D01*
X93642857Y-83157142D01*
X93571428Y-83014285D01*
X93571428Y-82442857D01*
X93642857Y-82300000D01*
X93785714Y-82228571D01*
X94071428Y-82228571D01*
X94214285Y-82300000D01*
X94285714Y-82442857D01*
X94285714Y-82585714D01*
X93571428Y-82728571D01*
X94928571Y-82228571D02*
X94928571Y-83728571D01*
X94928571Y-82300000D02*
X95071428Y-82228571D01*
X95357142Y-82228571D01*
X95500000Y-82300000D01*
X95571428Y-82371428D01*
X95642857Y-82514285D01*
X95642857Y-82942857D01*
X95571428Y-83085714D01*
X95500000Y-83157142D01*
X95357142Y-83228571D01*
X95071428Y-83228571D01*
X94928571Y-83157142D01*
X96142857Y-82228571D02*
X96500000Y-83228571D01*
X96857142Y-82228571D02*
X96500000Y-83228571D01*
X96357142Y-83585714D01*
X96285714Y-83657142D01*
X96142857Y-83728571D01*
X97428571Y-83228571D02*
X97428571Y-81728571D01*
X98000000Y-81728571D01*
X98142857Y-81800000D01*
X98214285Y-81871428D01*
X98285714Y-82014285D01*
X98285714Y-82228571D01*
X98214285Y-82371428D01*
X98142857Y-82442857D01*
X98000000Y-82514285D01*
X97428571Y-82514285D01*
X99571428Y-83228571D02*
X99571428Y-82442857D01*
X99500000Y-82300000D01*
X99357142Y-82228571D01*
X99071428Y-82228571D01*
X98928571Y-82300000D01*
X99571428Y-83157142D02*
X99428571Y-83228571D01*
X99071428Y-83228571D01*
X98928571Y-83157142D01*
X98857142Y-83014285D01*
X98857142Y-82871428D01*
X98928571Y-82728571D01*
X99071428Y-82657142D01*
X99428571Y-82657142D01*
X99571428Y-82585714D01*
X100928571Y-83228571D02*
X100928571Y-81728571D01*
X100928571Y-83157142D02*
X100785714Y-83228571D01*
X100500000Y-83228571D01*
X100357142Y-83157142D01*
X100285714Y-83085714D01*
X100214285Y-82942857D01*
X100214285Y-82514285D01*
X100285714Y-82371428D01*
X100357142Y-82300000D01*
X100500000Y-82228571D01*
X100785714Y-82228571D01*
X100928571Y-82300000D01*
D11*
X93345000Y-48260000D02*
X95885000Y-48260000D01*
X95885000Y-48260000D02*
X95885000Y-45593000D01*
X95885000Y-45593000D02*
X62865000Y-45593000D01*
X95885000Y-60960000D02*
X95885000Y-63630000D01*
X95885000Y-60960000D02*
X65405000Y-60960000D01*
X67945000Y-60960000D02*
X67945000Y-63630000D01*
X65405000Y-60960000D02*
X65405000Y-63630000D01*
X93345000Y-48260000D02*
X65405000Y-48260000D01*
X65405000Y-48260000D02*
X65405000Y-45590000D01*
X62865000Y-45593000D02*
X62865000Y-50673000D01*
X62865000Y-63627000D02*
X95885000Y-63630000D01*
X95885000Y-63627000D02*
X95885000Y-48260000D01*
X60325000Y-50673000D02*
X62865000Y-50673000D01*
X62865000Y-58547000D02*
X62865000Y-63627000D01*
X60325000Y-58547000D02*
X62865000Y-58547000D01*
X60325000Y-50673000D02*
X60325000Y-58547000D01*
D12*
X94925000Y-97155000D02*
X94925000Y-85155000D01*
X65425000Y-97155000D02*
X65425000Y-85155000D01*
X60425000Y-97155000D02*
X98425000Y-97155000D01*
X98425000Y-97155000D02*
X98425000Y-85155000D01*
X98425000Y-85155000D02*
X60425000Y-85155000D01*
X60425000Y-85155000D02*
X60425000Y-97155000D01*
D13*
G36*
X94941453Y-64233693D02*
G01*
X95307937Y-64473688D01*
X95336397Y-64497647D01*
X95653937Y-64884541D01*
X95756799Y-65379796D01*
X95757999Y-65461039D01*
X95781443Y-65847170D01*
X95874695Y-65982658D01*
X96019937Y-65955294D01*
X96314712Y-65884528D01*
X96805101Y-65812040D01*
X97234375Y-65767313D01*
X97723651Y-65734591D01*
X98075221Y-65761577D01*
X98393183Y-65883846D01*
X98781636Y-66136974D01*
X99178813Y-66431806D01*
X99768250Y-66931468D01*
X100342878Y-67511059D01*
X100759370Y-68020096D01*
X101158398Y-68530755D01*
X101451394Y-68763217D01*
X101593056Y-68772007D01*
X101637554Y-68803996D01*
X101471415Y-68988046D01*
X101322187Y-69121166D01*
X100950568Y-69537138D01*
X100806417Y-69927858D01*
X100806250Y-69939518D01*
X100765849Y-70200379D01*
X100580434Y-70262172D01*
X100350086Y-70227079D01*
X99951146Y-70223100D01*
X99676916Y-70446135D01*
X99661160Y-70468163D01*
X99455478Y-70681956D01*
X99329238Y-70701322D01*
X99274330Y-70774059D01*
X99259159Y-71077054D01*
X99264102Y-71201274D01*
X99381734Y-71745364D01*
X99662649Y-72017949D01*
X100115013Y-72024554D01*
X100365649Y-71946469D01*
X100732370Y-71832819D01*
X100943439Y-71879136D01*
X101103425Y-72068891D01*
X101364271Y-72294724D01*
X101797675Y-72384357D01*
X102006869Y-72390000D01*
X102449315Y-72356223D01*
X102743402Y-72271430D01*
X102790625Y-72231250D01*
X103005800Y-72115731D01*
X103343978Y-72072500D01*
X103717416Y-71993506D01*
X103874075Y-71831263D01*
X103926546Y-71715674D01*
X103923601Y-71870950D01*
X103762376Y-72108082D01*
X103344447Y-72236329D01*
X102985305Y-72330283D01*
X102815743Y-72452594D01*
X102813683Y-72474454D01*
X102946663Y-73213912D01*
X103128495Y-74033158D01*
X103332677Y-74827258D01*
X103532707Y-75491276D01*
X103663677Y-75839934D01*
X103904193Y-76569109D01*
X103971088Y-77229587D01*
X103856907Y-77733874D01*
X103829149Y-77782175D01*
X103783420Y-78101361D01*
X103851018Y-78218738D01*
X103921698Y-78388698D01*
X103786122Y-78425769D01*
X103520884Y-78341295D01*
X103202574Y-78146625D01*
X103165399Y-78117173D01*
X102925318Y-77907396D01*
X102926173Y-77834742D01*
X103108125Y-77839361D01*
X103313850Y-77813196D01*
X103389333Y-77630427D01*
X103378916Y-77270357D01*
X103281471Y-76735415D01*
X103097064Y-76144594D01*
X103038303Y-76000357D01*
X102744399Y-75326875D01*
X102825317Y-76041250D01*
X102927482Y-76601777D01*
X103081447Y-77111789D01*
X103126931Y-77217957D01*
X103257134Y-77557135D01*
X103273713Y-77753110D01*
X103269647Y-77758269D01*
X103152459Y-77707812D01*
X103005652Y-77404864D01*
X102847641Y-76910781D01*
X102696844Y-76286918D01*
X102571676Y-75594630D01*
X102531133Y-75297853D01*
X102443607Y-74705944D01*
X102331701Y-74118024D01*
X102210398Y-73590624D01*
X102094683Y-73180276D01*
X101999539Y-72943513D01*
X101939951Y-72936865D01*
X101928685Y-73024908D01*
X101951014Y-73286633D01*
X102020213Y-73782235D01*
X102122846Y-74433870D01*
X102245477Y-75163695D01*
X102374669Y-75893866D01*
X102496986Y-76546539D01*
X102598993Y-77043872D01*
X102667253Y-77308021D01*
X102668526Y-77311250D01*
X102724212Y-77656138D01*
X102726118Y-78177802D01*
X102682716Y-78741683D01*
X102602483Y-79213218D01*
X102536835Y-79402308D01*
X102186774Y-79871979D01*
X101778070Y-80135912D01*
X101590994Y-80168750D01*
X101403541Y-80152375D01*
X101380231Y-80050301D01*
X101522719Y-79783106D01*
X101601739Y-79652812D01*
X101818200Y-79144408D01*
X101915855Y-78612025D01*
X101916313Y-78581250D01*
X101916313Y-78025625D01*
X101613007Y-78523034D01*
X101196197Y-79049780D01*
X100721252Y-79408717D01*
X100294677Y-79533750D01*
X100044175Y-79589802D01*
X100072356Y-79738939D01*
X100364618Y-79952632D01*
X100560951Y-80053983D01*
X101001541Y-80361917D01*
X101338550Y-80760883D01*
X101358777Y-80797760D01*
X101608153Y-81280000D01*
X98141974Y-81280000D01*
X97904428Y-80684687D01*
X97588520Y-79805147D01*
X97526877Y-79535187D01*
X99734603Y-79535187D01*
X99793827Y-79596141D01*
X99912432Y-79504086D01*
X100064581Y-79274728D01*
X100059661Y-79166559D01*
X100090067Y-78961961D01*
X100220509Y-78769684D01*
X100446658Y-78444611D01*
X100683957Y-78003256D01*
X100710266Y-77946250D01*
X100960911Y-77390625D01*
X100864461Y-77946250D01*
X100729053Y-78472352D01*
X100544928Y-78938437D01*
X100419046Y-79266692D01*
X100501033Y-79359219D01*
X100795331Y-79218190D01*
X100930583Y-79127238D01*
X101399879Y-78619292D01*
X101688879Y-77925029D01*
X101758750Y-77346938D01*
X101715931Y-77002806D01*
X101604175Y-76481903D01*
X101448532Y-75873996D01*
X101274049Y-75268857D01*
X101105776Y-74756252D01*
X100968763Y-74425952D01*
X100926006Y-74362630D01*
X100900425Y-74484519D01*
X100874883Y-74841183D01*
X100858143Y-75258282D01*
X100785173Y-76024490D01*
X100626180Y-76851379D01*
X100409517Y-77624983D01*
X100163536Y-78231336D01*
X100083894Y-78370446D01*
X99892907Y-78785090D01*
X99774787Y-79213907D01*
X99734603Y-79535187D01*
X97526877Y-79535187D01*
X97508423Y-79454375D01*
X99218750Y-79454375D01*
X99298125Y-79533750D01*
X99377500Y-79454375D01*
X99298125Y-79375000D01*
X99218750Y-79454375D01*
X97508423Y-79454375D01*
X97446790Y-79184464D01*
X97466601Y-78951666D01*
X98160416Y-78951666D01*
X98182208Y-79046043D01*
X98266250Y-79057500D01*
X98396919Y-78999415D01*
X98372083Y-78951666D01*
X98183684Y-78932667D01*
X98160416Y-78951666D01*
X97466601Y-78951666D01*
X97478078Y-78816802D01*
X97521147Y-78754852D01*
X97751889Y-78598769D01*
X97887487Y-78619830D01*
X97853292Y-78779687D01*
X97821642Y-78888888D01*
X97883610Y-78845833D01*
X98021263Y-78643134D01*
X98023462Y-78630388D01*
X98266250Y-78630388D01*
X98361198Y-78663347D01*
X98592035Y-78521266D01*
X98877750Y-78260971D01*
X99015263Y-78105000D01*
X99206911Y-77813565D01*
X99178027Y-77719489D01*
X98964789Y-77833300D01*
X98742500Y-78025625D01*
X98444499Y-78344002D01*
X98278530Y-78585154D01*
X98266250Y-78630388D01*
X98023462Y-78630388D01*
X98028125Y-78603377D01*
X98134405Y-78445326D01*
X98412375Y-78139287D01*
X98782187Y-77770693D01*
X99141473Y-77393616D01*
X99403111Y-77060433D01*
X99546270Y-76815062D01*
X99550121Y-76701420D01*
X99393835Y-76763425D01*
X99179062Y-76933923D01*
X98786878Y-77260501D01*
X98545767Y-77430262D01*
X98483600Y-77433475D01*
X98628249Y-77260405D01*
X98844098Y-77050894D01*
X99218572Y-76652479D01*
X99504797Y-76258425D01*
X99665397Y-75934504D01*
X99663001Y-75746492D01*
X99598196Y-75723750D01*
X99429683Y-75832469D01*
X99146276Y-76105710D01*
X99023727Y-76239687D01*
X98758222Y-76533763D01*
X98678913Y-76594796D01*
X98765262Y-76430711D01*
X98836702Y-76311865D01*
X99007797Y-75954355D01*
X98984585Y-75664550D01*
X98897526Y-75478666D01*
X98715512Y-75209795D01*
X98596457Y-75221809D01*
X98530369Y-75527245D01*
X98509376Y-75965693D01*
X98432299Y-76549475D01*
X98198332Y-76960261D01*
X98128158Y-77033200D01*
X97760287Y-77390625D01*
X98092643Y-76757975D01*
X98299426Y-76313471D01*
X98403632Y-75990445D01*
X98403305Y-75834616D01*
X98296490Y-75891706D01*
X98118893Y-76144439D01*
X97808738Y-76524368D01*
X97353177Y-76942797D01*
X97071770Y-77155151D01*
X96532538Y-77611894D01*
X96157244Y-78099106D01*
X96097984Y-78220058D01*
X95931723Y-78554067D01*
X95805279Y-78697771D01*
X95784619Y-78692536D01*
X95783023Y-78489064D01*
X95950495Y-78141365D01*
X96234413Y-77732497D01*
X96582154Y-77345517D01*
X96712735Y-77227638D01*
X97036114Y-76937568D01*
X97227254Y-76731626D01*
X97247863Y-76692791D01*
X97284034Y-76596875D01*
X97313750Y-76596875D01*
X97393125Y-76676250D01*
X97472500Y-76596875D01*
X97393125Y-76517500D01*
X97313750Y-76596875D01*
X97284034Y-76596875D01*
X97318635Y-76505125D01*
X97484054Y-76133366D01*
X97601564Y-75882500D01*
X97868778Y-75227749D01*
X97877306Y-75172935D01*
X99259808Y-75172935D01*
X99291597Y-75236938D01*
X99442970Y-75401063D01*
X99470817Y-75285319D01*
X99432280Y-75161278D01*
X99315406Y-74988392D01*
X99262616Y-74991966D01*
X99259808Y-75172935D01*
X97877306Y-75172935D01*
X97933430Y-74812234D01*
X97795404Y-74638013D01*
X97670937Y-74638246D01*
X97311186Y-74607375D01*
X97180855Y-74550932D01*
X96907311Y-74520027D01*
X96704477Y-74748864D01*
X96639350Y-75032333D01*
X96491864Y-75255350D01*
X96188590Y-75347213D01*
X95875548Y-75275365D01*
X95803277Y-75218750D01*
X95580038Y-75170987D01*
X95432917Y-75202427D01*
X95261775Y-75236754D01*
X95350080Y-75101006D01*
X95369062Y-75080364D01*
X95555325Y-74705113D01*
X95424373Y-74322136D01*
X95235424Y-74123608D01*
X95028442Y-73857784D01*
X95017422Y-73712916D01*
X95779166Y-73712916D01*
X95800958Y-73807293D01*
X95885000Y-73818750D01*
X96015669Y-73760665D01*
X95990833Y-73712916D01*
X95802434Y-73693917D01*
X95779166Y-73712916D01*
X95017422Y-73712916D01*
X95013229Y-73657807D01*
X95011667Y-73638772D01*
X96123125Y-73638772D01*
X96837500Y-74034223D01*
X97309339Y-74266644D01*
X97709605Y-74414988D01*
X97849977Y-74441712D01*
X98031104Y-74411470D01*
X98091522Y-74246627D01*
X98054579Y-73866208D01*
X98041057Y-73779062D01*
X97922924Y-73302941D01*
X97759337Y-72941577D01*
X97708480Y-72877132D01*
X97527957Y-72757195D01*
X97334549Y-72833820D01*
X97090642Y-73073168D01*
X96846275Y-73362502D01*
X96811134Y-73525160D01*
X96965325Y-73654262D01*
X96966367Y-73654878D01*
X97071770Y-73748227D01*
X96906506Y-73757059D01*
X96678750Y-73726040D01*
X96123125Y-73638772D01*
X95011667Y-73638772D01*
X95001991Y-73520939D01*
X94908743Y-73517609D01*
X94633975Y-73515133D01*
X94178058Y-73466371D01*
X93914505Y-73426957D01*
X93423777Y-73366224D01*
X93137409Y-73401564D01*
X92952306Y-73549821D01*
X92922317Y-73589071D01*
X92759702Y-73757181D01*
X92706470Y-73730029D01*
X92623638Y-73732767D01*
X92426768Y-73940333D01*
X92405424Y-73967708D01*
X92218004Y-74304370D01*
X92187813Y-74563020D01*
X92163567Y-74747955D01*
X92091984Y-74771250D01*
X91940827Y-74641199D01*
X91916250Y-74506666D01*
X91870948Y-74329396D01*
X91817976Y-74340357D01*
X91643189Y-74347070D01*
X91452114Y-74141955D01*
X91312429Y-73819378D01*
X91281250Y-73591964D01*
X91241960Y-73297899D01*
X91162187Y-73208952D01*
X90907913Y-73170386D01*
X90629065Y-73030489D01*
X90488033Y-72872256D01*
X90487500Y-72864127D01*
X90614357Y-72795991D01*
X90805000Y-72820252D01*
X91039443Y-72842811D01*
X91095118Y-72712122D01*
X90973157Y-72384981D01*
X90850487Y-72144794D01*
X91184047Y-72144794D01*
X91284375Y-72466620D01*
X91445986Y-72755383D01*
X91594820Y-72866250D01*
X91752143Y-72747843D01*
X91757500Y-72707500D01*
X91635460Y-72554850D01*
X91589381Y-72548750D01*
X91483211Y-72463594D01*
X91499531Y-72422107D01*
X91501815Y-72310625D01*
X97631250Y-72310625D01*
X97710625Y-72390000D01*
X97790000Y-72310625D01*
X97710625Y-72231250D01*
X97631250Y-72310625D01*
X91501815Y-72310625D01*
X91503616Y-72222755D01*
X91391759Y-72007720D01*
X91247425Y-71915252D01*
X91206065Y-71936018D01*
X91184047Y-72144794D01*
X90850487Y-72144794D01*
X90824087Y-72093103D01*
X90538984Y-71558081D01*
X90332049Y-72533199D01*
X90219089Y-73393216D01*
X90201777Y-74360846D01*
X90273461Y-75321755D01*
X90427488Y-76161609D01*
X90567905Y-76586787D01*
X91166901Y-77633515D01*
X91967575Y-78458371D01*
X92199098Y-78627564D01*
X92484544Y-78802019D01*
X92766658Y-78908515D01*
X93108389Y-78948104D01*
X93572686Y-78921843D01*
X94222498Y-78830785D01*
X95118074Y-78676467D01*
X95426900Y-78632820D01*
X95445540Y-78669166D01*
X95329375Y-78729245D01*
X94914940Y-78859532D01*
X94694375Y-78890023D01*
X94244995Y-78972711D01*
X94068623Y-79196953D01*
X94140191Y-79603314D01*
X94184311Y-79715433D01*
X94534847Y-80348273D01*
X94957462Y-80699540D01*
X95469906Y-80803750D01*
X95984634Y-80803750D01*
X95915783Y-79811562D01*
X95887267Y-79231590D01*
X95897223Y-78949134D01*
X95936065Y-78947871D01*
X95994210Y-79211476D01*
X96062072Y-79723622D01*
X96102192Y-80129062D01*
X96204716Y-81280000D01*
X91416955Y-81280000D01*
X91756683Y-80848106D01*
X92085039Y-80510152D01*
X92532108Y-80145259D01*
X93005393Y-79818541D01*
X93412397Y-79595113D01*
X93622812Y-79534429D01*
X93798593Y-79405861D01*
X93821250Y-79295625D01*
X93724542Y-79087544D01*
X93486880Y-79100454D01*
X93186953Y-79326076D01*
X93151344Y-79366082D01*
X92674069Y-79705184D01*
X92092792Y-79802925D01*
X91487268Y-79676866D01*
X90937249Y-79344568D01*
X90522490Y-78823591D01*
X90501637Y-78782650D01*
X90305304Y-78443978D01*
X90148482Y-78272420D01*
X90130312Y-78267355D01*
X90012042Y-78360278D01*
X90121421Y-78635485D01*
X90447135Y-79066202D01*
X90487500Y-79112620D01*
X90773146Y-79457691D01*
X90943125Y-79701151D01*
X90963750Y-79753144D01*
X90844026Y-79856597D01*
X90550711Y-79820606D01*
X90182589Y-79668878D01*
X89932084Y-79505552D01*
X89627004Y-79288279D01*
X89451756Y-79266593D01*
X89297862Y-79426177D01*
X89111051Y-79642189D01*
X89033891Y-79692500D01*
X88997466Y-79547928D01*
X88971012Y-79170884D01*
X88965157Y-78898750D01*
X89217500Y-78898750D01*
X89275584Y-79029419D01*
X89323333Y-79004583D01*
X89342332Y-78816184D01*
X89323333Y-78792916D01*
X89228956Y-78814708D01*
X89217500Y-78898750D01*
X88965157Y-78898750D01*
X88960886Y-78700312D01*
X88951957Y-78023707D01*
X88932201Y-77207829D01*
X88911095Y-76582499D01*
X89714518Y-76582499D01*
X89722437Y-77183985D01*
X89748684Y-77653758D01*
X89793943Y-77916070D01*
X89820336Y-77946250D01*
X89878835Y-77801381D01*
X89911473Y-77421165D01*
X89911354Y-76887188D01*
X89910942Y-76874687D01*
X89874963Y-75803125D01*
X89996607Y-76755625D01*
X90163345Y-77551359D01*
X90435054Y-78302697D01*
X90769614Y-78909886D01*
X91031522Y-79206620D01*
X91227666Y-79334080D01*
X91280892Y-79230520D01*
X91281250Y-79205753D01*
X91365803Y-79147607D01*
X91591916Y-79331215D01*
X91604934Y-79345065D01*
X91865781Y-79592578D01*
X92029481Y-79692500D01*
X92003299Y-79593495D01*
X91807988Y-79350233D01*
X91762096Y-79300517D01*
X91478587Y-79058692D01*
X91272833Y-78986252D01*
X91257876Y-78992570D01*
X91113128Y-78924243D01*
X90951142Y-78643137D01*
X90946089Y-78630490D01*
X90761830Y-78086256D01*
X90682219Y-77804242D01*
X90919453Y-77804242D01*
X90982583Y-77972416D01*
X91009806Y-78025625D01*
X91320613Y-78514311D01*
X91706349Y-78976880D01*
X92094084Y-79338325D01*
X92410890Y-79523638D01*
X92476155Y-79533750D01*
X92673052Y-79476086D01*
X92683541Y-79414112D01*
X92549700Y-79256350D01*
X92241495Y-78944039D01*
X91818626Y-78537149D01*
X91695827Y-78421925D01*
X91248634Y-78013144D01*
X90998990Y-77812534D01*
X90919453Y-77804242D01*
X90682219Y-77804242D01*
X90558216Y-77364978D01*
X90357418Y-76561097D01*
X90181606Y-75769051D01*
X90052952Y-75083282D01*
X89993627Y-74598230D01*
X89992467Y-74568405D01*
X89976514Y-74169994D01*
X89948144Y-74065106D01*
X89890086Y-74229801D01*
X89852499Y-74374375D01*
X89793920Y-74745237D01*
X89750942Y-75287377D01*
X89724248Y-75925047D01*
X89714518Y-76582499D01*
X88911095Y-76582499D01*
X88906221Y-76438125D01*
X88895669Y-75686255D01*
X88916463Y-74922456D01*
X88964097Y-74308737D01*
X88965810Y-74295000D01*
X89076290Y-73421875D01*
X88751842Y-73818750D01*
X88453988Y-74291825D01*
X88163728Y-74927727D01*
X87929645Y-75599005D01*
X87800322Y-76178211D01*
X87788750Y-76345267D01*
X87868084Y-76746367D01*
X88026874Y-76993750D01*
X88226980Y-77232785D01*
X88264999Y-77350126D01*
X88187027Y-77414595D01*
X87996540Y-77278304D01*
X87758679Y-77003635D01*
X87540157Y-76656008D01*
X87358526Y-76043283D01*
X87325934Y-75297054D01*
X87438755Y-74562205D01*
X87603385Y-74130128D01*
X87783736Y-73793994D01*
X88080389Y-73246130D01*
X88457104Y-72553260D01*
X88877645Y-71782112D01*
X89032135Y-71499381D01*
X89430618Y-70763171D01*
X89768175Y-70125506D01*
X90018049Y-69638039D01*
X90153487Y-69352426D01*
X90170000Y-69302614D01*
X90032162Y-69250899D01*
X89689642Y-69265935D01*
X89574687Y-69282106D01*
X89121838Y-69304693D01*
X88778125Y-69237336D01*
X88741250Y-69216906D01*
X88653874Y-69121561D01*
X88840440Y-69124057D01*
X88999809Y-69151839D01*
X89398615Y-69169979D01*
X89604756Y-69071813D01*
X89791037Y-68977854D01*
X90030195Y-69066389D01*
X90416047Y-69158081D01*
X90814155Y-69133614D01*
X91131501Y-69090000D01*
X91213544Y-69176854D01*
X91184735Y-69281795D01*
X91185807Y-69459186D01*
X91416023Y-69527460D01*
X91586747Y-69532500D01*
X91976144Y-69464537D01*
X92172495Y-69304398D01*
X92367353Y-69149561D01*
X92486298Y-69163126D01*
X92754844Y-69155728D01*
X93138404Y-69036556D01*
X93518132Y-68857484D01*
X93775180Y-68670388D01*
X93821250Y-68580440D01*
X93700105Y-68391302D01*
X93562738Y-68292356D01*
X93407422Y-68133874D01*
X93483363Y-68036974D01*
X93650172Y-67811080D01*
X93609428Y-67573533D01*
X93394919Y-67468750D01*
X93097131Y-67569468D01*
X92744525Y-67813121D01*
X92730101Y-67825937D01*
X92332864Y-68183125D01*
X92669288Y-67739002D01*
X92891174Y-67365433D01*
X92902323Y-67026877D01*
X92849480Y-66846711D01*
X92618691Y-66454008D01*
X92344436Y-66214361D01*
X92138624Y-66097258D01*
X92213783Y-66104997D01*
X92313125Y-66137412D01*
X92689741Y-66216024D01*
X92868750Y-66219545D01*
X93156488Y-66188397D01*
X93629985Y-66136399D01*
X93944899Y-66101591D01*
X94577442Y-66075662D01*
X94969240Y-66172743D01*
X95043236Y-66222806D01*
X95209565Y-66332525D01*
X95251713Y-66237552D01*
X95196456Y-65896380D01*
X95073044Y-65463372D01*
X94920319Y-65152625D01*
X94912119Y-65142317D01*
X94619208Y-64962985D01*
X94277043Y-64948916D01*
X94059374Y-65087500D01*
X93856685Y-65240464D01*
X93690098Y-65147138D01*
X93662500Y-65014309D01*
X93789770Y-64710536D01*
X94092136Y-64395162D01*
X94450432Y-64175813D01*
X94636081Y-64135000D01*
X94941453Y-64233693D01*
G37*
X94941453Y-64233693D02*
X95307937Y-64473688D01*
X95336397Y-64497647D01*
X95653937Y-64884541D01*
X95756799Y-65379796D01*
X95757999Y-65461039D01*
X95781443Y-65847170D01*
X95874695Y-65982658D01*
X96019937Y-65955294D01*
X96314712Y-65884528D01*
X96805101Y-65812040D01*
X97234375Y-65767313D01*
X97723651Y-65734591D01*
X98075221Y-65761577D01*
X98393183Y-65883846D01*
X98781636Y-66136974D01*
X99178813Y-66431806D01*
X99768250Y-66931468D01*
X100342878Y-67511059D01*
X100759370Y-68020096D01*
X101158398Y-68530755D01*
X101451394Y-68763217D01*
X101593056Y-68772007D01*
X101637554Y-68803996D01*
X101471415Y-68988046D01*
X101322187Y-69121166D01*
X100950568Y-69537138D01*
X100806417Y-69927858D01*
X100806250Y-69939518D01*
X100765849Y-70200379D01*
X100580434Y-70262172D01*
X100350086Y-70227079D01*
X99951146Y-70223100D01*
X99676916Y-70446135D01*
X99661160Y-70468163D01*
X99455478Y-70681956D01*
X99329238Y-70701322D01*
X99274330Y-70774059D01*
X99259159Y-71077054D01*
X99264102Y-71201274D01*
X99381734Y-71745364D01*
X99662649Y-72017949D01*
X100115013Y-72024554D01*
X100365649Y-71946469D01*
X100732370Y-71832819D01*
X100943439Y-71879136D01*
X101103425Y-72068891D01*
X101364271Y-72294724D01*
X101797675Y-72384357D01*
X102006869Y-72390000D01*
X102449315Y-72356223D01*
X102743402Y-72271430D01*
X102790625Y-72231250D01*
X103005800Y-72115731D01*
X103343978Y-72072500D01*
X103717416Y-71993506D01*
X103874075Y-71831263D01*
X103926546Y-71715674D01*
X103923601Y-71870950D01*
X103762376Y-72108082D01*
X103344447Y-72236329D01*
X102985305Y-72330283D01*
X102815743Y-72452594D01*
X102813683Y-72474454D01*
X102946663Y-73213912D01*
X103128495Y-74033158D01*
X103332677Y-74827258D01*
X103532707Y-75491276D01*
X103663677Y-75839934D01*
X103904193Y-76569109D01*
X103971088Y-77229587D01*
X103856907Y-77733874D01*
X103829149Y-77782175D01*
X103783420Y-78101361D01*
X103851018Y-78218738D01*
X103921698Y-78388698D01*
X103786122Y-78425769D01*
X103520884Y-78341295D01*
X103202574Y-78146625D01*
X103165399Y-78117173D01*
X102925318Y-77907396D01*
X102926173Y-77834742D01*
X103108125Y-77839361D01*
X103313850Y-77813196D01*
X103389333Y-77630427D01*
X103378916Y-77270357D01*
X103281471Y-76735415D01*
X103097064Y-76144594D01*
X103038303Y-76000357D01*
X102744399Y-75326875D01*
X102825317Y-76041250D01*
X102927482Y-76601777D01*
X103081447Y-77111789D01*
X103126931Y-77217957D01*
X103257134Y-77557135D01*
X103273713Y-77753110D01*
X103269647Y-77758269D01*
X103152459Y-77707812D01*
X103005652Y-77404864D01*
X102847641Y-76910781D01*
X102696844Y-76286918D01*
X102571676Y-75594630D01*
X102531133Y-75297853D01*
X102443607Y-74705944D01*
X102331701Y-74118024D01*
X102210398Y-73590624D01*
X102094683Y-73180276D01*
X101999539Y-72943513D01*
X101939951Y-72936865D01*
X101928685Y-73024908D01*
X101951014Y-73286633D01*
X102020213Y-73782235D01*
X102122846Y-74433870D01*
X102245477Y-75163695D01*
X102374669Y-75893866D01*
X102496986Y-76546539D01*
X102598993Y-77043872D01*
X102667253Y-77308021D01*
X102668526Y-77311250D01*
X102724212Y-77656138D01*
X102726118Y-78177802D01*
X102682716Y-78741683D01*
X102602483Y-79213218D01*
X102536835Y-79402308D01*
X102186774Y-79871979D01*
X101778070Y-80135912D01*
X101590994Y-80168750D01*
X101403541Y-80152375D01*
X101380231Y-80050301D01*
X101522719Y-79783106D01*
X101601739Y-79652812D01*
X101818200Y-79144408D01*
X101915855Y-78612025D01*
X101916313Y-78581250D01*
X101916313Y-78025625D01*
X101613007Y-78523034D01*
X101196197Y-79049780D01*
X100721252Y-79408717D01*
X100294677Y-79533750D01*
X100044175Y-79589802D01*
X100072356Y-79738939D01*
X100364618Y-79952632D01*
X100560951Y-80053983D01*
X101001541Y-80361917D01*
X101338550Y-80760883D01*
X101358777Y-80797760D01*
X101608153Y-81280000D01*
X98141974Y-81280000D01*
X97904428Y-80684687D01*
X97588520Y-79805147D01*
X97526877Y-79535187D01*
X99734603Y-79535187D01*
X99793827Y-79596141D01*
X99912432Y-79504086D01*
X100064581Y-79274728D01*
X100059661Y-79166559D01*
X100090067Y-78961961D01*
X100220509Y-78769684D01*
X100446658Y-78444611D01*
X100683957Y-78003256D01*
X100710266Y-77946250D01*
X100960911Y-77390625D01*
X100864461Y-77946250D01*
X100729053Y-78472352D01*
X100544928Y-78938437D01*
X100419046Y-79266692D01*
X100501033Y-79359219D01*
X100795331Y-79218190D01*
X100930583Y-79127238D01*
X101399879Y-78619292D01*
X101688879Y-77925029D01*
X101758750Y-77346938D01*
X101715931Y-77002806D01*
X101604175Y-76481903D01*
X101448532Y-75873996D01*
X101274049Y-75268857D01*
X101105776Y-74756252D01*
X100968763Y-74425952D01*
X100926006Y-74362630D01*
X100900425Y-74484519D01*
X100874883Y-74841183D01*
X100858143Y-75258282D01*
X100785173Y-76024490D01*
X100626180Y-76851379D01*
X100409517Y-77624983D01*
X100163536Y-78231336D01*
X100083894Y-78370446D01*
X99892907Y-78785090D01*
X99774787Y-79213907D01*
X99734603Y-79535187D01*
X97526877Y-79535187D01*
X97508423Y-79454375D01*
X99218750Y-79454375D01*
X99298125Y-79533750D01*
X99377500Y-79454375D01*
X99298125Y-79375000D01*
X99218750Y-79454375D01*
X97508423Y-79454375D01*
X97446790Y-79184464D01*
X97466601Y-78951666D01*
X98160416Y-78951666D01*
X98182208Y-79046043D01*
X98266250Y-79057500D01*
X98396919Y-78999415D01*
X98372083Y-78951666D01*
X98183684Y-78932667D01*
X98160416Y-78951666D01*
X97466601Y-78951666D01*
X97478078Y-78816802D01*
X97521147Y-78754852D01*
X97751889Y-78598769D01*
X97887487Y-78619830D01*
X97853292Y-78779687D01*
X97821642Y-78888888D01*
X97883610Y-78845833D01*
X98021263Y-78643134D01*
X98023462Y-78630388D01*
X98266250Y-78630388D01*
X98361198Y-78663347D01*
X98592035Y-78521266D01*
X98877750Y-78260971D01*
X99015263Y-78105000D01*
X99206911Y-77813565D01*
X99178027Y-77719489D01*
X98964789Y-77833300D01*
X98742500Y-78025625D01*
X98444499Y-78344002D01*
X98278530Y-78585154D01*
X98266250Y-78630388D01*
X98023462Y-78630388D01*
X98028125Y-78603377D01*
X98134405Y-78445326D01*
X98412375Y-78139287D01*
X98782187Y-77770693D01*
X99141473Y-77393616D01*
X99403111Y-77060433D01*
X99546270Y-76815062D01*
X99550121Y-76701420D01*
X99393835Y-76763425D01*
X99179062Y-76933923D01*
X98786878Y-77260501D01*
X98545767Y-77430262D01*
X98483600Y-77433475D01*
X98628249Y-77260405D01*
X98844098Y-77050894D01*
X99218572Y-76652479D01*
X99504797Y-76258425D01*
X99665397Y-75934504D01*
X99663001Y-75746492D01*
X99598196Y-75723750D01*
X99429683Y-75832469D01*
X99146276Y-76105710D01*
X99023727Y-76239687D01*
X98758222Y-76533763D01*
X98678913Y-76594796D01*
X98765262Y-76430711D01*
X98836702Y-76311865D01*
X99007797Y-75954355D01*
X98984585Y-75664550D01*
X98897526Y-75478666D01*
X98715512Y-75209795D01*
X98596457Y-75221809D01*
X98530369Y-75527245D01*
X98509376Y-75965693D01*
X98432299Y-76549475D01*
X98198332Y-76960261D01*
X98128158Y-77033200D01*
X97760287Y-77390625D01*
X98092643Y-76757975D01*
X98299426Y-76313471D01*
X98403632Y-75990445D01*
X98403305Y-75834616D01*
X98296490Y-75891706D01*
X98118893Y-76144439D01*
X97808738Y-76524368D01*
X97353177Y-76942797D01*
X97071770Y-77155151D01*
X96532538Y-77611894D01*
X96157244Y-78099106D01*
X96097984Y-78220058D01*
X95931723Y-78554067D01*
X95805279Y-78697771D01*
X95784619Y-78692536D01*
X95783023Y-78489064D01*
X95950495Y-78141365D01*
X96234413Y-77732497D01*
X96582154Y-77345517D01*
X96712735Y-77227638D01*
X97036114Y-76937568D01*
X97227254Y-76731626D01*
X97247863Y-76692791D01*
X97284034Y-76596875D01*
X97313750Y-76596875D01*
X97393125Y-76676250D01*
X97472500Y-76596875D01*
X97393125Y-76517500D01*
X97313750Y-76596875D01*
X97284034Y-76596875D01*
X97318635Y-76505125D01*
X97484054Y-76133366D01*
X97601564Y-75882500D01*
X97868778Y-75227749D01*
X97877306Y-75172935D01*
X99259808Y-75172935D01*
X99291597Y-75236938D01*
X99442970Y-75401063D01*
X99470817Y-75285319D01*
X99432280Y-75161278D01*
X99315406Y-74988392D01*
X99262616Y-74991966D01*
X99259808Y-75172935D01*
X97877306Y-75172935D01*
X97933430Y-74812234D01*
X97795404Y-74638013D01*
X97670937Y-74638246D01*
X97311186Y-74607375D01*
X97180855Y-74550932D01*
X96907311Y-74520027D01*
X96704477Y-74748864D01*
X96639350Y-75032333D01*
X96491864Y-75255350D01*
X96188590Y-75347213D01*
X95875548Y-75275365D01*
X95803277Y-75218750D01*
X95580038Y-75170987D01*
X95432917Y-75202427D01*
X95261775Y-75236754D01*
X95350080Y-75101006D01*
X95369062Y-75080364D01*
X95555325Y-74705113D01*
X95424373Y-74322136D01*
X95235424Y-74123608D01*
X95028442Y-73857784D01*
X95017422Y-73712916D01*
X95779166Y-73712916D01*
X95800958Y-73807293D01*
X95885000Y-73818750D01*
X96015669Y-73760665D01*
X95990833Y-73712916D01*
X95802434Y-73693917D01*
X95779166Y-73712916D01*
X95017422Y-73712916D01*
X95013229Y-73657807D01*
X95011667Y-73638772D01*
X96123125Y-73638772D01*
X96837500Y-74034223D01*
X97309339Y-74266644D01*
X97709605Y-74414988D01*
X97849977Y-74441712D01*
X98031104Y-74411470D01*
X98091522Y-74246627D01*
X98054579Y-73866208D01*
X98041057Y-73779062D01*
X97922924Y-73302941D01*
X97759337Y-72941577D01*
X97708480Y-72877132D01*
X97527957Y-72757195D01*
X97334549Y-72833820D01*
X97090642Y-73073168D01*
X96846275Y-73362502D01*
X96811134Y-73525160D01*
X96965325Y-73654262D01*
X96966367Y-73654878D01*
X97071770Y-73748227D01*
X96906506Y-73757059D01*
X96678750Y-73726040D01*
X96123125Y-73638772D01*
X95011667Y-73638772D01*
X95001991Y-73520939D01*
X94908743Y-73517609D01*
X94633975Y-73515133D01*
X94178058Y-73466371D01*
X93914505Y-73426957D01*
X93423777Y-73366224D01*
X93137409Y-73401564D01*
X92952306Y-73549821D01*
X92922317Y-73589071D01*
X92759702Y-73757181D01*
X92706470Y-73730029D01*
X92623638Y-73732767D01*
X92426768Y-73940333D01*
X92405424Y-73967708D01*
X92218004Y-74304370D01*
X92187813Y-74563020D01*
X92163567Y-74747955D01*
X92091984Y-74771250D01*
X91940827Y-74641199D01*
X91916250Y-74506666D01*
X91870948Y-74329396D01*
X91817976Y-74340357D01*
X91643189Y-74347070D01*
X91452114Y-74141955D01*
X91312429Y-73819378D01*
X91281250Y-73591964D01*
X91241960Y-73297899D01*
X91162187Y-73208952D01*
X90907913Y-73170386D01*
X90629065Y-73030489D01*
X90488033Y-72872256D01*
X90487500Y-72864127D01*
X90614357Y-72795991D01*
X90805000Y-72820252D01*
X91039443Y-72842811D01*
X91095118Y-72712122D01*
X90973157Y-72384981D01*
X90850487Y-72144794D01*
X91184047Y-72144794D01*
X91284375Y-72466620D01*
X91445986Y-72755383D01*
X91594820Y-72866250D01*
X91752143Y-72747843D01*
X91757500Y-72707500D01*
X91635460Y-72554850D01*
X91589381Y-72548750D01*
X91483211Y-72463594D01*
X91499531Y-72422107D01*
X91501815Y-72310625D01*
X97631250Y-72310625D01*
X97710625Y-72390000D01*
X97790000Y-72310625D01*
X97710625Y-72231250D01*
X97631250Y-72310625D01*
X91501815Y-72310625D01*
X91503616Y-72222755D01*
X91391759Y-72007720D01*
X91247425Y-71915252D01*
X91206065Y-71936018D01*
X91184047Y-72144794D01*
X90850487Y-72144794D01*
X90824087Y-72093103D01*
X90538984Y-71558081D01*
X90332049Y-72533199D01*
X90219089Y-73393216D01*
X90201777Y-74360846D01*
X90273461Y-75321755D01*
X90427488Y-76161609D01*
X90567905Y-76586787D01*
X91166901Y-77633515D01*
X91967575Y-78458371D01*
X92199098Y-78627564D01*
X92484544Y-78802019D01*
X92766658Y-78908515D01*
X93108389Y-78948104D01*
X93572686Y-78921843D01*
X94222498Y-78830785D01*
X95118074Y-78676467D01*
X95426900Y-78632820D01*
X95445540Y-78669166D01*
X95329375Y-78729245D01*
X94914940Y-78859532D01*
X94694375Y-78890023D01*
X94244995Y-78972711D01*
X94068623Y-79196953D01*
X94140191Y-79603314D01*
X94184311Y-79715433D01*
X94534847Y-80348273D01*
X94957462Y-80699540D01*
X95469906Y-80803750D01*
X95984634Y-80803750D01*
X95915783Y-79811562D01*
X95887267Y-79231590D01*
X95897223Y-78949134D01*
X95936065Y-78947871D01*
X95994210Y-79211476D01*
X96062072Y-79723622D01*
X96102192Y-80129062D01*
X96204716Y-81280000D01*
X91416955Y-81280000D01*
X91756683Y-80848106D01*
X92085039Y-80510152D01*
X92532108Y-80145259D01*
X93005393Y-79818541D01*
X93412397Y-79595113D01*
X93622812Y-79534429D01*
X93798593Y-79405861D01*
X93821250Y-79295625D01*
X93724542Y-79087544D01*
X93486880Y-79100454D01*
X93186953Y-79326076D01*
X93151344Y-79366082D01*
X92674069Y-79705184D01*
X92092792Y-79802925D01*
X91487268Y-79676866D01*
X90937249Y-79344568D01*
X90522490Y-78823591D01*
X90501637Y-78782650D01*
X90305304Y-78443978D01*
X90148482Y-78272420D01*
X90130312Y-78267355D01*
X90012042Y-78360278D01*
X90121421Y-78635485D01*
X90447135Y-79066202D01*
X90487500Y-79112620D01*
X90773146Y-79457691D01*
X90943125Y-79701151D01*
X90963750Y-79753144D01*
X90844026Y-79856597D01*
X90550711Y-79820606D01*
X90182589Y-79668878D01*
X89932084Y-79505552D01*
X89627004Y-79288279D01*
X89451756Y-79266593D01*
X89297862Y-79426177D01*
X89111051Y-79642189D01*
X89033891Y-79692500D01*
X88997466Y-79547928D01*
X88971012Y-79170884D01*
X88965157Y-78898750D01*
X89217500Y-78898750D01*
X89275584Y-79029419D01*
X89323333Y-79004583D01*
X89342332Y-78816184D01*
X89323333Y-78792916D01*
X89228956Y-78814708D01*
X89217500Y-78898750D01*
X88965157Y-78898750D01*
X88960886Y-78700312D01*
X88951957Y-78023707D01*
X88932201Y-77207829D01*
X88911095Y-76582499D01*
X89714518Y-76582499D01*
X89722437Y-77183985D01*
X89748684Y-77653758D01*
X89793943Y-77916070D01*
X89820336Y-77946250D01*
X89878835Y-77801381D01*
X89911473Y-77421165D01*
X89911354Y-76887188D01*
X89910942Y-76874687D01*
X89874963Y-75803125D01*
X89996607Y-76755625D01*
X90163345Y-77551359D01*
X90435054Y-78302697D01*
X90769614Y-78909886D01*
X91031522Y-79206620D01*
X91227666Y-79334080D01*
X91280892Y-79230520D01*
X91281250Y-79205753D01*
X91365803Y-79147607D01*
X91591916Y-79331215D01*
X91604934Y-79345065D01*
X91865781Y-79592578D01*
X92029481Y-79692500D01*
X92003299Y-79593495D01*
X91807988Y-79350233D01*
X91762096Y-79300517D01*
X91478587Y-79058692D01*
X91272833Y-78986252D01*
X91257876Y-78992570D01*
X91113128Y-78924243D01*
X90951142Y-78643137D01*
X90946089Y-78630490D01*
X90761830Y-78086256D01*
X90682219Y-77804242D01*
X90919453Y-77804242D01*
X90982583Y-77972416D01*
X91009806Y-78025625D01*
X91320613Y-78514311D01*
X91706349Y-78976880D01*
X92094084Y-79338325D01*
X92410890Y-79523638D01*
X92476155Y-79533750D01*
X92673052Y-79476086D01*
X92683541Y-79414112D01*
X92549700Y-79256350D01*
X92241495Y-78944039D01*
X91818626Y-78537149D01*
X91695827Y-78421925D01*
X91248634Y-78013144D01*
X90998990Y-77812534D01*
X90919453Y-77804242D01*
X90682219Y-77804242D01*
X90558216Y-77364978D01*
X90357418Y-76561097D01*
X90181606Y-75769051D01*
X90052952Y-75083282D01*
X89993627Y-74598230D01*
X89992467Y-74568405D01*
X89976514Y-74169994D01*
X89948144Y-74065106D01*
X89890086Y-74229801D01*
X89852499Y-74374375D01*
X89793920Y-74745237D01*
X89750942Y-75287377D01*
X89724248Y-75925047D01*
X89714518Y-76582499D01*
X88911095Y-76582499D01*
X88906221Y-76438125D01*
X88895669Y-75686255D01*
X88916463Y-74922456D01*
X88964097Y-74308737D01*
X88965810Y-74295000D01*
X89076290Y-73421875D01*
X88751842Y-73818750D01*
X88453988Y-74291825D01*
X88163728Y-74927727D01*
X87929645Y-75599005D01*
X87800322Y-76178211D01*
X87788750Y-76345267D01*
X87868084Y-76746367D01*
X88026874Y-76993750D01*
X88226980Y-77232785D01*
X88264999Y-77350126D01*
X88187027Y-77414595D01*
X87996540Y-77278304D01*
X87758679Y-77003635D01*
X87540157Y-76656008D01*
X87358526Y-76043283D01*
X87325934Y-75297054D01*
X87438755Y-74562205D01*
X87603385Y-74130128D01*
X87783736Y-73793994D01*
X88080389Y-73246130D01*
X88457104Y-72553260D01*
X88877645Y-71782112D01*
X89032135Y-71499381D01*
X89430618Y-70763171D01*
X89768175Y-70125506D01*
X90018049Y-69638039D01*
X90153487Y-69352426D01*
X90170000Y-69302614D01*
X90032162Y-69250899D01*
X89689642Y-69265935D01*
X89574687Y-69282106D01*
X89121838Y-69304693D01*
X88778125Y-69237336D01*
X88741250Y-69216906D01*
X88653874Y-69121561D01*
X88840440Y-69124057D01*
X88999809Y-69151839D01*
X89398615Y-69169979D01*
X89604756Y-69071813D01*
X89791037Y-68977854D01*
X90030195Y-69066389D01*
X90416047Y-69158081D01*
X90814155Y-69133614D01*
X91131501Y-69090000D01*
X91213544Y-69176854D01*
X91184735Y-69281795D01*
X91185807Y-69459186D01*
X91416023Y-69527460D01*
X91586747Y-69532500D01*
X91976144Y-69464537D01*
X92172495Y-69304398D01*
X92367353Y-69149561D01*
X92486298Y-69163126D01*
X92754844Y-69155728D01*
X93138404Y-69036556D01*
X93518132Y-68857484D01*
X93775180Y-68670388D01*
X93821250Y-68580440D01*
X93700105Y-68391302D01*
X93562738Y-68292356D01*
X93407422Y-68133874D01*
X93483363Y-68036974D01*
X93650172Y-67811080D01*
X93609428Y-67573533D01*
X93394919Y-67468750D01*
X93097131Y-67569468D01*
X92744525Y-67813121D01*
X92730101Y-67825937D01*
X92332864Y-68183125D01*
X92669288Y-67739002D01*
X92891174Y-67365433D01*
X92902323Y-67026877D01*
X92849480Y-66846711D01*
X92618691Y-66454008D01*
X92344436Y-66214361D01*
X92138624Y-66097258D01*
X92213783Y-66104997D01*
X92313125Y-66137412D01*
X92689741Y-66216024D01*
X92868750Y-66219545D01*
X93156488Y-66188397D01*
X93629985Y-66136399D01*
X93944899Y-66101591D01*
X94577442Y-66075662D01*
X94969240Y-66172743D01*
X95043236Y-66222806D01*
X95209565Y-66332525D01*
X95251713Y-66237552D01*
X95196456Y-65896380D01*
X95073044Y-65463372D01*
X94920319Y-65152625D01*
X94912119Y-65142317D01*
X94619208Y-64962985D01*
X94277043Y-64948916D01*
X94059374Y-65087500D01*
X93856685Y-65240464D01*
X93690098Y-65147138D01*
X93662500Y-65014309D01*
X93789770Y-64710536D01*
X94092136Y-64395162D01*
X94450432Y-64175813D01*
X94636081Y-64135000D01*
X94941453Y-64233693D01*
G36*
X92768316Y-76151584D02*
G01*
X93605607Y-76380829D01*
X93847929Y-76456048D01*
X95160998Y-76870846D01*
X94791037Y-77170423D01*
X94497505Y-77377816D01*
X94319600Y-77450832D01*
X94119782Y-77418206D01*
X93703928Y-77352942D01*
X93265625Y-77285133D01*
X92511759Y-77090177D01*
X92003794Y-76784968D01*
X91890071Y-76592213D01*
X92103762Y-76592213D01*
X92253253Y-76797563D01*
X92611738Y-76985123D01*
X92789375Y-77037626D01*
X93215425Y-77104697D01*
X93710281Y-77131060D01*
X94174372Y-77118773D01*
X94508128Y-77069894D01*
X94615000Y-76999900D01*
X94474247Y-76870970D01*
X94113977Y-76714407D01*
X93627175Y-76558701D01*
X93106823Y-76432340D01*
X92645907Y-76363815D01*
X92522436Y-76358750D01*
X92185933Y-76426724D01*
X92103762Y-76592213D01*
X91890071Y-76592213D01*
X91769990Y-76388682D01*
X91757500Y-76261788D01*
X91863425Y-76093844D01*
X92193977Y-76056515D01*
X92768316Y-76151584D01*
G37*
X92768316Y-76151584D02*
X93605607Y-76380829D01*
X93847929Y-76456048D01*
X95160998Y-76870846D01*
X94791037Y-77170423D01*
X94497505Y-77377816D01*
X94319600Y-77450832D01*
X94119782Y-77418206D01*
X93703928Y-77352942D01*
X93265625Y-77285133D01*
X92511759Y-77090177D01*
X92003794Y-76784968D01*
X91890071Y-76592213D01*
X92103762Y-76592213D01*
X92253253Y-76797563D01*
X92611738Y-76985123D01*
X92789375Y-77037626D01*
X93215425Y-77104697D01*
X93710281Y-77131060D01*
X94174372Y-77118773D01*
X94508128Y-77069894D01*
X94615000Y-76999900D01*
X94474247Y-76870970D01*
X94113977Y-76714407D01*
X93627175Y-76558701D01*
X93106823Y-76432340D01*
X92645907Y-76363815D01*
X92522436Y-76358750D01*
X92185933Y-76426724D01*
X92103762Y-76592213D01*
X91890071Y-76592213D01*
X91769990Y-76388682D01*
X91757500Y-76261788D01*
X91863425Y-76093844D01*
X92193977Y-76056515D01*
X92768316Y-76151584D01*
G36*
X97201933Y-75204598D02*
G01*
X97234375Y-75247500D01*
X97227118Y-75394019D01*
X97173737Y-75406250D01*
X96949316Y-75290401D01*
X96916875Y-75247500D01*
X96924131Y-75100980D01*
X96977512Y-75088750D01*
X97201933Y-75204598D01*
G37*
X97201933Y-75204598D02*
X97234375Y-75247500D01*
X97227118Y-75394019D01*
X97173737Y-75406250D01*
X96949316Y-75290401D01*
X96916875Y-75247500D01*
X96924131Y-75100980D01*
X96977512Y-75088750D01*
X97201933Y-75204598D01*
G36*
X91281250Y-74374375D02*
G01*
X91201875Y-74453750D01*
X91122500Y-74374375D01*
X91201875Y-74295000D01*
X91281250Y-74374375D01*
G37*
X91281250Y-74374375D02*
X91201875Y-74453750D01*
X91122500Y-74374375D01*
X91201875Y-74295000D01*
X91281250Y-74374375D01*
G36*
X91079505Y-74040338D02*
G01*
X91032159Y-74112492D01*
X90871145Y-74123717D01*
X90701754Y-74084947D01*
X90775234Y-74027805D01*
X91023341Y-74008880D01*
X91079505Y-74040338D01*
G37*
X91079505Y-74040338D02*
X91032159Y-74112492D01*
X90871145Y-74123717D01*
X90701754Y-74084947D01*
X90775234Y-74027805D01*
X91023341Y-74008880D01*
X91079505Y-74040338D01*
G36*
X103018708Y-69186190D02*
G01*
X103119464Y-69283035D01*
X103377142Y-69483245D01*
X103510753Y-69532500D01*
X103728942Y-69666009D01*
X103869626Y-69967464D01*
X103879743Y-70288249D01*
X103822500Y-70405625D01*
X103722355Y-70674548D01*
X103824345Y-70964698D01*
X103936178Y-71253257D01*
X103929231Y-71383684D01*
X103828947Y-71319917D01*
X103746922Y-71131963D01*
X103594357Y-70868845D01*
X103469697Y-70802500D01*
X103433245Y-70706294D01*
X103584375Y-70485000D01*
X103776215Y-70236804D01*
X103748823Y-70048785D01*
X103579308Y-69844401D01*
X103295903Y-69632356D01*
X103078454Y-69601294D01*
X102907229Y-69547418D01*
X102870000Y-69357428D01*
X102894392Y-69136021D01*
X103018708Y-69186190D01*
G37*
X103018708Y-69186190D02*
X103119464Y-69283035D01*
X103377142Y-69483245D01*
X103510753Y-69532500D01*
X103728942Y-69666009D01*
X103869626Y-69967464D01*
X103879743Y-70288249D01*
X103822500Y-70405625D01*
X103722355Y-70674548D01*
X103824345Y-70964698D01*
X103936178Y-71253257D01*
X103929231Y-71383684D01*
X103828947Y-71319917D01*
X103746922Y-71131963D01*
X103594357Y-70868845D01*
X103469697Y-70802500D01*
X103433245Y-70706294D01*
X103584375Y-70485000D01*
X103776215Y-70236804D01*
X103748823Y-70048785D01*
X103579308Y-69844401D01*
X103295903Y-69632356D01*
X103078454Y-69601294D01*
X102907229Y-69547418D01*
X102870000Y-69357428D01*
X102894392Y-69136021D01*
X103018708Y-69186190D01*
G36*
X91598750Y-68976875D02*
G01*
X91519375Y-69056250D01*
X91440000Y-68976875D01*
X91519375Y-68897500D01*
X91598750Y-68976875D01*
G37*
X91598750Y-68976875D02*
X91519375Y-69056250D01*
X91440000Y-68976875D01*
X91519375Y-68897500D01*
X91598750Y-68976875D01*
G36*
X87629999Y-67449311D02*
G01*
X87520201Y-67618780D01*
X87471250Y-67627500D01*
X87332045Y-67747013D01*
X87331416Y-68026580D01*
X87455497Y-68347743D01*
X87573446Y-68500767D01*
X87966527Y-68687422D01*
X88208446Y-68667832D01*
X88490920Y-68640963D01*
X88582500Y-68701100D01*
X88456537Y-68836098D01*
X88155635Y-68855518D01*
X87795268Y-68772095D01*
X87490913Y-68598565D01*
X87469607Y-68578357D01*
X87198410Y-68152128D01*
X87199856Y-67735857D01*
X87391874Y-67468750D01*
X87589132Y-67362490D01*
X87629999Y-67449311D01*
G37*
X87629999Y-67449311D02*
X87520201Y-67618780D01*
X87471250Y-67627500D01*
X87332045Y-67747013D01*
X87331416Y-68026580D01*
X87455497Y-68347743D01*
X87573446Y-68500767D01*
X87966527Y-68687422D01*
X88208446Y-68667832D01*
X88490920Y-68640963D01*
X88582500Y-68701100D01*
X88456537Y-68836098D01*
X88155635Y-68855518D01*
X87795268Y-68772095D01*
X87490913Y-68598565D01*
X87469607Y-68578357D01*
X87198410Y-68152128D01*
X87199856Y-67735857D01*
X87391874Y-67468750D01*
X87589132Y-67362490D01*
X87629999Y-67449311D01*
G36*
X102870000Y-68818125D02*
G01*
X102790625Y-68897500D01*
X102711250Y-68818125D01*
X102790625Y-68738750D01*
X102870000Y-68818125D01*
G37*
X102870000Y-68818125D02*
X102790625Y-68897500D01*
X102711250Y-68818125D01*
X102790625Y-68738750D01*
X102870000Y-68818125D01*
G36*
X91757500Y-68659375D02*
G01*
X91678125Y-68738750D01*
X91598750Y-68659375D01*
X91678125Y-68580000D01*
X91757500Y-68659375D01*
G37*
X91757500Y-68659375D02*
X91678125Y-68738750D01*
X91598750Y-68659375D01*
X91678125Y-68580000D01*
X91757500Y-68659375D01*
G36*
X102433437Y-68633612D02*
G01*
X102453380Y-68691555D01*
X102235000Y-68713684D01*
X102009633Y-68688736D01*
X102036562Y-68633612D01*
X102361578Y-68612645D01*
X102433437Y-68633612D01*
G37*
X102433437Y-68633612D02*
X102453380Y-68691555D01*
X102235000Y-68713684D01*
X102009633Y-68688736D01*
X102036562Y-68633612D01*
X102361578Y-68612645D01*
X102433437Y-68633612D01*
G36*
X91863333Y-68315416D02*
G01*
X91841541Y-68409793D01*
X91757500Y-68421250D01*
X91626830Y-68363165D01*
X91651666Y-68315416D01*
X91840065Y-68296417D01*
X91863333Y-68315416D01*
G37*
X91863333Y-68315416D02*
X91841541Y-68409793D01*
X91757500Y-68421250D01*
X91626830Y-68363165D01*
X91651666Y-68315416D01*
X91840065Y-68296417D01*
X91863333Y-68315416D01*
G36*
X92233750Y-68183125D02*
G01*
X92154375Y-68262500D01*
X92075000Y-68183125D01*
X92154375Y-68103750D01*
X92233750Y-68183125D01*
G37*
X92233750Y-68183125D02*
X92154375Y-68262500D01*
X92075000Y-68183125D01*
X92154375Y-68103750D01*
X92233750Y-68183125D01*
G36*
X88454251Y-66249300D02*
G01*
X88535941Y-66321451D01*
X88393064Y-66344967D01*
X88105864Y-66475566D01*
X87877126Y-66710322D01*
X87701402Y-66910600D01*
X87630000Y-66893677D01*
X87750190Y-66636071D01*
X88024758Y-66385993D01*
X88324699Y-66244295D01*
X88454251Y-66249300D01*
G37*
X88454251Y-66249300D02*
X88535941Y-66321451D01*
X88393064Y-66344967D01*
X88105864Y-66475566D01*
X87877126Y-66710322D01*
X87701402Y-66910600D01*
X87630000Y-66893677D01*
X87750190Y-66636071D01*
X88024758Y-66385993D01*
X88324699Y-66244295D01*
X88454251Y-66249300D01*
G36*
X91354190Y-65665974D02*
G01*
X91711492Y-65912513D01*
X91906799Y-66213166D01*
X91916250Y-66286260D01*
X91841685Y-66281130D01*
X91669123Y-66075322D01*
X91285352Y-65786016D01*
X90733685Y-65743112D01*
X90047245Y-65947254D01*
X89852500Y-66040000D01*
X89424417Y-66235637D01*
X89095336Y-66346459D01*
X89025386Y-66355949D01*
X89044058Y-66296740D01*
X89296762Y-66144053D01*
X89669825Y-65959074D01*
X90214047Y-65739972D01*
X90711714Y-65596417D01*
X90954909Y-65563750D01*
X91354190Y-65665974D01*
G37*
X91354190Y-65665974D02*
X91711492Y-65912513D01*
X91906799Y-66213166D01*
X91916250Y-66286260D01*
X91841685Y-66281130D01*
X91669123Y-66075322D01*
X91285352Y-65786016D01*
X90733685Y-65743112D01*
X90047245Y-65947254D01*
X89852500Y-66040000D01*
X89424417Y-66235637D01*
X89095336Y-66346459D01*
X89025386Y-66355949D01*
X89044058Y-66296740D01*
X89296762Y-66144053D01*
X89669825Y-65959074D01*
X90214047Y-65739972D01*
X90711714Y-65596417D01*
X90954909Y-65563750D01*
X91354190Y-65665974D01*
D11*
X97370000Y-53070000D02*
X97370000Y-57570000D01*
X101370000Y-51820000D02*
X99870000Y-51820000D01*
X103870000Y-57570000D02*
X103870000Y-53070000D01*
X99870000Y-58820000D02*
X101370000Y-58820000D01*
X78645000Y-57050000D02*
X78645000Y-59790000D01*
X78645000Y-59790000D02*
X85185000Y-59790000D01*
X85185000Y-59790000D02*
X85185000Y-57050000D01*
X85185000Y-57050000D02*
X78645000Y-57050000D01*
X77875000Y-58420000D02*
X78645000Y-58420000D01*
X85955000Y-58420000D02*
X85185000Y-58420000D01*
X70335000Y-72810000D02*
X68095000Y-72810000D01*
X68095000Y-72810000D02*
X68095000Y-77050000D01*
X68095000Y-77050000D02*
X70335000Y-77050000D01*
X70335000Y-77050000D02*
X70335000Y-72810000D01*
X69215000Y-70890000D02*
X69215000Y-72810000D01*
X69215000Y-78970000D02*
X69215000Y-77050000D01*
X70335000Y-73530000D02*
X68095000Y-73530000D01*
X70335000Y-73650000D02*
X68095000Y-73650000D01*
X70335000Y-73410000D02*
X68095000Y-73410000D01*
X143660000Y-76415000D02*
X145900000Y-76415000D01*
X145900000Y-76415000D02*
X145900000Y-72175000D01*
X145900000Y-72175000D02*
X143660000Y-72175000D01*
X143660000Y-72175000D02*
X143660000Y-76415000D01*
X144780000Y-78335000D02*
X144780000Y-76415000D01*
X144780000Y-70255000D02*
X144780000Y-72175000D01*
X143660000Y-75695000D02*
X145900000Y-75695000D01*
X143660000Y-75575000D02*
X145900000Y-75575000D01*
X143660000Y-75815000D02*
X145900000Y-75815000D01*
X79415000Y-74310000D02*
X79415000Y-75310000D01*
X79915000Y-74810000D02*
X78915000Y-74810000D01*
X75915000Y-80910000D02*
X73515000Y-80910000D01*
X80715000Y-80910000D02*
X78115000Y-80910000D01*
X85315000Y-80910000D02*
X82915000Y-80910000D01*
X83515000Y-67610000D02*
X83215000Y-67310000D01*
X83515000Y-67010000D02*
X83515000Y-67610000D01*
X83215000Y-67310000D02*
X83515000Y-67010000D01*
X85315000Y-68710000D02*
X73515000Y-68710000D01*
X85315000Y-72810000D02*
X85315000Y-68710000D01*
X73515000Y-72810000D02*
X73515000Y-68710000D01*
X73515000Y-80910000D02*
X73515000Y-76810000D01*
X85315000Y-76810000D02*
X85315000Y-80910000D01*
X82415000Y-74810000D02*
G75*
G03*
X82415000Y-74810000I-3000000J0D01*
G01*
X162710000Y-133565000D02*
X164950000Y-133565000D01*
X164950000Y-133565000D02*
X164950000Y-129325000D01*
X164950000Y-129325000D02*
X162710000Y-129325000D01*
X162710000Y-129325000D02*
X162710000Y-133565000D01*
X163830000Y-135485000D02*
X163830000Y-133565000D01*
X163830000Y-127405000D02*
X163830000Y-129325000D01*
X162710000Y-132845000D02*
X164950000Y-132845000D01*
X162710000Y-132725000D02*
X164950000Y-132725000D01*
X162710000Y-132965000D02*
X164950000Y-132965000D01*
X162710000Y-114515000D02*
X164950000Y-114515000D01*
X164950000Y-114515000D02*
X164950000Y-110275000D01*
X164950000Y-110275000D02*
X162710000Y-110275000D01*
X162710000Y-110275000D02*
X162710000Y-114515000D01*
X163830000Y-116435000D02*
X163830000Y-114515000D01*
X163830000Y-108355000D02*
X163830000Y-110275000D01*
X162710000Y-113795000D02*
X164950000Y-113795000D01*
X162710000Y-113675000D02*
X164950000Y-113675000D01*
X162710000Y-113915000D02*
X164950000Y-113915000D01*
X162710000Y-95465000D02*
X164950000Y-95465000D01*
X164950000Y-95465000D02*
X164950000Y-91225000D01*
X164950000Y-91225000D02*
X162710000Y-91225000D01*
X162710000Y-91225000D02*
X162710000Y-95465000D01*
X163830000Y-97385000D02*
X163830000Y-95465000D01*
X163830000Y-89305000D02*
X163830000Y-91225000D01*
X162710000Y-94745000D02*
X164950000Y-94745000D01*
X162710000Y-94625000D02*
X164950000Y-94625000D01*
X162710000Y-94865000D02*
X164950000Y-94865000D01*
X162710000Y-76415000D02*
X164950000Y-76415000D01*
X164950000Y-76415000D02*
X164950000Y-72175000D01*
X164950000Y-72175000D02*
X162710000Y-72175000D01*
X162710000Y-72175000D02*
X162710000Y-76415000D01*
X163830000Y-78335000D02*
X163830000Y-76415000D01*
X163830000Y-70255000D02*
X163830000Y-72175000D01*
X162710000Y-75695000D02*
X164950000Y-75695000D01*
X162710000Y-75575000D02*
X164950000Y-75575000D01*
X162710000Y-75815000D02*
X164950000Y-75815000D01*
X162710000Y-57365000D02*
X164950000Y-57365000D01*
X164950000Y-57365000D02*
X164950000Y-53125000D01*
X164950000Y-53125000D02*
X162710000Y-53125000D01*
X162710000Y-53125000D02*
X162710000Y-57365000D01*
X163830000Y-59285000D02*
X163830000Y-57365000D01*
X163830000Y-51205000D02*
X163830000Y-53125000D01*
X162710000Y-56645000D02*
X164950000Y-56645000D01*
X162710000Y-56525000D02*
X164950000Y-56525000D01*
X162710000Y-56765000D02*
X164950000Y-56765000D01*
X143660000Y-133565000D02*
X145900000Y-133565000D01*
X145900000Y-133565000D02*
X145900000Y-129325000D01*
X145900000Y-129325000D02*
X143660000Y-129325000D01*
X143660000Y-129325000D02*
X143660000Y-133565000D01*
X144780000Y-135485000D02*
X144780000Y-133565000D01*
X144780000Y-127405000D02*
X144780000Y-129325000D01*
X143660000Y-132845000D02*
X145900000Y-132845000D01*
X143660000Y-132725000D02*
X145900000Y-132725000D01*
X143660000Y-132965000D02*
X145900000Y-132965000D01*
X143660000Y-114515000D02*
X145900000Y-114515000D01*
X145900000Y-114515000D02*
X145900000Y-110275000D01*
X145900000Y-110275000D02*
X143660000Y-110275000D01*
X143660000Y-110275000D02*
X143660000Y-114515000D01*
X144780000Y-116435000D02*
X144780000Y-114515000D01*
X144780000Y-108355000D02*
X144780000Y-110275000D01*
X143660000Y-113795000D02*
X145900000Y-113795000D01*
X143660000Y-113675000D02*
X145900000Y-113675000D01*
X143660000Y-113915000D02*
X145900000Y-113915000D01*
X143660000Y-95465000D02*
X145900000Y-95465000D01*
X145900000Y-95465000D02*
X145900000Y-91225000D01*
X145900000Y-91225000D02*
X143660000Y-91225000D01*
X143660000Y-91225000D02*
X143660000Y-95465000D01*
X144780000Y-97385000D02*
X144780000Y-95465000D01*
X144780000Y-89305000D02*
X144780000Y-91225000D01*
X143660000Y-94745000D02*
X145900000Y-94745000D01*
X143660000Y-94625000D02*
X145900000Y-94625000D01*
X143660000Y-94865000D02*
X145900000Y-94865000D01*
X143660000Y-57365000D02*
X145900000Y-57365000D01*
X145900000Y-57365000D02*
X145900000Y-53125000D01*
X145900000Y-53125000D02*
X143660000Y-53125000D01*
X143660000Y-53125000D02*
X143660000Y-57365000D01*
X144780000Y-59285000D02*
X144780000Y-57365000D01*
X144780000Y-51205000D02*
X144780000Y-53125000D01*
X143660000Y-56645000D02*
X145900000Y-56645000D01*
X143660000Y-56525000D02*
X145900000Y-56525000D01*
X143660000Y-56765000D02*
X145900000Y-56765000D01*
X124610000Y-133565000D02*
X126850000Y-133565000D01*
X126850000Y-133565000D02*
X126850000Y-129325000D01*
X126850000Y-129325000D02*
X124610000Y-129325000D01*
X124610000Y-129325000D02*
X124610000Y-133565000D01*
X125730000Y-135485000D02*
X125730000Y-133565000D01*
X125730000Y-127405000D02*
X125730000Y-129325000D01*
X124610000Y-132845000D02*
X126850000Y-132845000D01*
X124610000Y-132725000D02*
X126850000Y-132725000D01*
X124610000Y-132965000D02*
X126850000Y-132965000D01*
X124610000Y-114515000D02*
X126850000Y-114515000D01*
X126850000Y-114515000D02*
X126850000Y-110275000D01*
X126850000Y-110275000D02*
X124610000Y-110275000D01*
X124610000Y-110275000D02*
X124610000Y-114515000D01*
X125730000Y-116435000D02*
X125730000Y-114515000D01*
X125730000Y-108355000D02*
X125730000Y-110275000D01*
X124610000Y-113795000D02*
X126850000Y-113795000D01*
X124610000Y-113675000D02*
X126850000Y-113675000D01*
X124610000Y-113915000D02*
X126850000Y-113915000D01*
X124610000Y-95465000D02*
X126850000Y-95465000D01*
X126850000Y-95465000D02*
X126850000Y-91225000D01*
X126850000Y-91225000D02*
X124610000Y-91225000D01*
X124610000Y-91225000D02*
X124610000Y-95465000D01*
X125730000Y-97385000D02*
X125730000Y-95465000D01*
X125730000Y-89305000D02*
X125730000Y-91225000D01*
X124610000Y-94745000D02*
X126850000Y-94745000D01*
X124610000Y-94625000D02*
X126850000Y-94625000D01*
X124610000Y-94865000D02*
X126850000Y-94865000D01*
X124610000Y-76415000D02*
X126850000Y-76415000D01*
X126850000Y-76415000D02*
X126850000Y-72175000D01*
X126850000Y-72175000D02*
X124610000Y-72175000D01*
X124610000Y-72175000D02*
X124610000Y-76415000D01*
X125730000Y-78335000D02*
X125730000Y-76415000D01*
X125730000Y-70255000D02*
X125730000Y-72175000D01*
X124610000Y-75695000D02*
X126850000Y-75695000D01*
X124610000Y-75575000D02*
X126850000Y-75575000D01*
X124610000Y-75815000D02*
X126850000Y-75815000D01*
X124610000Y-57365000D02*
X126850000Y-57365000D01*
X126850000Y-57365000D02*
X126850000Y-53125000D01*
X126850000Y-53125000D02*
X124610000Y-53125000D01*
X124610000Y-53125000D02*
X124610000Y-57365000D01*
X125730000Y-59285000D02*
X125730000Y-57365000D01*
X125730000Y-51205000D02*
X125730000Y-53125000D01*
X124610000Y-56645000D02*
X126850000Y-56645000D01*
X124610000Y-56525000D02*
X126850000Y-56525000D01*
X124610000Y-56765000D02*
X126850000Y-56765000D01*
X105560000Y-133565000D02*
X107800000Y-133565000D01*
X107800000Y-133565000D02*
X107800000Y-129325000D01*
X107800000Y-129325000D02*
X105560000Y-129325000D01*
X105560000Y-129325000D02*
X105560000Y-133565000D01*
X106680000Y-135485000D02*
X106680000Y-133565000D01*
X106680000Y-127405000D02*
X106680000Y-129325000D01*
X105560000Y-132845000D02*
X107800000Y-132845000D01*
X105560000Y-132725000D02*
X107800000Y-132725000D01*
X105560000Y-132965000D02*
X107800000Y-132965000D01*
X105560000Y-114515000D02*
X107800000Y-114515000D01*
X107800000Y-114515000D02*
X107800000Y-110275000D01*
X107800000Y-110275000D02*
X105560000Y-110275000D01*
X105560000Y-110275000D02*
X105560000Y-114515000D01*
X106680000Y-116435000D02*
X106680000Y-114515000D01*
X106680000Y-108355000D02*
X106680000Y-110275000D01*
X105560000Y-113795000D02*
X107800000Y-113795000D01*
X105560000Y-113675000D02*
X107800000Y-113675000D01*
X105560000Y-113915000D02*
X107800000Y-113915000D01*
X105560000Y-95465000D02*
X107800000Y-95465000D01*
X107800000Y-95465000D02*
X107800000Y-91225000D01*
X107800000Y-91225000D02*
X105560000Y-91225000D01*
X105560000Y-91225000D02*
X105560000Y-95465000D01*
X106680000Y-97385000D02*
X106680000Y-95465000D01*
X106680000Y-89305000D02*
X106680000Y-91225000D01*
X105560000Y-94745000D02*
X107800000Y-94745000D01*
X105560000Y-94625000D02*
X107800000Y-94625000D01*
X105560000Y-94865000D02*
X107800000Y-94865000D01*
X105560000Y-76415000D02*
X107800000Y-76415000D01*
X107800000Y-76415000D02*
X107800000Y-72175000D01*
X107800000Y-72175000D02*
X105560000Y-72175000D01*
X105560000Y-72175000D02*
X105560000Y-76415000D01*
X106680000Y-78335000D02*
X106680000Y-76415000D01*
X106680000Y-70255000D02*
X106680000Y-72175000D01*
X105560000Y-75695000D02*
X107800000Y-75695000D01*
X105560000Y-75575000D02*
X107800000Y-75575000D01*
X105560000Y-75815000D02*
X107800000Y-75815000D01*
X105560000Y-57365000D02*
X107800000Y-57365000D01*
X107800000Y-57365000D02*
X107800000Y-53125000D01*
X107800000Y-53125000D02*
X105560000Y-53125000D01*
X105560000Y-53125000D02*
X105560000Y-57365000D01*
X106680000Y-59285000D02*
X106680000Y-57365000D01*
X106680000Y-51205000D02*
X106680000Y-53125000D01*
X105560000Y-56645000D02*
X107800000Y-56645000D01*
X105560000Y-56525000D02*
X107800000Y-56525000D01*
X105560000Y-56765000D02*
X107800000Y-56765000D01*
D10*
X93432380Y-55371904D02*
X94241904Y-55371904D01*
X94337142Y-55324285D01*
X94384761Y-55276666D01*
X94432380Y-55181428D01*
X94432380Y-54990952D01*
X94384761Y-54895714D01*
X94337142Y-54848095D01*
X94241904Y-54800476D01*
X93432380Y-54800476D01*
X94432380Y-53800476D02*
X94432380Y-54371904D01*
X94432380Y-54086190D02*
X93432380Y-54086190D01*
X93575238Y-54181428D01*
X93670476Y-54276666D01*
X93718095Y-54371904D01*
X78843333Y-88828571D02*
X78986190Y-88876190D01*
X79033809Y-88923809D01*
X79081428Y-89019047D01*
X79081428Y-89161904D01*
X79033809Y-89257142D01*
X78986190Y-89304761D01*
X78890952Y-89352380D01*
X78510000Y-89352380D01*
X78510000Y-88352380D01*
X78843333Y-88352380D01*
X78938571Y-88400000D01*
X78986190Y-88447619D01*
X79033809Y-88542857D01*
X79033809Y-88638095D01*
X78986190Y-88733333D01*
X78938571Y-88780952D01*
X78843333Y-88828571D01*
X78510000Y-88828571D01*
X79510000Y-89352380D02*
X79510000Y-88685714D01*
X79510000Y-88876190D02*
X79557619Y-88780952D01*
X79605238Y-88733333D01*
X79700476Y-88685714D01*
X79795714Y-88685714D01*
X80557619Y-89352380D02*
X80557619Y-88352380D01*
X80557619Y-89304761D02*
X80462380Y-89352380D01*
X80271904Y-89352380D01*
X80176666Y-89304761D01*
X80129047Y-89257142D01*
X80081428Y-89161904D01*
X80081428Y-88876190D01*
X80129047Y-88780952D01*
X80176666Y-88733333D01*
X80271904Y-88685714D01*
X80462380Y-88685714D01*
X80557619Y-88733333D01*
X81557619Y-89352380D02*
X80986190Y-89352380D01*
X81271904Y-89352380D02*
X81271904Y-88352380D01*
X81176666Y-88495238D01*
X81081428Y-88590476D01*
X80986190Y-88638095D01*
X64228571Y-88255714D02*
X64264285Y-88148571D01*
X64264285Y-87970000D01*
X64228571Y-87898571D01*
X64192857Y-87862857D01*
X64121428Y-87827142D01*
X64050000Y-87827142D01*
X63978571Y-87862857D01*
X63942857Y-87898571D01*
X63907142Y-87970000D01*
X63871428Y-88112857D01*
X63835714Y-88184285D01*
X63800000Y-88220000D01*
X63728571Y-88255714D01*
X63657142Y-88255714D01*
X63585714Y-88220000D01*
X63550000Y-88184285D01*
X63514285Y-88112857D01*
X63514285Y-87934285D01*
X63550000Y-87827142D01*
X64264285Y-87505714D02*
X63514285Y-87505714D01*
X63514285Y-87327142D01*
X63550000Y-87220000D01*
X63621428Y-87148571D01*
X63692857Y-87112857D01*
X63835714Y-87077142D01*
X63942857Y-87077142D01*
X64085714Y-87112857D01*
X64157142Y-87148571D01*
X64228571Y-87220000D01*
X64264285Y-87327142D01*
X64264285Y-87505714D01*
X64050000Y-86791428D02*
X64050000Y-86434285D01*
X64264285Y-86862857D02*
X63514285Y-86612857D01*
X64264285Y-86362857D01*
X64228571Y-90777857D02*
X64264285Y-90670714D01*
X64264285Y-90492142D01*
X64228571Y-90420714D01*
X64192857Y-90385000D01*
X64121428Y-90349285D01*
X64050000Y-90349285D01*
X63978571Y-90385000D01*
X63942857Y-90420714D01*
X63907142Y-90492142D01*
X63871428Y-90635000D01*
X63835714Y-90706428D01*
X63800000Y-90742142D01*
X63728571Y-90777857D01*
X63657142Y-90777857D01*
X63585714Y-90742142D01*
X63550000Y-90706428D01*
X63514285Y-90635000D01*
X63514285Y-90456428D01*
X63550000Y-90349285D01*
X64192857Y-89599285D02*
X64228571Y-89635000D01*
X64264285Y-89742142D01*
X64264285Y-89813571D01*
X64228571Y-89920714D01*
X64157142Y-89992142D01*
X64085714Y-90027857D01*
X63942857Y-90063571D01*
X63835714Y-90063571D01*
X63692857Y-90027857D01*
X63621428Y-89992142D01*
X63550000Y-89920714D01*
X63514285Y-89813571D01*
X63514285Y-89742142D01*
X63550000Y-89635000D01*
X63585714Y-89599285D01*
X64264285Y-88920714D02*
X64264285Y-89277857D01*
X63514285Y-89277857D01*
X63514285Y-93425000D02*
X64264285Y-93175000D01*
X63514285Y-92925000D01*
X64192857Y-92246428D02*
X64228571Y-92282142D01*
X64264285Y-92389285D01*
X64264285Y-92460714D01*
X64228571Y-92567857D01*
X64157142Y-92639285D01*
X64085714Y-92675000D01*
X63942857Y-92710714D01*
X63835714Y-92710714D01*
X63692857Y-92675000D01*
X63621428Y-92639285D01*
X63550000Y-92567857D01*
X63514285Y-92460714D01*
X63514285Y-92389285D01*
X63550000Y-92282142D01*
X63585714Y-92246428D01*
X64192857Y-91496428D02*
X64228571Y-91532142D01*
X64264285Y-91639285D01*
X64264285Y-91710714D01*
X64228571Y-91817857D01*
X64157142Y-91889285D01*
X64085714Y-91925000D01*
X63942857Y-91960714D01*
X63835714Y-91960714D01*
X63692857Y-91925000D01*
X63621428Y-91889285D01*
X63550000Y-91817857D01*
X63514285Y-91710714D01*
X63514285Y-91639285D01*
X63550000Y-91532142D01*
X63585714Y-91496428D01*
X63550000Y-95536428D02*
X63514285Y-95607857D01*
X63514285Y-95715000D01*
X63550000Y-95822142D01*
X63621428Y-95893571D01*
X63692857Y-95929285D01*
X63835714Y-95965000D01*
X63942857Y-95965000D01*
X64085714Y-95929285D01*
X64157142Y-95893571D01*
X64228571Y-95822142D01*
X64264285Y-95715000D01*
X64264285Y-95643571D01*
X64228571Y-95536428D01*
X64192857Y-95500714D01*
X63942857Y-95500714D01*
X63942857Y-95643571D01*
X64264285Y-95179285D02*
X63514285Y-95179285D01*
X64264285Y-94750714D01*
X63514285Y-94750714D01*
X64264285Y-94393571D02*
X63514285Y-94393571D01*
X63514285Y-94215000D01*
X63550000Y-94107857D01*
X63621428Y-94036428D01*
X63692857Y-94000714D01*
X63835714Y-93965000D01*
X63942857Y-93965000D01*
X64085714Y-94000714D01*
X64157142Y-94036428D01*
X64228571Y-94107857D01*
X64264285Y-94215000D01*
X64264285Y-94393571D01*
X98996666Y-55649761D02*
X99139523Y-55697380D01*
X99377619Y-55697380D01*
X99472857Y-55649761D01*
X99520476Y-55602142D01*
X99568095Y-55506904D01*
X99568095Y-55411666D01*
X99520476Y-55316428D01*
X99472857Y-55268809D01*
X99377619Y-55221190D01*
X99187142Y-55173571D01*
X99091904Y-55125952D01*
X99044285Y-55078333D01*
X98996666Y-54983095D01*
X98996666Y-54887857D01*
X99044285Y-54792619D01*
X99091904Y-54745000D01*
X99187142Y-54697380D01*
X99425238Y-54697380D01*
X99568095Y-54745000D01*
X99901428Y-54697380D02*
X100139523Y-55697380D01*
X100330000Y-54983095D01*
X100520476Y-55697380D01*
X100758571Y-54697380D01*
X101663333Y-55697380D02*
X101091904Y-55697380D01*
X101377619Y-55697380D02*
X101377619Y-54697380D01*
X101282380Y-54840238D01*
X101187142Y-54935476D01*
X101091904Y-54983095D01*
X81748333Y-56502380D02*
X81415000Y-56026190D01*
X81176904Y-56502380D02*
X81176904Y-55502380D01*
X81557857Y-55502380D01*
X81653095Y-55550000D01*
X81700714Y-55597619D01*
X81748333Y-55692857D01*
X81748333Y-55835714D01*
X81700714Y-55930952D01*
X81653095Y-55978571D01*
X81557857Y-56026190D01*
X81176904Y-56026190D01*
X82700714Y-56502380D02*
X82129285Y-56502380D01*
X82415000Y-56502380D02*
X82415000Y-55502380D01*
X82319761Y-55645238D01*
X82224523Y-55740476D01*
X82129285Y-55788095D01*
X75382380Y-71699285D02*
X74382380Y-71699285D01*
X74382380Y-71461190D01*
X74430000Y-71318333D01*
X74525238Y-71223095D01*
X74620476Y-71175476D01*
X74810952Y-71127857D01*
X74953809Y-71127857D01*
X75144285Y-71175476D01*
X75239523Y-71223095D01*
X75334761Y-71318333D01*
X75382380Y-71461190D01*
X75382380Y-71699285D01*
X74477619Y-70746904D02*
X74430000Y-70699285D01*
X74382380Y-70604047D01*
X74382380Y-70365952D01*
X74430000Y-70270714D01*
X74477619Y-70223095D01*
X74572857Y-70175476D01*
X74668095Y-70175476D01*
X74810952Y-70223095D01*
X75382380Y-70794523D01*
X75382380Y-70175476D01*
X75382380Y-69223095D02*
X75382380Y-69794523D01*
X75382380Y-69508809D02*
X74382380Y-69508809D01*
X74525238Y-69604047D01*
X74620476Y-69699285D01*
X74668095Y-69794523D01*
X143112380Y-75509285D02*
X142112380Y-75509285D01*
X142112380Y-75271190D01*
X142160000Y-75128333D01*
X142255238Y-75033095D01*
X142350476Y-74985476D01*
X142540952Y-74937857D01*
X142683809Y-74937857D01*
X142874285Y-74985476D01*
X142969523Y-75033095D01*
X143064761Y-75128333D01*
X143112380Y-75271190D01*
X143112380Y-75509285D01*
X143112380Y-73985476D02*
X143112380Y-74556904D01*
X143112380Y-74271190D02*
X142112380Y-74271190D01*
X142255238Y-74366428D01*
X142350476Y-74461666D01*
X142398095Y-74556904D01*
X142207619Y-73604523D02*
X142160000Y-73556904D01*
X142112380Y-73461666D01*
X142112380Y-73223571D01*
X142160000Y-73128333D01*
X142207619Y-73080714D01*
X142302857Y-73033095D01*
X142398095Y-73033095D01*
X142540952Y-73080714D01*
X143112380Y-73652142D01*
X143112380Y-73033095D01*
X78081666Y-75214761D02*
X78224523Y-75262380D01*
X78462619Y-75262380D01*
X78557857Y-75214761D01*
X78605476Y-75167142D01*
X78653095Y-75071904D01*
X78653095Y-74976666D01*
X78605476Y-74881428D01*
X78557857Y-74833809D01*
X78462619Y-74786190D01*
X78272142Y-74738571D01*
X78176904Y-74690952D01*
X78129285Y-74643333D01*
X78081666Y-74548095D01*
X78081666Y-74452857D01*
X78129285Y-74357619D01*
X78176904Y-74310000D01*
X78272142Y-74262380D01*
X78510238Y-74262380D01*
X78653095Y-74310000D01*
X78986428Y-74262380D02*
X79224523Y-75262380D01*
X79415000Y-74548095D01*
X79605476Y-75262380D01*
X79843571Y-74262380D01*
X80176904Y-74357619D02*
X80224523Y-74310000D01*
X80319761Y-74262380D01*
X80557857Y-74262380D01*
X80653095Y-74310000D01*
X80700714Y-74357619D01*
X80748333Y-74452857D01*
X80748333Y-74548095D01*
X80700714Y-74690952D01*
X80129285Y-75262380D01*
X80748333Y-75262380D01*
X162162380Y-132659285D02*
X161162380Y-132659285D01*
X161162380Y-132421190D01*
X161210000Y-132278333D01*
X161305238Y-132183095D01*
X161400476Y-132135476D01*
X161590952Y-132087857D01*
X161733809Y-132087857D01*
X161924285Y-132135476D01*
X162019523Y-132183095D01*
X162114761Y-132278333D01*
X162162380Y-132421190D01*
X162162380Y-132659285D01*
X161257619Y-131706904D02*
X161210000Y-131659285D01*
X161162380Y-131564047D01*
X161162380Y-131325952D01*
X161210000Y-131230714D01*
X161257619Y-131183095D01*
X161352857Y-131135476D01*
X161448095Y-131135476D01*
X161590952Y-131183095D01*
X162162380Y-131754523D01*
X162162380Y-131135476D01*
X161162380Y-130516428D02*
X161162380Y-130421190D01*
X161210000Y-130325952D01*
X161257619Y-130278333D01*
X161352857Y-130230714D01*
X161543333Y-130183095D01*
X161781428Y-130183095D01*
X161971904Y-130230714D01*
X162067142Y-130278333D01*
X162114761Y-130325952D01*
X162162380Y-130421190D01*
X162162380Y-130516428D01*
X162114761Y-130611666D01*
X162067142Y-130659285D01*
X161971904Y-130706904D01*
X161781428Y-130754523D01*
X161543333Y-130754523D01*
X161352857Y-130706904D01*
X161257619Y-130659285D01*
X161210000Y-130611666D01*
X161162380Y-130516428D01*
X162162380Y-113609285D02*
X161162380Y-113609285D01*
X161162380Y-113371190D01*
X161210000Y-113228333D01*
X161305238Y-113133095D01*
X161400476Y-113085476D01*
X161590952Y-113037857D01*
X161733809Y-113037857D01*
X161924285Y-113085476D01*
X162019523Y-113133095D01*
X162114761Y-113228333D01*
X162162380Y-113371190D01*
X162162380Y-113609285D01*
X162162380Y-112085476D02*
X162162380Y-112656904D01*
X162162380Y-112371190D02*
X161162380Y-112371190D01*
X161305238Y-112466428D01*
X161400476Y-112561666D01*
X161448095Y-112656904D01*
X162162380Y-111609285D02*
X162162380Y-111418809D01*
X162114761Y-111323571D01*
X162067142Y-111275952D01*
X161924285Y-111180714D01*
X161733809Y-111133095D01*
X161352857Y-111133095D01*
X161257619Y-111180714D01*
X161210000Y-111228333D01*
X161162380Y-111323571D01*
X161162380Y-111514047D01*
X161210000Y-111609285D01*
X161257619Y-111656904D01*
X161352857Y-111704523D01*
X161590952Y-111704523D01*
X161686190Y-111656904D01*
X161733809Y-111609285D01*
X161781428Y-111514047D01*
X161781428Y-111323571D01*
X161733809Y-111228333D01*
X161686190Y-111180714D01*
X161590952Y-111133095D01*
X162162380Y-94559285D02*
X161162380Y-94559285D01*
X161162380Y-94321190D01*
X161210000Y-94178333D01*
X161305238Y-94083095D01*
X161400476Y-94035476D01*
X161590952Y-93987857D01*
X161733809Y-93987857D01*
X161924285Y-94035476D01*
X162019523Y-94083095D01*
X162114761Y-94178333D01*
X162162380Y-94321190D01*
X162162380Y-94559285D01*
X162162380Y-93035476D02*
X162162380Y-93606904D01*
X162162380Y-93321190D02*
X161162380Y-93321190D01*
X161305238Y-93416428D01*
X161400476Y-93511666D01*
X161448095Y-93606904D01*
X161590952Y-92464047D02*
X161543333Y-92559285D01*
X161495714Y-92606904D01*
X161400476Y-92654523D01*
X161352857Y-92654523D01*
X161257619Y-92606904D01*
X161210000Y-92559285D01*
X161162380Y-92464047D01*
X161162380Y-92273571D01*
X161210000Y-92178333D01*
X161257619Y-92130714D01*
X161352857Y-92083095D01*
X161400476Y-92083095D01*
X161495714Y-92130714D01*
X161543333Y-92178333D01*
X161590952Y-92273571D01*
X161590952Y-92464047D01*
X161638571Y-92559285D01*
X161686190Y-92606904D01*
X161781428Y-92654523D01*
X161971904Y-92654523D01*
X162067142Y-92606904D01*
X162114761Y-92559285D01*
X162162380Y-92464047D01*
X162162380Y-92273571D01*
X162114761Y-92178333D01*
X162067142Y-92130714D01*
X161971904Y-92083095D01*
X161781428Y-92083095D01*
X161686190Y-92130714D01*
X161638571Y-92178333D01*
X161590952Y-92273571D01*
X162162380Y-75509285D02*
X161162380Y-75509285D01*
X161162380Y-75271190D01*
X161210000Y-75128333D01*
X161305238Y-75033095D01*
X161400476Y-74985476D01*
X161590952Y-74937857D01*
X161733809Y-74937857D01*
X161924285Y-74985476D01*
X162019523Y-75033095D01*
X162114761Y-75128333D01*
X162162380Y-75271190D01*
X162162380Y-75509285D01*
X162162380Y-73985476D02*
X162162380Y-74556904D01*
X162162380Y-74271190D02*
X161162380Y-74271190D01*
X161305238Y-74366428D01*
X161400476Y-74461666D01*
X161448095Y-74556904D01*
X161162380Y-73652142D02*
X161162380Y-72985476D01*
X162162380Y-73414047D01*
X162162380Y-56459285D02*
X161162380Y-56459285D01*
X161162380Y-56221190D01*
X161210000Y-56078333D01*
X161305238Y-55983095D01*
X161400476Y-55935476D01*
X161590952Y-55887857D01*
X161733809Y-55887857D01*
X161924285Y-55935476D01*
X162019523Y-55983095D01*
X162114761Y-56078333D01*
X162162380Y-56221190D01*
X162162380Y-56459285D01*
X162162380Y-54935476D02*
X162162380Y-55506904D01*
X162162380Y-55221190D02*
X161162380Y-55221190D01*
X161305238Y-55316428D01*
X161400476Y-55411666D01*
X161448095Y-55506904D01*
X161162380Y-54078333D02*
X161162380Y-54268809D01*
X161210000Y-54364047D01*
X161257619Y-54411666D01*
X161400476Y-54506904D01*
X161590952Y-54554523D01*
X161971904Y-54554523D01*
X162067142Y-54506904D01*
X162114761Y-54459285D01*
X162162380Y-54364047D01*
X162162380Y-54173571D01*
X162114761Y-54078333D01*
X162067142Y-54030714D01*
X161971904Y-53983095D01*
X161733809Y-53983095D01*
X161638571Y-54030714D01*
X161590952Y-54078333D01*
X161543333Y-54173571D01*
X161543333Y-54364047D01*
X161590952Y-54459285D01*
X161638571Y-54506904D01*
X161733809Y-54554523D01*
X143112380Y-132659285D02*
X142112380Y-132659285D01*
X142112380Y-132421190D01*
X142160000Y-132278333D01*
X142255238Y-132183095D01*
X142350476Y-132135476D01*
X142540952Y-132087857D01*
X142683809Y-132087857D01*
X142874285Y-132135476D01*
X142969523Y-132183095D01*
X143064761Y-132278333D01*
X143112380Y-132421190D01*
X143112380Y-132659285D01*
X143112380Y-131135476D02*
X143112380Y-131706904D01*
X143112380Y-131421190D02*
X142112380Y-131421190D01*
X142255238Y-131516428D01*
X142350476Y-131611666D01*
X142398095Y-131706904D01*
X142112380Y-130230714D02*
X142112380Y-130706904D01*
X142588571Y-130754523D01*
X142540952Y-130706904D01*
X142493333Y-130611666D01*
X142493333Y-130373571D01*
X142540952Y-130278333D01*
X142588571Y-130230714D01*
X142683809Y-130183095D01*
X142921904Y-130183095D01*
X143017142Y-130230714D01*
X143064761Y-130278333D01*
X143112380Y-130373571D01*
X143112380Y-130611666D01*
X143064761Y-130706904D01*
X143017142Y-130754523D01*
X143112380Y-113609285D02*
X142112380Y-113609285D01*
X142112380Y-113371190D01*
X142160000Y-113228333D01*
X142255238Y-113133095D01*
X142350476Y-113085476D01*
X142540952Y-113037857D01*
X142683809Y-113037857D01*
X142874285Y-113085476D01*
X142969523Y-113133095D01*
X143064761Y-113228333D01*
X143112380Y-113371190D01*
X143112380Y-113609285D01*
X143112380Y-112085476D02*
X143112380Y-112656904D01*
X143112380Y-112371190D02*
X142112380Y-112371190D01*
X142255238Y-112466428D01*
X142350476Y-112561666D01*
X142398095Y-112656904D01*
X142445714Y-111228333D02*
X143112380Y-111228333D01*
X142064761Y-111466428D02*
X142779047Y-111704523D01*
X142779047Y-111085476D01*
X143112380Y-94559285D02*
X142112380Y-94559285D01*
X142112380Y-94321190D01*
X142160000Y-94178333D01*
X142255238Y-94083095D01*
X142350476Y-94035476D01*
X142540952Y-93987857D01*
X142683809Y-93987857D01*
X142874285Y-94035476D01*
X142969523Y-94083095D01*
X143064761Y-94178333D01*
X143112380Y-94321190D01*
X143112380Y-94559285D01*
X143112380Y-93035476D02*
X143112380Y-93606904D01*
X143112380Y-93321190D02*
X142112380Y-93321190D01*
X142255238Y-93416428D01*
X142350476Y-93511666D01*
X142398095Y-93606904D01*
X142112380Y-92702142D02*
X142112380Y-92083095D01*
X142493333Y-92416428D01*
X142493333Y-92273571D01*
X142540952Y-92178333D01*
X142588571Y-92130714D01*
X142683809Y-92083095D01*
X142921904Y-92083095D01*
X143017142Y-92130714D01*
X143064761Y-92178333D01*
X143112380Y-92273571D01*
X143112380Y-92559285D01*
X143064761Y-92654523D01*
X143017142Y-92702142D01*
X143112380Y-56459285D02*
X142112380Y-56459285D01*
X142112380Y-56221190D01*
X142160000Y-56078333D01*
X142255238Y-55983095D01*
X142350476Y-55935476D01*
X142540952Y-55887857D01*
X142683809Y-55887857D01*
X142874285Y-55935476D01*
X142969523Y-55983095D01*
X143064761Y-56078333D01*
X143112380Y-56221190D01*
X143112380Y-56459285D01*
X143112380Y-54935476D02*
X143112380Y-55506904D01*
X143112380Y-55221190D02*
X142112380Y-55221190D01*
X142255238Y-55316428D01*
X142350476Y-55411666D01*
X142398095Y-55506904D01*
X143112380Y-53983095D02*
X143112380Y-54554523D01*
X143112380Y-54268809D02*
X142112380Y-54268809D01*
X142255238Y-54364047D01*
X142350476Y-54459285D01*
X142398095Y-54554523D01*
X124062380Y-132659285D02*
X123062380Y-132659285D01*
X123062380Y-132421190D01*
X123110000Y-132278333D01*
X123205238Y-132183095D01*
X123300476Y-132135476D01*
X123490952Y-132087857D01*
X123633809Y-132087857D01*
X123824285Y-132135476D01*
X123919523Y-132183095D01*
X124014761Y-132278333D01*
X124062380Y-132421190D01*
X124062380Y-132659285D01*
X124062380Y-131135476D02*
X124062380Y-131706904D01*
X124062380Y-131421190D02*
X123062380Y-131421190D01*
X123205238Y-131516428D01*
X123300476Y-131611666D01*
X123348095Y-131706904D01*
X123062380Y-130516428D02*
X123062380Y-130421190D01*
X123110000Y-130325952D01*
X123157619Y-130278333D01*
X123252857Y-130230714D01*
X123443333Y-130183095D01*
X123681428Y-130183095D01*
X123871904Y-130230714D01*
X123967142Y-130278333D01*
X124014761Y-130325952D01*
X124062380Y-130421190D01*
X124062380Y-130516428D01*
X124014761Y-130611666D01*
X123967142Y-130659285D01*
X123871904Y-130706904D01*
X123681428Y-130754523D01*
X123443333Y-130754523D01*
X123252857Y-130706904D01*
X123157619Y-130659285D01*
X123110000Y-130611666D01*
X123062380Y-130516428D01*
X124062380Y-113133095D02*
X123062380Y-113133095D01*
X123062380Y-112895000D01*
X123110000Y-112752142D01*
X123205238Y-112656904D01*
X123300476Y-112609285D01*
X123490952Y-112561666D01*
X123633809Y-112561666D01*
X123824285Y-112609285D01*
X123919523Y-112656904D01*
X124014761Y-112752142D01*
X124062380Y-112895000D01*
X124062380Y-113133095D01*
X124062380Y-112085476D02*
X124062380Y-111895000D01*
X124014761Y-111799761D01*
X123967142Y-111752142D01*
X123824285Y-111656904D01*
X123633809Y-111609285D01*
X123252857Y-111609285D01*
X123157619Y-111656904D01*
X123110000Y-111704523D01*
X123062380Y-111799761D01*
X123062380Y-111990238D01*
X123110000Y-112085476D01*
X123157619Y-112133095D01*
X123252857Y-112180714D01*
X123490952Y-112180714D01*
X123586190Y-112133095D01*
X123633809Y-112085476D01*
X123681428Y-111990238D01*
X123681428Y-111799761D01*
X123633809Y-111704523D01*
X123586190Y-111656904D01*
X123490952Y-111609285D01*
X124062380Y-94083095D02*
X123062380Y-94083095D01*
X123062380Y-93845000D01*
X123110000Y-93702142D01*
X123205238Y-93606904D01*
X123300476Y-93559285D01*
X123490952Y-93511666D01*
X123633809Y-93511666D01*
X123824285Y-93559285D01*
X123919523Y-93606904D01*
X124014761Y-93702142D01*
X124062380Y-93845000D01*
X124062380Y-94083095D01*
X123490952Y-92940238D02*
X123443333Y-93035476D01*
X123395714Y-93083095D01*
X123300476Y-93130714D01*
X123252857Y-93130714D01*
X123157619Y-93083095D01*
X123110000Y-93035476D01*
X123062380Y-92940238D01*
X123062380Y-92749761D01*
X123110000Y-92654523D01*
X123157619Y-92606904D01*
X123252857Y-92559285D01*
X123300476Y-92559285D01*
X123395714Y-92606904D01*
X123443333Y-92654523D01*
X123490952Y-92749761D01*
X123490952Y-92940238D01*
X123538571Y-93035476D01*
X123586190Y-93083095D01*
X123681428Y-93130714D01*
X123871904Y-93130714D01*
X123967142Y-93083095D01*
X124014761Y-93035476D01*
X124062380Y-92940238D01*
X124062380Y-92749761D01*
X124014761Y-92654523D01*
X123967142Y-92606904D01*
X123871904Y-92559285D01*
X123681428Y-92559285D01*
X123586190Y-92606904D01*
X123538571Y-92654523D01*
X123490952Y-92749761D01*
X124062380Y-75033095D02*
X123062380Y-75033095D01*
X123062380Y-74795000D01*
X123110000Y-74652142D01*
X123205238Y-74556904D01*
X123300476Y-74509285D01*
X123490952Y-74461666D01*
X123633809Y-74461666D01*
X123824285Y-74509285D01*
X123919523Y-74556904D01*
X124014761Y-74652142D01*
X124062380Y-74795000D01*
X124062380Y-75033095D01*
X123062380Y-74128333D02*
X123062380Y-73461666D01*
X124062380Y-73890238D01*
X124062380Y-55983095D02*
X123062380Y-55983095D01*
X123062380Y-55745000D01*
X123110000Y-55602142D01*
X123205238Y-55506904D01*
X123300476Y-55459285D01*
X123490952Y-55411666D01*
X123633809Y-55411666D01*
X123824285Y-55459285D01*
X123919523Y-55506904D01*
X124014761Y-55602142D01*
X124062380Y-55745000D01*
X124062380Y-55983095D01*
X123062380Y-54554523D02*
X123062380Y-54745000D01*
X123110000Y-54840238D01*
X123157619Y-54887857D01*
X123300476Y-54983095D01*
X123490952Y-55030714D01*
X123871904Y-55030714D01*
X123967142Y-54983095D01*
X124014761Y-54935476D01*
X124062380Y-54840238D01*
X124062380Y-54649761D01*
X124014761Y-54554523D01*
X123967142Y-54506904D01*
X123871904Y-54459285D01*
X123633809Y-54459285D01*
X123538571Y-54506904D01*
X123490952Y-54554523D01*
X123443333Y-54649761D01*
X123443333Y-54840238D01*
X123490952Y-54935476D01*
X123538571Y-54983095D01*
X123633809Y-55030714D01*
X110307380Y-135358095D02*
X109307380Y-135358095D01*
X109307380Y-135120000D01*
X109355000Y-134977142D01*
X109450238Y-134881904D01*
X109545476Y-134834285D01*
X109735952Y-134786666D01*
X109878809Y-134786666D01*
X110069285Y-134834285D01*
X110164523Y-134881904D01*
X110259761Y-134977142D01*
X110307380Y-135120000D01*
X110307380Y-135358095D01*
X109307380Y-133881904D02*
X109307380Y-134358095D01*
X109783571Y-134405714D01*
X109735952Y-134358095D01*
X109688333Y-134262857D01*
X109688333Y-134024761D01*
X109735952Y-133929523D01*
X109783571Y-133881904D01*
X109878809Y-133834285D01*
X110116904Y-133834285D01*
X110212142Y-133881904D01*
X110259761Y-133929523D01*
X110307380Y-134024761D01*
X110307380Y-134262857D01*
X110259761Y-134358095D01*
X110212142Y-134405714D01*
X110307380Y-116308095D02*
X109307380Y-116308095D01*
X109307380Y-116070000D01*
X109355000Y-115927142D01*
X109450238Y-115831904D01*
X109545476Y-115784285D01*
X109735952Y-115736666D01*
X109878809Y-115736666D01*
X110069285Y-115784285D01*
X110164523Y-115831904D01*
X110259761Y-115927142D01*
X110307380Y-116070000D01*
X110307380Y-116308095D01*
X109640714Y-114879523D02*
X110307380Y-114879523D01*
X109259761Y-115117619D02*
X109974047Y-115355714D01*
X109974047Y-114736666D01*
X110307380Y-96623095D02*
X109307380Y-96623095D01*
X109307380Y-96385000D01*
X109355000Y-96242142D01*
X109450238Y-96146904D01*
X109545476Y-96099285D01*
X109735952Y-96051666D01*
X109878809Y-96051666D01*
X110069285Y-96099285D01*
X110164523Y-96146904D01*
X110259761Y-96242142D01*
X110307380Y-96385000D01*
X110307380Y-96623095D01*
X109307380Y-95718333D02*
X109307380Y-95099285D01*
X109688333Y-95432619D01*
X109688333Y-95289761D01*
X109735952Y-95194523D01*
X109783571Y-95146904D01*
X109878809Y-95099285D01*
X110116904Y-95099285D01*
X110212142Y-95146904D01*
X110259761Y-95194523D01*
X110307380Y-95289761D01*
X110307380Y-95575476D01*
X110259761Y-95670714D01*
X110212142Y-95718333D01*
X110307380Y-77573095D02*
X109307380Y-77573095D01*
X109307380Y-77335000D01*
X109355000Y-77192142D01*
X109450238Y-77096904D01*
X109545476Y-77049285D01*
X109735952Y-77001666D01*
X109878809Y-77001666D01*
X110069285Y-77049285D01*
X110164523Y-77096904D01*
X110259761Y-77192142D01*
X110307380Y-77335000D01*
X110307380Y-77573095D01*
X109402619Y-76620714D02*
X109355000Y-76573095D01*
X109307380Y-76477857D01*
X109307380Y-76239761D01*
X109355000Y-76144523D01*
X109402619Y-76096904D01*
X109497857Y-76049285D01*
X109593095Y-76049285D01*
X109735952Y-76096904D01*
X110307380Y-76668333D01*
X110307380Y-76049285D01*
X110307380Y-58523095D02*
X109307380Y-58523095D01*
X109307380Y-58285000D01*
X109355000Y-58142142D01*
X109450238Y-58046904D01*
X109545476Y-57999285D01*
X109735952Y-57951666D01*
X109878809Y-57951666D01*
X110069285Y-57999285D01*
X110164523Y-58046904D01*
X110259761Y-58142142D01*
X110307380Y-58285000D01*
X110307380Y-58523095D01*
X110307380Y-56999285D02*
X110307380Y-57570714D01*
X110307380Y-57285000D02*
X109307380Y-57285000D01*
X109450238Y-57380238D01*
X109545476Y-57475476D01*
X109593095Y-57570714D01*
%LPC*%
D14*
X94615000Y-62230000D03*
X92075000Y-62230000D03*
X89535000Y-62230000D03*
X66675000Y-46990000D03*
X86995000Y-62230000D03*
X69215000Y-46990000D03*
X84455000Y-62230000D03*
X71755000Y-46990000D03*
X81915000Y-62230000D03*
X74295000Y-46990000D03*
X79375000Y-62230000D03*
X76835000Y-46990000D03*
X76835000Y-62230000D03*
X79375000Y-46990000D03*
X74295000Y-62230000D03*
X81915000Y-46990000D03*
X71755000Y-62230000D03*
X84455000Y-46990000D03*
X69215000Y-62230000D03*
X86995000Y-46990000D03*
D15*
X66675000Y-62230000D03*
D14*
X89535000Y-46990000D03*
X92075000Y-46990000D03*
X94615000Y-46990000D03*
D16*
X61925000Y-87345000D03*
X61925000Y-89885000D03*
X61925000Y-92425000D03*
D17*
X61925000Y-94965000D03*
D18*
X102870000Y-58570000D03*
X98370000Y-58570000D03*
X102870000Y-52070000D03*
X98370000Y-52070000D03*
D14*
X86995000Y-58420000D03*
D19*
X76835000Y-58420000D03*
D14*
X69215000Y-80010000D03*
D15*
X69215000Y-69850000D03*
D20*
X116205000Y-55245000D03*
D21*
X111125000Y-55245000D03*
X121285000Y-55245000D03*
D20*
X116205000Y-112395000D03*
D21*
X111125000Y-112395000D03*
X121285000Y-112395000D03*
D14*
X144780000Y-69215000D03*
D15*
X144780000Y-79375000D03*
D22*
X81915000Y-67310000D03*
D18*
X79415000Y-67310000D03*
X76915000Y-67310000D03*
D23*
X85015000Y-74810000D03*
X73815000Y-74810000D03*
D18*
X81915000Y-81810000D03*
X76915000Y-81810000D03*
D20*
X173355000Y-131445000D03*
D21*
X168275000Y-131445000D03*
X178435000Y-131445000D03*
D20*
X173355000Y-112395000D03*
D21*
X168275000Y-112395000D03*
X178435000Y-112395000D03*
D20*
X173355000Y-93345000D03*
D21*
X168275000Y-93345000D03*
X178435000Y-93345000D03*
D20*
X173355000Y-74295000D03*
D21*
X168275000Y-74295000D03*
X178435000Y-74295000D03*
D20*
X173355000Y-55245000D03*
D21*
X168275000Y-55245000D03*
X178435000Y-55245000D03*
D20*
X154305000Y-131445000D03*
D21*
X149225000Y-131445000D03*
X159385000Y-131445000D03*
D20*
X154305000Y-112395000D03*
D21*
X149225000Y-112395000D03*
X159385000Y-112395000D03*
D20*
X154305000Y-93345000D03*
D21*
X149225000Y-93345000D03*
X159385000Y-93345000D03*
D20*
X154305000Y-74295000D03*
D21*
X149225000Y-74295000D03*
X159385000Y-74295000D03*
D20*
X154305000Y-55245000D03*
D21*
X149225000Y-55245000D03*
X159385000Y-55245000D03*
D20*
X135255000Y-131445000D03*
D21*
X130175000Y-131445000D03*
X140335000Y-131445000D03*
D20*
X135255000Y-112395000D03*
D21*
X130175000Y-112395000D03*
X140335000Y-112395000D03*
D20*
X135255000Y-93345000D03*
D21*
X130175000Y-93345000D03*
X140335000Y-93345000D03*
D20*
X135255000Y-74295000D03*
D21*
X130175000Y-74295000D03*
X140335000Y-74295000D03*
D20*
X135255000Y-55245000D03*
D21*
X130175000Y-55245000D03*
X140335000Y-55245000D03*
D20*
X116205000Y-131445000D03*
D21*
X111125000Y-131445000D03*
X121285000Y-131445000D03*
D20*
X116205000Y-93345000D03*
D21*
X111125000Y-93345000D03*
X121285000Y-93345000D03*
D20*
X116205000Y-74295000D03*
D21*
X111125000Y-74295000D03*
X121285000Y-74295000D03*
D14*
X163830000Y-126365000D03*
D15*
X163830000Y-136525000D03*
D14*
X163830000Y-107315000D03*
D15*
X163830000Y-117475000D03*
D14*
X163830000Y-88265000D03*
D15*
X163830000Y-98425000D03*
D14*
X163830000Y-69215000D03*
D15*
X163830000Y-79375000D03*
D14*
X163830000Y-50165000D03*
D15*
X163830000Y-60325000D03*
D14*
X144780000Y-126365000D03*
D15*
X144780000Y-136525000D03*
D14*
X144780000Y-107315000D03*
D15*
X144780000Y-117475000D03*
D14*
X144780000Y-88265000D03*
D15*
X144780000Y-98425000D03*
D14*
X144780000Y-50165000D03*
D15*
X144780000Y-60325000D03*
D14*
X125730000Y-126365000D03*
D15*
X125730000Y-136525000D03*
D14*
X125730000Y-107315000D03*
D15*
X125730000Y-117475000D03*
D14*
X125730000Y-88265000D03*
D15*
X125730000Y-98425000D03*
D14*
X125730000Y-69215000D03*
D15*
X125730000Y-79375000D03*
D14*
X125730000Y-50165000D03*
D15*
X125730000Y-60325000D03*
D14*
X106680000Y-126365000D03*
D15*
X106680000Y-136525000D03*
D14*
X106680000Y-107315000D03*
D15*
X106680000Y-117475000D03*
D14*
X106680000Y-88265000D03*
D15*
X106680000Y-98425000D03*
D14*
X106680000Y-69215000D03*
D15*
X106680000Y-79375000D03*
D14*
X106680000Y-50165000D03*
D15*
X106680000Y-60325000D03*
M02*
