G04 #@! TF.GenerationSoftware,KiCad,Pcbnew,(5.1.10)-1*
G04 #@! TF.CreationDate,2021-09-16T23:28:20+02:00*
G04 #@! TF.ProjectId,SheepyPad,53686565-7079-4506-9164-2e6b69636164,rev?*
G04 #@! TF.SameCoordinates,Original*
G04 #@! TF.FileFunction,OtherDrawing,Comment*
%FSLAX46Y46*%
G04 Gerber Fmt 4.6, Leading zero omitted, Abs format (unit mm)*
G04 Created by KiCad (PCBNEW (5.1.10)-1) date 2021-09-16 23:28:20*
%MOMM*%
%LPD*%
G01*
G04 APERTURE LIST*
%ADD10C,0.150000*%
G04 APERTURE END LIST*
D10*
X106680000Y-64770000D02*
X106680000Y-45720000D01*
X125730000Y-64770000D02*
X106680000Y-64770000D01*
X125730000Y-45720000D02*
X125730000Y-64770000D01*
X106680000Y-45720000D02*
X125730000Y-45720000D01*
X109205000Y-48245000D02*
X109205000Y-50245000D01*
X111205000Y-48245000D02*
X109205000Y-48245000D01*
X109205000Y-62245000D02*
X111205000Y-62245000D01*
X109205000Y-60245000D02*
X109205000Y-62245000D01*
X123205000Y-62245000D02*
X123205000Y-60245000D01*
X121205000Y-62245000D02*
X123205000Y-62245000D01*
X123205000Y-48245000D02*
X123205000Y-50245000D01*
X121205000Y-48245000D02*
X123205000Y-48245000D01*
X106680000Y-121920000D02*
X106680000Y-102870000D01*
X125730000Y-121920000D02*
X106680000Y-121920000D01*
X125730000Y-102870000D02*
X125730000Y-121920000D01*
X106680000Y-102870000D02*
X125730000Y-102870000D01*
X109205000Y-105395000D02*
X109205000Y-107395000D01*
X111205000Y-105395000D02*
X109205000Y-105395000D01*
X109205000Y-119395000D02*
X111205000Y-119395000D01*
X109205000Y-117395000D02*
X109205000Y-119395000D01*
X123205000Y-119395000D02*
X123205000Y-117395000D01*
X121205000Y-119395000D02*
X123205000Y-119395000D01*
X123205000Y-105395000D02*
X123205000Y-107395000D01*
X121205000Y-105395000D02*
X123205000Y-105395000D01*
X163830000Y-140970000D02*
X163830000Y-121920000D01*
X182880000Y-140970000D02*
X163830000Y-140970000D01*
X182880000Y-121920000D02*
X182880000Y-140970000D01*
X163830000Y-121920000D02*
X182880000Y-121920000D01*
X166355000Y-124445000D02*
X166355000Y-126445000D01*
X168355000Y-124445000D02*
X166355000Y-124445000D01*
X166355000Y-138445000D02*
X168355000Y-138445000D01*
X166355000Y-136445000D02*
X166355000Y-138445000D01*
X180355000Y-138445000D02*
X180355000Y-136445000D01*
X178355000Y-138445000D02*
X180355000Y-138445000D01*
X180355000Y-124445000D02*
X180355000Y-126445000D01*
X178355000Y-124445000D02*
X180355000Y-124445000D01*
X163830000Y-121920000D02*
X163830000Y-102870000D01*
X182880000Y-121920000D02*
X163830000Y-121920000D01*
X182880000Y-102870000D02*
X182880000Y-121920000D01*
X163830000Y-102870000D02*
X182880000Y-102870000D01*
X166355000Y-105395000D02*
X166355000Y-107395000D01*
X168355000Y-105395000D02*
X166355000Y-105395000D01*
X166355000Y-119395000D02*
X168355000Y-119395000D01*
X166355000Y-117395000D02*
X166355000Y-119395000D01*
X180355000Y-119395000D02*
X180355000Y-117395000D01*
X178355000Y-119395000D02*
X180355000Y-119395000D01*
X180355000Y-105395000D02*
X180355000Y-107395000D01*
X178355000Y-105395000D02*
X180355000Y-105395000D01*
X163830000Y-102870000D02*
X163830000Y-83820000D01*
X182880000Y-102870000D02*
X163830000Y-102870000D01*
X182880000Y-83820000D02*
X182880000Y-102870000D01*
X163830000Y-83820000D02*
X182880000Y-83820000D01*
X166355000Y-86345000D02*
X166355000Y-88345000D01*
X168355000Y-86345000D02*
X166355000Y-86345000D01*
X166355000Y-100345000D02*
X168355000Y-100345000D01*
X166355000Y-98345000D02*
X166355000Y-100345000D01*
X180355000Y-100345000D02*
X180355000Y-98345000D01*
X178355000Y-100345000D02*
X180355000Y-100345000D01*
X180355000Y-86345000D02*
X180355000Y-88345000D01*
X178355000Y-86345000D02*
X180355000Y-86345000D01*
X163830000Y-83820000D02*
X163830000Y-64770000D01*
X182880000Y-83820000D02*
X163830000Y-83820000D01*
X182880000Y-64770000D02*
X182880000Y-83820000D01*
X163830000Y-64770000D02*
X182880000Y-64770000D01*
X166355000Y-67295000D02*
X166355000Y-69295000D01*
X168355000Y-67295000D02*
X166355000Y-67295000D01*
X166355000Y-81295000D02*
X168355000Y-81295000D01*
X166355000Y-79295000D02*
X166355000Y-81295000D01*
X180355000Y-81295000D02*
X180355000Y-79295000D01*
X178355000Y-81295000D02*
X180355000Y-81295000D01*
X180355000Y-67295000D02*
X180355000Y-69295000D01*
X178355000Y-67295000D02*
X180355000Y-67295000D01*
X163830000Y-64770000D02*
X163830000Y-45720000D01*
X182880000Y-64770000D02*
X163830000Y-64770000D01*
X182880000Y-45720000D02*
X182880000Y-64770000D01*
X163830000Y-45720000D02*
X182880000Y-45720000D01*
X166355000Y-48245000D02*
X166355000Y-50245000D01*
X168355000Y-48245000D02*
X166355000Y-48245000D01*
X166355000Y-62245000D02*
X168355000Y-62245000D01*
X166355000Y-60245000D02*
X166355000Y-62245000D01*
X180355000Y-62245000D02*
X180355000Y-60245000D01*
X178355000Y-62245000D02*
X180355000Y-62245000D01*
X180355000Y-48245000D02*
X180355000Y-50245000D01*
X178355000Y-48245000D02*
X180355000Y-48245000D01*
X144780000Y-140970000D02*
X144780000Y-121920000D01*
X163830000Y-140970000D02*
X144780000Y-140970000D01*
X163830000Y-121920000D02*
X163830000Y-140970000D01*
X144780000Y-121920000D02*
X163830000Y-121920000D01*
X147305000Y-124445000D02*
X147305000Y-126445000D01*
X149305000Y-124445000D02*
X147305000Y-124445000D01*
X147305000Y-138445000D02*
X149305000Y-138445000D01*
X147305000Y-136445000D02*
X147305000Y-138445000D01*
X161305000Y-138445000D02*
X161305000Y-136445000D01*
X159305000Y-138445000D02*
X161305000Y-138445000D01*
X161305000Y-124445000D02*
X161305000Y-126445000D01*
X159305000Y-124445000D02*
X161305000Y-124445000D01*
X144780000Y-121920000D02*
X144780000Y-102870000D01*
X163830000Y-121920000D02*
X144780000Y-121920000D01*
X163830000Y-102870000D02*
X163830000Y-121920000D01*
X144780000Y-102870000D02*
X163830000Y-102870000D01*
X147305000Y-105395000D02*
X147305000Y-107395000D01*
X149305000Y-105395000D02*
X147305000Y-105395000D01*
X147305000Y-119395000D02*
X149305000Y-119395000D01*
X147305000Y-117395000D02*
X147305000Y-119395000D01*
X161305000Y-119395000D02*
X161305000Y-117395000D01*
X159305000Y-119395000D02*
X161305000Y-119395000D01*
X161305000Y-105395000D02*
X161305000Y-107395000D01*
X159305000Y-105395000D02*
X161305000Y-105395000D01*
X144780000Y-102870000D02*
X144780000Y-83820000D01*
X163830000Y-102870000D02*
X144780000Y-102870000D01*
X163830000Y-83820000D02*
X163830000Y-102870000D01*
X144780000Y-83820000D02*
X163830000Y-83820000D01*
X147305000Y-86345000D02*
X147305000Y-88345000D01*
X149305000Y-86345000D02*
X147305000Y-86345000D01*
X147305000Y-100345000D02*
X149305000Y-100345000D01*
X147305000Y-98345000D02*
X147305000Y-100345000D01*
X161305000Y-100345000D02*
X161305000Y-98345000D01*
X159305000Y-100345000D02*
X161305000Y-100345000D01*
X161305000Y-86345000D02*
X161305000Y-88345000D01*
X159305000Y-86345000D02*
X161305000Y-86345000D01*
X144780000Y-83820000D02*
X144780000Y-64770000D01*
X163830000Y-83820000D02*
X144780000Y-83820000D01*
X163830000Y-64770000D02*
X163830000Y-83820000D01*
X144780000Y-64770000D02*
X163830000Y-64770000D01*
X147305000Y-67295000D02*
X147305000Y-69295000D01*
X149305000Y-67295000D02*
X147305000Y-67295000D01*
X147305000Y-81295000D02*
X149305000Y-81295000D01*
X147305000Y-79295000D02*
X147305000Y-81295000D01*
X161305000Y-81295000D02*
X161305000Y-79295000D01*
X159305000Y-81295000D02*
X161305000Y-81295000D01*
X161305000Y-67295000D02*
X161305000Y-69295000D01*
X159305000Y-67295000D02*
X161305000Y-67295000D01*
X144780000Y-64770000D02*
X144780000Y-45720000D01*
X163830000Y-64770000D02*
X144780000Y-64770000D01*
X163830000Y-45720000D02*
X163830000Y-64770000D01*
X144780000Y-45720000D02*
X163830000Y-45720000D01*
X147305000Y-48245000D02*
X147305000Y-50245000D01*
X149305000Y-48245000D02*
X147305000Y-48245000D01*
X147305000Y-62245000D02*
X149305000Y-62245000D01*
X147305000Y-60245000D02*
X147305000Y-62245000D01*
X161305000Y-62245000D02*
X161305000Y-60245000D01*
X159305000Y-62245000D02*
X161305000Y-62245000D01*
X161305000Y-48245000D02*
X161305000Y-50245000D01*
X159305000Y-48245000D02*
X161305000Y-48245000D01*
X125730000Y-140970000D02*
X125730000Y-121920000D01*
X144780000Y-140970000D02*
X125730000Y-140970000D01*
X144780000Y-121920000D02*
X144780000Y-140970000D01*
X125730000Y-121920000D02*
X144780000Y-121920000D01*
X128255000Y-124445000D02*
X128255000Y-126445000D01*
X130255000Y-124445000D02*
X128255000Y-124445000D01*
X128255000Y-138445000D02*
X130255000Y-138445000D01*
X128255000Y-136445000D02*
X128255000Y-138445000D01*
X142255000Y-138445000D02*
X142255000Y-136445000D01*
X140255000Y-138445000D02*
X142255000Y-138445000D01*
X142255000Y-124445000D02*
X142255000Y-126445000D01*
X140255000Y-124445000D02*
X142255000Y-124445000D01*
X125730000Y-121920000D02*
X125730000Y-102870000D01*
X144780000Y-121920000D02*
X125730000Y-121920000D01*
X144780000Y-102870000D02*
X144780000Y-121920000D01*
X125730000Y-102870000D02*
X144780000Y-102870000D01*
X128255000Y-105395000D02*
X128255000Y-107395000D01*
X130255000Y-105395000D02*
X128255000Y-105395000D01*
X128255000Y-119395000D02*
X130255000Y-119395000D01*
X128255000Y-117395000D02*
X128255000Y-119395000D01*
X142255000Y-119395000D02*
X142255000Y-117395000D01*
X140255000Y-119395000D02*
X142255000Y-119395000D01*
X142255000Y-105395000D02*
X142255000Y-107395000D01*
X140255000Y-105395000D02*
X142255000Y-105395000D01*
X125730000Y-102870000D02*
X125730000Y-83820000D01*
X144780000Y-102870000D02*
X125730000Y-102870000D01*
X144780000Y-83820000D02*
X144780000Y-102870000D01*
X125730000Y-83820000D02*
X144780000Y-83820000D01*
X128255000Y-86345000D02*
X128255000Y-88345000D01*
X130255000Y-86345000D02*
X128255000Y-86345000D01*
X128255000Y-100345000D02*
X130255000Y-100345000D01*
X128255000Y-98345000D02*
X128255000Y-100345000D01*
X142255000Y-100345000D02*
X142255000Y-98345000D01*
X140255000Y-100345000D02*
X142255000Y-100345000D01*
X142255000Y-86345000D02*
X142255000Y-88345000D01*
X140255000Y-86345000D02*
X142255000Y-86345000D01*
X125730000Y-83820000D02*
X125730000Y-64770000D01*
X144780000Y-83820000D02*
X125730000Y-83820000D01*
X144780000Y-64770000D02*
X144780000Y-83820000D01*
X125730000Y-64770000D02*
X144780000Y-64770000D01*
X128255000Y-67295000D02*
X128255000Y-69295000D01*
X130255000Y-67295000D02*
X128255000Y-67295000D01*
X128255000Y-81295000D02*
X130255000Y-81295000D01*
X128255000Y-79295000D02*
X128255000Y-81295000D01*
X142255000Y-81295000D02*
X142255000Y-79295000D01*
X140255000Y-81295000D02*
X142255000Y-81295000D01*
X142255000Y-67295000D02*
X142255000Y-69295000D01*
X140255000Y-67295000D02*
X142255000Y-67295000D01*
X125730000Y-64770000D02*
X125730000Y-45720000D01*
X144780000Y-64770000D02*
X125730000Y-64770000D01*
X144780000Y-45720000D02*
X144780000Y-64770000D01*
X125730000Y-45720000D02*
X144780000Y-45720000D01*
X128255000Y-48245000D02*
X128255000Y-50245000D01*
X130255000Y-48245000D02*
X128255000Y-48245000D01*
X128255000Y-62245000D02*
X130255000Y-62245000D01*
X128255000Y-60245000D02*
X128255000Y-62245000D01*
X142255000Y-62245000D02*
X142255000Y-60245000D01*
X140255000Y-62245000D02*
X142255000Y-62245000D01*
X142255000Y-48245000D02*
X142255000Y-50245000D01*
X140255000Y-48245000D02*
X142255000Y-48245000D01*
X106680000Y-140970000D02*
X106680000Y-121920000D01*
X125730000Y-140970000D02*
X106680000Y-140970000D01*
X125730000Y-121920000D02*
X125730000Y-140970000D01*
X106680000Y-121920000D02*
X125730000Y-121920000D01*
X109205000Y-124445000D02*
X109205000Y-126445000D01*
X111205000Y-124445000D02*
X109205000Y-124445000D01*
X109205000Y-138445000D02*
X111205000Y-138445000D01*
X109205000Y-136445000D02*
X109205000Y-138445000D01*
X123205000Y-138445000D02*
X123205000Y-136445000D01*
X121205000Y-138445000D02*
X123205000Y-138445000D01*
X123205000Y-124445000D02*
X123205000Y-126445000D01*
X121205000Y-124445000D02*
X123205000Y-124445000D01*
X106680000Y-102870000D02*
X106680000Y-83820000D01*
X125730000Y-102870000D02*
X106680000Y-102870000D01*
X125730000Y-83820000D02*
X125730000Y-102870000D01*
X106680000Y-83820000D02*
X125730000Y-83820000D01*
X109205000Y-86345000D02*
X109205000Y-88345000D01*
X111205000Y-86345000D02*
X109205000Y-86345000D01*
X109205000Y-100345000D02*
X111205000Y-100345000D01*
X109205000Y-98345000D02*
X109205000Y-100345000D01*
X123205000Y-100345000D02*
X123205000Y-98345000D01*
X121205000Y-100345000D02*
X123205000Y-100345000D01*
X123205000Y-86345000D02*
X123205000Y-88345000D01*
X121205000Y-86345000D02*
X123205000Y-86345000D01*
X106680000Y-83820000D02*
X106680000Y-64770000D01*
X125730000Y-83820000D02*
X106680000Y-83820000D01*
X125730000Y-64770000D02*
X125730000Y-83820000D01*
X106680000Y-64770000D02*
X125730000Y-64770000D01*
X109205000Y-67295000D02*
X109205000Y-69295000D01*
X111205000Y-67295000D02*
X109205000Y-67295000D01*
X109205000Y-81295000D02*
X111205000Y-81295000D01*
X109205000Y-79295000D02*
X109205000Y-81295000D01*
X123205000Y-81295000D02*
X123205000Y-79295000D01*
X121205000Y-81295000D02*
X123205000Y-81295000D01*
X123205000Y-67295000D02*
X123205000Y-69295000D01*
X121205000Y-67295000D02*
X123205000Y-67295000D01*
X114919285Y-58872380D02*
X114919285Y-57872380D01*
X115252619Y-58586666D01*
X115585952Y-57872380D01*
X115585952Y-58872380D01*
X115966904Y-57872380D02*
X116633571Y-58872380D01*
X116633571Y-57872380D02*
X115966904Y-58872380D01*
X117538333Y-58872380D02*
X116966904Y-58872380D01*
X117252619Y-58872380D02*
X117252619Y-57872380D01*
X117157380Y-58015238D01*
X117062142Y-58110476D01*
X116966904Y-58158095D01*
X112443095Y-47759880D02*
X112443095Y-46759880D01*
X112776428Y-47474166D01*
X113109761Y-46759880D01*
X113109761Y-47759880D01*
X113490714Y-46759880D02*
X114157380Y-47759880D01*
X114157380Y-46759880D02*
X113490714Y-47759880D01*
X114538333Y-47378928D02*
X115300238Y-47378928D01*
X115776428Y-47759880D02*
X115776428Y-46759880D01*
X116347857Y-47759880D01*
X116347857Y-46759880D01*
X116966904Y-47759880D02*
X116871666Y-47712261D01*
X116824047Y-47664642D01*
X116776428Y-47569404D01*
X116776428Y-47283690D01*
X116824047Y-47188452D01*
X116871666Y-47140833D01*
X116966904Y-47093214D01*
X117109761Y-47093214D01*
X117205000Y-47140833D01*
X117252619Y-47188452D01*
X117300238Y-47283690D01*
X117300238Y-47569404D01*
X117252619Y-47664642D01*
X117205000Y-47712261D01*
X117109761Y-47759880D01*
X116966904Y-47759880D01*
X118205000Y-47759880D02*
X117728809Y-47759880D01*
X117728809Y-46759880D01*
X118538333Y-47236071D02*
X118871666Y-47236071D01*
X119014523Y-47759880D02*
X118538333Y-47759880D01*
X118538333Y-46759880D01*
X119014523Y-46759880D01*
X119443095Y-47759880D02*
X119443095Y-46759880D01*
X119681190Y-46759880D01*
X119824047Y-46807500D01*
X119919285Y-46902738D01*
X119966904Y-46997976D01*
X120014523Y-47188452D01*
X120014523Y-47331309D01*
X119966904Y-47521785D01*
X119919285Y-47617023D01*
X119824047Y-47712261D01*
X119681190Y-47759880D01*
X119443095Y-47759880D01*
X114919285Y-116022380D02*
X114919285Y-115022380D01*
X115252619Y-115736666D01*
X115585952Y-115022380D01*
X115585952Y-116022380D01*
X115966904Y-115022380D02*
X116633571Y-116022380D01*
X116633571Y-115022380D02*
X115966904Y-116022380D01*
X117443095Y-115355714D02*
X117443095Y-116022380D01*
X117205000Y-114974761D02*
X116966904Y-115689047D01*
X117585952Y-115689047D01*
X112443095Y-104909880D02*
X112443095Y-103909880D01*
X112776428Y-104624166D01*
X113109761Y-103909880D01*
X113109761Y-104909880D01*
X113490714Y-103909880D02*
X114157380Y-104909880D01*
X114157380Y-103909880D02*
X113490714Y-104909880D01*
X114538333Y-104528928D02*
X115300238Y-104528928D01*
X115776428Y-104909880D02*
X115776428Y-103909880D01*
X116347857Y-104909880D01*
X116347857Y-103909880D01*
X116966904Y-104909880D02*
X116871666Y-104862261D01*
X116824047Y-104814642D01*
X116776428Y-104719404D01*
X116776428Y-104433690D01*
X116824047Y-104338452D01*
X116871666Y-104290833D01*
X116966904Y-104243214D01*
X117109761Y-104243214D01*
X117205000Y-104290833D01*
X117252619Y-104338452D01*
X117300238Y-104433690D01*
X117300238Y-104719404D01*
X117252619Y-104814642D01*
X117205000Y-104862261D01*
X117109761Y-104909880D01*
X116966904Y-104909880D01*
X118205000Y-104909880D02*
X117728809Y-104909880D01*
X117728809Y-103909880D01*
X118538333Y-104386071D02*
X118871666Y-104386071D01*
X119014523Y-104909880D02*
X118538333Y-104909880D01*
X118538333Y-103909880D01*
X119014523Y-103909880D01*
X119443095Y-104909880D02*
X119443095Y-103909880D01*
X119681190Y-103909880D01*
X119824047Y-103957500D01*
X119919285Y-104052738D01*
X119966904Y-104147976D01*
X120014523Y-104338452D01*
X120014523Y-104481309D01*
X119966904Y-104671785D01*
X119919285Y-104767023D01*
X119824047Y-104862261D01*
X119681190Y-104909880D01*
X119443095Y-104909880D01*
X171593095Y-135072380D02*
X171593095Y-134072380D01*
X171926428Y-134786666D01*
X172259761Y-134072380D01*
X172259761Y-135072380D01*
X172640714Y-134072380D02*
X173307380Y-135072380D01*
X173307380Y-134072380D02*
X172640714Y-135072380D01*
X173640714Y-134167619D02*
X173688333Y-134120000D01*
X173783571Y-134072380D01*
X174021666Y-134072380D01*
X174116904Y-134120000D01*
X174164523Y-134167619D01*
X174212142Y-134262857D01*
X174212142Y-134358095D01*
X174164523Y-134500952D01*
X173593095Y-135072380D01*
X174212142Y-135072380D01*
X174831190Y-134072380D02*
X174926428Y-134072380D01*
X175021666Y-134120000D01*
X175069285Y-134167619D01*
X175116904Y-134262857D01*
X175164523Y-134453333D01*
X175164523Y-134691428D01*
X175116904Y-134881904D01*
X175069285Y-134977142D01*
X175021666Y-135024761D01*
X174926428Y-135072380D01*
X174831190Y-135072380D01*
X174735952Y-135024761D01*
X174688333Y-134977142D01*
X174640714Y-134881904D01*
X174593095Y-134691428D01*
X174593095Y-134453333D01*
X174640714Y-134262857D01*
X174688333Y-134167619D01*
X174735952Y-134120000D01*
X174831190Y-134072380D01*
X169593095Y-123959880D02*
X169593095Y-122959880D01*
X169926428Y-123674166D01*
X170259761Y-122959880D01*
X170259761Y-123959880D01*
X170640714Y-122959880D02*
X171307380Y-123959880D01*
X171307380Y-122959880D02*
X170640714Y-123959880D01*
X171688333Y-123578928D02*
X172450238Y-123578928D01*
X172926428Y-123959880D02*
X172926428Y-122959880D01*
X173497857Y-123959880D01*
X173497857Y-122959880D01*
X174116904Y-123959880D02*
X174021666Y-123912261D01*
X173974047Y-123864642D01*
X173926428Y-123769404D01*
X173926428Y-123483690D01*
X173974047Y-123388452D01*
X174021666Y-123340833D01*
X174116904Y-123293214D01*
X174259761Y-123293214D01*
X174355000Y-123340833D01*
X174402619Y-123388452D01*
X174450238Y-123483690D01*
X174450238Y-123769404D01*
X174402619Y-123864642D01*
X174355000Y-123912261D01*
X174259761Y-123959880D01*
X174116904Y-123959880D01*
X175355000Y-123959880D02*
X174878809Y-123959880D01*
X174878809Y-122959880D01*
X175688333Y-123436071D02*
X176021666Y-123436071D01*
X176164523Y-123959880D02*
X175688333Y-123959880D01*
X175688333Y-122959880D01*
X176164523Y-122959880D01*
X176593095Y-123959880D02*
X176593095Y-122959880D01*
X176831190Y-122959880D01*
X176974047Y-123007500D01*
X177069285Y-123102738D01*
X177116904Y-123197976D01*
X177164523Y-123388452D01*
X177164523Y-123531309D01*
X177116904Y-123721785D01*
X177069285Y-123817023D01*
X176974047Y-123912261D01*
X176831190Y-123959880D01*
X176593095Y-123959880D01*
X171593095Y-116022380D02*
X171593095Y-115022380D01*
X171926428Y-115736666D01*
X172259761Y-115022380D01*
X172259761Y-116022380D01*
X172640714Y-115022380D02*
X173307380Y-116022380D01*
X173307380Y-115022380D02*
X172640714Y-116022380D01*
X174212142Y-116022380D02*
X173640714Y-116022380D01*
X173926428Y-116022380D02*
X173926428Y-115022380D01*
X173831190Y-115165238D01*
X173735952Y-115260476D01*
X173640714Y-115308095D01*
X174688333Y-116022380D02*
X174878809Y-116022380D01*
X174974047Y-115974761D01*
X175021666Y-115927142D01*
X175116904Y-115784285D01*
X175164523Y-115593809D01*
X175164523Y-115212857D01*
X175116904Y-115117619D01*
X175069285Y-115070000D01*
X174974047Y-115022380D01*
X174783571Y-115022380D01*
X174688333Y-115070000D01*
X174640714Y-115117619D01*
X174593095Y-115212857D01*
X174593095Y-115450952D01*
X174640714Y-115546190D01*
X174688333Y-115593809D01*
X174783571Y-115641428D01*
X174974047Y-115641428D01*
X175069285Y-115593809D01*
X175116904Y-115546190D01*
X175164523Y-115450952D01*
X169593095Y-104909880D02*
X169593095Y-103909880D01*
X169926428Y-104624166D01*
X170259761Y-103909880D01*
X170259761Y-104909880D01*
X170640714Y-103909880D02*
X171307380Y-104909880D01*
X171307380Y-103909880D02*
X170640714Y-104909880D01*
X171688333Y-104528928D02*
X172450238Y-104528928D01*
X172926428Y-104909880D02*
X172926428Y-103909880D01*
X173497857Y-104909880D01*
X173497857Y-103909880D01*
X174116904Y-104909880D02*
X174021666Y-104862261D01*
X173974047Y-104814642D01*
X173926428Y-104719404D01*
X173926428Y-104433690D01*
X173974047Y-104338452D01*
X174021666Y-104290833D01*
X174116904Y-104243214D01*
X174259761Y-104243214D01*
X174355000Y-104290833D01*
X174402619Y-104338452D01*
X174450238Y-104433690D01*
X174450238Y-104719404D01*
X174402619Y-104814642D01*
X174355000Y-104862261D01*
X174259761Y-104909880D01*
X174116904Y-104909880D01*
X175355000Y-104909880D02*
X174878809Y-104909880D01*
X174878809Y-103909880D01*
X175688333Y-104386071D02*
X176021666Y-104386071D01*
X176164523Y-104909880D02*
X175688333Y-104909880D01*
X175688333Y-103909880D01*
X176164523Y-103909880D01*
X176593095Y-104909880D02*
X176593095Y-103909880D01*
X176831190Y-103909880D01*
X176974047Y-103957500D01*
X177069285Y-104052738D01*
X177116904Y-104147976D01*
X177164523Y-104338452D01*
X177164523Y-104481309D01*
X177116904Y-104671785D01*
X177069285Y-104767023D01*
X176974047Y-104862261D01*
X176831190Y-104909880D01*
X176593095Y-104909880D01*
X171593095Y-96972380D02*
X171593095Y-95972380D01*
X171926428Y-96686666D01*
X172259761Y-95972380D01*
X172259761Y-96972380D01*
X172640714Y-95972380D02*
X173307380Y-96972380D01*
X173307380Y-95972380D02*
X172640714Y-96972380D01*
X174212142Y-96972380D02*
X173640714Y-96972380D01*
X173926428Y-96972380D02*
X173926428Y-95972380D01*
X173831190Y-96115238D01*
X173735952Y-96210476D01*
X173640714Y-96258095D01*
X174783571Y-96400952D02*
X174688333Y-96353333D01*
X174640714Y-96305714D01*
X174593095Y-96210476D01*
X174593095Y-96162857D01*
X174640714Y-96067619D01*
X174688333Y-96020000D01*
X174783571Y-95972380D01*
X174974047Y-95972380D01*
X175069285Y-96020000D01*
X175116904Y-96067619D01*
X175164523Y-96162857D01*
X175164523Y-96210476D01*
X175116904Y-96305714D01*
X175069285Y-96353333D01*
X174974047Y-96400952D01*
X174783571Y-96400952D01*
X174688333Y-96448571D01*
X174640714Y-96496190D01*
X174593095Y-96591428D01*
X174593095Y-96781904D01*
X174640714Y-96877142D01*
X174688333Y-96924761D01*
X174783571Y-96972380D01*
X174974047Y-96972380D01*
X175069285Y-96924761D01*
X175116904Y-96877142D01*
X175164523Y-96781904D01*
X175164523Y-96591428D01*
X175116904Y-96496190D01*
X175069285Y-96448571D01*
X174974047Y-96400952D01*
X169593095Y-85859880D02*
X169593095Y-84859880D01*
X169926428Y-85574166D01*
X170259761Y-84859880D01*
X170259761Y-85859880D01*
X170640714Y-84859880D02*
X171307380Y-85859880D01*
X171307380Y-84859880D02*
X170640714Y-85859880D01*
X171688333Y-85478928D02*
X172450238Y-85478928D01*
X172926428Y-85859880D02*
X172926428Y-84859880D01*
X173497857Y-85859880D01*
X173497857Y-84859880D01*
X174116904Y-85859880D02*
X174021666Y-85812261D01*
X173974047Y-85764642D01*
X173926428Y-85669404D01*
X173926428Y-85383690D01*
X173974047Y-85288452D01*
X174021666Y-85240833D01*
X174116904Y-85193214D01*
X174259761Y-85193214D01*
X174355000Y-85240833D01*
X174402619Y-85288452D01*
X174450238Y-85383690D01*
X174450238Y-85669404D01*
X174402619Y-85764642D01*
X174355000Y-85812261D01*
X174259761Y-85859880D01*
X174116904Y-85859880D01*
X175355000Y-85859880D02*
X174878809Y-85859880D01*
X174878809Y-84859880D01*
X175688333Y-85336071D02*
X176021666Y-85336071D01*
X176164523Y-85859880D02*
X175688333Y-85859880D01*
X175688333Y-84859880D01*
X176164523Y-84859880D01*
X176593095Y-85859880D02*
X176593095Y-84859880D01*
X176831190Y-84859880D01*
X176974047Y-84907500D01*
X177069285Y-85002738D01*
X177116904Y-85097976D01*
X177164523Y-85288452D01*
X177164523Y-85431309D01*
X177116904Y-85621785D01*
X177069285Y-85717023D01*
X176974047Y-85812261D01*
X176831190Y-85859880D01*
X176593095Y-85859880D01*
X171593095Y-77922380D02*
X171593095Y-76922380D01*
X171926428Y-77636666D01*
X172259761Y-76922380D01*
X172259761Y-77922380D01*
X172640714Y-76922380D02*
X173307380Y-77922380D01*
X173307380Y-76922380D02*
X172640714Y-77922380D01*
X174212142Y-77922380D02*
X173640714Y-77922380D01*
X173926428Y-77922380D02*
X173926428Y-76922380D01*
X173831190Y-77065238D01*
X173735952Y-77160476D01*
X173640714Y-77208095D01*
X174545476Y-76922380D02*
X175212142Y-76922380D01*
X174783571Y-77922380D01*
X169593095Y-66809880D02*
X169593095Y-65809880D01*
X169926428Y-66524166D01*
X170259761Y-65809880D01*
X170259761Y-66809880D01*
X170640714Y-65809880D02*
X171307380Y-66809880D01*
X171307380Y-65809880D02*
X170640714Y-66809880D01*
X171688333Y-66428928D02*
X172450238Y-66428928D01*
X172926428Y-66809880D02*
X172926428Y-65809880D01*
X173497857Y-66809880D01*
X173497857Y-65809880D01*
X174116904Y-66809880D02*
X174021666Y-66762261D01*
X173974047Y-66714642D01*
X173926428Y-66619404D01*
X173926428Y-66333690D01*
X173974047Y-66238452D01*
X174021666Y-66190833D01*
X174116904Y-66143214D01*
X174259761Y-66143214D01*
X174355000Y-66190833D01*
X174402619Y-66238452D01*
X174450238Y-66333690D01*
X174450238Y-66619404D01*
X174402619Y-66714642D01*
X174355000Y-66762261D01*
X174259761Y-66809880D01*
X174116904Y-66809880D01*
X175355000Y-66809880D02*
X174878809Y-66809880D01*
X174878809Y-65809880D01*
X175688333Y-66286071D02*
X176021666Y-66286071D01*
X176164523Y-66809880D02*
X175688333Y-66809880D01*
X175688333Y-65809880D01*
X176164523Y-65809880D01*
X176593095Y-66809880D02*
X176593095Y-65809880D01*
X176831190Y-65809880D01*
X176974047Y-65857500D01*
X177069285Y-65952738D01*
X177116904Y-66047976D01*
X177164523Y-66238452D01*
X177164523Y-66381309D01*
X177116904Y-66571785D01*
X177069285Y-66667023D01*
X176974047Y-66762261D01*
X176831190Y-66809880D01*
X176593095Y-66809880D01*
X171593095Y-58872380D02*
X171593095Y-57872380D01*
X171926428Y-58586666D01*
X172259761Y-57872380D01*
X172259761Y-58872380D01*
X172640714Y-57872380D02*
X173307380Y-58872380D01*
X173307380Y-57872380D02*
X172640714Y-58872380D01*
X174212142Y-58872380D02*
X173640714Y-58872380D01*
X173926428Y-58872380D02*
X173926428Y-57872380D01*
X173831190Y-58015238D01*
X173735952Y-58110476D01*
X173640714Y-58158095D01*
X175069285Y-57872380D02*
X174878809Y-57872380D01*
X174783571Y-57920000D01*
X174735952Y-57967619D01*
X174640714Y-58110476D01*
X174593095Y-58300952D01*
X174593095Y-58681904D01*
X174640714Y-58777142D01*
X174688333Y-58824761D01*
X174783571Y-58872380D01*
X174974047Y-58872380D01*
X175069285Y-58824761D01*
X175116904Y-58777142D01*
X175164523Y-58681904D01*
X175164523Y-58443809D01*
X175116904Y-58348571D01*
X175069285Y-58300952D01*
X174974047Y-58253333D01*
X174783571Y-58253333D01*
X174688333Y-58300952D01*
X174640714Y-58348571D01*
X174593095Y-58443809D01*
X169593095Y-47759880D02*
X169593095Y-46759880D01*
X169926428Y-47474166D01*
X170259761Y-46759880D01*
X170259761Y-47759880D01*
X170640714Y-46759880D02*
X171307380Y-47759880D01*
X171307380Y-46759880D02*
X170640714Y-47759880D01*
X171688333Y-47378928D02*
X172450238Y-47378928D01*
X172926428Y-47759880D02*
X172926428Y-46759880D01*
X173497857Y-47759880D01*
X173497857Y-46759880D01*
X174116904Y-47759880D02*
X174021666Y-47712261D01*
X173974047Y-47664642D01*
X173926428Y-47569404D01*
X173926428Y-47283690D01*
X173974047Y-47188452D01*
X174021666Y-47140833D01*
X174116904Y-47093214D01*
X174259761Y-47093214D01*
X174355000Y-47140833D01*
X174402619Y-47188452D01*
X174450238Y-47283690D01*
X174450238Y-47569404D01*
X174402619Y-47664642D01*
X174355000Y-47712261D01*
X174259761Y-47759880D01*
X174116904Y-47759880D01*
X175355000Y-47759880D02*
X174878809Y-47759880D01*
X174878809Y-46759880D01*
X175688333Y-47236071D02*
X176021666Y-47236071D01*
X176164523Y-47759880D02*
X175688333Y-47759880D01*
X175688333Y-46759880D01*
X176164523Y-46759880D01*
X176593095Y-47759880D02*
X176593095Y-46759880D01*
X176831190Y-46759880D01*
X176974047Y-46807500D01*
X177069285Y-46902738D01*
X177116904Y-46997976D01*
X177164523Y-47188452D01*
X177164523Y-47331309D01*
X177116904Y-47521785D01*
X177069285Y-47617023D01*
X176974047Y-47712261D01*
X176831190Y-47759880D01*
X176593095Y-47759880D01*
X152543095Y-135072380D02*
X152543095Y-134072380D01*
X152876428Y-134786666D01*
X153209761Y-134072380D01*
X153209761Y-135072380D01*
X153590714Y-134072380D02*
X154257380Y-135072380D01*
X154257380Y-134072380D02*
X153590714Y-135072380D01*
X155162142Y-135072380D02*
X154590714Y-135072380D01*
X154876428Y-135072380D02*
X154876428Y-134072380D01*
X154781190Y-134215238D01*
X154685952Y-134310476D01*
X154590714Y-134358095D01*
X156066904Y-134072380D02*
X155590714Y-134072380D01*
X155543095Y-134548571D01*
X155590714Y-134500952D01*
X155685952Y-134453333D01*
X155924047Y-134453333D01*
X156019285Y-134500952D01*
X156066904Y-134548571D01*
X156114523Y-134643809D01*
X156114523Y-134881904D01*
X156066904Y-134977142D01*
X156019285Y-135024761D01*
X155924047Y-135072380D01*
X155685952Y-135072380D01*
X155590714Y-135024761D01*
X155543095Y-134977142D01*
X150543095Y-123959880D02*
X150543095Y-122959880D01*
X150876428Y-123674166D01*
X151209761Y-122959880D01*
X151209761Y-123959880D01*
X151590714Y-122959880D02*
X152257380Y-123959880D01*
X152257380Y-122959880D02*
X151590714Y-123959880D01*
X152638333Y-123578928D02*
X153400238Y-123578928D01*
X153876428Y-123959880D02*
X153876428Y-122959880D01*
X154447857Y-123959880D01*
X154447857Y-122959880D01*
X155066904Y-123959880D02*
X154971666Y-123912261D01*
X154924047Y-123864642D01*
X154876428Y-123769404D01*
X154876428Y-123483690D01*
X154924047Y-123388452D01*
X154971666Y-123340833D01*
X155066904Y-123293214D01*
X155209761Y-123293214D01*
X155305000Y-123340833D01*
X155352619Y-123388452D01*
X155400238Y-123483690D01*
X155400238Y-123769404D01*
X155352619Y-123864642D01*
X155305000Y-123912261D01*
X155209761Y-123959880D01*
X155066904Y-123959880D01*
X156305000Y-123959880D02*
X155828809Y-123959880D01*
X155828809Y-122959880D01*
X156638333Y-123436071D02*
X156971666Y-123436071D01*
X157114523Y-123959880D02*
X156638333Y-123959880D01*
X156638333Y-122959880D01*
X157114523Y-122959880D01*
X157543095Y-123959880D02*
X157543095Y-122959880D01*
X157781190Y-122959880D01*
X157924047Y-123007500D01*
X158019285Y-123102738D01*
X158066904Y-123197976D01*
X158114523Y-123388452D01*
X158114523Y-123531309D01*
X158066904Y-123721785D01*
X158019285Y-123817023D01*
X157924047Y-123912261D01*
X157781190Y-123959880D01*
X157543095Y-123959880D01*
X152543095Y-116022380D02*
X152543095Y-115022380D01*
X152876428Y-115736666D01*
X153209761Y-115022380D01*
X153209761Y-116022380D01*
X153590714Y-115022380D02*
X154257380Y-116022380D01*
X154257380Y-115022380D02*
X153590714Y-116022380D01*
X155162142Y-116022380D02*
X154590714Y-116022380D01*
X154876428Y-116022380D02*
X154876428Y-115022380D01*
X154781190Y-115165238D01*
X154685952Y-115260476D01*
X154590714Y-115308095D01*
X156019285Y-115355714D02*
X156019285Y-116022380D01*
X155781190Y-114974761D02*
X155543095Y-115689047D01*
X156162142Y-115689047D01*
X150543095Y-104909880D02*
X150543095Y-103909880D01*
X150876428Y-104624166D01*
X151209761Y-103909880D01*
X151209761Y-104909880D01*
X151590714Y-103909880D02*
X152257380Y-104909880D01*
X152257380Y-103909880D02*
X151590714Y-104909880D01*
X152638333Y-104528928D02*
X153400238Y-104528928D01*
X153876428Y-104909880D02*
X153876428Y-103909880D01*
X154447857Y-104909880D01*
X154447857Y-103909880D01*
X155066904Y-104909880D02*
X154971666Y-104862261D01*
X154924047Y-104814642D01*
X154876428Y-104719404D01*
X154876428Y-104433690D01*
X154924047Y-104338452D01*
X154971666Y-104290833D01*
X155066904Y-104243214D01*
X155209761Y-104243214D01*
X155305000Y-104290833D01*
X155352619Y-104338452D01*
X155400238Y-104433690D01*
X155400238Y-104719404D01*
X155352619Y-104814642D01*
X155305000Y-104862261D01*
X155209761Y-104909880D01*
X155066904Y-104909880D01*
X156305000Y-104909880D02*
X155828809Y-104909880D01*
X155828809Y-103909880D01*
X156638333Y-104386071D02*
X156971666Y-104386071D01*
X157114523Y-104909880D02*
X156638333Y-104909880D01*
X156638333Y-103909880D01*
X157114523Y-103909880D01*
X157543095Y-104909880D02*
X157543095Y-103909880D01*
X157781190Y-103909880D01*
X157924047Y-103957500D01*
X158019285Y-104052738D01*
X158066904Y-104147976D01*
X158114523Y-104338452D01*
X158114523Y-104481309D01*
X158066904Y-104671785D01*
X158019285Y-104767023D01*
X157924047Y-104862261D01*
X157781190Y-104909880D01*
X157543095Y-104909880D01*
X152543095Y-96972380D02*
X152543095Y-95972380D01*
X152876428Y-96686666D01*
X153209761Y-95972380D01*
X153209761Y-96972380D01*
X153590714Y-95972380D02*
X154257380Y-96972380D01*
X154257380Y-95972380D02*
X153590714Y-96972380D01*
X155162142Y-96972380D02*
X154590714Y-96972380D01*
X154876428Y-96972380D02*
X154876428Y-95972380D01*
X154781190Y-96115238D01*
X154685952Y-96210476D01*
X154590714Y-96258095D01*
X155495476Y-95972380D02*
X156114523Y-95972380D01*
X155781190Y-96353333D01*
X155924047Y-96353333D01*
X156019285Y-96400952D01*
X156066904Y-96448571D01*
X156114523Y-96543809D01*
X156114523Y-96781904D01*
X156066904Y-96877142D01*
X156019285Y-96924761D01*
X155924047Y-96972380D01*
X155638333Y-96972380D01*
X155543095Y-96924761D01*
X155495476Y-96877142D01*
X150543095Y-85859880D02*
X150543095Y-84859880D01*
X150876428Y-85574166D01*
X151209761Y-84859880D01*
X151209761Y-85859880D01*
X151590714Y-84859880D02*
X152257380Y-85859880D01*
X152257380Y-84859880D02*
X151590714Y-85859880D01*
X152638333Y-85478928D02*
X153400238Y-85478928D01*
X153876428Y-85859880D02*
X153876428Y-84859880D01*
X154447857Y-85859880D01*
X154447857Y-84859880D01*
X155066904Y-85859880D02*
X154971666Y-85812261D01*
X154924047Y-85764642D01*
X154876428Y-85669404D01*
X154876428Y-85383690D01*
X154924047Y-85288452D01*
X154971666Y-85240833D01*
X155066904Y-85193214D01*
X155209761Y-85193214D01*
X155305000Y-85240833D01*
X155352619Y-85288452D01*
X155400238Y-85383690D01*
X155400238Y-85669404D01*
X155352619Y-85764642D01*
X155305000Y-85812261D01*
X155209761Y-85859880D01*
X155066904Y-85859880D01*
X156305000Y-85859880D02*
X155828809Y-85859880D01*
X155828809Y-84859880D01*
X156638333Y-85336071D02*
X156971666Y-85336071D01*
X157114523Y-85859880D02*
X156638333Y-85859880D01*
X156638333Y-84859880D01*
X157114523Y-84859880D01*
X157543095Y-85859880D02*
X157543095Y-84859880D01*
X157781190Y-84859880D01*
X157924047Y-84907500D01*
X158019285Y-85002738D01*
X158066904Y-85097976D01*
X158114523Y-85288452D01*
X158114523Y-85431309D01*
X158066904Y-85621785D01*
X158019285Y-85717023D01*
X157924047Y-85812261D01*
X157781190Y-85859880D01*
X157543095Y-85859880D01*
X152543095Y-77922380D02*
X152543095Y-76922380D01*
X152876428Y-77636666D01*
X153209761Y-76922380D01*
X153209761Y-77922380D01*
X153590714Y-76922380D02*
X154257380Y-77922380D01*
X154257380Y-76922380D02*
X153590714Y-77922380D01*
X155162142Y-77922380D02*
X154590714Y-77922380D01*
X154876428Y-77922380D02*
X154876428Y-76922380D01*
X154781190Y-77065238D01*
X154685952Y-77160476D01*
X154590714Y-77208095D01*
X155543095Y-77017619D02*
X155590714Y-76970000D01*
X155685952Y-76922380D01*
X155924047Y-76922380D01*
X156019285Y-76970000D01*
X156066904Y-77017619D01*
X156114523Y-77112857D01*
X156114523Y-77208095D01*
X156066904Y-77350952D01*
X155495476Y-77922380D01*
X156114523Y-77922380D01*
X150543095Y-66809880D02*
X150543095Y-65809880D01*
X150876428Y-66524166D01*
X151209761Y-65809880D01*
X151209761Y-66809880D01*
X151590714Y-65809880D02*
X152257380Y-66809880D01*
X152257380Y-65809880D02*
X151590714Y-66809880D01*
X152638333Y-66428928D02*
X153400238Y-66428928D01*
X153876428Y-66809880D02*
X153876428Y-65809880D01*
X154447857Y-66809880D01*
X154447857Y-65809880D01*
X155066904Y-66809880D02*
X154971666Y-66762261D01*
X154924047Y-66714642D01*
X154876428Y-66619404D01*
X154876428Y-66333690D01*
X154924047Y-66238452D01*
X154971666Y-66190833D01*
X155066904Y-66143214D01*
X155209761Y-66143214D01*
X155305000Y-66190833D01*
X155352619Y-66238452D01*
X155400238Y-66333690D01*
X155400238Y-66619404D01*
X155352619Y-66714642D01*
X155305000Y-66762261D01*
X155209761Y-66809880D01*
X155066904Y-66809880D01*
X156305000Y-66809880D02*
X155828809Y-66809880D01*
X155828809Y-65809880D01*
X156638333Y-66286071D02*
X156971666Y-66286071D01*
X157114523Y-66809880D02*
X156638333Y-66809880D01*
X156638333Y-65809880D01*
X157114523Y-65809880D01*
X157543095Y-66809880D02*
X157543095Y-65809880D01*
X157781190Y-65809880D01*
X157924047Y-65857500D01*
X158019285Y-65952738D01*
X158066904Y-66047976D01*
X158114523Y-66238452D01*
X158114523Y-66381309D01*
X158066904Y-66571785D01*
X158019285Y-66667023D01*
X157924047Y-66762261D01*
X157781190Y-66809880D01*
X157543095Y-66809880D01*
X152543095Y-58872380D02*
X152543095Y-57872380D01*
X152876428Y-58586666D01*
X153209761Y-57872380D01*
X153209761Y-58872380D01*
X153590714Y-57872380D02*
X154257380Y-58872380D01*
X154257380Y-57872380D02*
X153590714Y-58872380D01*
X155162142Y-58872380D02*
X154590714Y-58872380D01*
X154876428Y-58872380D02*
X154876428Y-57872380D01*
X154781190Y-58015238D01*
X154685952Y-58110476D01*
X154590714Y-58158095D01*
X156114523Y-58872380D02*
X155543095Y-58872380D01*
X155828809Y-58872380D02*
X155828809Y-57872380D01*
X155733571Y-58015238D01*
X155638333Y-58110476D01*
X155543095Y-58158095D01*
X150543095Y-47759880D02*
X150543095Y-46759880D01*
X150876428Y-47474166D01*
X151209761Y-46759880D01*
X151209761Y-47759880D01*
X151590714Y-46759880D02*
X152257380Y-47759880D01*
X152257380Y-46759880D02*
X151590714Y-47759880D01*
X152638333Y-47378928D02*
X153400238Y-47378928D01*
X153876428Y-47759880D02*
X153876428Y-46759880D01*
X154447857Y-47759880D01*
X154447857Y-46759880D01*
X155066904Y-47759880D02*
X154971666Y-47712261D01*
X154924047Y-47664642D01*
X154876428Y-47569404D01*
X154876428Y-47283690D01*
X154924047Y-47188452D01*
X154971666Y-47140833D01*
X155066904Y-47093214D01*
X155209761Y-47093214D01*
X155305000Y-47140833D01*
X155352619Y-47188452D01*
X155400238Y-47283690D01*
X155400238Y-47569404D01*
X155352619Y-47664642D01*
X155305000Y-47712261D01*
X155209761Y-47759880D01*
X155066904Y-47759880D01*
X156305000Y-47759880D02*
X155828809Y-47759880D01*
X155828809Y-46759880D01*
X156638333Y-47236071D02*
X156971666Y-47236071D01*
X157114523Y-47759880D02*
X156638333Y-47759880D01*
X156638333Y-46759880D01*
X157114523Y-46759880D01*
X157543095Y-47759880D02*
X157543095Y-46759880D01*
X157781190Y-46759880D01*
X157924047Y-46807500D01*
X158019285Y-46902738D01*
X158066904Y-46997976D01*
X158114523Y-47188452D01*
X158114523Y-47331309D01*
X158066904Y-47521785D01*
X158019285Y-47617023D01*
X157924047Y-47712261D01*
X157781190Y-47759880D01*
X157543095Y-47759880D01*
X133493095Y-135072380D02*
X133493095Y-134072380D01*
X133826428Y-134786666D01*
X134159761Y-134072380D01*
X134159761Y-135072380D01*
X134540714Y-134072380D02*
X135207380Y-135072380D01*
X135207380Y-134072380D02*
X134540714Y-135072380D01*
X136112142Y-135072380D02*
X135540714Y-135072380D01*
X135826428Y-135072380D02*
X135826428Y-134072380D01*
X135731190Y-134215238D01*
X135635952Y-134310476D01*
X135540714Y-134358095D01*
X136731190Y-134072380D02*
X136826428Y-134072380D01*
X136921666Y-134120000D01*
X136969285Y-134167619D01*
X137016904Y-134262857D01*
X137064523Y-134453333D01*
X137064523Y-134691428D01*
X137016904Y-134881904D01*
X136969285Y-134977142D01*
X136921666Y-135024761D01*
X136826428Y-135072380D01*
X136731190Y-135072380D01*
X136635952Y-135024761D01*
X136588333Y-134977142D01*
X136540714Y-134881904D01*
X136493095Y-134691428D01*
X136493095Y-134453333D01*
X136540714Y-134262857D01*
X136588333Y-134167619D01*
X136635952Y-134120000D01*
X136731190Y-134072380D01*
X131493095Y-123959880D02*
X131493095Y-122959880D01*
X131826428Y-123674166D01*
X132159761Y-122959880D01*
X132159761Y-123959880D01*
X132540714Y-122959880D02*
X133207380Y-123959880D01*
X133207380Y-122959880D02*
X132540714Y-123959880D01*
X133588333Y-123578928D02*
X134350238Y-123578928D01*
X134826428Y-123959880D02*
X134826428Y-122959880D01*
X135397857Y-123959880D01*
X135397857Y-122959880D01*
X136016904Y-123959880D02*
X135921666Y-123912261D01*
X135874047Y-123864642D01*
X135826428Y-123769404D01*
X135826428Y-123483690D01*
X135874047Y-123388452D01*
X135921666Y-123340833D01*
X136016904Y-123293214D01*
X136159761Y-123293214D01*
X136255000Y-123340833D01*
X136302619Y-123388452D01*
X136350238Y-123483690D01*
X136350238Y-123769404D01*
X136302619Y-123864642D01*
X136255000Y-123912261D01*
X136159761Y-123959880D01*
X136016904Y-123959880D01*
X137255000Y-123959880D02*
X136778809Y-123959880D01*
X136778809Y-122959880D01*
X137588333Y-123436071D02*
X137921666Y-123436071D01*
X138064523Y-123959880D02*
X137588333Y-123959880D01*
X137588333Y-122959880D01*
X138064523Y-122959880D01*
X138493095Y-123959880D02*
X138493095Y-122959880D01*
X138731190Y-122959880D01*
X138874047Y-123007500D01*
X138969285Y-123102738D01*
X139016904Y-123197976D01*
X139064523Y-123388452D01*
X139064523Y-123531309D01*
X139016904Y-123721785D01*
X138969285Y-123817023D01*
X138874047Y-123912261D01*
X138731190Y-123959880D01*
X138493095Y-123959880D01*
X133969285Y-116022380D02*
X133969285Y-115022380D01*
X134302619Y-115736666D01*
X134635952Y-115022380D01*
X134635952Y-116022380D01*
X135016904Y-115022380D02*
X135683571Y-116022380D01*
X135683571Y-115022380D02*
X135016904Y-116022380D01*
X136112142Y-116022380D02*
X136302619Y-116022380D01*
X136397857Y-115974761D01*
X136445476Y-115927142D01*
X136540714Y-115784285D01*
X136588333Y-115593809D01*
X136588333Y-115212857D01*
X136540714Y-115117619D01*
X136493095Y-115070000D01*
X136397857Y-115022380D01*
X136207380Y-115022380D01*
X136112142Y-115070000D01*
X136064523Y-115117619D01*
X136016904Y-115212857D01*
X136016904Y-115450952D01*
X136064523Y-115546190D01*
X136112142Y-115593809D01*
X136207380Y-115641428D01*
X136397857Y-115641428D01*
X136493095Y-115593809D01*
X136540714Y-115546190D01*
X136588333Y-115450952D01*
X131493095Y-104909880D02*
X131493095Y-103909880D01*
X131826428Y-104624166D01*
X132159761Y-103909880D01*
X132159761Y-104909880D01*
X132540714Y-103909880D02*
X133207380Y-104909880D01*
X133207380Y-103909880D02*
X132540714Y-104909880D01*
X133588333Y-104528928D02*
X134350238Y-104528928D01*
X134826428Y-104909880D02*
X134826428Y-103909880D01*
X135397857Y-104909880D01*
X135397857Y-103909880D01*
X136016904Y-104909880D02*
X135921666Y-104862261D01*
X135874047Y-104814642D01*
X135826428Y-104719404D01*
X135826428Y-104433690D01*
X135874047Y-104338452D01*
X135921666Y-104290833D01*
X136016904Y-104243214D01*
X136159761Y-104243214D01*
X136255000Y-104290833D01*
X136302619Y-104338452D01*
X136350238Y-104433690D01*
X136350238Y-104719404D01*
X136302619Y-104814642D01*
X136255000Y-104862261D01*
X136159761Y-104909880D01*
X136016904Y-104909880D01*
X137255000Y-104909880D02*
X136778809Y-104909880D01*
X136778809Y-103909880D01*
X137588333Y-104386071D02*
X137921666Y-104386071D01*
X138064523Y-104909880D02*
X137588333Y-104909880D01*
X137588333Y-103909880D01*
X138064523Y-103909880D01*
X138493095Y-104909880D02*
X138493095Y-103909880D01*
X138731190Y-103909880D01*
X138874047Y-103957500D01*
X138969285Y-104052738D01*
X139016904Y-104147976D01*
X139064523Y-104338452D01*
X139064523Y-104481309D01*
X139016904Y-104671785D01*
X138969285Y-104767023D01*
X138874047Y-104862261D01*
X138731190Y-104909880D01*
X138493095Y-104909880D01*
X133969285Y-96972380D02*
X133969285Y-95972380D01*
X134302619Y-96686666D01*
X134635952Y-95972380D01*
X134635952Y-96972380D01*
X135016904Y-95972380D02*
X135683571Y-96972380D01*
X135683571Y-95972380D02*
X135016904Y-96972380D01*
X136207380Y-96400952D02*
X136112142Y-96353333D01*
X136064523Y-96305714D01*
X136016904Y-96210476D01*
X136016904Y-96162857D01*
X136064523Y-96067619D01*
X136112142Y-96020000D01*
X136207380Y-95972380D01*
X136397857Y-95972380D01*
X136493095Y-96020000D01*
X136540714Y-96067619D01*
X136588333Y-96162857D01*
X136588333Y-96210476D01*
X136540714Y-96305714D01*
X136493095Y-96353333D01*
X136397857Y-96400952D01*
X136207380Y-96400952D01*
X136112142Y-96448571D01*
X136064523Y-96496190D01*
X136016904Y-96591428D01*
X136016904Y-96781904D01*
X136064523Y-96877142D01*
X136112142Y-96924761D01*
X136207380Y-96972380D01*
X136397857Y-96972380D01*
X136493095Y-96924761D01*
X136540714Y-96877142D01*
X136588333Y-96781904D01*
X136588333Y-96591428D01*
X136540714Y-96496190D01*
X136493095Y-96448571D01*
X136397857Y-96400952D01*
X131493095Y-85859880D02*
X131493095Y-84859880D01*
X131826428Y-85574166D01*
X132159761Y-84859880D01*
X132159761Y-85859880D01*
X132540714Y-84859880D02*
X133207380Y-85859880D01*
X133207380Y-84859880D02*
X132540714Y-85859880D01*
X133588333Y-85478928D02*
X134350238Y-85478928D01*
X134826428Y-85859880D02*
X134826428Y-84859880D01*
X135397857Y-85859880D01*
X135397857Y-84859880D01*
X136016904Y-85859880D02*
X135921666Y-85812261D01*
X135874047Y-85764642D01*
X135826428Y-85669404D01*
X135826428Y-85383690D01*
X135874047Y-85288452D01*
X135921666Y-85240833D01*
X136016904Y-85193214D01*
X136159761Y-85193214D01*
X136255000Y-85240833D01*
X136302619Y-85288452D01*
X136350238Y-85383690D01*
X136350238Y-85669404D01*
X136302619Y-85764642D01*
X136255000Y-85812261D01*
X136159761Y-85859880D01*
X136016904Y-85859880D01*
X137255000Y-85859880D02*
X136778809Y-85859880D01*
X136778809Y-84859880D01*
X137588333Y-85336071D02*
X137921666Y-85336071D01*
X138064523Y-85859880D02*
X137588333Y-85859880D01*
X137588333Y-84859880D01*
X138064523Y-84859880D01*
X138493095Y-85859880D02*
X138493095Y-84859880D01*
X138731190Y-84859880D01*
X138874047Y-84907500D01*
X138969285Y-85002738D01*
X139016904Y-85097976D01*
X139064523Y-85288452D01*
X139064523Y-85431309D01*
X139016904Y-85621785D01*
X138969285Y-85717023D01*
X138874047Y-85812261D01*
X138731190Y-85859880D01*
X138493095Y-85859880D01*
X133969285Y-77922380D02*
X133969285Y-76922380D01*
X134302619Y-77636666D01*
X134635952Y-76922380D01*
X134635952Y-77922380D01*
X135016904Y-76922380D02*
X135683571Y-77922380D01*
X135683571Y-76922380D02*
X135016904Y-77922380D01*
X135969285Y-76922380D02*
X136635952Y-76922380D01*
X136207380Y-77922380D01*
X131493095Y-66809880D02*
X131493095Y-65809880D01*
X131826428Y-66524166D01*
X132159761Y-65809880D01*
X132159761Y-66809880D01*
X132540714Y-65809880D02*
X133207380Y-66809880D01*
X133207380Y-65809880D02*
X132540714Y-66809880D01*
X133588333Y-66428928D02*
X134350238Y-66428928D01*
X134826428Y-66809880D02*
X134826428Y-65809880D01*
X135397857Y-66809880D01*
X135397857Y-65809880D01*
X136016904Y-66809880D02*
X135921666Y-66762261D01*
X135874047Y-66714642D01*
X135826428Y-66619404D01*
X135826428Y-66333690D01*
X135874047Y-66238452D01*
X135921666Y-66190833D01*
X136016904Y-66143214D01*
X136159761Y-66143214D01*
X136255000Y-66190833D01*
X136302619Y-66238452D01*
X136350238Y-66333690D01*
X136350238Y-66619404D01*
X136302619Y-66714642D01*
X136255000Y-66762261D01*
X136159761Y-66809880D01*
X136016904Y-66809880D01*
X137255000Y-66809880D02*
X136778809Y-66809880D01*
X136778809Y-65809880D01*
X137588333Y-66286071D02*
X137921666Y-66286071D01*
X138064523Y-66809880D02*
X137588333Y-66809880D01*
X137588333Y-65809880D01*
X138064523Y-65809880D01*
X138493095Y-66809880D02*
X138493095Y-65809880D01*
X138731190Y-65809880D01*
X138874047Y-65857500D01*
X138969285Y-65952738D01*
X139016904Y-66047976D01*
X139064523Y-66238452D01*
X139064523Y-66381309D01*
X139016904Y-66571785D01*
X138969285Y-66667023D01*
X138874047Y-66762261D01*
X138731190Y-66809880D01*
X138493095Y-66809880D01*
X133969285Y-58872380D02*
X133969285Y-57872380D01*
X134302619Y-58586666D01*
X134635952Y-57872380D01*
X134635952Y-58872380D01*
X135016904Y-57872380D02*
X135683571Y-58872380D01*
X135683571Y-57872380D02*
X135016904Y-58872380D01*
X136493095Y-57872380D02*
X136302619Y-57872380D01*
X136207380Y-57920000D01*
X136159761Y-57967619D01*
X136064523Y-58110476D01*
X136016904Y-58300952D01*
X136016904Y-58681904D01*
X136064523Y-58777142D01*
X136112142Y-58824761D01*
X136207380Y-58872380D01*
X136397857Y-58872380D01*
X136493095Y-58824761D01*
X136540714Y-58777142D01*
X136588333Y-58681904D01*
X136588333Y-58443809D01*
X136540714Y-58348571D01*
X136493095Y-58300952D01*
X136397857Y-58253333D01*
X136207380Y-58253333D01*
X136112142Y-58300952D01*
X136064523Y-58348571D01*
X136016904Y-58443809D01*
X131493095Y-47759880D02*
X131493095Y-46759880D01*
X131826428Y-47474166D01*
X132159761Y-46759880D01*
X132159761Y-47759880D01*
X132540714Y-46759880D02*
X133207380Y-47759880D01*
X133207380Y-46759880D02*
X132540714Y-47759880D01*
X133588333Y-47378928D02*
X134350238Y-47378928D01*
X134826428Y-47759880D02*
X134826428Y-46759880D01*
X135397857Y-47759880D01*
X135397857Y-46759880D01*
X136016904Y-47759880D02*
X135921666Y-47712261D01*
X135874047Y-47664642D01*
X135826428Y-47569404D01*
X135826428Y-47283690D01*
X135874047Y-47188452D01*
X135921666Y-47140833D01*
X136016904Y-47093214D01*
X136159761Y-47093214D01*
X136255000Y-47140833D01*
X136302619Y-47188452D01*
X136350238Y-47283690D01*
X136350238Y-47569404D01*
X136302619Y-47664642D01*
X136255000Y-47712261D01*
X136159761Y-47759880D01*
X136016904Y-47759880D01*
X137255000Y-47759880D02*
X136778809Y-47759880D01*
X136778809Y-46759880D01*
X137588333Y-47236071D02*
X137921666Y-47236071D01*
X138064523Y-47759880D02*
X137588333Y-47759880D01*
X137588333Y-46759880D01*
X138064523Y-46759880D01*
X138493095Y-47759880D02*
X138493095Y-46759880D01*
X138731190Y-46759880D01*
X138874047Y-46807500D01*
X138969285Y-46902738D01*
X139016904Y-46997976D01*
X139064523Y-47188452D01*
X139064523Y-47331309D01*
X139016904Y-47521785D01*
X138969285Y-47617023D01*
X138874047Y-47712261D01*
X138731190Y-47759880D01*
X138493095Y-47759880D01*
X114919285Y-135072380D02*
X114919285Y-134072380D01*
X115252619Y-134786666D01*
X115585952Y-134072380D01*
X115585952Y-135072380D01*
X115966904Y-134072380D02*
X116633571Y-135072380D01*
X116633571Y-134072380D02*
X115966904Y-135072380D01*
X117490714Y-134072380D02*
X117014523Y-134072380D01*
X116966904Y-134548571D01*
X117014523Y-134500952D01*
X117109761Y-134453333D01*
X117347857Y-134453333D01*
X117443095Y-134500952D01*
X117490714Y-134548571D01*
X117538333Y-134643809D01*
X117538333Y-134881904D01*
X117490714Y-134977142D01*
X117443095Y-135024761D01*
X117347857Y-135072380D01*
X117109761Y-135072380D01*
X117014523Y-135024761D01*
X116966904Y-134977142D01*
X112443095Y-123959880D02*
X112443095Y-122959880D01*
X112776428Y-123674166D01*
X113109761Y-122959880D01*
X113109761Y-123959880D01*
X113490714Y-122959880D02*
X114157380Y-123959880D01*
X114157380Y-122959880D02*
X113490714Y-123959880D01*
X114538333Y-123578928D02*
X115300238Y-123578928D01*
X115776428Y-123959880D02*
X115776428Y-122959880D01*
X116347857Y-123959880D01*
X116347857Y-122959880D01*
X116966904Y-123959880D02*
X116871666Y-123912261D01*
X116824047Y-123864642D01*
X116776428Y-123769404D01*
X116776428Y-123483690D01*
X116824047Y-123388452D01*
X116871666Y-123340833D01*
X116966904Y-123293214D01*
X117109761Y-123293214D01*
X117205000Y-123340833D01*
X117252619Y-123388452D01*
X117300238Y-123483690D01*
X117300238Y-123769404D01*
X117252619Y-123864642D01*
X117205000Y-123912261D01*
X117109761Y-123959880D01*
X116966904Y-123959880D01*
X118205000Y-123959880D02*
X117728809Y-123959880D01*
X117728809Y-122959880D01*
X118538333Y-123436071D02*
X118871666Y-123436071D01*
X119014523Y-123959880D02*
X118538333Y-123959880D01*
X118538333Y-122959880D01*
X119014523Y-122959880D01*
X119443095Y-123959880D02*
X119443095Y-122959880D01*
X119681190Y-122959880D01*
X119824047Y-123007500D01*
X119919285Y-123102738D01*
X119966904Y-123197976D01*
X120014523Y-123388452D01*
X120014523Y-123531309D01*
X119966904Y-123721785D01*
X119919285Y-123817023D01*
X119824047Y-123912261D01*
X119681190Y-123959880D01*
X119443095Y-123959880D01*
X114919285Y-96972380D02*
X114919285Y-95972380D01*
X115252619Y-96686666D01*
X115585952Y-95972380D01*
X115585952Y-96972380D01*
X115966904Y-95972380D02*
X116633571Y-96972380D01*
X116633571Y-95972380D02*
X115966904Y-96972380D01*
X116919285Y-95972380D02*
X117538333Y-95972380D01*
X117205000Y-96353333D01*
X117347857Y-96353333D01*
X117443095Y-96400952D01*
X117490714Y-96448571D01*
X117538333Y-96543809D01*
X117538333Y-96781904D01*
X117490714Y-96877142D01*
X117443095Y-96924761D01*
X117347857Y-96972380D01*
X117062142Y-96972380D01*
X116966904Y-96924761D01*
X116919285Y-96877142D01*
X112443095Y-85859880D02*
X112443095Y-84859880D01*
X112776428Y-85574166D01*
X113109761Y-84859880D01*
X113109761Y-85859880D01*
X113490714Y-84859880D02*
X114157380Y-85859880D01*
X114157380Y-84859880D02*
X113490714Y-85859880D01*
X114538333Y-85478928D02*
X115300238Y-85478928D01*
X115776428Y-85859880D02*
X115776428Y-84859880D01*
X116347857Y-85859880D01*
X116347857Y-84859880D01*
X116966904Y-85859880D02*
X116871666Y-85812261D01*
X116824047Y-85764642D01*
X116776428Y-85669404D01*
X116776428Y-85383690D01*
X116824047Y-85288452D01*
X116871666Y-85240833D01*
X116966904Y-85193214D01*
X117109761Y-85193214D01*
X117205000Y-85240833D01*
X117252619Y-85288452D01*
X117300238Y-85383690D01*
X117300238Y-85669404D01*
X117252619Y-85764642D01*
X117205000Y-85812261D01*
X117109761Y-85859880D01*
X116966904Y-85859880D01*
X118205000Y-85859880D02*
X117728809Y-85859880D01*
X117728809Y-84859880D01*
X118538333Y-85336071D02*
X118871666Y-85336071D01*
X119014523Y-85859880D02*
X118538333Y-85859880D01*
X118538333Y-84859880D01*
X119014523Y-84859880D01*
X119443095Y-85859880D02*
X119443095Y-84859880D01*
X119681190Y-84859880D01*
X119824047Y-84907500D01*
X119919285Y-85002738D01*
X119966904Y-85097976D01*
X120014523Y-85288452D01*
X120014523Y-85431309D01*
X119966904Y-85621785D01*
X119919285Y-85717023D01*
X119824047Y-85812261D01*
X119681190Y-85859880D01*
X119443095Y-85859880D01*
X114919285Y-77922380D02*
X114919285Y-76922380D01*
X115252619Y-77636666D01*
X115585952Y-76922380D01*
X115585952Y-77922380D01*
X115966904Y-76922380D02*
X116633571Y-77922380D01*
X116633571Y-76922380D02*
X115966904Y-77922380D01*
X116966904Y-77017619D02*
X117014523Y-76970000D01*
X117109761Y-76922380D01*
X117347857Y-76922380D01*
X117443095Y-76970000D01*
X117490714Y-77017619D01*
X117538333Y-77112857D01*
X117538333Y-77208095D01*
X117490714Y-77350952D01*
X116919285Y-77922380D01*
X117538333Y-77922380D01*
X112443095Y-66809880D02*
X112443095Y-65809880D01*
X112776428Y-66524166D01*
X113109761Y-65809880D01*
X113109761Y-66809880D01*
X113490714Y-65809880D02*
X114157380Y-66809880D01*
X114157380Y-65809880D02*
X113490714Y-66809880D01*
X114538333Y-66428928D02*
X115300238Y-66428928D01*
X115776428Y-66809880D02*
X115776428Y-65809880D01*
X116347857Y-66809880D01*
X116347857Y-65809880D01*
X116966904Y-66809880D02*
X116871666Y-66762261D01*
X116824047Y-66714642D01*
X116776428Y-66619404D01*
X116776428Y-66333690D01*
X116824047Y-66238452D01*
X116871666Y-66190833D01*
X116966904Y-66143214D01*
X117109761Y-66143214D01*
X117205000Y-66190833D01*
X117252619Y-66238452D01*
X117300238Y-66333690D01*
X117300238Y-66619404D01*
X117252619Y-66714642D01*
X117205000Y-66762261D01*
X117109761Y-66809880D01*
X116966904Y-66809880D01*
X118205000Y-66809880D02*
X117728809Y-66809880D01*
X117728809Y-65809880D01*
X118538333Y-66286071D02*
X118871666Y-66286071D01*
X119014523Y-66809880D02*
X118538333Y-66809880D01*
X118538333Y-65809880D01*
X119014523Y-65809880D01*
X119443095Y-66809880D02*
X119443095Y-65809880D01*
X119681190Y-65809880D01*
X119824047Y-65857500D01*
X119919285Y-65952738D01*
X119966904Y-66047976D01*
X120014523Y-66238452D01*
X120014523Y-66381309D01*
X119966904Y-66571785D01*
X119919285Y-66667023D01*
X119824047Y-66762261D01*
X119681190Y-66809880D01*
X119443095Y-66809880D01*
M02*
